<?xml version="1.0" encoding="utf-8"?>
<!-- Generator: Adobe Illustrator 27.5.0, SVG Export Plug-In . SVG Version: 6.00 Build 0)  -->
<svg version="1.1" id="Layer_1" xmlns="http://www.w3.org/2000/svg" xmlns:xlink="http://www.w3.org/1999/xlink" x="0px" y="0px"
	 viewBox="0 0 2048 1024" style="enable-background:new 0 0 2048 1024;" xml:space="preserve">
<path style="fill:#FEFEFD;" d="M0,0h2048v1024H0V0z"/>
<path style="fill:#061043;" d="M1738.88,175.957l1.98,2.043l-0.36,3.353c-3.24,2.252-5.39,1.941-9.28,2.216
	c-0.22-2.414-0.02-4.668,0.2-7.069L1738.88,175.957z"/>
<path style="fill:#DC513A;" d="M1090.23,105.5c3.21-0.922,4-0.733,7.08,0.145c2.23,2.325,2.81,3.114,3.67,6.355
	c-0.85,3.162-1.16,3.717-3.48,6.018c-2.24,0.758-4.29,1.439-6.5,0.19c-2.42-1.367-3.68-3.038-4.45-5.708
	C1087.15,108.828,1087.59,108.12,1090.23,105.5z"/>
<path style="fill:#E46043;" d="M1486.21,114.5c2.39-0.575,3.7,0.078,5.87,1c2.33,2.955,2.77,3.744,2.96,7.5
	c-1.34,3.113-2.52,3.968-5.41,5.5c-1.65,0.427-3.5-0.265-5.13-0.67c-2.9-2.99-3.15-3.684-3.54-7.83
	C1482.52,117.029,1483.36,116.279,1486.21,114.5z"/>
<path style="fill:#E46043;" d="M157.23,388.5l0.97-0.054c2.542,0.098,4.848,0.758,6.5,2.818c1.905,2.375,1.75,4.939,1.274,7.736
	c-1.518,2.795-2.71,3.653-5.474,5.018c-0.619,0.032-0.803,0.061-1.5-0.019c-2.577-0.293-4.733-1.278-6.22-3.499
	c-1.358-2.029-1.566-4.701-0.851-7C152.782,390.756,154.87,389.722,157.23,388.5z"/>
<path style="fill:#111949;" d="M1847.6,615.013c5.99,0.022,19.38-1.608,24.18,1.15l0.24,10.494l-12.89,0.211l-11.61-0.087
	L1847.6,615.013z"/>
<path style="fill:#061043;" d="M1859.13,626.868c-0.08-3.337-0.9-7.773,0.87-10.56l11.78-0.145l0.24,10.494L1859.13,626.868z"/>
<path style="fill:#111949;" d="M112.06,898.5c4.496-0.423,14.438-1.382,18.384,0.719c2.48,1.321,2.502,2.805,3.345,5.281
	c-0.936,3.633-1.238,4.149-4.289,6.332c-5.18,0.424-14.808,1.118-19.5-0.863c-2.195-2.371-2.335-2.771-2.858-5.969
	C108.537,900.955,109.238,900.305,112.06,898.5z"/>
<path style="fill:#061043;" d="M1904.66,899.5c3.18-1.404,7.27-0.943,10.7-0.97c6.7-0.054,14.66-0.913,21.14,0.843
	c2.21,2.084,2.72,2.537,3.42,5.627c-0.89,2.781-1.28,3.295-3.42,5.293c-5.71,2.58-21.94,1.406-28.5,0.781
	c-3.26-0.311-4.09-1.757-5.95-4.074C1902.02,903.044,1902.05,902.467,1904.66,899.5z"/>
<path style="fill:#E46043;" d="M754.662,571.5c2.406-0.62,4.692-0.828,7.108-0.169c2.974,0.811,5.823,3.168,7.294,5.861
	c1.618,2.965,1.928,5.933,0.895,9.115c-1.237,3.813-4.013,6.008-7.459,7.709c-1.742,0.545-3.413,0.971-5.242,0.665
	c-3.793-0.635-7.004-2.847-9.077-6.084c-1.583-2.471-1.9-6.696-1.049-9.474C748.318,575.254,751.28,573.286,754.662,571.5z"/>
<path style="fill:#061043;" d="M717.184,365.492l-0.062,25.094c-8.885-0.061-52.176-2.055-57.032,0.535l-2.31-0.295l2.72-3.282
	C680.713,388.365,702.223,378.506,717.184,365.492z"/>
<path style="fill:#E46043;" d="M1869.83,452.5c2.7-0.745,5.27-0.981,8.03-0.358c3.65,0.821,6.62,3.344,8.55,6.457
	c2.02,3.248,2.53,6.771,1.57,10.483c-1.32,5.08-4.93,7.307-9.26,9.748c-2.96,0.256-5.94,0.61-8.8-0.463
	c-3.56-1.339-6.58-3.826-8.21-7.319c-1.51-3.239-1.36-7.637-0.14-10.947C1863.01,456.17,1866.25,454.24,1869.83,452.5z"/>
<path style="fill:#EF9854;" d="M332.162,141.5c3.358-0.45,6.638-0.861,9.838,0.551c3.159,1.394,6.4,5.056,7.552,8.259
	c1.297,3.61,1.124,7.596-0.535,11.064c-2.066,4.318-5.174,6.241-9.517,7.873c-2.884,0.864-5.604,0.51-8.426-0.431
	c-3.535-1.177-6.846-4.455-8.341-7.821c-1.514-3.41-1.283-7.84,0.207-11.224C324.861,145.411,327.887,143.258,332.162,141.5z"/>
<path style="fill:#B6DADA;" d="M1880.23,672.905c14.87,13.061,29.87,34.183,33.23,54.078c-1.15-1.548-2.37-3.112-3.78-4.435
	c-5.53-5.188-15.27-3.72-22.33-3.578L1880.23,672.905z"/>
<path style="fill:#58ACB2;" d="M774.884,156.276l20.511,0.109l0.043,40.413c-6.684-2.64-13.731-5.952-20.701-7.709l-0.038-32.231
	L774.884,156.276z"/>
<path style="fill:#C8E2E2;" d="M774.017,111.148l22.016-9.504l-0.638,54.741l-20.511-0.109
	C773.073,141.964,777.517,124.997,774.017,111.148z"/>
<path style="fill:#C53634;" d="M725.563,155.3c4.03,1.303,8.904,0.767,13.126,0.759l24.959-0.066
	c3.324-0.004,8.114-0.652,11.051,0.865l0.038,32.231c-8.156-2.286-16.688-6.506-24.609-9.629c-6.316-2.49-14.585-4.672-20.053-8.679
	c-2.106-1.544-3.695-3.952-5.124-6.107C724.625,161.825,725.335,158.204,725.563,155.3z"/>
<path style="fill:#DC513A;" d="M726.85,453.5l4.65,0.362c2.723,1.824,0.377,4.068,1.443,7.226l2.057,0.849
	c2.21-1.04,4.048-2.338,6-3.779c2.02,1.217,2.837,2.872,3.996,4.842c-1.518,1.82-2.502,3.189-3.109,5.5l2.391,3.203l5.222-0.213
	c1.17,2.593,1.35,3.079,1,5.881c-2.176,0.855-4.127,1.585-6,3.029l0.196,1.677l4.986,3.923c-0.364,2.273-1.201,3.411-2.682,5.136
	l-5-1.159l-3.458,2.523c0.36,2.199,1.618,3.226,3.011,4.887c-1.575,2.469-2.144,2.802-4.762,4.172
	c-1.589-1.875-2.863-3.812-5.291-4.577l-2,1.134c-0.315,2.082-0.644,3.788-1.622,5.667c-3.001,0.308-3.093,0.575-5.412-1.283
	c-0.094-2.615-0.205-2.657-1.966-4.614l-3-0.054l-4,3.948c-1.911-0.813-2.553-1.56-3.685-3.28l1.575-4
	c-0.746-2.238-1.466-3.155-3.39-4.513c-1.865,1.21-3.309,1.707-5.5,2.064c-1.268-1.675-1.987-2.803-2.249-4.91l4.445-2.377
	l-0.11-3.264c-1.989-1.735-3.55-1.78-6.086-2.291c-0.553-2.693,0.145-3.996,1-6.547c2.907,0.448,3.374,0.599,6-0.637l0.634-2.525
	l-3.825-3.779c0.671-2.146,1.638-3.21,3.191-4.807l5.5,2.66l2.078-1.074c1.303-3.086-0.742-3.652-0.324-6.711
	c2.007-0.898,3.526-1.498,5.746-1.48l2.556,4.563c2.519,0.411,2.555,0.331,4.745-1.004L726.85,453.5z"/>
<path style="fill:#FEFEFD;" d="M723.199,471.5c2.485-0.622,3.88,0.185,6.1,1.177c2.069,2.872,2.433,3.788,2.609,7.323
	c-1.677,3.019-2.382,3.741-5.408,5.405c-3.448,0.09-4.142-0.214-6.973-1.905c-1.581-2.861-1.657-3.851-1.655-7
	C719.211,473.674,720.554,472.854,723.199,471.5z"/>
<path style="fill:#EB704A;" d="M774.017,111.148c3.5,13.849-0.944,30.816,0.867,45.128l-0.185,0.582
	c-2.937-1.517-7.727-0.869-11.051-0.865l-24.959,0.066c-4.222,0.008-9.096,0.544-13.126-0.759
	c0.161-6.146,1.527-15.409-0.417-21.112c0.641-0.206,0.993-0.384,1.431-0.907c5.897-7.03,15-9.077,23.349-12.286L774.017,111.148z"
	/>
<path style="fill:#DC513A;" d="M1790.42,351.5c3.96,0.179,2.19,4.748,6.08,6.459c3.48-1.406,3.62-3.684,5.85-6.564l3.88,1.01
	c5.15,1.541,1.1,5.572,3.27,9.697c3.1,1.304,4.89-1.189,8-2.302c2.13,2,3.43,3.452,4.58,6.2c-1.36,1.345-2.56,2.194-4.3,3.021
	l-0.52,0.244l-0.29,2.735c2.13,3.739,3.94,2.901,7.66,4.328c0.13,3.232,0.72,4.939-1.13,7.66l-4.5-0.314
	c-1.84,1.332-2,1.703-2.86,3.826c1.74,1.915,3.46,3.698,4.67,6c-1.61,2.268-2.21,3.511-4.81,4.676l-4-3.363l-2,0.216
	c-3.19,3.982-0.15,4.252-1.5,8.175l-4,1.802l-2.65-0.526c-0.91-2.491-1.42-4.297-3.85-5.717c-3.06,1.503-3.52,3.799-5.5,6.485
	c-2.49-0.559-4.55-0.785-6.35-2.748l1.93-6c-1.78-1.982-2.45-1.98-5.08-2.65l-3.88,3.441c-2.43-0.565-3.26-2.399-4.8-4.291
	c1.35-1.857,2.89-3.399,4.52-5l-1.95-4.5c-2.11-0.302-3.79-0.618-5.67-1.646c-0.31-2.522-0.7-3.924,0.28-6.323
	c1.54-0.075,3.43-0.028,4.79-0.818c1.86-1.079,1.91-2.28,2.54-4.213l-5-4c0.05-2.897,1.92-4.639,3.67-6.773l6,2.926l3.01-3.153
	l-1.37-4.5C1786.75,352.442,1787.66,352.445,1790.42,351.5z"/>
<path style="fill:#FEFEFD;" d="M1795.31,368.5c1.76-0.456,2.79-0.24,4.49,0.235c2.38,0.663,4.6,2.474,5.75,4.754
	c1.26,2.51,1.26,5.933,0.19,8.506c-1.19,2.87-3.54,4.078-6.24,5.227l-3.5,0.556c-3.31-1.047-5.35-2.135-6.97-5.335
	c-1.22-2.422-1.42-5.236-0.53-7.807C1789.69,371.199,1792.18,369.917,1795.31,368.5z"/>
<path style="fill:#429EA7;" d="M1872.02,626.657l8.21,46.248l7.12,46.065l-28.46,0.083l0.24-92.185L1872.02,626.657z"/>
<path style="fill:#92CBCC;" d="M1870.99,254.983l51.51,0.043c2.95,2.861,3.26,3.376,3.62,7.474c-1.15,2.6-1.86,3.02-4.12,4.572
	l-107.36,0.064l-32.45-0.022c-4.55-0.012-10.99,0.76-15.2-0.864c-2.47-2.563-2.62-3.206-2.94-6.75c1.47-2.708,2.26-3.158,4.81-4.681
	L1870.99,254.983z"/>
<path style="fill:#F8B873;" d="M229.472,259.5l1.107-0.178c3.364,1.4,3.227,6.291,5.069,9.538c3.425-2.944,5.186-5.538,9.852-5.735
	c1.222,2.896-0.554,6.364-1.456,9.375l0.956,1.455c4.068-0.953,5.735-3.198,9.985-2.455c2.48,6.031-4.137,6.417-5.485,11.136
	l5.5,0.739c3.072,0.624,3.489,1.072,5.079,3.625l-1.084,1.923c-2.437,1.483-5.281,1.951-8.029,2.577
	c-0.618,3.119,4.686,5.657,6.082,9l-0.889,2l-0.807,0.301c-2.203,0.721-6.981-0.602-8.993-1.635L246,300.967l-1.488,0.533
	c0.835,2.11,1.774,4.282,2.153,6.528c0.442,2.616,0.382,2.95-1.165,5.137c-4.594-0.926-7.403-4.808-10.761-8.014
	c-0.395,3.886-0.179,9.265-3.239,12.029c-6.731-0.996-3.09-6.203-6.911-9.68c-2.177,2.511-4.243,5.625-7.589,6.521
	c-6.304-2.727-0.179-7.306-2-11.703c-2.845,1.16-5.475,1.869-8.5,2.402l-2.577-2.22c0.182-4.337,3.06-5.564,6.06-8.5l-0.483-1.603
	l-5-1.393c-2.521-1.049-3.369-2.065-4.382-4.504c3.54-3.284,7.874-2.739,12.587-3.194c-2.448-2.265-7.149-5.661-8.002-8.891
	c-0.2-0.757,1.002-2.216,1.424-2.915c4.263-0.645,6.284,2.761,10.373,2.226c-0.552-1.752-1.184-3.567-1.426-5.391
	c-0.384-2.892-0.48-3.589,1.336-5.92c3.845,0.961,5.894,5.345,9.09,5.56L229.472,259.5z"/>
<path style="fill:#FEFEFD;" d="M226.261,281.5c3.192-0.47,4.157-0.659,7.239,0.637c1.982,2.349,3.343,5.173,2.785,8.363
	c-0.54,3.081-2.499,3.998-4.785,5.723c-2.977,0.809-4.205,0.649-7-0.548c-1.855-2.725-2.774-4.727-2.537-8.175
	C222.16,284.651,224.341,283.254,226.261,281.5z"/>
<path style="fill:#AAD9D8;" d="M853.241,497.955l0.56,0.21l-0.548,33.875l-1.188,0.408c-5.21-1.195-11.95-0.477-17.364-0.478
	l-35.072-0.054c-1.576-0.011-8.132,0.473-9.129-0.067c-0.789-0.428-2.088-2.087-2.771-2.769c-2.062-4.526,5.114-25.032,6.608-31.095
	l38.784,0.086C839.639,498.083,846.788,498.7,853.241,497.955z"/>
<path style="fill:#061043;" d="M1134.93,177.898c0.14-3.381-0.28-6.009,1.57-8.885l1.58,0.987l0.42,6.811
	c3.03,1.816,6.31,1.199,9.81,1.198l20.12-0.003l95.07-0.017c3.15-2.018,0.63-5.939,3-9.082l1.46,1.093l0.36,6.872
	c3.24,2.138,10.78,1.128,14.95,1.135l42.83,0.026c4.8-0.006,11.32,0.77,15.9-0.068c3.48-0.636,1.32-6.575,3.14-9.465l1.57,0.694
	l0.25,7.306c0.33,0.318,1.17,1.333,1.54,1.471c3.12,1.17,13.25-0.008,17.02-0.01l63.92-0.037l0.22-9.424l1.34-1.195
	c2.57,2.661,0.1,7.125,2.5,10.561l91,0.039c3.27-2.986,0.1-6.991,2.81-10.405l1.38,0.745l0.26,8.255
	c0.34,0.303,1.19,1.282,1.55,1.408c3.63,1.263,13.78,0.005,17.98,0.006l67.52,0.021c3.35-2.253,0.6-7.165,3.03-10.606l1.47,1.042
	l0.53,9.581l54.81-0.024c3.06-0.002,10.92,0.986,13.16-0.006c1.94-0.858,4.17-2.726,6.02-3.895c1.65,0.504,3.69,0.899,5.05,1.973
	l-0.05,6c-2.07,1.049-4.2,1.264-6.46,1.61l-1.46-1.259c-0.48-0.399-2.01-1.728-2.6-1.834c-5.45-0.981-13.04,0.026-18.68,0.039
	c-16.41,0.039-33.38-0.782-49.7,0.548c-2.19,3.764-1.18,11.365-1.19,15.713c-0.02,12.451-0.57,25.268,0.16,37.683
	c0.11,1.889,1.54,6.826,0.41,8.537c-0.28,0.418-0.96,0.309-1.43,0.463c-1.73-2.409-1.19-5.831-1.17-8.691l-0.03-54.116l-88.9,0.01
	l0.03,54.414c0,3.02,0.66,7.008-1.16,9.383l-1.47-0.811l-0.15-8.629l-0.05-54.39l-94.14,0.104l-0.04,53.084l-0.68-0.28
	c-0.09-0.049-1.57-1.077-1.59-1.111c-0.42-0.71,0.02-6.137,0.02-7.231l0.05-29.198c-0.01-4.556,0.72-10.5-0.84-14.792
	c-9.98-1.1-20.47-0.5-30.52-0.491l-51.57,0.083l-0.01,53.933c0.03,2.914,0.57,6.59-0.85,9.196l-1.8-0.467l-0.13-8.836l0.04-53.87
	l-76.01,0.047l-0.1,55.095c-0.01,3.186,0.67,6.105-1.21,8.733l-1.47-0.871l-0.11-8.029l0.11-54.919l-127.09,0.018l-0.12,55.126
	l-0.19,7.006l-1.42,1.055c-1.82-2.423-1.18-5.241-1.18-8.222l-0.34-54.767c-0.86-0.866-1.86-1.12-2.98-1.556
	C1133.01,179.416,1134.08,178.46,1134.93,177.898z"/>
<path style="fill:#AAD9D8;" d="M1768.86,254.819c7.86-2.073,18.44-0.674,26.63-0.564c-3.01-3.07-5.68-5.375-6.54-9.755
	c-1.31-6.61-0.89-12.26,2.72-18.122c3.79-6.175,9.31-10.377,16.39-12.064c6.54-1.556,14.08,0.098,19.64,3.649
	c9.9,6.319,12.19,14.12,14.78,24.867c1.79-8.306,2.12-16.413,10.07-21.497c3.09-1.974,8.1-2.928,11.67-1.941
	c5.37,1.486,8.92,4.567,11.47,9.498c2.79,5.374,2.45,12.697,0.69,18.342c-0.97,3.133-3.16,5.443-5.39,7.751L1768.86,254.819z"/>
<path style="fill:#AAD9D8;" d="M186.482,169.5c0.565-0.199,0.565-0.223,1.263-0.326c3.362-0.497,6.957-0.283,9.776,1.712
	l0.446,0.323l0.467,0.328c6.844,4.889,7.76,13.827,9.007,21.501c4.349-5.617,9.197-12.376,16.166-14.746
	c3.931-1.337,10.18-1.302,13.893,0.684c3.081,1.649,5.536,4.615,6.396,8.009c1.925,7.598-0.176,11.629-3.998,17.934
	c5.345,0.315,14.934-0.106,19.602,2.523c2.525,1.422,3.551,2.863,4.324,5.558c-0.408,0.877-0.876,1.577-1.583,2.251
	c-6.443,6.146-35.955,3.41-45.491,3.381l-54.047,0.185c-8.771,0.008-21.005,1.446-29.285-1.427c-2.735-0.949-5.577-3.183-6.692-5.89
	c-1.189-2.888-0.319-4.064,0.774-6.699c1.341-1.144,2.702-2.159,4.365-2.783c11.826-4.437,27.17-0.837,38.304,4.109
	c-0.203-8.09-0.068-15.832,3.164-23.424C176.001,176.432,180.13,172.018,186.482,169.5z"/>
<path style="fill:#111949;" d="M852.051,158.733c2.855-5.917,5.203-10.01,11.727-12.197c3.704-1.242,8.358-0.909,11.784,0.997
	c3.196,1.779,6.299,5.416,7.189,9.021c1.536,6.223,0.643,14.949,0.606,21.469c5.383-0.019,22.882,1.557,26.18-1.523
	c0.081-2.754-0.509-6.81,1.463-8.678l1.781,1.178l0.242,8c3.202,2.259,104.047,0.988,115.477,0.982l1.4-0.982l0.41-7.743l1.69-1.058
	c2.63,3.406-0.07,7.083,3,9.735l99.93-0.036c-0.85,0.562-1.92,1.518-2.93,1.612c1.12,0.436,2.12,0.69,2.98,1.556l-101.83-0.217
	l0.12,54.072l-0.08,9.579l-1.74,1c-1.77-2.529-1.07-7.076-1.08-10.22l-0.18-54.416c-13.53-0.021-111.718-1.825-117.304,1.087
	c-1.274,3.568-0.502,9.636-0.518,13.482l-0.097,31.735c-0.008,3.452,0.847,8.734-1.271,11.411c-1.493-1.221-1.319-1.183-1.314-3.007
	l0.056-34.538c0.001-5.87,0.684-12.704-0.53-18.438l-0.138-0.59c-0.251-0.176-0.727-0.541-1.05-0.67
	c-3.612-1.433-20.62-1.009-24.156,0.595c-2.916,11.383,2.244,51.145-1.868,57.14l-9.654,0.143c-7.792,0.44-12.646,1.333-18.309,7.27
	l-0.347,0.367L852.731,246l-0.56-54.019c0.09-3.334,0.718-7.714-0.671-10.752c-3.006-0.085-6.615-0.811-9.102,0.87
	c1.18,1.578,1.785,2.398,1.804,4.401l-1.702,0.56l-2.255-1.56c-0.98-1.789-3.094-4.911-2.873-6.972
	c0.333-3.086,1.944-5.164,4.31-7.006l2.035,0.693c-0.779,2.207-1.581,3.254-0.717,5.561c2.876,0.053,6.579,0.693,9.017-0.776
	L852.051,158.733z"/>
<path style="fill:#1F4980;" d="M852.051,158.733c4.165-2.173,6.739-3.039,11.449-2.589c3.678,1.801,5.81,3.246,8.103,6.641
	c2.879,4.261,1.548,16.368,1.497,21.64l-0.754,54.789c-7.792,0.44-12.646,1.333-18.309,7.27l-0.347,0.367L852.731,246l-0.56-54.019
	c0.09-3.334,0.718-7.714-0.671-10.752c-3.006-0.085-6.615-0.811-9.102,0.87c1.18,1.578,1.785,2.398,1.804,4.401l-1.702,0.56
	l-2.255-1.56c-0.98-1.789-3.094-4.911-2.873-6.972c0.333-3.086,1.944-5.164,4.31-7.006l2.035,0.693
	c-0.779,2.207-1.581,3.254-0.717,5.561c2.876,0.053,6.579,0.693,9.017-0.776L852.051,158.733z"/>
<path style="fill:#FEFEFD;" d="M1268,235.936l0.1-55.095l76.01-0.047l-0.04,53.87c-14.01,0.108-25.04-0.666-35.8,10.283l-2.29,2.442
	l-6.93-11.286L1268,235.936z"/>
<path style="fill:#FEFEFD;" d="M1529,235.117l-0.03-54.414l88.9-0.01l0.03,54.116l-0.61,0.251L1529,235.117z"/>
<path style="fill:#FEFEFD;" d="M1346.85,234.771l0.01-53.933l51.57-0.083c10.05-0.009,20.54-0.609,30.52,0.491l0.32,53.351
	c-11.16-0.181-19.93,0.993-28.47,9.076c-7.01,6.64-8.7,13.719-8.82,22.934c-0.05,4.238,1.08,14.49-1.02,17.805
	c-3.5-3.602-1.79-16.012-1.91-21.42c-0.17-7.847-4.19-16.006-9.93-21.296C1370.14,233.418,1358.08,234.289,1346.85,234.771z"/>
<path style="fill:#1F4980;" d="M296.783,394.968c-0.196-1.779-0.494-2.882-1.371-4.448l-29.436-0.135
	c-0.15-20.463,0.202-37.555,11.167-55.578c13.469-22.141,33.076-29.76,57.062-35.555c2.43,6.311,0.889,18.718,0.89,25.733
	l0.004,64.793c-5.728-0.031-21.729-1.785-26.05,0.969l-1.016,0.555l-1.171-0.38l-0.384,7.709l-0.948,0.462
	c-2.354-2.401-5.533-2.869-8.684-3.418L296.783,394.968z"/>
<path style="fill:#061043;" d="M296.783,394.968l1.104-4.268c3.141-0.364,5.847-0.204,8.975,0.222l-0.384,7.709l-0.948,0.462
	c-2.354-2.401-5.533-2.869-8.684-3.418L296.783,394.968z"/>
<path style="fill:#3B5A94;" d="M718.173,139.048c-0.016-2.207-0.153-2.792,1.009-4.74l5.964-0.12
	c1.944,5.703,0.578,14.966,0.417,21.112c-0.228,2.904-0.938,6.525-0.612,9.374l-6.166-1.524c-1.197-2.738,0.221-5.175-2.285-7.265
	c-9.408-0.036-49.687-2.032-55.451,1.018l0.051,43.061l-3.969-0.252l-11.266,0.107l0.034-43.88l-109.975-0.006l-28.256,0.017
	c-4.628,0.003-10.273-0.587-14.798,0.247c-4.083,0.752-8.422,3.239-11.332,6.178c-9.323,9.415-6.271,29.247-6.203,41.487
	l-14.396,0.055c-0.604-5.191-0.079-11.052-0.032-16.309c0.065-7.183-0.697-15.038,2.074-21.814l0.31-0.741
	c2.083-5.061,5.056-9.454,8.953-13.318c5.682-5.633,12.668-8.928,20.544-10.202c7.076-1.144,15.343-0.397,22.537-0.409h44.985
	l156.161,0.071L718.173,139.048z"/>
<path style="fill:#111949;" d="M657.131,199.712c-0.022-6.683-1.543-39.95,0.878-43.417l3.04,0.608l0.051,43.061L657.131,199.712z"
	/>
<path style="fill:#061043;" d="M718.173,139.048c-0.016-2.207-0.153-2.792,1.009-4.74l5.964-0.12
	c1.944,5.703,0.578,14.966,0.417,21.112c-0.228,2.904-0.938,6.525-0.612,9.374l-6.166-1.524L718.173,139.048z"/>
<path style="fill:#FEFEFD;" d="M1431.99,233.858l0.04-53.084l94.14-0.104l0.05,54.39c-9.61-0.11-23.97-2.148-32.85,1.335l-0.6,0.224
	c-4.77,1.827-10.97,7.762-13.07,12.466c-1.15,2.593-2.03,5.08-3.45,7.561c-2.52-6.638-6.14-11.34-11.75-15.712
	c-8.75-6.812-17.78-6.82-28.28-5.525L1431.99,233.858z"/>
<path style="fill:#B6DADA;" d="M1914.39,732.649c6.96,32.715-1.96,67.329-20,95.002c-7.74,11.865-19.03,24.893-30.67,33.093
	c-1.68,1.184-9.77,5.193-10.38,6.349c-0.44,0.829-0.03,5.697-0.03,6.865l-0.3,24.03c-0.75-1.471-0.77-3.684-0.99-5.331l-0.05-79.209
	l0.15-69.446l38.54,0.13c4.62-0.016,13,1.061,16.88-1.559l0.46-0.325C1911.75,739.647,1912.97,736.896,1914.39,732.649z"/>
<path style="fill:#AAD9D8;" d="M883.868,181.931c3.536-1.604,20.544-2.028,24.156-0.595c0.323,0.129,0.799,0.494,1.05,0.67
	l0.138,0.59c1.214,5.734,0.531,12.568,0.53,18.438l-0.056,34.538c-0.005,1.824-0.179,1.786,1.314,3.007
	c2.118-2.677,1.263-7.959,1.271-11.411l0.097-31.735c0.016-3.846-0.756-9.914,0.518-13.482l0.356,57.011l18.674-0.064l18.06,0.001
	l-0.003,46.207l-97.222-0.181l-0.756,0.162l0.176-93.106l0.56,54.019l0.959,0.851l0.347-0.367c5.663-5.937,10.517-6.83,18.309-7.27
	l9.654-0.143C886.112,233.076,880.952,193.314,883.868,181.931z"/>
<path style="fill:#FEFEFD;" d="M883.868,181.931c3.536-1.604,20.544-2.028,24.156-0.595c0.323,0.129,0.799,0.494,1.05,0.67
	c-0.947,5.886-0.278,12.79-0.29,18.779l-0.056,38.076l-24.66,0.172L883.868,181.931z"/>
<path style="fill:#92CBCC;" d="M931.916,238.898l18.06,0.001l-0.003,46.207l-97.222-0.181c0.116-0.979,0.396-4.061,1.444-4.572
	c1.029-0.502,6.091-0.008,7.435-0.013c19.012-0.075,46.669,4.15,61.162-10.54C932.246,260.217,932.01,251.478,931.916,238.898z"/>
<path style="fill:#B6DADA;" d="M1476.25,256.646c1.42-2.481,2.3-4.968,3.45-7.561c2.1-4.704,8.3-10.639,13.07-12.466l0.6-0.224
	c8.88-3.483,23.24-1.445,32.85-1.335l0.15,8.629l1.47,0.811c1.82-2.375,1.16-6.363,1.16-9.383l88.29-0.057
	c-3.69,1.334-7.57,0.976-11.43,0.854l0.14,34.838c0.02,3.885,0.96,10.231-1,13.503l-3.89,0.743l-27.66-0.093l-96.36-0.023
	C1477.15,275.684,1477.98,265.686,1476.25,256.646z"/>
<path style="fill:#92CBCC;" d="M1573.45,284.905c1.98-15.553,0.27-33.351,0.26-49.149l32.15,0.158l0.14,34.838
	c0.02,3.885,0.96,10.231-1,13.503l-3.89,0.743L1573.45,284.905z"/>
<path style="fill:#C8E2E2;" d="M840.073,326.534l7.159,0.834l0.645,0.355c1.474,0.746,3.672,0.669,5.304,0.777
	c0.859,3.364,0.581,6.991,0.552,10.443l0.297,1.001l-0.789,158.011c-6.453,0.745-13.602,0.128-20.12,0.116l-38.784-0.086
	l27.134-104.429c4.84-18.342,11.785-37.224,14.664-55.923L840.073,326.534z"/>
<path style="fill:#B6DADA;" d="M840.073,326.534l7.159,0.834l0.645,0.355c1.474,0.746,3.672,0.669,5.304,0.777
	c0.859,3.364,0.581,6.991,0.552,10.443c-5.29-1.787-12.031-1.196-17.598-1.31L840.073,326.534z"/>
<path style="fill:#FEFEFD;" d="M1033.27,234.921l-0.12-54.072l101.83,0.217l0.34,54.767c-12.65-0.028-23.75-0.291-33.33,9.358
	c-11.44,11.52-11.02,24.861-10.77,39.94l-19.58-0.023c-0.64-10.547,1.18-19.266-2.97-29.462c-3.81-9.372-10.15-15.608-19.43-19.468
	C1044.1,234.731,1038.58,234.999,1033.27,234.921z"/>
<path style="fill:#3B5A94;" d="M851.995,285.087l0.756-0.162l97.222,0.181l39.778,0.097l-0.069,29.732
	c0.013,3.668,0.775,9.038-0.597,12.321l0.081,0.671l-77.472-0.203c-1.584,4.065,1.288,11.223,2.677,15.478l-60.341-3.258
	l-0.297-1.001c0.029-3.452,0.307-7.079-0.552-10.443c-1.632-0.108-3.83-0.031-5.304-0.777l-0.645-0.355l-7.159-0.834
	c-6.863-3.67-10.799-8.084-13.721-15.306c-1.124-4.486-1.677-8.01,0.026-12.425c2.136-5.537,6.081-9.654,11.415-12.136
	C842.258,284.589,847.174,285.026,851.995,285.087z"/>
<path style="fill:#111949;" d="M826.352,311.228c3.37-1.335,8.734-0.622,12.389-0.589l28.107,0.065l122.178-0.538l0.059,17.09
	l0.081,0.671l-77.472-0.203c-1.584,4.065,1.288,11.223,2.677,15.478l-60.341-3.258l-0.297-1.001
	c0.029-3.452,0.307-7.079-0.552-10.443c-1.632-0.108-3.83-0.031-5.304-0.777l-0.645-0.355l-7.159-0.834
	C833.21,322.864,829.274,318.45,826.352,311.228z"/>
<path style="fill:#429EA7;" d="M847.232,327.368l43.294,0.219c6.832-0.011,14.453-0.696,21.168,0.137
	c-1.584,4.065,1.288,11.223,2.677,15.478l-60.341-3.258l-0.297-1.001c0.029-3.452,0.307-7.079-0.552-10.443
	c-1.632-0.108-3.83-0.031-5.304-0.777L847.232,327.368z"/>
<path style="fill:#B6DADA;" d="M854.03,339.944l60.341,3.258l1.676,8.421c-4.483,17.939-5.148,37.486-7.015,55.867l-10.627,90.443
	c-4.369,1.021-10.002,0.386-14.526,0.371l-30.078-0.139l-0.56-0.21L854.03,339.944z"/>
<path style="fill:#FEFEFD;" d="M912.886,181.951c5.586-2.912,103.774-1.108,117.304-1.087l0.18,54.416
	c-12.17,0.06-21.34,0.876-30.451,10.075c-10.77,10.874-10.8,25.08-10.212,39.41l0.044,0.438l-39.778-0.097l0.003-46.207
	l-18.06-0.001l-18.674,0.064L912.886,181.951z"/>
<path style="fill:#FEFEFD;" d="M1621.12,181.104c16.32-1.33,33.29-0.509,49.7-0.548c5.64-0.013,13.23-1.02,18.68-0.039
	c0.59,0.106,2.12,1.435,2.6,1.834l1.46,1.259l5.44,0.429c2.54,3.966,0.97,19.397,0.97,24.533l-0.06,76.168l-35.52,0.13l-63.28,0.128
	l3.89-0.743c1.96-3.272,1.02-9.618,1-13.503l-0.14-34.838c3.86,0.122,7.74,0.48,11.43-0.854l0.61-0.251
	c-0.02,2.86-0.56,6.282,1.17,8.691c0.47-0.154,1.15-0.045,1.43-0.463c1.13-1.711-0.3-6.648-0.41-8.537
	c-0.73-12.415-0.18-25.232-0.16-37.683C1619.94,192.469,1618.93,184.868,1621.12,181.104z"/>
<path style="fill:#58ACB2;" d="M1617.9,234.809c-0.02,2.86-0.56,6.282,1.17,8.691c0.47-0.154,1.15-0.045,1.43-0.463
	c1.13-1.711-0.3-6.648-0.41-8.537c-0.73-12.415-0.18-25.232-0.16-37.683c0.01-4.348-1-11.949,1.19-15.713l-0.14,54.546
	c10.17,0.028,30.69-2.609,38.01,4.585c1.18,1.157,2.14,2.419,3.09,3.765l0.34,0.472c2.55,3.696,1.85,9.593,1.85,13.899l0.12,26.499
	l-63.28,0.128l3.89-0.743c1.96-3.272,1.02-9.618,1-13.503l-0.14-34.838c3.86,0.122,7.74,0.48,11.43-0.854L1617.9,234.809z"/>
<path style="fill:#FEFEFD;" d="M1138.11,235.994l0.12-55.126l127.09-0.018l-0.11,54.919c-6.6-0.033-12.89-0.575-18.86,2.607
	c-7.72,4.121-14.24,10.134-16.97,18.663l-0.64,2.051c-2.28,7.237-0.87,18.192-0.81,25.885l-49.71,0.1l-0.03-30.226
	c-0.08-5.747,0.2-13.784-4.19-18.059C1169.26,234.49,1144.83,236.074,1138.11,235.994z"/>
<path style="fill:#111949;" d="M745.636,269.898c6.448,25.726,4.462,50.229-9.335,73.261c-4.923,8.219-11.727,16.244-19.117,22.333
	c-14.961,13.014-36.471,22.873-56.684,22.052l-2.72,3.282l2.31,0.295l0.016,383.967l-3.41-0.518l-10.504,2.72l-0.188-249.063
	l0.31-92.048c0.023-14.151,1.039-29.149-0.077-43.179c-0.08-1.006-0.571-1.984-1.061-2.847l-40.406,0.002
	c-2.416-5.493,2.149-15.356-1.811-20.235c-2.126-4.591-5.307-8.762-7.526-13.353c-8.667-17.931-14.395-39.818-10.929-59.825
	c0.345,4.971,1.312,10.008,2.703,14.795c5.132,17.653,17.951,32.527,34.049,41.176c14.756,7.927,32.51,8.749,48.373,3.884
	c16.475-5.051,31.179-17.219,39.281-32.408c9.365-17.556,9.306-34.776,3.671-53.387L745.636,269.898z"/>
<path style="fill:#5491B7;" d="M645.176,390.153c3.523,0.101,9.319-0.583,12.06,1.454l-0.54,382.963l-10.504,2.72l-0.188-249.063
	l0.31-92.048c0.023-14.151,1.039-29.149-0.077-43.179C646.157,391.994,645.666,391.016,645.176,390.153z"/>
<path style="fill:#FEFEFD;" d="M475.335,203.862c-0.068-12.24-3.12-32.072,6.203-41.487c2.91-2.939,7.249-5.426,11.332-6.178
	c4.525-0.834,10.17-0.244,14.798-0.247l28.256-0.017l109.975,0.006l-0.034,43.88c-24.918,1.606-49.337,12.033-66.037,31.01
	c-12.64,14.362-25.316,35.617-24.982,55.334c-4.092,1.642-17.435-3.499-22.084-4.751l-12.022-3.858
	c-4.806-3.243-9.762-6.478-13.868-10.607c-12.571-12.641-12.645-26.419-12.649-42.853c0.025-5.993,1.153-12.977-3.401-17.594
	C487.327,202.957,479.979,203.859,475.335,203.862z"/>
<path style="fill:#429EA7;" d="M212.589,628.194l0.032-18.926l-12.3-6.733c-21.743-12.734-49.651-37.329-56.034-62.651
	c-1.772-7.029-1.013-14.8,2.806-21.031c16.216-26.46,45.933-58.637,77.525-65.919c26.72-6.16,49.31,0.338,71.901,14.496
	l0.036,69.815l0.236,59.255L265.5,617.51c-4.592,3.213-10.008,6.204-14.004,10.129c-3.55,1.223-7.752,0.693-11.474,0.667
	c-7.63-0.052-16.179,0.59-23.671-0.365L212.589,628.194z"/>
<path style="fill:#B6DADA;" d="M296.555,537.245l0.236,59.255L265.5,617.51c-4.592,3.213-10.008,6.204-14.004,10.129
	c-3.55,1.223-7.752,0.693-11.474,0.667c-7.63-0.052-16.179,0.59-23.671-0.365l0.098-50.049
	C239.901,557.286,267.365,546.796,296.555,537.245z"/>
<path style="fill:#EB704A;" d="M1428.95,181.246c1.56,4.292,0.83,10.236,0.84,14.792l-0.05,29.198c0,1.094-0.44,6.521-0.02,7.231
	c0.02,0.034,1.5,1.062,1.59,1.111l0.68,0.28l4.23,1.551c10.5-1.295,19.53-1.287,28.28,5.525c5.61,4.372,9.23,9.074,11.75,15.712
	c1.73,9.04,0.9,19.038,0.84,28.236l-0.03,25.204l-0.04,17.913l0.12,5.898l-0.09,123.19l0.12,0.91l-0.08,21.788l-37.95,0.296
	l-48.2-0.035l-0.18-109.742l-0.44-30.706c-0.04-2.305-0.8-7.639-0.18-9.598c0.33-1.068,1.35-2.488,1.91-3.5l0.08-28.541
	c-0.01-4.147,0.7-9.521-1.15-13.255l-0.02-0.292c2.1-3.315,0.97-13.567,1.02-17.805c0.12-9.215,1.81-16.294,8.82-22.934
	c8.54-8.083,17.31-9.257,28.47-9.076L1428.95,181.246z"/>
<path style="fill:#CD4137;" d="M1436.22,235.409c10.5-1.295,19.53-1.287,28.28,5.525c5.61,4.372,9.23,9.074,11.75,15.712
	c1.73,9.04,0.9,19.038,0.84,28.236l-0.03,25.204l-0.04,17.913l0.12,5.898l-0.09,123.19l0.12,0.91l-0.08,21.788l-37.95,0.296
	l9.84-26.98c9.59-30.111,12.96-62.078,13.01-93.564C1462.05,316.452,1456.23,274.06,1436.22,235.409z"/>
<linearGradient id="SVGID_1_" gradientUnits="userSpaceOnUse" x1="679.204" y1="674.0469" x2="623.3692" y2="788.7191" gradientTransform="matrix(1 0 0 -1 0 1024)">
	<stop  offset="0" style="stop-color:#D65548"/>
	<stop  offset="1" style="stop-color:#E57457"/>
</linearGradient>
<path style="fill:url(#SVGID_1_);" d="M657.131,199.712l3.969,0.252c26.805,2.912,49.911,15.534,66.804,36.65
	c8.139,10.173,13.182,21.18,17.732,33.284l-33.055,0.904c5.635,18.611,5.694,35.831-3.671,53.387
	c-8.102,15.189-22.806,27.357-39.281,32.408c-15.863,4.865-33.617,4.043-48.373-3.884c-16.098-8.649-28.917-23.523-34.049-41.176
	c-1.391-4.787-2.358-9.824-2.703-14.795c-3.466,20.007,2.262,41.894,10.929,59.825c2.219,4.591,5.4,8.762,7.526,13.353l-1.197-0.412
	c-20.329-8.907-37.12-31.496-43.872-51.998c-2.289-6.95-6.494-24.424-3.044-31.347c-0.334-19.717,12.342-40.972,24.982-55.334
	c16.7-18.977,41.119-29.404,66.037-31.01L657.131,199.712z"/>
<path style="fill:#FEFEFD;" d="M643.891,257.128c8.416-0.697,16.135-0.259,23.606,4.119c9.156,5.365,14.952,12.997,17.734,23.253
	c2.266,8.36,0.915,18.531-3.378,25.997c-5.86,10.192-14.579,15.325-25.658,18.372c-8.115,0.753-15.077,0.48-22.444-3.396
	c-8.608-4.529-15.429-12.662-18.109-22.032c-2.549-8.91-1.867-19.42,2.87-27.5C624.402,265.896,632.766,260.124,643.891,257.128z"/>
<path style="fill:#111949;" d="M646.572,281.5c2.136-0.659,4.778-0.836,6.976-0.319c3.221,0.758,5.73,2.86,7.332,5.749
	c1.519,2.739,1.747,5.833,0.829,8.808c-1.222,3.963-4.317,5.956-7.797,7.762c-1.848,0.542-4.652,0.551-6.525,0.045
	c-2.994-0.808-5.24-2.747-6.694-5.459c-1.477-2.756-1.999-5.989-1.015-8.991C640.928,285.284,643.064,283.243,646.572,281.5z"/>
<path style="fill:#1F4980;" d="M657.131,199.712l3.969,0.252c26.805,2.912,49.911,15.534,66.804,36.65
	c8.139,10.173,13.182,21.18,17.732,33.284l-33.055,0.904c-9.11-18.812-21.691-32.49-41.769-39.445
	c-16.055-5.562-33.937-4.209-49.18,3.239c-15.898,7.767-28.138,21.215-33.894,38.028c-2.856,8.344-2.064,15.658-3.234,24.118
	c-3.466,20.007,2.262,41.894,10.929,59.825c2.219,4.591,5.4,8.762,7.526,13.353l-1.197-0.412
	c-20.329-8.907-37.12-31.496-43.872-51.998c-2.289-6.95-6.494-24.424-3.044-31.347c-0.334-19.717,12.342-40.972,24.982-55.334
	c16.7-18.977,41.119-29.404,66.037-31.01L657.131,199.712z"/>
<path style="fill:#1F4980;" d="M1695.02,174.027l3.48,0.404c1.84-2.374,1.08-5.909,1.1-8.889c0.06-8.568,2.9-17.843,12.9-19.343
	c5.04-0.756,9.48,0.605,13.44,3.729c3.06,2.416,5.35,5.603,5.81,9.548c0.5,4.332-1.47,12.545,1.25,15.568
	c1.88,0.166,4.2,0.073,5.88,0.913l-7.46,0.543c-0.22,2.401-0.42,4.655-0.2,7.069l0.51,332.301l-1.75,0.596
	c-10.38,1.118-20.42,2.859-30.03,7.195l0.03-196.653c-11.09,0.019-24.96-1.553-35.72,0.269l-0.22,6.749l-57.92-0.283l-0.86,0.351
	l-31.34-0.097l-0.69,0.04l-96.09-0.14l-0.12-5.898l0.04-17.913l0.03-25.204l96.36,0.023l27.66,0.093l63.28-0.128l35.52-0.13
	l0.06-76.168c0-5.136,1.57-20.567-0.97-24.533l-5.44-0.429c2.26-0.346,4.39-0.561,6.46-1.61l0.05-6
	C1698.71,174.926,1696.67,174.531,1695.02,174.027z"/>
<path style="fill:#111949;" d="M1477.06,310.086l222.99-0.165l-0.07,17.087c-11.09,0.019-24.96-1.553-35.72,0.269l-0.22,6.749
	l-57.92-0.283l-0.86,0.351l-31.34-0.097l-0.69,0.04l-96.09-0.14l-0.12-5.898L1477.06,310.086z"/>
<path style="fill:#429EA7;" d="M1573.77,327.888l32.12-0.112l0.23,5.967l-0.86,0.351l-31.34-0.097L1573.77,327.888z"/>
<path style="fill:#3791A1;" d="M1605.89,327.776l39.32-0.299c6.15-0.047,12.96,0.506,19.05-0.2l-0.22,6.749l-57.92-0.283
	L1605.89,327.776z"/>
<path style="fill:#58ACB2;" d="M1477.02,327.999l96.75-0.111l0.15,6.109l-0.69,0.04l-96.09-0.14L1477.02,327.999z"/>
<path style="fill:#F8B873;" d="M852.042,654.341l32.874,0.081l36.647-0.145c3.949,0.037,6.704,0.348,9.634,3.265
	c1.848,1.84,3.213,3.765,3.146,6.494c-0.069,2.823-1.14,5.32-3.266,7.205c-1.732,1.537-4.413,2.574-6.668,2.899l-0.25,0.975
	l-1.713,10.793l-9.71,64.299c-1.11,7.185-4.325,17.446-3.591,24.499c-2.75-0.949-6.384-0.486-9.276-0.469l-21.909,0.753
	c-3.665,0.053-7.214,0.63-10.325-1.647c-2.881,1.87-14.425,1.754-18.135,1.045c-0.929-0.177-1.436-0.602-2.18-1.145
	c-3.877,2.913-17.105,1.21-22.446,1.155l-1.3-2.066l-1.238-0.228L821,774.109c-4.469,0.419-16.752,1.72-20.154-0.918l-0.346-0.302
	c-0.422,0.361-1.551,1.573-2,1.709c-3.329,1.002-10.455,0.055-14.114,0.075l-42.388,0.163c-2.692-7.771-3.786-17-5.55-25.074
	l-13.539-64.332l-2.718-12.515l-6.691-0.921c-1.794-1.49-3.473-2.919-4.487-5.087c-1.53-3.272-0.144-5.395,1.062-8.407
	c1.826-1.586,4.262-3.84,6.68-4.285c3.789-0.697,8.653-0.177,12.536-0.187l25.638,0.023L852.042,654.341z"/>
<path style="fill:#EF9854;" d="M802.591,743.5l2.384,1c0.088,5.766,0.858,12.408-0.636,18l-2.142-1
	C802.037,755.628,801.349,749.266,802.591,743.5z"/>
<path style="fill:#EF9854;" d="M917.564,685.749l4.882,0.159l-9.71,64.299c-1.11,7.185-4.325,17.446-3.591,24.499
	c-2.75-0.949-6.384-0.486-9.276-0.469l-21.909,0.753c-3.665,0.053-7.214,0.63-10.325-1.647c4.753,1.205,13.244,1.496,17.998,0.448
	l14.074-88.196L917.564,685.749z"/>
<path style="fill:#F8B873;" d="M852.042,654.341l32.874,0.081l36.647-0.145c3.949,0.037,6.704,0.348,9.634,3.265
	c1.848,1.84,3.213,3.765,3.146,6.494c-0.069,2.823-1.14,5.32-3.266,7.205c-1.732,1.537-4.413,2.574-6.668,2.899l-0.25,0.975
	l-1.713,10.793l-4.882-0.159l-17.857-0.154c-6.3-0.811-13.421-0.24-19.793-0.261l-40.408,0.114l-116.597-0.018l-2.718-12.515
	l-6.691-0.921c-1.794-1.49-3.473-2.919-4.487-5.087c-1.53-3.272-0.144-5.395,1.062-8.407c1.826-1.586,4.262-3.84,6.68-4.285
	c3.789-0.697,8.653-0.177,12.536-0.187l25.638,0.023L852.042,654.341z"/>
<path style="fill:#EF9854;" d="M921.563,654.277c3.949,0.037,6.704,0.348,9.634,3.265c1.848,1.84,3.213,3.765,3.146,6.494
	c-0.069,2.823-1.14,5.32-3.266,7.205c-1.732,1.537-4.413,2.574-6.668,2.899c-3.601-2.558-17.409-1.061-22.427-1.058l4.521-17.904
	c4.759,0.064,9.487,0.248,14.177-0.713L921.563,654.277z"/>
<path style="fill:#E46043;" d="M901.982,673.082c5.018-0.003,18.826-1.5,22.427,1.058l-0.25,0.975l-1.713,10.793l-4.882-0.159
	l-17.857-0.154c-6.3-0.811-13.421-0.24-19.793-0.261l-40.408,0.114l-116.597-0.018l-2.718-12.515L901.982,673.082z"/>
<path style="fill:#CD4137;" d="M917.564,685.749c-4.853-1.774-12.686-0.945-17.937-0.985l1.928-10.769
	c5.183-0.108,18.73-1.816,22.604,1.12l-1.713,10.793L917.564,685.749z"/>
<path style="fill:#F8B873;" d="M1731.73,515.87c13.59-0.015,26.68,0.379,39.86,4.151c2.21,0.631,5.81,1.3,7.59,2.636
	c23.6,6.864,44.49,25.634,56.19,46.935c7.77,14.133,11.51,29.371,12.23,45.421l-0.08,11.768l11.61,0.087l-0.24,92.185l-24.29,0.045
	l-50.62-0.021l-31.47,0.056l-52.42-0.077c-8.79-4.436-17.62-9.325-25.48-15.266c-20.98-15.834-34.49-41.343-38.1-67.155
	c-4.43-31.6,4.98-57.324,23.73-82.25c11.26-13.35,24.01-23.123,39.71-30.724c9.61-4.336,19.65-6.077,30.03-7.195L1731.73,515.87z"/>
<path style="fill:#EF9854;" d="M1731.73,515.87c13.59-0.015,26.68,0.379,39.86,4.151c2.21,0.631,5.81,1.3,7.59,2.636l-0.28,1.406
	l10.6,6.937c0.1,1.219,0.09,2.424,0.67,3.527c-8.2-3.437-16.92-7.665-25.49-9.895c-5.16-1.342-10.65-2.683-15.93-3.344
	c-3.41-0.426-13.01-0.28-15.55-1.713c-0.97-0.547-2.38-2.293-3.22-3.109L1731.73,515.87z"/>
<path style="fill:#EB704A;" d="M1779.18,522.657c23.6,6.864,44.49,25.634,56.19,46.935c7.77,14.133,11.51,29.371,12.23,45.421
	l-0.08,11.768l11.61,0.087l-0.24,92.185l-24.29,0.045l-50.62-0.021l-31.47,0.056c6.94-2.637,14.31-4.474,21.08-7.452
	c19.92-8.754,36.4-22.733,47.7-41.421c13.54-22.384,18.53-50.379,12.03-75.921c-6.51-25.583-20.26-46.299-43.15-59.812
	c-0.58-1.103-0.57-2.308-0.67-3.527l-10.6-6.937L1779.18,522.657z"/>
<path style="fill:#B6DADA;" d="M1844.27,652.76c-0.7,12.175-3.17,24.26-4.92,36.322c-1.41,9.726-2.2,20.55-4.75,30.016l-50.62-0.021
	c7.57-4.145,15.48-8.249,22.41-13.402C1825.41,691.532,1835.57,674.271,1844.27,652.76z"/>
<path style="fill:#58ACB2;" d="M1847.52,626.781l11.61,0.087l-0.24,92.185l-24.29,0.045c2.55-9.466,3.34-20.29,4.75-30.016
	c1.75-12.062,4.22-24.147,4.92-36.322C1845.54,643.908,1847.08,635.828,1847.52,626.781z"/>
<path style="fill:#111949;" d="M1730.7,562.317c13.34-1.582,26.38,1.938,37.66,9.073c12.15,7.68,21.15,21.062,24.14,35.024
	c3.24,15.113,0.53,30.158-8.1,43.08c-9.72,14.555-23.32,22.124-40.17,25.461c-13.96,1.157-25.6-1.607-37.48-9.084
	c-11.65-7.329-21.24-20.791-24.15-34.211c-3.35-15.445-0.62-29.954,7.97-43.145C1700.03,573.984,1714.07,565.894,1730.7,562.317z"/>
<path style="fill:#3791A1;" d="M1699.12,583.139c3.9-5.416,9.55-8.592,15.33-11.64l16.51,5.508l-0.12,3.949l-13.18,0.234
	c-4.45,0.129-12.61,0.151-16.52,2.372l-0.93,1.327L1699.12,583.139z"/>
<path style="fill:#3791A1;" d="M1684.87,615.918c1.47,9.712,4.38,23.432,13.2,29.427c0.64,0.436,1.06,0.654,1.83,0.763l0.6,0.718
	c5.39,4.911,14.3,5.18,21.27,4.888l11.23-0.738c4.45-1.337,8.04-3.061,11.98-5.497l3.14,2.177c-4.43,3.329-9.57,6.256-14.87,7.956
	c-2.03,5.985-4.27,9.853-8.37,14.744c-10.87-3.53-18.94-8.553-26.52-17.055l-3.84-4.502
	C1687.51,639.191,1682.93,627.937,1684.87,615.918z"/>
<path style="fill:#58ACB2;" d="M1698.36,653.301c1.83,0.213,3.68,0.32,5.37,1.117c7.98,3.777,21.11,2.519,29.52,1.194
	c-2.03,5.985-4.27,9.853-8.37,14.744C1714.01,666.826,1705.94,661.803,1698.36,653.301z"/>
<path style="fill:#AAD9D8;" d="M1699.12,583.139l1.09,1.75l-0.31,61.219c-0.77-0.109-1.19-0.327-1.83-0.763
	c-8.82-5.995-11.73-19.715-13.2-29.427C1685.16,602.813,1690.65,592.817,1699.12,583.139z"/>
<path style="fill:#1A3774;" d="M1717.66,581.19l13.18-0.234l2.15,0.95l0.01,69.07l-11.23,0.738c-6.97,0.292-15.88,0.023-21.27-4.888
	l-0.6-0.718l0.31-61.219l0.93-1.327C1705.05,581.341,1713.21,581.319,1717.66,581.19z"/>
<path style="fill:#111949;" d="M1717.66,581.19l13.18-0.234l2.15,0.95l0.01,69.07l-11.23,0.738c-6.97,0.292-15.88,0.023-21.27-4.888
	c3.64-0.46,2.93,0.899,5.75,1.924c1.78,0.646,1.84-0.529,4,1c5.56-0.691,15.69,1.543,20.25-0.75c0.01-5.7,1-10.376,1.01-16l-2-2
	c0.98-8.824,0.17-18.254,0.11-27.152c-0.03-3.271-0.56-7.681,0.18-10.838l0.23-0.76l0.26-0.984c0.46-1.664-0.78-1.193-0.78-2.266
	c0-0.217,0.88-0.695,0.99-1c0.27-0.735,0.01-3.125,0.01-4c-3.09-2.349-8.02-1.242-12.01-2.531L1717.66,581.19z"/>
<path style="fill:#F8B873;" d="M1732.69,566.837c8-2.954,19.16,0.242,26.56,3.625c2.48,1.137,4.78,2.443,7.01,4.035l4.98,3.566
	c10.53,9.584,18.08,21.317,18.82,35.991c0.76,15.234-3.29,28.568-13.62,39.927c-9.39,10.331-22.15,17.116-36.27,17.753
	c-5.22,0.236-10.16-0.464-15.29-1.378c4.1-4.891,6.34-8.759,8.37-14.744c5.3-1.7,10.44-4.627,14.87-7.956l-3.14-2.177
	c-3.94,2.436-7.53,4.16-11.98,5.497l-0.01-69.07l-2.15-0.95l0.12-3.949C1732.37,575.047,1731.99,569.519,1732.69,566.837z"/>
<path style="fill:#429EA7;" d="M1730.96,577.007c1.41-1.96,1.03-7.488,1.73-10.17c0.03,3.391-0.72,7.508,1.38,10.187
	c1.37,0.691,5.56,3.289,6.9,3.279c10.76,7.208,18.61,16.321,21.23,29.353c1.98,9.881-0.47,21.118-6.12,29.425
	c-2.05,3.022-4.89,6.531-7.96,8.575l-3.14-2.177c5.33-4.859,9.79-10.912,12.16-17.785c3.16-9.149,1.49-19.328-2.66-27.869
	c-4.2-8.642-12.66-14.751-21.49-17.919l-2.15-0.95L1730.96,577.007z"/>
<path style="fill:#FEFEFD;" d="M1732.69,566.837c8-2.954,19.16,0.242,26.56,3.625c2.48,1.137,4.78,2.443,7.01,4.035l4.98,3.566
	c-10.19,1.684-20.04,1.553-30.27,2.24c-1.34,0.01-5.53-2.588-6.9-3.279C1731.97,574.345,1732.72,570.228,1732.69,566.837z"/>
<path style="fill:#92CBCC;" d="M1766.26,574.497l4.98,3.566c-10.19,1.684-20.04,1.553-30.27,2.24c-1.34,0.01-5.53-2.588-6.9-3.279
	c3.16-1.374,7.96-0.891,11.43-1.069L1766.26,574.497z"/>
<path style="fill:#B6DADA;" d="M1732.99,581.906c8.83,3.168,17.29,9.277,21.49,17.919c4.15,8.541,5.82,18.72,2.66,27.869
	c-2.37,6.873-6.83,12.926-12.16,17.785c-3.94,2.436-7.53,4.16-11.98,5.497L1732.99,581.906z"/>
<path style="fill:#3B5A94;" d="M1344.07,234.664l0.13,8.836l1.8,0.467c1.42-2.606,0.88-6.282,0.85-9.196
	c11.23-0.482,23.29-1.353,32.27,6.925c5.74,5.29,9.76,13.449,9.93,21.296c0.12,5.408-1.59,17.818,1.91,21.42l0.02,0.292
	c1.85,3.734,1.14,9.108,1.15,13.255l-0.08,28.541c-0.56,1.012-1.58,2.432-1.91,3.5c-0.62,1.959,0.14,7.293,0.18,9.598l0.44,30.706
	l0.18,109.742l-40.93-0.042c-8.82,12.272-17.84,22.435-31.39,29.59c-2.56,1.352-5.74,3.437-8.62,3.832l-5.7,0.358l-0.9,0.201
	c-5.97-7.501-3.34-23.476-3.36-32.926c-7.53-0.794-15.81-0.053-23.43-0.057l-48.75-0.101l0.06-152.963l-49.82-0.02l-42.17,0.066
	l-56.8,0.01l-7.69-0.156l0.19-17.062l0.01-25.668l19.58,0.023c-0.25-15.079-0.67-28.42,10.77-39.94
	c9.58-9.649,20.68-9.386,33.33-9.358c0,2.981-0.64,5.799,1.18,8.222l1.42-1.055l0.19-7.006c6.72,0.08,31.15-1.504,35.89,0.796
	c4.39,4.275,4.11,12.312,4.19,18.059l0.03,30.226l49.71-0.1c-0.06-7.693-1.47-18.648,0.81-25.885l0.64-2.051
	c2.73-8.529,9.25-14.542,16.97-18.663c5.97-3.182,12.26-2.64,18.86-2.607l0.11,8.029l1.47,0.871c1.88-2.628,1.2-5.547,1.21-8.733
	l31.05,0.167l6.93,11.286l2.29-2.442C1319.03,233.998,1330.06,234.772,1344.07,234.664z"/>
<path style="fill:#1F4980;" d="M1390.98,284.704c1.85,3.734,1.14,9.108,1.15,13.255l-0.08,28.541c-0.56,1.012-1.58,2.432-1.91,3.5
	c-0.62,1.959,0.14,7.293,0.18,9.598l0.44,30.706l0.18,109.742l-40.93-0.042c32.13-58.405,38.89-127.489,38.5-193.004
	L1390.98,284.704z"/>
<path style="fill:#F8B873;" d="M1265.21,235.769l0.11,8.029l1.47,0.871c1.88-2.628,1.2-5.547,1.21-8.733l31.05,0.167l6.93,11.286
	c-6.32,11.154-7.76,24.81-5.85,37.579l-72.2,0.007c-0.06-7.693-1.47-18.648,0.81-25.885l0.64-2.051
	c2.73-8.529,9.25-14.542,16.97-18.663C1252.32,235.194,1258.61,235.736,1265.21,235.769z"/>
<path style="fill:#111949;" d="M1071.63,310.776l228.5-0.5l-0.01,17.757l-72.2-0.095l-49.82-0.02l-42.17,0.066l-56.8,0.01
	l-7.69-0.156L1071.63,310.776z"/>
<path style="fill:#E46043;" d="M1138.11,235.994c6.72,0.08,31.15-1.504,35.89,0.796c4.39,4.275,4.11,12.312,4.19,18.059l0.03,30.226
	l-41.67,0.009l-45.33,0.047c-0.25-15.079-0.67-28.42,10.77-39.94c9.58-9.649,20.68-9.386,33.33-9.358c0,2.981-0.64,5.799,1.18,8.222
	l1.42-1.055L1138.11,235.994z"/>
<path style="fill:#A91C2C;" d="M1174,236.79c4.39,4.275,4.11,12.312,4.19,18.059l0.03,30.226l-41.67,0.009
	c2.25-6.99,3.19-10.114,9.44-14.646c1.13-0.824,4-2.61,4.72-3.765c0.74-1.185,1.11-4.412,1.49-5.871c1.82-7,4.39-12.327,9.81-17.391
	C1165.28,240.356,1169.29,236.618,1174,236.79z"/>
<path style="fill:#F8B873;" d="M1227.92,327.938l72.2,0.095l-0.08,153.026c-7.53-0.794-15.81-0.053-23.43-0.057l-48.75-0.101
	L1227.92,327.938z"/>
<path style="fill:#3B5A94;" d="M460.939,203.917l14.396-0.055c4.644-0.003,11.992-0.905,15.487,2.638
	c4.554,4.617,3.426,11.601,3.401,17.594c0.004,16.434,0.078,30.212,12.649,42.853c4.106,4.129,9.062,7.364,13.868,10.607
	l12.022,3.858c4.649,1.252,17.992,6.393,22.084,4.751c-3.45,6.923,0.755,24.397,3.044,31.347
	c6.752,20.502,23.543,43.091,43.872,51.998l1.197,0.412c3.96,4.879-0.605,14.742,1.811,20.235l40.406-0.002
	c0.49,0.863,0.981,1.841,1.061,2.847c1.116,14.03,0.1,29.028,0.077,43.179l-0.31,92.048l0.188,249.063
	c-16.645,7.335-27.817,17.437-34.538,34.632c-3.707,9.483-4.907,20.853-3.925,30.977c1.742,9.474,4.042,18.208,7.974,27.035
	c-15.528-5.111-29.547-3.692-44.184,3.726c-11.052,5.6-19.03,14.648-26.252,24.499l-5.767-0.373
	c-2.252-5.041-5.075-10.818-9.045-14.718c-13.026-12.793-35.091-9.153-51.995-9.01l-0.273-103.041l-14.581-20.621
	c-1.624-2.297-4.858-5.855-5.816-8.403c-0.912-2.422-0.157-8.652-0.158-11.336l-0.472-31.903l-0.084-17.518l-34.203,0.013
	l-50.377,0.011l-37.684-0.334l-0.039-6.758l0.261-16.03l-0.011-29.983l-27.052,0.35l-3.307-0.706
	c-2.353,0.663-5.718,0.542-8.204,0.734c-12.917,0.091-28.92,1.979-41.447-0.539l-3.517-0.355c3.996-3.925,9.412-6.916,14.004-10.129
	l31.291-21.01l-0.236-59.255l-0.036-69.815c1.224-6.278,0.277-14.301,0.245-20.794l0.082-50.961c3.151,0.549,6.33,1.017,8.684,3.418
	l0.948-0.462l0.384-7.709l1.171,0.38l1.016-0.555c4.321-2.754,20.322-1,26.05-0.969l-0.004-64.793
	c-0.001-7.015,1.54-19.422-0.89-25.733c6.921-1.123,14.077-3.683,20.813-5.628l42.92-11.842c1.81-1.863,11.097-3.874,14.008-5.031
	c5.225-2.679,10.056-5.397,14.199-9.63c12.128-12.392,14.144-26.499,13.964-42.934c-0.145-5.733-1.214-12.845,3.158-17.311
	C447.329,202.727,455.507,203.95,460.939,203.917z"/>
<path style="fill:#FEFEFD;" d="M495.18,413.5c7.004-1.009,15.383-0.182,22.552-0.188l50.061-0.028l0.032,10.864l-54.914-0.099
	c-4.585-0.008-15.229,1.157-18.56-1.193C494.188,419.663,493.719,416.456,495.18,413.5z"/>
<path style="fill:#061043;" d="M532.873,303.37l0.174-18.995l12.132,82.184c-7.434-2.076-30.127-10.914-36.525-8.559l-3.602,0.876
	c-0.687-2.996-9.744-11.027-12.229-14.13l41.884,9.232L532.873,303.37z"/>
<path style="fill:#FEFEFD;" d="M494.068,438.7l53.558,0.162c5.188,0.02,15.908-1.35,20.22,1.138
	c0.272,3.582,0.038,6.923-0.346,10.49c-4.721,1.611-13.978,0.433-19.269,0.432l-54.168-0.066L494.068,438.7z"/>
<path style="fill:#061043;" d="M493.986,425.039l74.018,0.064l-0.014,12.869l-74.024-0.146L493.986,425.039z"/>
<path style="fill:#111949;" d="M397.938,281.782c3.816,7.434-0.429,60.164-0.844,71.438l43.009-9.416
	c-2.233,2.952-4.483,6.069-7.131,8.659c-2.151,2.103-5.28,4.171-6.866,6.669c12.789,9.692,26.861,19.303,38.277,30.59l40.669-30.846
	l3.602-0.876l5.13,6.915l-49.217,30.25l-46.455-29.838l9.308-10.835l-40.282,10.076L397.938,281.782z"/>
<path style="fill:#111949;" d="M335.034,658.138l268.949-0.882l0.081,22.612c-0.688,0.416-1.851,1.366-2.579,1.561
	c-1.84,0.494-5.643-0.027-7.66-0.036l-20.142-0.088l-95.362-0.166l-0.134,89.878l-14.581-20.621
	c-1.624-2.297-4.858-5.855-5.816-8.403c-0.912-2.422-0.157-8.652-0.158-11.336l-0.472-31.903l-0.084-17.518l-34.203,0.013
	l-50.377,0.011l-37.684-0.334l-0.039-6.758L335.034,658.138z"/>
<path style="fill:#FEFEFD;" d="M309.049,390.747l26.143,0.104l-0.169,237.304l-27.052,0.35l-3.307-0.706
	c-2.353,0.663-5.718,0.542-8.204,0.734c-12.917,0.091-28.92,1.979-41.447-0.539l-3.517-0.355c3.996-3.925,9.412-6.916,14.004-10.129
	l31.291-21.01l-0.236-59.255l-0.036-69.815c1.224-6.278,0.277-14.301,0.245-20.794l0.082-50.961c3.151,0.549,6.33,1.017,8.684,3.418
	l0.948-0.462l0.384-7.709l1.171,0.38L309.049,390.747z"/>
<path style="fill:#111949;" d="M306.862,390.922l1.171,0.38l-0.049,201.402l13.516-8.041l2,0.866
	c-2.896,5.15-13.012,5.798-15.532,10.14c-0.882,1.518,0.003,28.925,0.003,32.836l-3.307-0.706l-0.219-159.328l0.143-44.139
	c0.045-8.229-0.605-17.145,0.942-25.239l0.948-0.462L306.862,390.922z"/>
<path style="fill:#58ACB2;" d="M296.846,395.675c3.151,0.549,6.33,1.017,8.684,3.418c-1.547,8.094-0.897,17.01-0.942,25.239
	l-0.143,44.139l0.219,159.328c-2.353,0.663-5.718,0.542-8.204,0.734c-12.917,0.091-28.92,1.979-41.447-0.539l-3.517-0.355
	c3.996-3.925,9.412-6.916,14.004-10.129l31.291-21.01l-0.236-59.255l-0.036-69.815c1.224-6.278,0.277-14.301,0.245-20.794
	L296.846,395.675z"/>
<path style="fill:#B6DADA;" d="M255.013,627.994l41.466-27.232l-0.019,27.771C283.543,628.624,267.54,630.512,255.013,627.994z"/>
<path style="fill:#AAD9D8;" d="M460.939,203.917l14.396-0.055c4.644-0.003,11.992-0.905,15.487,2.638
	c4.554,4.617,3.426,11.601,3.401,17.594c0.004,16.434,0.078,30.212,12.649,42.853c4.106,4.129,9.062,7.364,13.868,10.607
	l12.022,3.858c-2.049,3.694-0.93,17.73,0.111,21.958l1.834,50.608l-41.884-9.232c2.485,3.103,11.542,11.134,12.229,14.13
	l-40.669,30.846c-11.416-11.287-25.488-20.898-38.277-30.59c1.586-2.498,4.715-4.566,6.866-6.669
	c2.648-2.59,4.898-5.707,7.131-8.659l-43.009,9.416c0.415-11.274,4.66-64.004,0.844-71.438c1.81-1.863,11.097-3.874,14.008-5.031
	c5.225-2.679,10.056-5.397,14.199-9.63c12.128-12.392,14.144-26.499,13.964-42.934c-0.145-5.733-1.214-12.845,3.158-17.311
	C447.329,202.727,455.507,203.95,460.939,203.917z"/>
<path style="fill:#FEFEFD;" d="M422.435,301.384c18.115-10.789,35.155-19.417,56.873-13.982
	c11.809,2.956,20.796,8.212,30.725,14.957c-12.028,27.695-28.857,53.893-44.629,79.578L422.435,301.384z"/>
<path style="fill:#E46043;" d="M460.939,203.917l14.396-0.055c4.644-0.003,11.992-0.905,15.487,2.638
	c4.554,4.617,3.426,11.601,3.401,17.594c0.004,16.434,0.078,30.212,12.649,42.853c4.106,4.129,9.062,7.364,13.868,10.607
	l-10.707,24.805c-9.929-6.745-18.916-12.001-30.725-14.957c-21.718-5.435-38.758,3.193-56.873,13.982l-10.489-24.633
	c5.225-2.679,10.056-5.397,14.199-9.63c12.128-12.392,14.144-26.499,13.964-42.934c-0.145-5.733-1.214-12.845,3.158-17.311
	C447.329,202.727,455.507,203.95,460.939,203.917z"/>
<path style="fill:#111949;" d="M460.939,203.917l14.396-0.055c4.644-0.003,11.992-0.905,15.487,2.638
	c4.554,4.617,3.426,11.601,3.401,17.594l-54.114,0.093c-0.145-5.733-1.214-12.845,3.158-17.311
	C447.329,202.727,455.507,203.95,460.939,203.917z"/>
<path style="fill:#FEFEFD;" d="M604.77,390.155l40.406-0.002c0.49,0.863,0.981,1.841,1.061,2.847
	c1.116,14.03,0.1,29.028,0.077,43.179l-0.31,92.048l0.188,249.063c-16.645,7.335-27.817,17.437-34.538,34.632
	c-3.707,9.483-4.907,20.853-3.925,30.977c1.742,9.474,4.042,18.208,7.974,27.035c-15.528-5.111-29.547-3.692-44.184,3.726
	c-11.052,5.6-19.03,14.648-26.252,24.499l-5.767-0.373c-2.252-5.041-5.075-10.818-9.045-14.718
	c-13.026-12.793-35.091-9.153-51.995-9.01l-0.273-103.041l0.134-89.878l95.362,0.166l20.142,0.088c2.017,0.009,5.82,0.53,7.66,0.036
	c0.728-0.195,1.891-1.145,2.579-1.561C605.068,678.254,605.437,414.083,604.77,390.155z"/>
<path style="fill:#E46043;" d="M572.924,773.5c1.135-0.266,2.259-0.424,3.426-0.255c2.406,0.349,4.881,2.113,6.15,4.202
	c1.509,2.484,1.615,5.372,0.584,8.053c-1.021,2.657-3.165,3.535-5.584,4.577c-0.842,0.225-1.595,0.347-2.472,0.337
	c-2.215-0.023-4.368-0.9-5.877-2.562c-2.665-2.936-2.11-5.666-2.123-9.352C568.657,775.579,569.965,774.8,572.924,773.5z"/>
<path style="fill:#FEFEFD;" d="M1033.27,234.921c5.31,0.078,10.83-0.19,15.97,1.257c9.28,3.86,15.62,10.096,19.43,19.468
	c4.15,10.196,2.33,18.915,2.97,29.462l-0.01,25.668l-0.19,17.062l7.69,0.156l56.8-0.01l42.17-0.066l49.82,0.02l-0.06,152.963
	l48.75,0.101c7.62,0.004,15.9-0.737,23.43,0.057c0.02,9.45-2.61,25.425,3.36,32.926l0.9-0.201l5.7-0.358
	c2.88-0.395,6.06-2.48,8.62-3.832c13.55-7.155,22.57-17.318,31.39-29.59l40.93,0.042l48.2,0.035l37.95-0.296l0.08-21.788l-0.12-0.91
	l0.09-123.19l96.09,0.14l0.69-0.04l31.34,0.097l0.86-0.351l57.92,0.283l0.22-6.749c10.76-1.822,24.63-0.25,35.72-0.269
	l-0.03,196.653c-15.7,7.601-28.45,17.374-39.71,30.724c-18.75,24.926-28.16,50.65-23.73,82.25c3.61,25.812,17.12,51.321,38.1,67.155
	c7.86,5.941,16.69,10.83,25.48,15.266c-21.11,1.097-42.83-0.027-64.01-0.03c-5.51-0.001-18.04-1.414-22.39,1.383
	c-3.68,2.37-8.39,1.672-12.66,1.687c-9.98,0.033-21.47,0.969-31.27-0.596c-0.56-2.943-1.75-4.081-3.85-6
	c-3.14-0.714-3.77-0.663-6.85,0.301l-0.52,0.485c-1.74,1.668-2.53,2.841-3.24,5.214c-12.94,2.025-28.27,0.432-41.57,0.435
	l-93.26-0.016l-91.94,0.039c-13.54,0.001-28.8,1.51-42.03-0.417l-1.35-4.541c-0.78-1.666-1.84-2.501-3.49-3.187
	c-1.91-0.794-3.76-0.97-5.66,0.164c-3.06,1.831-3.15,3.884-4.05,7.023c-4.14,2.785-22.15,0.964-28.02,0.961l-53.88,0.05l0.06-28.415
	l-135.57,0.315l-0.22,30.609c-34.17,1.204-69.313,10.788-98.385,29.115c-9.669,6.096-18.236,13.391-27.419,20.129
	c-6.153,0.023-12.221-0.141-18.257,1.233l-1.114-0.291c-0.734-7.053,2.481-17.314,3.591-24.499l9.71-64.299l1.713-10.793l0.25-0.975
	c2.255-0.325,4.936-1.362,6.668-2.899c2.126-1.885,3.197-4.382,3.266-7.205c0.067-2.729-1.298-4.654-3.146-6.494
	c-2.93-2.917-5.685-3.228-9.634-3.265l-36.647,0.145l-32.874-0.081l-0.03-85.728l0.053-36.165l1.188-0.408l0.548-33.875
	l30.078,0.139c4.524,0.015,10.157,0.65,14.526-0.371l10.627-90.443c1.867-18.381,2.532-37.928,7.015-55.867l-1.676-8.421
	c-1.389-4.255-4.261-11.413-2.677-15.478l77.472,0.203l-0.081-0.671c1.372-3.283,0.61-8.653,0.597-12.321l0.069-29.732l-0.044-0.438
	c-0.588-14.33-0.558-28.536,10.212-39.41c9.111-9.199,18.281-10.015,30.451-10.075c0.01,3.144-0.69,7.691,1.08,10.22l1.74-1
	L1033.27,234.921z"/>
<path style="fill:#C53634;" d="M1120.02,369.351l0.08,0.675l-9.59,20.087c-1.61,3.376-3.44,8.118-5.76,10.992
	c-6.72,0.04-21.31,1.98-26.04-2.863c-4.94-5.062-2.72-21.567-2.63-28.695C1089.79,370.307,1106.47,371.169,1120.02,369.351z"/>
<path style="fill:#111949;" d="M853.253,532.04l31.585,0.07l0.093,36.589l-32.919-0.086l0.053-36.165L853.253,532.04z"/>
<path style="fill:#1A3774;" d="M1350.01,480.004l40.93,0.042l-0.05,23.202c-0.02,2.719,0.48,6.148-0.83,8.585
	c-1.23,0.945-2.51,1.74-4.06,2.011c-8.41,1.462-19.3,0.164-27.91,0.169c-17.55,0.008-36.43,1.383-53.79-0.229l5.7-0.358
	c2.88-0.395,6.06-2.48,8.62-3.832C1332.17,502.439,1341.19,492.276,1350.01,480.004z"/>
<path style="fill:#3791A1;" d="M950.647,498.152c2.238,9.187,7.247,22.066,6.428,31.348c-0.536,0.513-1.988,2.254-2.575,2.463
	c-2.502,0.893-9.399,0.006-12.271,0.008L893.731,532l4.42-33.671L950.647,498.152z"/>
<path style="fill:#A91C2C;" d="M1120.1,370.026l57.97-0.22c0.05,6.222,1.98,23.766-1.99,28.194c-2.42,2.708-4.53,3.395-8.09,3.379
	l-63.24-0.274c2.32-2.874,4.15-7.616,5.76-10.992L1120.1,370.026z"/>
<path style="fill:#CD4137;" d="M1135.93,327.984l42.17-0.066l-0.03,41.888l-57.97,0.22l-0.08-0.675L1135.93,327.984z"/>
<path style="fill:#E46043;" d="M1079.13,327.994l56.8-0.01l-15.91,41.367c-13.55,1.818-30.23,0.956-43.94,0.196L1079.13,327.994z"/>
<path style="fill:#EB704A;" d="M1227.86,480.901l48.75,0.101c7.62,0.004,15.9-0.737,23.43,0.057c0.02,9.45-2.61,25.425,3.36,32.926
	l-47.06,0.094c-6.86-0.004-14.8,0.746-21.52-0.131c-1.66-0.217-2.93-1.136-4.09-2.273
	C1225.55,506.586,1227.84,488.239,1227.86,480.901z"/>
<path style="fill:#EB704A;" d="M1021.25,459.492l49.7-0.297l0.26,23.805c-1.37,3.05-2.51,5.406-5.97,6.512
	c-4.76,1.52-68,0.809-70.968-1.132l-0.473-0.346c-0.642-0.382-0.676-0.36-1.303-0.976c-4.442-4.369-2.543-21.318-2.597-27.781
	l30.731,0.551L1021.25,459.492z"/>
<path style="fill:#EF9854;" d="M989.899,459.277l30.731,0.551c-6.18,9.975-15.12,20.527-25.244,26.651
	c-0.709,0.429-1.118,0.879-1.587,1.555c-0.642-0.382-0.676-0.36-1.303-0.976C988.054,482.689,989.953,465.74,989.899,459.277z"/>
<path style="fill:#1F4980;" d="M852.012,568.613l32.919,0.086l-0.015,85.723l-32.874-0.081L852.012,568.613z"/>
<path style="fill:#1A3774;" d="M1573.29,457.661c9.95-0.19,21.89-1.188,31.65,0.275l59.11-0.032c0.08,6.664,0.84,13.869-2.34,19.927
	l-0.36,0.701c-2.37,4.544-6.48,9.231-11.49,10.89c-2.36,0.784-5.2,0.54-7.66,0.388l-58.5,0.02l-0.28-0.597l-10.45-0.191
	L1573.29,457.661z"/>
<path style="fill:#58ACB2;" d="M1573.29,457.661c9.95-0.19,21.89-1.188,31.65,0.275l-0.09,0.704
	c-1.5,11.407-10.49,23.673-19.43,30.623l37.1,0.077c6.3,0.019,13.5-0.656,19.68,0.47l-58.5,0.02l-0.28-0.597l-10.45-0.191
	L1573.29,457.661z"/>
<path style="fill:#C53634;" d="M1439.14,480.081l37.95-0.296l-0.01,9.913c-0.03,7.219,0.98,16.173-0.32,23.173l-1.84,1.026
	l-52.07,0.05c-10.48,0.003-22.99,1.554-32.79-2.114c1.31-2.437,0.81-5.866,0.83-8.585l0.05-23.202L1439.14,480.081z"/>
<path style="fill:#DC513A;" d="M1390.94,480.046l48.2,0.035c-6.22,14.226-14.85,25.866-28.91,32.902l66.53-0.112l-1.84,1.026
	l-52.07,0.05c-10.48,0.003-22.99,1.554-32.79-2.114c1.31-2.437,0.81-5.866,0.83-8.585L1390.94,480.046z"/>
<path style="fill:#429EA7;" d="M1477.17,457.997l96.12-0.336l-0.32,31.381l10.45,0.191l0.28,0.597l-106.62-0.132l0.01-9.913
	L1477.17,457.997z"/>
<path style="fill:#429EA7;" d="M853.801,498.165l30.078,0.139c4.524,0.015,10.157,0.65,14.526-0.371l10.627-90.443
	c1.867-18.381,2.532-37.928,7.015-55.867l34.6,146.529l-52.496,0.177L893.731,532l-8.893,0.11l-31.585-0.07L853.801,498.165z"/>
<path style="fill:#58ACB2;" d="M1606.12,333.743l57.92,0.283l0.01,123.878l-59.11,0.032c1.29-2.623,0.86-6.162,0.89-9.034
	l0.08-22.975l0.06-62.124c0-9.202,1.31-20.788-0.71-29.709L1606.12,333.743z"/>
<path style="fill:#111949;" d="M1016.89,654.813c-4.15,1.158-9.1,2.032-13.42,2.024c-18.386-0.034-33.016-15.672-38.495-32.112
	c-0.63-1.89-1.506-9.035-2.395-10.089c-1.482-1.757-30.925,3.644-38.05-4.136c-1.501-1.639-2.017-4.335-1.871-6.484
	c0.964-14.102,24.686-10.05,34.689-9.962c1.509,0.014,3.536,1.182,4.529,0.044c0.764-0.875,1.715-7.518,2.182-9.098
	c2.554-8.64,7.42-17.328,14.05-23.487c9.524-8.848,17.911-10.934,30.431-10.499c13.02,3.656,22.82,12.043,29.49,23.795
	c7.95,13.989,9.82,31.725,5.47,47.176c-3.95,13.977-12.7,25.2-25.4,32.185L1016.89,654.813z"/>
<path style="fill:#E46043;" d="M999.236,574.136c3.424-0.203,6.674-0.009,9.884,1.332c6.41,2.679,11.38,9.069,13.97,15.347
	c3.61,8.776,3.57,19.26-0.18,27.979c-3.27,7.583-8.83,12.702-16.48,15.647c-3.45-0.036-6.96-0.157-10.261-1.277
	c-5.932-2.012-10.633-7.59-13.234-13.086c-4.165-8.798-4.735-18.644-1.357-27.819C984.996,582.975,990.405,578.169,999.236,574.136z
	"/>
<path style="fill:#FEFEFD;" d="M999.372,595.5c1.148-0.236,2.448-0.563,3.628-0.523c2.75,0.096,5.11,2.089,6.73,4.183
	c1.73,2.222,1.77,6.174,1.3,8.84c-0.58,3.274-2.36,4.632-4.85,6.5c-1.27,0.4-2.39,0.651-3.72,0.479
	c-2.891-0.371-5.14-1.626-6.888-4.034c-1.728-2.383-2.047-5.604-1.534-8.445C994.625,599.254,996.862,597.371,999.372,595.5z"/>
<path style="fill:#B6DADA;" d="M1573.92,333.997l31.34,0.097c2.02,8.921,0.71,20.507,0.71,29.709l-0.06,62.124l-0.08,22.975
	c-0.03,2.872,0.4,6.411-0.89,9.034c-9.76-1.463-21.7-0.465-31.65-0.275l-96.12,0.336l-0.12-0.91l0.09-123.19l96.09,0.14
	L1573.92,333.997z"/>
<path style="fill:#92CBCC;" d="M1573.92,333.997l31.34,0.097c2.02,8.921,0.71,20.507,0.71,29.709l-0.06,62.124l-0.08,22.975
	c-0.03,2.872,0.4,6.411-0.89,9.034c-9.76-1.463-21.7-0.465-31.65-0.275l-96.12,0.336l-0.12-0.91l96.28-0.073
	c0.99-1.873,0.54-5.032,0.54-7.188l-0.02-19.286c-0.06-31.766,1.62-64.879-0.62-96.503L1573.92,333.997z"/>
<path style="fill:#F8B873;" d="M1033.27,234.921c5.31,0.078,10.83-0.19,15.97,1.257c9.28,3.86,15.62,10.096,19.43,19.468
	c4.15,10.196,2.33,18.915,2.97,29.462l-0.01,25.668l-0.19,17.062l0.06,105.831l0.35,36.869c0.01,3.324,0.77,9.56-0.64,12.462
	l-0.26-23.805l-49.7,0.297l-0.62,0.336l-30.731-0.551l0.106-93.13L990.004,341c-0.005-4.219,0.523-9.049-0.838-13.073l-0.081-0.671
	c1.372-3.283,0.61-8.653,0.597-12.321l0.069-29.732l-0.044-0.438c-0.588-14.33-0.558-28.536,10.212-39.41
	c9.111-9.199,18.281-10.015,30.451-10.075c0.01,3.144-0.69,7.691,1.08,10.22l1.74-1L1033.27,234.921z"/>
<path style="fill:#EF9854;" d="M1049.24,236.178c9.28,3.86,15.62,10.096,19.43,19.468c4.15,10.196,2.33,18.915,2.97,29.462
	l-0.01,25.668l-0.19,17.062l0.06,105.831l0.35,36.869c0.01,3.324,0.77,9.56-0.64,12.462l-0.26-23.805l-49.7,0.297
	c25.19-39.027,31.35-89.89,32.97-135.276c0.67-18.58,0.95-37.688-0.52-56.224C1052.84,257.129,1050.62,246.881,1049.24,236.178z"/>
<path style="fill:#429EA7;" d="M1477.35,550.953c23.07-23.518,51.47-34.7,84.43-34.918c38.14-0.252,69.72,13.973,98.46,38.35
	c-18.75,24.926-28.16,50.65-23.73,82.25c3.61,25.812,17.12,51.321,38.1,67.155c7.86,5.941,16.69,10.83,25.48,15.266
	c-21.11,1.097-42.83-0.027-64.01-0.03c-5.51-0.001-18.04-1.414-22.39,1.383c-3.68,2.37-8.39,1.672-12.66,1.687
	c-9.98,0.033-21.47,0.969-31.27-0.596c-0.56-2.943-1.75-4.081-3.85-6c-3.14-0.714-3.77-0.663-6.85,0.301l-0.52,0.485
	c-1.74,1.668-2.53,2.841-3.24,5.214c-12.94,2.025-28.27,0.432-41.57,0.435l-93.26-0.016l-91.94,0.039
	c-13.54,0.001-28.8,1.51-42.03-0.417l-1.35-4.541c-0.78-1.666-1.84-2.501-3.49-3.187c-1.91-0.794-3.76-0.97-5.66,0.164
	c-3.06,1.831-3.15,3.884-4.05,7.023c-4.14,2.785-22.15,0.964-28.02,0.961l-53.88,0.05l0.06-28.415l-135.57,0.315l0.24-38.596
	c-12.03-1.52-25.64-0.152-37.89-0.502l1.21-0.643c12.7-6.985,21.45-18.208,25.4-32.185c4.35-15.451,2.48-33.187-5.47-47.176
	c-6.67-11.752-16.47-20.139-29.49-23.795L1477.35,550.953z"/>
<path style="fill:#FEFEFD;" d="M1190.1,655.268l88.6-0.162c-4.76,18.784-15.89,38.401-26.5,54.471
	c-2.69,4.068-5.06,8.739-8.27,12.384l-53.88,0.05l0.06-28.415L1190.1,655.268z"/>
<path style="fill:#111949;" d="M1054.78,655.315l135.32-0.047l0.01,38.328l-135.57,0.315L1054.78,655.315z"/>
<path style="fill:#C8E2E2;" d="M1278.7,655.106l139.14,0.118l0.46,0.205c3.11,1.249,6.88,0.789,10.18,0.794l23.3-0.071
	c-4.04,15.029-8.3,29.479-15.88,43.201c-4.5,8.157-10.09,15.008-15.43,22.566l-91.94,0.039c-13.54,0.001-28.8,1.51-42.03-0.417
	l-1.35-4.541c-0.78-1.666-1.84-2.501-3.49-3.187c-1.91-0.794-3.76-0.97-5.66,0.164c-3.06,1.831-3.15,3.884-4.05,7.023
	c-4.14,2.785-22.15,0.964-28.02,0.961c3.21-3.645,5.58-8.316,8.27-12.384C1262.81,693.507,1273.94,673.89,1278.7,655.106z"/>
<path style="fill:#B6DADA;" d="M1477.35,550.953c23.07-23.518,51.47-34.7,84.43-34.918c38.14-0.252,69.72,13.973,98.46,38.35
	c-18.75,24.926-28.16,50.65-23.73,82.25c3.61,25.812,17.12,51.321,38.1,67.155c7.86,5.941,16.69,10.83,25.48,15.266
	c-21.11,1.097-42.83-0.027-64.01-0.03c-5.51-0.001-18.04-1.414-22.39,1.383c-3.68,2.37-8.39,1.672-12.66,1.687
	c-9.98,0.033-21.47,0.969-31.27-0.596c-0.56-2.943-1.75-4.081-3.85-6c-3.14-0.714-3.77-0.663-6.85,0.301l-0.52,0.485
	c-1.74,1.668-2.53,2.841-3.24,5.214c-12.94,2.025-28.27,0.432-41.57,0.435l-93.26-0.016c5.34-7.558,10.93-14.409,15.43-22.566
	c7.58-13.722,11.84-28.172,15.88-43.201l-23.3,0.071c-3.3-0.005-7.07,0.455-10.18-0.794l-0.46-0.205l63.52-0.122
	c17.86,0,41.67,2.977,58-4.818c15.07-7.196,22.35-19.932,27.57-35.155l-3.41-0.248l-1.57-1.881c0-5.291-1.54-17.715,1.14-21.759
	l3.8-0.342c-1.56-2.23-1.89-5.337-2.8-7.908c-2.53-7.187-7.11-13.48-12.45-18.825c-13.15-13.145-28.06-13.13-45.23-13.194
	L1477.35,550.953z"/>
<path style="fill:#111949;" d="M1566.93,615.129l-3.41-0.248l-1.57-1.881c0-5.291-1.54-17.715,1.14-21.759l3.8-0.342
	c9.62,0.207,26.64-2.563,33.56,4.906c2.68,2.895,2.75,5.158,2.55,8.917c-0.14,2.605-1.82,5.544-3.84,7.244
	C1592.19,617.832,1575.74,614.47,1566.93,615.129z"/>
<path style="fill:#111949;" d="M212.589,628.194l3.762-0.253c7.492,0.955,16.041,0.313,23.671,0.365
	c3.722,0.026,7.924,0.556,11.474-0.667l3.517,0.355c12.527,2.518,28.53,0.63,41.447,0.539c2.486-0.192,5.851-0.071,8.204-0.734
	l3.307,0.706l27.052-0.35l0.011,29.983l-0.261,16.03l0.039,6.758l37.684,0.334l50.377-0.011l34.203-0.013l0.084,17.518l0.472,31.903
	c0.001,2.684-0.754,8.914,0.158,11.336c0.958,2.548,4.192,6.106,5.816,8.403l14.581,20.621l0.273,103.041
	c16.904-0.143,38.969-3.783,51.995,9.01c3.97,3.9,6.793,9.677,9.045,14.718l5.767,0.373c7.222-9.851,15.2-18.899,26.252-24.499
	c14.637-7.418,28.656-8.837,44.184-3.726c-3.932-8.827-6.232-17.561-7.974-27.035c-0.982-10.124,0.218-21.494,3.925-30.977
	c6.721-17.195,17.893-27.297,34.538-34.632l10.504-2.72l3.41,0.518l81.892-0.252l42.388-0.163c3.659-0.02,10.785,0.927,14.114-0.075
	c0.449-0.136,1.578-1.348,2-1.709l0.346,0.302c3.402,2.638,15.685,1.337,20.154,0.918l1.336-2.005l1.238,0.228l1.3,2.066
	c5.341,0.055,18.569,1.758,22.446-1.155c0.744,0.543,1.251,0.968,2.18,1.145c3.71,0.709,15.254,0.825,18.135-1.045
	c3.111,2.277,6.66,1.7,10.325,1.647l21.909-0.753c2.892-0.017,6.526-0.48,9.276,0.469l1.114,0.291
	c6.036-1.374,12.104-1.21,18.257-1.233c9.183-6.738,17.75-14.033,27.419-20.129c29.072-18.327,64.215-27.911,98.385-29.115
	l0.22-30.609l135.57-0.315l-0.06,28.415l53.88-0.05c5.87,0.003,23.88,1.824,28.02-0.961c0.9-3.139,0.99-5.192,4.05-7.023
	c1.9-1.134,3.75-0.958,5.66-0.164c1.65,0.686,2.71,1.521,3.49,3.187l1.35,4.541c13.23,1.927,28.49,0.418,42.03,0.417l91.94-0.039
	l93.26,0.016c13.3-0.003,28.63,1.59,41.57-0.435c0.71-2.373,1.5-3.546,3.24-5.214l0.52-0.485c3.08-0.964,3.71-1.015,6.85-0.301
	c2.1,1.919,3.29,3.057,3.85,6c9.8,1.565,21.29,0.629,31.27,0.596c4.27-0.015,8.98,0.683,12.66-1.687
	c4.35-2.797,16.88-1.384,22.39-1.383c21.18,0.003,42.9,1.127,64.01,0.03l52.42,0.077l31.47-0.056l50.62,0.021l24.29-0.045
	l28.46-0.083c7.06-0.142,16.8-1.61,22.33,3.578c1.41,1.323,2.63,2.887,3.78,4.435l0.93,5.666c-1.42,4.247-2.64,6.998-6.39,9.599
	l-0.46,0.325c-3.88,2.62-12.26,1.543-16.88,1.559l-38.54-0.13l-0.15,69.446l0.05,79.209c0.22,1.647,0.24,3.86,0.99,5.331l0.44,0.2
	c9.31,3.84,25.55-5.104,31.59,4.812c-0.12,4.217-0.31,4.685-3.27,7.696c-7.34,1.393-15.79,0.607-23.27,0.56
	c-3.78-0.024-8.53,0.585-12-1.099c-0.67-0.934-1.78-2.145-2.26-3.157c-1.31-2.759,1.13-3.951-2.24-5.937l-7.96,0.212
	c-1.65,2.289-0.4,4.468-1.36,6.473c-0.28,0.603-2.58,2.263-3.18,2.788l-7,0.833c-3.35-1.18-10.95-0.182-14.8-0.216l-56.02-0.148
	l-201.85,0.109l-1129.094,0.289l-207.85-0.092l-42.54-0.072c-4.578,0.005-11.789,0.99-15.95-0.301
	c-1.74-0.539-3.336-2.558-3.896-4.221c-0.896-2.665,0.394-4.437,1.547-6.673c3.603-3.068,9.508-2.082,13.985-1.983
	c-0.039-5.861-1.127-14.684,0.973-20.061c2.045-1.179,4.238-1.867,6.458-2.635l-5.656-7.067l-1.688-1.798
	c-0.075-6.795-0.39-13.668,0.381-20.431c2.074-1.468,3.994-2.259,6.364-3.068l-4.845-6.9l-1.865-1.601l0.121-19.5
	c2.062-3.401,3.642-3.067,7.391-4.068l-4.654-6.747l-2.625-2.458c-0.047-4.411-1.525-18.236,0.434-21.504
	c0.797-1.329,4.639-1.595,6.239-1.931l-4.16-7.016l-2.072-1.776c-0.481-5.546-1.973-17.519,0.188-22.445l5.692-1.903l-3.552-6.032
	l-2.656-2.301c-0.608-5.805-1.567-18.263,1.5-22.923l5.66-0.883l-4.613-6.856c-0.706-0.387-0.579-0.265-1.268-0.939
	c-3.3-3.224-1.763-25.093-1.789-30.566l0.02-0.853l0.021-15.674c-5.181,0.4-16.053,1.1-20.531-1.25
	c-0.817-1.053-3.026-3.234-3.393-4.375c-1.153-3.58-0.296-12.191-0.134-16.187c0.099-2.451,1.363-4.621,3.317-6.125
	C150.5,626.176,203.05,627.462,212.589,628.194z"/>
<path style="fill:#F8B873;" d="M313.913,874.829l83.601,0.44l0.396,7.009c-3.902,5.038-6.362,9.987-8.83,15.803l-75.186,0.065
	L313.913,874.829z"/>
<path style="fill:#AAD9D8;" d="M545.267,898.159c7.222-9.851,15.2-18.899,26.252-24.499c14.637-7.418,28.656-8.837,44.184-3.726
	c6.47,9.543,14.184,17.927,24.632,23.116c3.588,1.782,7.755,2.888,11.141,4.919L545.267,898.159z"/>
<path style="fill:#3B5A94;" d="M296.802,706.723c3.165-1.282,4.253-1.694,7.762-1.286c0.543,0.679,2.192,2.326,2.45,3.063
	c0.677,1.938,0.15,6.515,0.187,8.708l0.166,28.571l-0.194,152.311l-10.602,0.092l-0.204-7.919l0.111-22.01l-0.158-25.362
	l-0.003-6.684l-0.18-25.383l0.05-6.934l0.022-26.067l0.077-6.699l-0.042-26.106l-0.055-6.498l-0.299-25.718
	C295.982,710.743,296.421,708.743,296.802,706.723z"/>
<path style="fill:#F8B873;" d="M313.791,836.207l83.192-0.232c0.054,2.239,0.353,4.745,0.085,6.955l1.171,0.99l-0.725,31.349
	l-83.601-0.44l-0.064-6.573l-0.004-25.455L313.791,836.207z"/>
<path style="fill:#EF9854;" d="M313.791,836.207l83.192-0.232c0.054,2.239,0.353,4.745,0.085,6.955l-83.223-0.129L313.791,836.207z"
	/>
<path style="fill:#EF9854;" d="M397.068,842.93l1.171,0.99l-0.725,31.349l-83.601-0.44l-0.064-6.573l83.328-0.214L397.068,842.93z"
	/>
<path style="fill:#F8B873;" d="M313.861,777.644l83.639,0.185l-0.083,26.202l0.668,23.731c-0.024,2.713,0.425,5.895-1.102,8.213
	l-83.192,0.232l0.042-25.57l-0.063-6.425L313.861,777.644z"/>
<path style="fill:#EF9854;" d="M313.77,804.212l83.647-0.181l0.668,23.731c-0.024,2.713,0.425,5.895-1.102,8.213l0.269-25.682
	l-83.419,0.344L313.77,804.212z"/>
<path style="fill:#F8B873;" d="M313.861,777.644l83.639,0.185l-0.083,26.202l-83.647,0.181L313.861,777.644z"/>
<path style="fill:#F8B873;" d="M313.943,712.584l83.332,0.149l0.157,25.511l0.008,6.879l0.224,25.995l-0.164,6.711l-83.639-0.185
	l-0.041-6.276l-0.01-26.577l-0.086-6.275L313.943,712.584z"/>
<path style="fill:#EF9854;" d="M313.82,771.368l83.844-0.25l-0.164,6.711l-83.639-0.185L313.82,771.368z"/>
<path style="fill:#F8B873;" d="M313.943,712.584l83.332,0.149l0.157,25.511l0.008,6.879l-83.63-0.332l-0.086-6.275L313.943,712.584z
	"/>
<path style="fill:#EF9854;" d="M313.724,738.516l83.708-0.272l0.008,6.879l-83.63-0.332L313.724,738.516z"/>
<path style="fill:#F8B873;" d="M173.666,810.932l122.471-0.108l0.18,25.383l0.003,6.684l0.158,25.362l-0.111,22.01l0.204,7.919
	l-130.539-0.121c-0.039-5.861-1.127-14.684,0.973-20.061c2.045-1.179,4.238-1.867,6.458-2.635l-5.656-7.067l-1.688-1.798
	c-0.075-6.795-0.39-13.668,0.381-20.431c2.074-1.468,3.994-2.259,6.364-3.068l-4.845-6.9l-1.865-1.601l0.121-19.5
	C168.337,811.599,169.917,811.933,173.666,810.932z"/>
<path style="fill:#EF9854;" d="M296.478,868.253l-0.111,22.01l-0.145-15.079l-122.759,0.181l-5.656-7.067L296.478,868.253z"/>
<path style="fill:#F8B873;" d="M172.864,843.001l123.456-0.11l0.158,25.362l-128.671,0.045l-1.688-1.798
	c-0.075-6.795-0.39-13.668,0.381-20.431C168.574,844.601,170.494,843.81,172.864,843.001z"/>
<path style="fill:#F8B873;" d="M173.666,810.932l122.471-0.108l0.18,25.383l0.003,6.684l-123.456,0.11l-4.845-6.9l-1.865-1.601
	l0.121-19.5C168.337,811.599,169.917,811.933,173.666,810.932z"/>
<path style="fill:#EF9854;" d="M168.019,836.101c13.797-1.589,29.137-0.256,43.077-0.234l85.221,0.34l0.003,6.684l-123.456,0.11
	L168.019,836.101z"/>
<path style="fill:#F8B873;" d="M173.66,713.013l122.23-0.211l0.299,25.718l0.055,6.498l0.042,26.106l-0.077,6.699l-0.022,26.067
	l-0.05,6.934l-122.471,0.108l-4.654-6.747l-2.625-2.458c-0.047-4.411-1.525-18.236,0.434-21.504
	c0.797-1.329,4.639-1.595,6.239-1.931l-4.16-7.016l-2.072-1.776c-0.481-5.546-1.973-17.519,0.188-22.445l5.692-1.903l-3.552-6.032
	l-2.656-2.301c-0.608-5.805-1.567-18.263,1.5-22.923L173.66,713.013z"/>
<path style="fill:#EF9854;" d="M168.9,771.276l127.386-0.152l-0.077,6.699l-123.149,0.469L168.9,771.276z"/>
<path style="fill:#F8B873;" d="M173.66,713.013l122.23-0.211l0.299,25.718l0.055,6.498l-76.626,0.377
	c-14.902,0.048-32.263,1.863-46.91-0.243l-3.552-6.032l-2.656-2.301c-0.608-5.805-1.567-18.263,1.5-22.923L173.66,713.013z"/>
<path style="fill:#EF9854;" d="M296.189,738.52l0.055,6.498l-76.626,0.377c-14.902,0.048-32.263,1.863-46.91-0.243l-3.552-6.032
	c11.556-2.192,26.163-0.602,38.062-0.638L296.189,738.52z"/>
<path style="fill:#F8B873;" d="M173.06,778.292l123.149-0.469l-0.022,26.067l-0.05,6.934l-122.471,0.108l-4.654-6.747l-2.625-2.458
	c-0.047-4.411-1.525-18.236,0.434-21.504C167.618,778.894,171.46,778.628,173.06,778.292z"/>
<path style="fill:#EF9854;" d="M169.012,804.185c13.299-1.707,28.348-0.419,41.813-0.465l85.362,0.17l-0.05,6.934l-122.471,0.108
	L169.012,804.185z"/>
<path style="fill:#FEFEFD;" d="M372.496,681.26l50.377-0.011l34.203-0.013l0.084,17.518l0.472,31.903
	c0.001,2.684-0.754,8.914,0.158,11.336c0.958,2.548,4.192,6.106,5.816,8.403l14.581,20.621l0.273,103.041l-21.351,0.023
	l-40.154-0.289c-7.644-0.087-13.23,4.069-19.045,8.486l-0.396-7.009l0.725-31.349l-1.171-0.99c0.268-2.21-0.031-4.716-0.085-6.955
	c1.527-2.318,1.078-5.5,1.102-8.213l-0.668-23.731l0.083-26.202l0.164-6.711l-0.224-25.995l-0.008-6.879l-0.157-25.511l0.053-6.646
	c1.04-7.746,0.246-16.592,0.277-24.463L372.496,681.26z"/>
<path style="fill:#3B5A94;" d="M457.16,698.754l0.472,31.903c0.001,2.684-0.754,8.914,0.158,11.336
	c0.958,2.548,4.192,6.106,5.816,8.403l14.581,20.621l0.273,103.041l-21.351,0.023c-0.669-6.801-0.043-14.29-0.035-21.151
	l0.039-43.11L457.16,698.754z"/>
<path style="fill:#EB704A;" d="M372.496,681.26l50.377-0.011c2.76,7.657,1.953,16.232,1.768,24.251
	c-2.057,3.755-5.38,3.791-6.729,7.591c3.074,1.453,5.029,2.396,6.836,5.409c0.008,5.319,1.425,17.853-1.509,22
	c-1.921,1.09-3.622,1.918-4.937,3.758l-0.294,1.727c3.352,1.786,4.861,2.124,6.714,5.515l0.027,20
	c-1.98,1.768-3.786,3.276-6.157,4.531l-0.633,2.109l3.35,2.043l2.844,2.317c0.382,3.868,1.682,19.762-0.543,22.454
	c-1.61,1.947-4.816,3.377-7.281,3.825l2.925,3.635c2.693,0.841,3.146,1.357,5.083,3.455c0.754,6.851,0.357,13.906,0.248,20.793
	c-2.283,2.845-3.731,3.791-7.275,4.665l0.878,2.644c2.997,1.125,4.721,1.794,6.596,4.529c0.023,5.186,1.458,17.824-1.504,21.783
	l-6.325,3.509c-7.644-0.087-13.23,4.069-19.045,8.486l-0.396-7.009l0.725-31.349l-1.171-0.99c0.268-2.21-0.031-4.716-0.085-6.955
	c1.527-2.318,1.078-5.5,1.102-8.213l-0.668-23.731l0.083-26.202l0.164-6.711l-0.224-25.995l-0.008-6.879l-0.157-25.511l0.053-6.646
	c1.04-7.746,0.246-16.592,0.277-24.463L372.496,681.26z"/>
<path style="fill:#CD4137;" d="M401,713.127c5.273-2.696,9.762-3.147,15.598-2.589l1.314,2.553l-1.445,1.892
	c-3.484,0.011-13.102,0.94-15.82-0.626L401,713.127z"/>
<path style="fill:#DC513A;" d="M398.707,844.177c2.462-0.864,4.788-2.305,7.319-2.948c3.156-0.802,7.956-0.063,11.284,0.098
	l0.878,2.644c-5.091,2.924-11.795,2.004-17.661,2.123L398.707,844.177z"/>
<path style="fill:#DC513A;" d="M421.309,780.183c-6.672,1.184-14.23,1.379-20.809-0.302l-0.561-1.381
	c4.28-2.318,7.393-2.584,12.132-2.506c3.137,0.052,3.628-0.191,5.888,2.146L421.309,780.183z"/>
<path style="fill:#DC513A;" d="M419.254,812.414c-6.125,1.731-13.041,2.376-19.166,0.343l-0.393-1.257
	c5.783-3.322,10.082-3.306,16.634-2.721L419.254,812.414z"/>
<path style="fill:#DC513A;" d="M400.204,746.298c5.976-3.207,9.508-3.499,16.296-3.233l1.508,2.92l-1.133,1.904
	c-5.901,0.842-10.407,1.113-16.236-0.476L400.204,746.298z"/>
<path style="fill:#A91C2C;" d="M607.729,842.899l264.279,0.058c3.497,18.635,9.15,34.858,25.576,46.127
	c2.903,1.991,6.014,3.948,9.285,5.263c6.935,3.257,12.619,2.969,20.108,2.867c-9.968,2.054-21.657,0.819-31.895,0.81l-60.103-0.038
	l-121.491,0.063l-62.012-0.08c-3.386-2.031-7.553-3.137-11.141-4.919c-10.448-5.189-18.162-13.573-24.632-23.116
	C611.771,861.107,609.471,852.373,607.729,842.899z"/>
<path style="fill:#F8B873;" d="M212.589,628.194l3.762-0.253c7.492,0.955,16.041,0.313,23.671,0.365
	c3.722,0.026,7.924,0.556,11.474-0.667l3.517,0.355c12.527,2.518,28.53,0.63,41.447,0.539c2.486-0.192,5.851-0.071,8.204-0.734
	l3.307,0.706l27.052-0.35l0.011,29.983l-0.261,16.03l0.039,6.758l37.684,0.334l25.109,0.364c-0.031,7.871,0.763,16.717-0.277,24.463
	l-0.053,6.646l-83.332-0.149c-0.009-2.236-0.413-4.468-0.718-6.68c-0.689-1.143-1.42-2.448-2.357-3.404
	c-2.516-2.565-4.501-2.455-7.868-2.525c-3.276,1.459-4.395,2.875-6.196,5.908l-0.002,0.84c-0.381,2.02-0.82,4.02-0.912,6.079
	l-122.23,0.211l-4.613-6.856c-0.706-0.387-0.579-0.265-1.268-0.939c-3.3-3.224-1.763-25.093-1.789-30.566l0.02-0.853l0.021-15.674
	c-5.181,0.4-16.053,1.1-20.531-1.25c-0.817-1.053-3.026-3.234-3.393-4.375c-1.153-3.58-0.296-12.191-0.134-16.187
	c0.099-2.451,1.363-4.621,3.317-6.125C150.5,626.176,203.05,627.462,212.589,628.194z"/>
<path style="fill:#A91C2C;" d="M335.034,658.138l-0.261,16.03l-168.763-0.369l0.021-15.674c3.096,0.802,8.232,0.151,11.508,0.167
	l27.004,0.131l89.241,0.311C307.092,658.748,322.031,660.257,335.034,658.138z"/>
<path style="fill:#F8B873;" d="M166.01,673.799l168.763,0.369l0.039,6.758l37.684,0.334l25.109,0.364
	c-0.031,7.871,0.763,16.717-0.277,24.463l-0.053,6.646l-83.332-0.149c-0.009-2.236-0.413-4.468-0.718-6.68
	c-0.689-1.143-1.42-2.448-2.357-3.404c-2.516-2.565-4.501-2.455-7.868-2.525c-3.276,1.459-4.395,2.875-6.196,5.908l-0.002,0.84
	c-0.381,2.02-0.82,4.02-0.912,6.079l-122.23,0.211l-4.613-6.856c-0.706-0.387-0.579-0.265-1.268-0.939
	c-3.3-3.224-1.763-25.093-1.789-30.566L166.01,673.799z"/>
<path style="fill:#EF9854;" d="M313.225,705.904l84.103,0.183l-0.053,6.646l-83.332-0.149
	C313.934,710.348,313.53,708.116,313.225,705.904z"/>
<path style="fill:#EF9854;" d="M169.047,706.157c12.449-1.86,27.238-0.36,39.948-0.346l87.809,0.072l-0.002,0.84
	c-0.381,2.02-0.82,4.02-0.912,6.079l-122.23,0.211L169.047,706.157z"/>
<path style="fill:#EF9854;" d="M166.01,673.799l168.763,0.369l0.039,6.758c-13.684-2.069-29.86-0.611-43.789-0.642l-94.368-0.068
	l-19.692-0.027c-3.266-0.009-7.045,0.434-10.152-0.689l-0.821-4.848L166.01,673.799z"/>
<path style="fill:#EB704A;" d="M741.998,774.836l42.388-0.163c3.659-0.02,10.785,0.927,14.114-0.075
	c0.449-0.136,1.578-1.348,2-1.709l0.346,0.302c3.402,2.638,15.685,1.337,20.154,0.918l1.336-2.005l1.238,0.228l1.3,2.066
	c5.341,0.055,18.569,1.758,22.446-1.155c0.744,0.543,1.251,0.968,2.18,1.145c3.71,0.709,15.254,0.825,18.135-1.045
	c3.111,2.277,6.66,1.7,10.325,1.647l21.909-0.753c2.892-0.017,6.526-0.48,9.276,0.469l1.114,0.291
	c-18.108,9.085-28.712,20.788-35.148,40.178c-2.69,8.103-4.056,19.22-3.103,27.782l-264.279-0.058
	c-0.982-10.124,0.218-21.494,3.925-30.977c6.721-17.195,17.893-27.297,34.538-34.632l10.504-2.72l3.41,0.518L741.998,774.836z"/>
<path style="fill:#B6DADA;" d="M1054.32,724.52l-0.19,77.315c0.01,16.661,2.14,36.323-1.75,52.538
	c-2.55,10.657-8.35,20.569-16.12,28.251c-7.15,7.073-15.93,11.872-25.61,14.544c-1.86,0.385-3.75,0.733-5.65,0.8l-44.145,0.193
	c-3.068-0.017-9.685,0.764-12.355-0.21c-1.032-0.377-4.319-4.116-5.269-5.021c-4.722,1.997-9.169,3.648-14.194,4.787l-2.06-0.503
	c-7.489,0.102-13.173,0.39-20.108-2.867c-3.271-1.315-6.382-3.272-9.285-5.263c-16.426-11.269-22.079-27.492-25.576-46.127
	c-0.953-8.562,0.413-19.679,3.103-27.782c6.436-19.39,17.04-31.093,35.148-40.178c6.036-1.374,12.104-1.21,18.257-1.233
	c9.183-6.738,17.75-14.033,27.419-20.129C985.007,735.308,1020.15,725.724,1054.32,724.52z"/>
<path style="fill:#DC513A;" d="M910.259,774.997c6.036-1.374,12.104-1.21,18.257-1.233c16.026,3.278,28.095,10.316,37.265,24.107
	c10.497,15.787,13.546,33.085,9.65,51.663c-3.339,15.922-13.24,31.386-26.96,40.225l-5.24,3.171
	c-4.722,1.997-9.169,3.648-14.194,4.787l-2.06-0.503c-7.489,0.102-13.173,0.39-20.108-2.867c-3.271-1.315-6.382-3.272-9.285-5.263
	c-16.426-11.269-22.079-27.492-25.576-46.127c-0.953-8.562,0.413-19.679,3.103-27.782
	C881.547,795.785,892.151,784.082,910.259,774.997z"/>
<path style="fill:#E46043;" d="M906.869,894.347c3.166-0.807,5.69-1.46,8.981-1.051c5.184,0.646,11.217,0.491,16.383-0.258
	c-1.222,1.403-3.155,1.702-4.907,2.288c0.573,0.699,1.473,1.524,1.711,2.391l-2.06-0.503
	C919.488,897.316,913.804,897.604,906.869,894.347z"/>
<path style="fill:#429EA7;" d="M915.397,810.683c6.333-2.579,12.569-3.022,18.954-0.274c6.407,2.758,11.944,8.823,14.384,15.331
	c2.519,6.718,2.361,15.019-0.703,21.547c-2.996,6.381-8.713,11.781-15.453,14.005c-5.226,1.725-12.011,1.227-16.93-1.311
	l-0.892-0.495l4.651-1.966c5.984-2.919,10.781-9.158,12.847-15.417c2.18-6.603,1.258-13.393-1.975-19.483
	C926.946,816.341,922.088,812.808,915.397,810.683z"/>
<path style="fill:#B6DADA;" d="M915.397,810.683c6.691,2.125,11.549,5.658,14.883,11.937c3.233,6.09,4.155,12.88,1.975,19.483
	c-2.066,6.259-6.863,12.498-12.847,15.417l-4.651,1.966c-4.457-2.396-8.082-5.827-10.724-10.167
	c-3.68-6.042-5.046-13.413-3.179-20.308C903.098,820.719,908.036,814.851,915.397,810.683z"/>
<path style="fill:#1F4980;" d="M1054.54,693.911l135.57-0.315l-0.06,28.415l53.88-0.05c5.87,0.003,23.88,1.824,28.02-0.961
	c0.9-3.139,0.99-5.192,4.05-7.023c1.9-1.134,3.75-0.958,5.66-0.164c1.65,0.686,2.71,1.521,3.49,3.187l1.35,4.541
	c13.23,1.927,28.49,0.418,42.03,0.417l91.94-0.039l93.26,0.016c13.3-0.003,28.63,1.59,41.57-0.435c0.71-2.373,1.5-3.546,3.24-5.214
	l0.52-0.485c3.08-0.964,3.71-1.015,6.85-0.301c2.1,1.919,3.29,3.057,3.85,6c9.8,1.565,21.29,0.629,31.27,0.596
	c4.27-0.015,8.98,0.683,12.66-1.687c4.35-2.797,16.88-1.384,22.39-1.383c21.18,0.003,42.9,1.127,64.01,0.03l52.42,0.077l31.47-0.056
	l50.62,0.021l24.29-0.045l28.46-0.083c7.06-0.142,16.8-1.61,22.33,3.578c1.41,1.323,2.63,2.887,3.78,4.435l0.93,5.666
	c-1.42,4.247-2.64,6.998-6.39,9.599l-0.46,0.325c-3.88,2.62-12.26,1.543-16.88,1.559l-38.54-0.13l-0.15,69.446l0.05,79.209
	c0.22,1.647,0.24,3.86,0.99,5.331l0.44,0.2c9.31,3.84,25.55-5.104,31.59,4.812c-0.12,4.217-0.31,4.685-3.27,7.696
	c-7.34,1.393-15.79,0.607-23.27,0.56c-3.78-0.024-8.53,0.585-12-1.099c-0.67-0.934-1.78-2.145-2.26-3.157
	c-1.31-2.759,1.13-3.951-2.24-5.937l-7.96,0.212c-1.65,2.289-0.4,4.468-1.36,6.473c-0.28,0.603-2.58,2.263-3.18,2.788l-7,0.833
	l7.5-3.614c1.98-2.925,1.73-4.357,2.5-7.755c3.54,0.06,7.7,0.505,11.12-0.397c1.64-0.431,3.01-0.578,4.69-0.656l0.69-0.027
	l1.09-2.927l-0.96,0.165l-1.66,1.734l-147.8,0.031l-0.1-54.719c-1.33,3.774-0.63,9.372-0.63,13.397
	c0,12.581,1.56,27.258-0.39,39.599l-1.69,0.664c-3.53,2.148-9.63,1.211-13.68,1.131l-13.44,0.008l-80.42-0.119
	c-14.92,1.763-31.53,1.493-46.51,0.395l-2.15,0.024l-233.68-0.275c-8.93-0.819-18.23-0.343-27.21-0.351l-47.08-0.017l-153.3,0.2
	l-42.11,0.026c-8.79-0.002-17.91,0.534-26.63-0.718c9.68-2.672,18.46-7.471,25.61-14.544c7.77-7.682,13.57-17.594,16.12-28.251
	c3.89-16.215,1.76-35.877,1.75-52.538l0.19-77.315L1054.54,693.911z"/>
<path style="fill:#111949;" d="M1116.17,709.055c2.61-0.078,5.4-0.269,7.94,0.387c5.41,1.391,9.93,5.164,12.51,10.07
	c1.85,3.509,2.05,9.86,0.81,13.612l-0.31,0.876l-0.73,1.966c-2.42,5.35-7.32,7.953-12.48,10.046c-3.9,0.14-7.33,0.082-11.02-1.279
	c-3.96-1.456-7.71-5.254-9.44-9.064c-1.94-4.24-2.67-10.039-0.93-14.444C1105.06,714.792,1110.14,711.717,1116.17,709.055z"/>
<path style="fill:#FEFEFD;" d="M1193.83,773.662c-4.42-16.523-3.84-31.422-3.53-48.435l37.25,0.005l15.06,0.315l-16.8,18.994
	C1215.77,754.744,1205.6,765.423,1193.83,773.662z"/>
<path style="fill:#111949;" d="M1697.01,744.171l155.11-0.169l-0.15,69.446c-3.17-5.093,0.4-11.42-1.51-16.198
	c-0.83-2.065-0.32-5.405-0.31-7.713c0.05-7.303,2.08-24.707-1.07-30.7c-3.94-1.82-143.17-2.114-149.33,0
	c-3.66,5.21-0.59,31.485-2.15,40.013c-0.86,4.732,1.56,10.232-0.42,15.225L1697.01,744.171z"/>
<path style="fill:#B6DADA;" d="M1227.55,725.232l48.95-0.178l1.17-1.843l-1.61-2.211c0.67-2.431,0.9-2.491,2.94-4.013
	c1.45,0.544,2.35,0.53,2.9,2.181c0.74,2.211,0.32,5.82,0.34,8.174l0.1,17.741l-0.29,8.904l-8.77,0.354
	c-1.21,1.847-1.05,1.99-0.87,4.083l-0.23,9.076c-2.91,2.473-8.02,2.264-11.83,3.402c-18.82,5.61-34.23,20.163-40.69,38.819
	c-13.06-10.24-19.76-20.639-25.83-36.059c11.77-8.239,21.94-18.918,31.98-29.121l16.8-18.994L1227.55,725.232z"/>
<path style="fill:#E46043;" d="M1272.41,758.424c-0.18-2.093-0.34-2.236,0.87-4.083l8.77-0.354l0.15,14.186l13.78,3.517
	c16.99,9.367,30.99,22.831,36.87,41.81c4.78,15.453,2.12,30.903-5.54,44.79c-4.94,8.972-14.04,19.426-24.02,22.88
	c-0.88-8.437-1.57-13.823-6.81-20.817l-0.48-1.938l-17.37-6.399c-3.39-2.132-6.8-4.236-9.08-7.633
	c-4.59-6.844-4.99-14.079-10.98-20.527l-2.52-1.186l-14.4-4.298c-8.26-1.7-14.8-4.364-21.99-8.651
	c6.46-18.656,21.87-33.209,40.69-38.819c3.81-1.138,8.92-0.929,11.83-3.402L1272.41,758.424z"/>
<path style="fill:#DC513A;" d="M1272.41,758.424c-0.18-2.093-0.34-2.236,0.87-4.083l8.77-0.354l0.15,14.186
	c-2.9,0.08-5.81,0.238-8.7-0.029C1273.41,764.829,1272.96,761.689,1272.41,758.424z"/>
<path style="fill:#A91C2C;" d="M1241.65,818.372c3.32-8.162,7.9-14.559,15.28-19.497c7.95-5.325,18.37-8.469,27.92-6.342
	c8.96,1.997,16.97,6.968,21.87,14.819c4.85,5.427,8.56,15.767,8.05,23.065c-0.6,8.599-6.34,21.723-13.27,27.204
	c-1.34,1.062-2.98,1.787-4.52,2.497l-0.5,0.235l-0.48-1.938l-17.37-6.399c-3.39-2.132-6.8-4.236-9.08-7.633
	c-4.59-6.844-4.99-14.079-10.98-20.527l-2.52-1.186L1241.65,818.372z"/>
<path style="fill:#CD4137;" d="M1279.15,836.686c1.61,1.937,3.16,3.927,5.05,5.6c4.02,4.781,9.67,10.221,11.8,16.129l-17.37-6.399
	c0.48-1.355,0.86-2.693,1.05-4.118c0.74-5.688,0.25-5.78-3.19-10.26L1279.15,836.686z"/>
<path style="fill:#C53634;" d="M1293.19,825.507l0.47-0.076c2.87-0.504,5.14-2.146,8.06-2.318c2.31,5.02,3.37,9.786,1.47,15.186
	c-0.58,1.659-1.5,3.088-2.69,4.373c-3.97-0.803-6.07-4.105-9.53-4.967C1293.64,833.548,1294.16,830.291,1293.19,825.507z"/>
<path style="fill:#F1E7BE;" d="M1270.11,820.133c5.81-2.089,11.03-4.314,17.02-1.412c2.26,1.098,4.12,3.02,5.41,5.149l0.65,1.637
	c0.97,4.784,0.45,8.041-2.22,12.198l-6.77,4.581c-1.89-1.673-3.44-3.663-5.05-5.6L1270.11,820.133z"/>
<path style="fill:#F1E7BE;" d="M1256.05,822.67l5.86-10.464c2.47,2.337,4.72,5.425,8.21,5.82l0.81,0.078l-0.82,2.029l9.04,16.553
	l-2.66,0.952c3.44,4.48,3.93,4.572,3.19,10.26c-0.19,1.425-0.57,2.763-1.05,4.118c-3.39-2.132-6.8-4.236-9.08-7.633
	c-4.59-6.844-4.99-14.079-10.98-20.527L1256.05,822.67z"/>
<path style="fill:#C53634;" d="M1256.05,822.67l5.86-10.464c2.47,2.337,4.72,5.425,8.21,5.82l0.81,0.078l-0.82,2.029l9.04,16.553
	l-2.66,0.952c-2.85-4.781-6.63-13.296-10.99-16.539l-6.93,2.757L1256.05,822.67z"/>
<path style="fill:#CD4137;" d="M1270.93,818.104c-0.26-1.351-0.61-2.368-1.22-3.611l-0.72-1.488c-1.13-3.143-4.7-6.475-6.74-9.311
	c7.34-4.492,11.73-6.271,20.65-5.395c0.39,2.368-0.9,7.732-1.64,9.998c-0.61,1.882-0.76,2.766-0.22,4.698l1.96,0.495l1.93-1.495
	c0.39-1.981,0.86-4.188,1.81-5.978c0.96-1.796,0.69-3.842,0.65-5.821l2.11,0.072c6.03,4.677,9.55,9.27,13.14,15.871
	c-3.73,2.011-7.63,4.194-10.1,7.731c-1.29-2.129-3.15-4.051-5.41-5.149c-5.99-2.902-11.21-0.677-17.02,1.412L1270.93,818.104z"/>
<path style="fill:#B6DADA;" d="M1560.62,716.835c1.04,0.588,4.27,1.947,4.88,2.758c0.66,0.878,1.26,4.852,2,5.332
	c0.82,0.528,5.94,0.308,7.18,0.318c4.79,0.041,30.42-0.951,32.33,1.257l-0.19,0.921c-0.77,3.867-0.57,7.292,1.7,10.645
	c1.98,2.926,5.17,5.15,8.67,5.776c5.04,0.903,11.48,0.207,16.64,0.228l35.94,0.041l13.3-0.011l13.94,0.071l0.17,69.904l-0.25,7.425
	c-3.61,2.21-9.8,1.189-14.07,1.192l0.36,3.236l-0.04,72.067l-13.44,0.008l-80.42-0.119c1.95-1.739,6.15-2.981,8.6-4.286
	c9.61-5.112,18.3-12.468,24.27-21.634c9.47-14.548,14.44-32.97,10.6-50.185c-3.98-17.881-13.83-33.809-29.47-43.662
	c-8.2-5.163-22.85-11.614-32.51-9.42l0.03-15.629c-3.76-0.422-7.61-0.172-11.39-0.069
	C1559.46,742.185,1557.79,727.11,1560.62,716.835z"/>
<path style="fill:#1A3774;" d="M1669.77,744.111l13.3-0.011l13.94,0.071l0.17,69.904l-0.25,7.425c-3.61,2.21-9.8,1.189-14.07,1.192
	l0.36,3.236l-0.04,72.067l-13.44,0.008l-0.03-140.585L1669.77,744.111z"/>
<path style="fill:#111949;" d="M1669.77,744.111l13.3-0.011l0.04,13.375l-13.4-0.057L1669.77,744.111z"/>
<path style="fill:#E46043;" d="M1683.07,744.1l13.94,0.071l0.17,69.904l-0.25,7.425c-3.61,2.21-9.8,1.189-14.07,1.192
	c1.39-2.89,0.32-10.684,0.32-14.27l-0.07-50.947L1683.07,744.1z"/>
<path style="fill:#EB704A;" d="M1559.45,752.999c3.78-0.103,7.63-0.353,11.39,0.069l-0.03,15.629c9.66-2.194,24.31,4.257,32.51,9.42
	c15.64,9.853,25.49,25.781,29.47,43.662c3.84,17.215-1.13,35.637-10.6,50.185c-5.97,9.166-14.66,16.522-24.27,21.634
	c-2.45,1.305-6.65,2.547-8.6,4.286c-14.92,1.763-31.53,1.493-46.51,0.395l-2.15,0.024c-6.96-3.676-14.14-6.319-20.69-10.809
	c-13.89-9.536-23.62-24.803-26.6-41.405c-3.1-17.311,0.56-35.055,10.7-49.538c10.14-14.469,24.84-23.865,42.12-26.955
	c-0.08-5.137-0.61-10.69,0.61-15.708c2.21-1.887,6.37-1.6,9.22-1.784L1559.45,752.999z"/>
<path style="fill:#E46043;" d="M1556.02,752.104l0.21,16.502c-2.75-0.318-5.83,0.046-8.65-0.106l-0.78-14.612
	C1549.01,752.001,1553.17,752.288,1556.02,752.104z"/>
<path style="fill:#A91C2C;" d="M1559.45,752.999c3.78-0.103,7.63-0.353,11.39,0.069l-0.03,15.629c9.66-2.194,24.31,4.257,32.51,9.42
	c15.64,9.853,25.49,25.781,29.47,43.662c3.84,17.215-1.13,35.637-10.6,50.185c-5.97,9.166-14.66,16.522-24.27,21.634
	c-2.45,1.305-6.65,2.547-8.6,4.286c-14.92,1.763-31.53,1.493-46.51,0.395c12.14-0.953,21.21,0.002,32.93-5.005
	c15.86-6.779,28.62-20.186,35-36.142c6.39-15.98,5.2-35.074-1.71-50.658c-7.46-16.841-21.84-29.257-38.86-35.836
	c-4.65-1.358-9.14-1.703-13.94-2.032l-0.21-16.502L1559.45,752.999z"/>
<path style="fill:#A91C2C;" d="M1557.01,792.365c8.59,0.731,15.15,2.547,22.19,7.838c8.73,6.56,16.56,17.227,17.78,28.31
	c1.28,11.707-2.14,22.862-9.51,32.054c-8.04,10.048-17.85,13.04-30.12,14.298c-8.82-0.86-17.9-2.686-25.01-8.353
	c-8.26-6.575-14.95-17.388-16.12-28.012c-1.2-10.879,0.77-20.56,7.7-29.204C1532.87,798.111,1543.22,793.828,1557.01,792.365z"/>
<path style="fill:#DC513A;" d="M1531.79,831.43c-1.61-0.551-1.77-0.571-2.76-1.93c1.5-4.736,3.4-10.309,6.84-14
	c4.51,0.152,3.47-1.72,5.62-4c1.73-1.841,11.42-5.093,14.34-6.48c-0.04,3.975-0.23,8.03,0.31,11.975l2.88,1.308v0.558
	c-5.33,0.212-8.8,0.941-12.49,5.001c-1.82,1.999-2.85,4.446-3.42,7.074C1539.48,831.494,1535.48,831.317,1531.79,831.43z"/>
<path style="fill:#DC513A;" d="M1531.79,831.43c3.69-0.113,7.69,0.064,11.32-0.494l-0.07,4.052c2.19,3.49,3.75,6.543,8.03,7.544
	l4.07,0.622l-1.92,1.566l2.37,3.229l0.49,0.792l0.18,17.507c-5.11-3.377-12.56-5.661-18.2-8.523c0.86-0.838,1.7-1.688,2.72-2.334
	c2.96-1.884,5.27-4.675,7.66-7.228l-1.45-0.991c-3.1-0.051-5.01,2.417-7.66,3.716c-1.62,0.792-1.96,1.228-3.76,0.612
	c-2.97-4.748-4.89-10.224-6.91-15.422c-1.11-0.621-1.51-1.696-2.17-2.772l1.01-1.541L1531.79,831.43z"/>
<path style="fill:#061043;" d="M1531.79,831.43c3.69-0.113,7.69,0.064,11.32-0.494l-0.07,4.052c-4.37,1.573-9.76,1.061-14.38,1.09
	c-1.11-0.621-1.51-1.696-2.17-2.772l1.01-1.541L1531.79,831.43z"/>
<path style="fill:#CD4137;" d="M1559.02,818.303l0.26-0.475c1.93-3.835,1.07-10.017,1.01-14.272c7.47,1.506,11.62,2.752,17.45,7.982
	c-2.45,2.383-7.11,5.634-7.23,8.962c0.99,0.66,1.1,1.095,2.33,0.837c3.43-0.72,7.29-4.764,10.16-6.86
	c1.71,5.477,2.93,10.623,3.39,16.342l4.75,0.681l1.06,1.5l-0.7,1.766l-4.64,0.942l-4.9,17.256l-9.46-9.298
	c-1.99,0.457-2.57,1.412-3.99,2.834c3.04,3.028,6.52,7.454,10.43,9.253l0.44,1.059l-10.62,6.929c-1.68,2.551-4.22,3.476-7.26,4.085
	c-1.41,0.282-2.99,0.09-4.4-0.092l-0.84-1.486l-0.18-17.507l-0.49-0.792l-2.37-3.229l1.92-1.566l-4.07-0.622
	c-4.28-1.001-5.84-4.054-8.03-7.544l0.07-4.052c0.57-2.628,1.6-5.075,3.42-7.074c3.69-4.06,7.16-4.789,12.49-5.001V818.303z"/>
<path style="fill:#061043;" d="M1586.39,830.819l4.75,0.681l1.06,1.5l-0.7,1.766l-4.64,0.942l-10.36,0.101
	c-0.79-2.153-0.94-2.123,0-4.192L1586.39,830.819z"/>
<path style="fill:#061043;" d="M1556.08,848.741l3.59-0.241c2.86,4.563-1.32,13.984,2.33,17.161l6.76-1.92
	c-1.68,2.551-4.22,3.476-7.26,4.085c-1.41,0.282-2.99,0.09-4.4-0.092l-0.84-1.486L1556.08,848.741z"/>
<path style="fill:#F1E7BE;" d="M1559.02,818.861c3.47,2.017,5.93,4.032,7.02,8.054c0.92,3.385,1.03,7.062-0.86,10.15
	c-2.31,3.801-5.88,5.163-10.04,6.089l-4.07-0.622c-4.28-1.001-5.84-4.054-8.03-7.544l0.07-4.052c0.57-2.628,1.6-5.075,3.42-7.074
	C1550.22,819.802,1553.69,819.073,1559.02,818.861z"/>
<path style="fill:#3B5A94;" d="M1699.75,758.837c6.16-2.114,145.39-1.82,149.33,0c3.15,5.993,1.12,23.397,1.07,30.7
	c-0.01,2.308-0.52,5.648,0.31,7.713c1.91,4.778-1.66,11.105,1.51,16.198l0.05,79.209c0.22,1.647,0.24,3.86,0.99,5.331l0.44,0.2
	c9.31,3.84,25.55-5.104,31.59,4.812c-0.12,4.217-0.31,4.685-3.27,7.696c-7.34,1.393-15.79,0.607-23.27,0.56
	c-3.78-0.024-8.53,0.585-12-1.099c-0.67-0.934-1.78-2.145-2.26-3.157c-1.31-2.759,1.13-3.951-2.24-5.937l-7.96,0.212
	c-1.65,2.289-0.4,4.468-1.36,6.473c-0.28,0.603-2.58,2.263-3.18,2.788l-7,0.833l7.5-3.614c1.98-2.925,1.73-4.357,2.5-7.755
	c3.54,0.06,7.7,0.505,11.12-0.397c1.64-0.431,3.01-0.578,4.69-0.656l0.69-0.027l1.09-2.927l-0.96,0.165l-1.66,1.734l-147.8,0.031
	l-0.1-54.719c-1.33,3.774-0.63,9.372-0.63,13.397c0,12.581,1.56,27.258-0.39,39.599l-1.69,0.664c-3.53,2.148-9.63,1.211-13.68,1.131
	l0.04-72.067l-0.36-3.236c4.27-0.003,10.46,1.018,14.07-1.192l0.25-7.425c1.98-4.993-0.44-10.493,0.42-15.225
	C1699.16,790.322,1696.09,764.047,1699.75,758.837z"/>
<path style="fill:#FEFEFD;" d="M1749.43,770.5c7.94-1.943,19.36-0.577,27.66-0.568c6.58,0.007,14.94-0.909,21.34,0.31
	c2,0.382,4.28,1.808,5.4,3.493c1.63,2.471,2.48,5.337,1.61,8.262c-1.05,3.471-3,4.622-5.94,6.334c-1.02,0.328-1.78,0.496-2.86,0.502
	l-33.7-0.232c-4.15-0.05-10.57,0.664-14.44-0.695c-1.71-0.599-3.2-2.149-4.45-3.406c-1.46-3.025-1.41-4.765-1.01-8
	C1744.82,773.408,1746.28,772.151,1749.43,770.5z"/>
<path style="fill:#111949;" d="M1749.17,774.5c5.92-1.9,15.73-0.635,22.06-0.635c8.25,0.001,18.19-1.07,26.27,0.117
	c2.09,0.307,3.11,2.45,4.23,4.018c-0.22,3.545-0.59,3.935-2.8,6.5c-4.34,1.183-10.59,0.429-15.15,0.427l-32.28-0.053
	c-2.89-1.574-3.47-1.877-5-4.963C1746.89,776.958,1747.14,776.713,1749.17,774.5z"/>
<path style="fill:#061043;" d="M1697.18,814.075c1.98-4.993-0.44-10.493,0.42-15.225c1.56-8.528-1.51-34.803,2.15-40.013
	l0.03,64.073l149.29-0.598l0.01-63.475c3.15,5.993,1.12,23.397,1.07,30.7c-0.01,2.308-0.52,5.648,0.31,7.713
	c1.91,4.778-1.66,11.105,1.51,16.198l0.05,79.209c0.22,1.647,0.24,3.86,0.99,5.331l0.44,0.2c9.31,3.84,25.55-5.104,31.59,4.812
	c-0.12,4.217-0.31,4.685-3.27,7.696c-7.34,1.393-15.79,0.607-23.27,0.56c-3.78-0.024-8.53,0.585-12-1.099
	c-0.67-0.934-1.78-2.145-2.26-3.157c-1.31-2.759,1.13-3.951-2.24-5.937l-7.96,0.212c-1.65,2.289-0.4,4.468-1.36,6.473
	c-0.28,0.603-2.58,2.263-3.18,2.788l-7,0.833l7.5-3.614c1.98-2.925,1.73-4.357,2.5-7.755c3.54,0.06,7.7,0.505,11.12-0.397
	c1.64-0.431,3.01-0.578,4.69-0.656l0.69-0.027l1.09-2.927l-0.96,0.165v-70.051l-149.34-0.168l-0.22,17.265
	c-1.33,3.774-0.63,9.372-0.63,13.397c0,12.581,1.56,27.258-0.39,39.599l-1.69,0.664c-3.53,2.148-9.63,1.211-13.68,1.131l0.04-72.067
	l-0.36-3.236c4.27-0.003,10.46,1.018,14.07-1.192L1697.18,814.075z"/>
<path style="fill:#E46043;" d="M1683.22,825.928h13.73l-0.26,48.048c-0.03,7.264-0.84,15.709,0.17,22.888
	c-3.53,2.148-9.63,1.211-13.68,1.131L1683.22,825.928z"/>
<path style="fill:#3B5A94;" d="M1699.57,843.204l0.22-17.265l149.34,0.168v70.051l-1.66,1.734l-147.8,0.031L1699.57,843.204z"/>
<path style="fill:#FEFEFD;" d="M1750.08,848.474l46.83,0.225c3.39,0.08,5.16,1.854,7.36,4.157c1.36,3.117,1.25,4.862,0.61,8.144
	c-1.99,3.133-3.69,4.355-7.01,5.978l-47.37-0.104c-3.12-0.264-5.22-2.813-7-5.115c-0.85-2.723-1.45-5.033-0.26-7.789
	C1744.59,850.845,1747.05,849.583,1750.08,848.474z"/>
<path style="fill:#111949;" d="M1749.37,852.5c3.02-0.855,7.02-0.421,10.19-0.44l21.45-0.068c4.89-0.003,11.48-0.802,16.21,0.192
	c2.53,0.531,3.09,1.851,4.46,3.821c-0.06,3.621-0.39,3.89-2.64,6.495c-4.27,1.464-10.58,0.665-15.13,0.651l-33.41-0.166
	c-2.55-1.452-2.83-1.892-4.25-4.485C1746.72,855.004,1746.79,854.909,1749.37,852.5z"/>
<path style="fill:#B6DADA;" d="M1286.23,726.159c4.11-2.296,14-1.07,18.82-1.078l46.4-0.001l204.53,0.056l0.04,26.968
	c-2.85,0.184-7.01-0.103-9.22,1.784c-1.22,5.018-0.69,10.571-0.61,15.708c-17.28,3.09-31.98,12.486-42.12,26.955
	c-10.14,14.483-13.8,32.227-10.7,49.538c2.98,16.602,12.71,31.869,26.6,41.405c6.55,4.49,13.73,7.133,20.69,10.809l-233.68-0.275
	l-0.05-1.228l-3.64-15.63c9.98-3.454,19.08-13.908,24.02-22.88c7.66-13.887,10.32-29.337,5.54-44.79
	c-5.88-18.979-19.88-32.443-36.87-41.81l-13.78-3.517l-0.15-14.186l3.79-0.068l-0.02-8.743L1286.23,726.159z"/>
<path style="fill:#C8E2E2;" d="M1286.23,726.159l129.68-0.375l-25.1,18.088c-1.04,0.769-2.02,1.315-3.33,1.457
	c-8.79,0.951-18.7-0.32-27.61-0.335l-74.05,0.182L1286.23,726.159z"/>
<path style="fill:#A91C2C;" d="M1285.84,753.919l8.66,0.126c3.2,4.742-0.35,10.908,2.54,15.84c16.63,2.503,31.29,12.239,41.2,25.633
	c10.21,13.808,13.91,31.223,11.26,48.103c-2.76,17.549-13.21,34.119-27.52,44.565c-4.69,3.423-9.76,6.242-15.05,8.614l-3.64-15.63
	c9.98-3.454,19.08-13.908,24.02-22.88c7.66-13.887,10.32-29.337,5.54-44.79c-5.88-18.979-19.88-32.443-36.87-41.81l-13.78-3.517
	l-0.15-14.186L1285.84,753.919z"/>
</svg>
