<svg version="1.1" id="Capa_1" xmlns="http://www.w3.org/2000/svg" xmlns:xlink="http://www.w3.org/1999/xlink" x="0px" y="0px" viewBox="0 0 511.995 511.995" style="enable-background:new 0 0 511.995 511.995;" xml:space="preserve">
<g>
	<path style="fill:#FFC344;" d="M127.808,170.913H42.5c-19.33,0-35,15.67-35,35v88.309c0,2.761,2.239,5,5,5h145.308&#10;&#9;&#9;c2.761,0,5-2.239,5-5v-88.309C162.808,186.583,147.138,170.913,127.808,170.913z"/>
	<path style="fill:#FFC344;" d="M85.151,139.851L85.151,139.851c-17.251,0-31.694-13.072-33.411-30.236l-3.074-30.739&#10;&#9;&#9;C46.508,57.29,63.458,38.56,85.151,38.56h0c21.693,0,38.643,18.73,36.485,40.315l-3.074,30.739&#10;&#9;&#9;C116.846,126.779,102.402,139.851,85.151,139.851z"/>
	<path style="fill:#01C0FA;" d="M384.188,170.913h85.308c19.33,0,35,15.67,35,35v88.309c0,2.761-2.239,5-5,5H354.188&#10;&#9;&#9;c-2.761,0-5-2.239-5-5v-88.309C349.188,186.583,364.858,170.913,384.188,170.913z"/>
	<path style="fill:#01C0FA;" d="M426.844,139.851L426.844,139.851c17.251,0,31.694-13.072,33.411-30.236l3.074-30.739&#10;&#9;&#9;c2.159-21.585-14.792-40.315-36.485-40.315h0c-21.693,0-38.643,18.73-36.485,40.315l3.074,30.739&#10;&#9;&#9;C395.149,126.779,409.593,139.851,426.844,139.851z"/>
	<path style="fill:#0067C5;" d="M255.998,209.404L255.998,209.404c-26.451,0-48.598-20.043-51.23-46.362l-4.713-47.133&#10;&#9;&#9;c-3.31-33.097,22.681-61.817,55.943-61.817h0c33.262,0,59.253,28.719,55.943,61.817l-4.713,47.133&#10;&#9;&#9;C304.596,189.361,282.448,209.404,255.998,209.404z"/>
	<path style="fill:#0067C5;" d="M287.062,391.55l71.485-20.585c12.849-3.7,21.698-15.457,21.698-28.829v-56.67&#10;&#9;&#9;c0-24.853-20.147-45-45-45H176.75c-24.853,0-45,20.147-45,45v56.67c0,13.371,8.849,25.128,21.698,28.829l71.485,20.585H287.062z"/>
	<path style="fill:#80D261;" d="M279.306,462.371l-21.073,10.536c-1.408,0.704-3.064,0.704-4.472,0l-21.073-10.536&#10;&#9;&#9;c-33.308-16.654-54.347-50.697-54.347-87.936v-86.53c0-2.463,1.793-4.559,4.227-4.94l72.656-11.376c0.512-0.08,1.034-0.08,1.547,0&#10;&#9;&#9;l72.656,11.376c2.433,0.381,4.227,2.477,4.227,4.94v86.53C333.654,411.674,312.614,445.717,279.306,462.371z"/>
	<path style="fill:#68CA44;" d="M329.427,282.965l-25.773-4.035v85.505c0,37.239-21.04,71.282-54.347,87.936l-18.288,9.144&#10;&#9;&#9;c0.553,0.29,1.11,0.576,1.671,0.856l21.073,10.536c1.408,0.704,3.064,0.704,4.472,0l21.073-10.536&#10;&#9;&#9;c33.308-16.654,54.347-50.697,54.347-87.936v-86.53C333.654,285.442,331.86,283.346,329.427,282.965z"/>
	<path style="fill:#F2FBFF;" d="M294.435,338.203c-6.065-6.065-15.899-6.065-21.964,0l-21.965,21.964l-10.982-10.982&#10;&#9;&#9;c-6.065-6.065-15.899-6.065-21.964,0h0c-6.065,6.065-6.065,15.899,0,21.964l21.965,21.964c6.065,6.065,15.899,6.065,21.964,0&#10;&#9;&#9;l32.947-32.947C300.501,354.102,300.501,344.268,294.435,338.203z"/>
	
		<line style="fill:none;stroke:#000000;stroke-width:15;stroke-linecap:round;stroke-linejoin:round;stroke-miterlimit:10;" x1="131.745" y1="206.031" x2="131.745" y2="299.107"/>
	
		<line style="fill:none;stroke:#000000;stroke-width:15;stroke-linecap:round;stroke-linejoin:round;stroke-miterlimit:10;" x1="38.562" y1="206.031" x2="38.562" y2="299.107"/>
	<path style="fill:none;stroke:#000000;stroke-width:15;stroke-linecap:round;stroke-linejoin:round;stroke-miterlimit:10;" d="&#10;&#9;&#9;M85.151,139.851L85.151,139.851c-17.251,0-31.694-13.072-33.411-30.236l-3.074-30.739C46.508,57.29,63.458,38.56,85.151,38.56h0&#10;&#9;&#9;c21.693,0,38.643,18.73,36.485,40.315l-3.074,30.739C116.846,126.779,102.402,139.851,85.151,139.851z"/>
	
		<line style="fill:none;stroke:#000000;stroke-width:15;stroke-linecap:round;stroke-linejoin:round;stroke-miterlimit:10;" x1="380.25" y1="206.031" x2="380.25" y2="299.107"/>
	
		<line style="fill:none;stroke:#000000;stroke-width:15;stroke-linecap:round;stroke-linejoin:round;stroke-miterlimit:10;" x1="473.433" y1="206.031" x2="473.433" y2="299.107"/>
	<path style="fill:none;stroke:#000000;stroke-width:15;stroke-linecap:round;stroke-linejoin:round;stroke-miterlimit:10;" d="&#10;&#9;&#9;M426.844,139.851L426.844,139.851c17.251,0,31.694-13.072,33.411-30.236l3.074-30.739c2.159-21.585-14.792-40.315-36.485-40.315h0&#10;&#9;&#9;c-21.693,0-38.643,18.73-36.485,40.315l3.074,30.739C395.149,126.779,409.593,139.851,426.844,139.851z"/>
	<path style="fill:none;stroke:#000000;stroke-width:15;stroke-linecap:round;stroke-linejoin:round;stroke-miterlimit:10;" d="&#10;&#9;&#9;M255.998,209.404L255.998,209.404c-26.451,0-48.598-20.043-51.23-46.362l-4.713-47.133c-3.31-33.097,22.681-61.817,55.943-61.817h0&#10;&#9;&#9;c33.262,0,59.253,28.719,55.943,61.817l-4.713,47.133C304.596,189.361,282.448,209.404,255.998,209.404z"/>
	<path style="fill:none;stroke:#000000;stroke-width:15;stroke-linecap:round;stroke-linejoin:round;stroke-miterlimit:10;" d="&#10;&#9;&#9;M260.746,126.894v9.218c0,2.95-2.392,5.342-5.342,5.342h-4.155"/>
	<path style="fill:none;stroke:#000000;stroke-width:15;stroke-linecap:round;stroke-linejoin:round;stroke-miterlimit:10;" d="&#10;&#9;&#9;M237.842,167.307c3.404,6.613,10.276,11.034,18.155,11.034s14.751-4.421,18.155-11.034"/>
	
		<line style="fill:none;stroke:#000000;stroke-width:15;stroke-linecap:round;stroke-linejoin:round;stroke-miterlimit:10;" x1="162.81" y1="325.173" x2="178.341" y2="329.645"/>
	
		<line style="fill:none;stroke:#000000;stroke-width:15;stroke-linecap:round;stroke-linejoin:round;stroke-miterlimit:10;" x1="349.185" y1="325.173" x2="333.654" y2="329.645"/>
	<path style="fill:none;stroke:#000000;stroke-width:15;stroke-linecap:round;stroke-linejoin:round;stroke-miterlimit:10;" d="&#10;&#9;&#9;M196.718,431.67c-11.732-16.39-18.377-36.307-18.377-57.235v-86.53c0-2.463,1.793-4.559,4.227-4.94l72.656-11.376&#10;&#9;&#9;c0.512-0.08,1.034-0.08,1.547,0l72.656,11.376c2.433,0.381,4.227,2.477,4.227,4.94v86.53c0,37.239-21.04,71.282-54.347,87.936&#10;&#9;&#9;l-21.073,10.536c-1.408,0.704-3.064,0.704-4.472,0l-21.073-10.536c-3.475-1.738-6.817-3.665-10.015-5.765"/>
	<path style="fill:none;stroke:#000000;stroke-width:15;stroke-linecap:round;stroke-linejoin:round;stroke-miterlimit:10;" d="&#10;&#9;&#9;M294.435,338.203c-6.065-6.065-15.899-6.065-21.964,0l-21.965,21.964l-10.982-10.982c-6.065-6.065-15.899-6.065-21.964,0h0&#10;&#9;&#9;c-6.065,6.065-6.065,15.899,0,21.964l21.965,21.964c6.065,6.065,15.899,6.065,21.964,0l32.947-32.947&#10;&#9;&#9;C300.501,354.102,300.501,344.268,294.435,338.203z"/>
	<path style="fill:none;stroke:#000000;stroke-width:15;stroke-linecap:round;stroke-linejoin:round;stroke-miterlimit:10;" d="&#10;&#9;&#9;M50.978,170.913H42.5c-19.33,0-35,15.67-35,35v88.309c0,2.761,2.239,5,5,5h119.25"/>
	<path style="fill:none;stroke:#000000;stroke-width:15;stroke-linecap:round;stroke-linejoin:round;stroke-miterlimit:10;" d="&#10;&#9;&#9;M162.808,242.668v-36.755c0-19.33-15.67-35-35-35h-41.83"/>
	<path style="fill:none;stroke:#000000;stroke-width:15;stroke-linecap:round;stroke-linejoin:round;stroke-miterlimit:10;" d="&#10;&#9;&#9;M455.76,299.222h43.735c2.762,0,5-2.239,5-5v-88.309c0-19.33-15.67-35-35-35h-85.308c-19.33,0-35,15.67-35,35v36.755"/>
	
		<line style="fill:none;stroke:#000000;stroke-width:15;stroke-linecap:round;stroke-linejoin:round;stroke-miterlimit:10;" x1="380.245" y1="299.222" x2="420.76" y2="299.222"/>
	<path style="fill:none;stroke:#000000;stroke-width:15;stroke-linecap:round;stroke-linejoin:round;stroke-miterlimit:10;" d="&#10;&#9;&#9;M333.583,378.153l24.964-7.189c12.849-3.7,21.698-15.457,21.698-28.828v-56.67c0-24.853-20.147-45-45-45H176.75&#10;&#9;&#9;c-24.853,0-45,20.147-45,45v56.67c0,13.371,8.849,25.128,21.698,28.828l24.964,7.189"/>
</g>
<g>
</g>
<g>
</g>
<g>
</g>
<g>
</g>
<g>
</g>
<g>
</g>
<g>
</g>
<g>
</g>
<g>
</g>
<g>
</g>
<g>
</g>
<g>
</g>
<g>
</g>
<g>
</g>
<g>
</g>
</svg>