<svg id="Layer_1" enable-background="new 0 0 256 256" viewBox="0 0 256 256" xmlns="http://www.w3.org/2000/svg"><g><path d="m241.77 138.51c0 30.63-12.1 58.43-31.78 78.88-.23.25-.47.49-.71.73-1.26 1.29-2.56 2.56-3.89 3.8-5.1 4.73-10.62 9-16.53 12.75-17.6 11.17-38.47 17.63-60.86 17.63s-43.26-6.46-60.86-17.63c-5.9-3.75-11.44-8.02-16.54-12.75-1.33-1.24-2.63-2.51-3.89-3.8-20.1-20.51-32.49-48.61-32.49-79.6 0-62.85 50.94-113.78 113.78-113.78s113.77 50.93 113.77 113.77z" fill="#b3ddda"/><path d="m62.01 231.18c1.68 1.2 3.38 2.37 5.13 3.47 17.6 11.17 38.47 17.63 60.86 17.63s43.26-6.46 60.86-17.63c1.75-1.11 3.45-2.28 5.13-3.47z" fill="#6d7477"/><path d="m75.76 239.59h104.49c2.95-1.53 5.83-3.16 8.62-4.93 1.75-1.11 3.45-2.28 5.13-3.47h-131.99c1.68 1.2 3.38 2.37 5.13 3.47 2.79 1.77 5.67 3.4 8.62 4.93z" fill="#51595b"/><path d="m216.35 114.32c-1.2 0-2.3.33-3.29.85 0-.08.02-.15.02-.22 0-4.92-3.99-8.9-8.9-8.9s-8.9 3.98-8.9 8.9c0 .19.04.36.05.54-1.11-.74-2.44-1.17-3.88-1.17-3.89 0-7.04 3.15-7.04 7.04s3.15 7.04 7.04 7.04h24.89c3.89 0 7.04-3.15 7.04-7.04.01-3.89-3.15-7.04-7.03-7.04z" fill="#fff"/><path d="m205.39 221.91c-5.1 4.73-10.62 9-16.53 12.75h-121.72c-5.9-3.75-11.44-8.02-16.54-12.75z" fill="#a9a19f"/><path d="m209.28 218.11c-1.26 1.29-2.56 2.56-3.89 3.8h-154.79c-1.33-1.24-2.63-2.51-3.89-3.8z" fill="#619c28"/><g fill="#f9f9f9"><path d="m61.85 227.32h9.06v1.92h-9.06z"/><path d="m77.25 227.32h9.06v1.92h-9.06z"/><path d="m92.66 227.32h9.06v1.92h-9.06z"/><path d="m108.06 227.32h9.06v1.92h-9.06z"/><path d="m123.47 227.32h9.06v1.92h-9.06z"/><path d="m138.87 227.32h9.06v1.92h-9.06z"/><path d="m154.28 227.32h9.06v1.92h-9.06z"/><path d="m169.68 227.32h9.06v1.92h-9.06z"/><path d="m185.09 227.32h9.06v1.92h-9.06z"/></g><g><circle cx="188.32" cy="208.99" fill="#94c859" r="5.83"/></g><path d="m188.32 203.16c-.2 0-.4.01-.59.03 2.94.3 5.24 2.78 5.24 5.8s-2.3 5.51-5.24 5.8c.19.02.39.03.59.03 3.22 0 5.83-2.61 5.83-5.83s-2.61-5.83-5.83-5.83z" fill="#88ba47"/><path d="m191.41 211.01-.77-.77-1.78 1.78v-4.96h-1.09v3.01l-1.46-1.47-.77.77 2.23 2.24v6.5h1.09v-4.55z" fill="#684d1e"/><g><circle cx="61.85" cy="210.89" fill="#b3ca31" r="4.62"/></g><path d="m61.85 206.28c-.16 0-.31.01-.47.02 2.33.23 4.15 2.2 4.15 4.59s-1.82 4.36-4.15 4.59c.15.02.31.02.47.02 2.55 0 4.62-2.07 4.62-4.62s-2.07-4.6-4.62-4.6z" fill="#aebc26"/><path d="m64.3 212.49-.61-.61-1.41 1.41v-3.92h-.86v2.37l-1.16-1.15-.61.61 1.77 1.77v5.14h.86v-3.6z" fill="#684d1e"/><g><circle cx="209.55" cy="210.89" fill="#b3ca31" r="4.62"/></g><path d="m209.55 206.28c-.16 0-.31.01-.47.02 2.33.23 4.15 2.2 4.15 4.59s-1.82 4.36-4.15 4.59c.15.02.31.02.47.02 2.55 0 4.62-2.07 4.62-4.62s-2.07-4.6-4.62-4.6z" fill="#aebc26"/><path d="m212 212.49-2.01 2.02v3.6h-.86v-5.14l-1.78-1.78.61-.6 1.17 1.16v-2.38h.86v3.92l1.41-1.41z" fill="#684d1e"/><path d="m128 255.5c-64.51 0-116.99-52.48-116.99-116.99s52.48-116.99 116.99-116.99 116.99 52.48 116.99 116.99-52.48 116.99-116.99 116.99zm0-227.55c-60.96 0-110.56 49.6-110.56 110.56s49.6 110.56 110.56 110.56 110.56-49.6 110.56-110.56-49.6-110.56-110.56-110.56z" fill="#45577c"/><path d="m64.76 85.92c-1.01 0-1.97.25-2.8.69 0-.05.01-.1.01-.16 0-4.21-3.41-7.62-7.61-7.62s-7.61 3.41-7.61 7.62c0 .15.01.3.02.45-.95-.62-2.08-.98-3.29-.98-3.33 0-6.02 2.7-6.02 6.02s2.7 6.02 6.02 6.02h21.3c3.33 0 6.02-2.7 6.02-6.02s-2.71-6.02-6.04-6.02z" fill="#fff"/><g><path d="m127 39.23h46.21v149.26h-46.21z" fill="#b0b0b0"/><path d="m173.21 159.98v28.51h-37.94v-136.36l-8.27-.45v-5.37h14.56l1.5 5.37.13.45.96 3.46.1.37.13.45.96 3.45.1.38.13.45.96 3.45.1.37.12.46.97 3.45.1.37.13.45.96 3.46.1.37.13.45.96 3.45.11.38.12.45.96 3.45.11.37.12.45.96 3.46.11.37.12.45.96 3.45.11.38.12.45.97 3.45.1.37.12.46.97 3.45.1.37.12.45.97 3.46.1.37.12.45.97 3.45.1.38.13.45.96 3.45.11.37.12.45.96 3.46.11.37.12.45.96 3.46.11.37.12.45.96 3.45.1.38.13.45.96 3.45.1.37.13.45.97 3.46.1.37.12.45.97 3.45.1.38.12.45.97 3.45.1.37.12.45.97 3.46.1.37.13.45.96 3.46.1.37.13.45.96 3.45.1.38.13.45.96 3.45.1.37.13.45z" fill="#b0b0b0" opacity=".6"/><g><path d="m178.74 197.26h-47.75v-148.89h6.29l1.49 5.37.13.45.96 3.45.11.37.12.45.96 3.46.11.37.12.45.96 3.46.11.37.12.45.96 3.45.11.37.13.45.96 3.46.1.37.13.45.96 3.46.1.37.13.45.96 3.45.1.38.13.45.96 3.45.1.37.13.45.96 3.46.1.37.13.45.96 3.46.11.37.12.45.96 3.45.11.37.12.46.96 3.45.11.37.12.45.96 3.46.11.37.13.45.95 3.45.11.38.13.45.96 3.45.1.37.13.45.96 3.46.1.37.13.45.96 3.46.1.37.13.45.96 3.45.1.37.13.46.96 3.45.11.37.12.45.96 3.46.11.37.12.45.96 3.46.11.37.12.45.96 3.45.11.37.13.46.96 3.45.1.37.13.45.96 3.46.1.37.13.45.96 3.45.1.38.13.45.96 3.45.1.37.13.45.96 3.46.11.37.12.45.96 3.46.11.37.12.45.96 3.45.11.37.12.46.96 3.45.11.37.12.45.96 3.46.11.37.13.45.96 3.46.1.37.13.45.96 3.45z" fill="#b0b0b0"/><g fill="#208991"><path d="m139.86 57.64h-8.87v-3.9h7.78l.13.45z"/><path d="m138.9 54.19h-7.91v-.45h7.78z" opacity=".5"/><path d="m141.05 61.92h-10.06v-3.91h8.98l.12.45z"/><path d="m140.09 58.46h-9.1v-.45h8.98z" opacity=".5"/><path d="m142.24 66.2h-11.25v-3.91h10.17l.12.45z"/><path d="m141.28 62.74h-10.29v-.45h10.17z" opacity=".5"/><path d="m143.43 70.47h-12.44v-3.9h11.36l.12.45z"/><path d="m142.47 67.02h-11.48v-.45h11.36z" opacity=".5"/><path d="m144.63 74.75h-13.64v-3.91h12.55l.13.45z"/><path d="m143.67 71.29h-12.68v-.45h12.55z" opacity=".5"/><path d="m145.82 79.03h-14.83v-3.91h13.74l.13.45z"/><path d="m144.86 75.57h-13.87v-.45h13.74z" opacity=".5"/><path d="m147.01 83.3h-16.02v-3.9h14.93l.13.45z"/><path d="m146.05 79.85h-15.06v-.45h14.93z" opacity=".5"/><path d="m148.2 87.58h-17.21v-3.9h16.12l.13.45z"/><path d="m147.24 84.13h-16.25v-.45h16.12z" opacity=".5"/><path d="m149.39 91.86h-18.4v-3.91h17.31l.13.45z"/><path d="m148.43 88.4h-17.44v-.45h17.31z" opacity=".5"/><path d="m150.58 96.14h-19.59v-3.91h18.5l.13.45z"/><path d="m149.62 92.68h-18.63v-.45h18.5z" opacity=".5"/><path d="m151.77 100.41h-20.78v-3.9h19.7l.12.45z"/><path d="m150.81 96.96h-19.82v-.45h19.7z" opacity=".5"/><path d="m152.96 104.69h-21.97v-3.91h20.89l.12.46z"/><path d="m152 101.24h-21.01v-.46h20.89z" opacity=".5"/><path d="m154.15 108.97h-23.16v-3.91h22.08l.12.45z"/><path d="m153.19 105.51h-22.2v-.45h22.08z" opacity=".5"/><path d="m155.34 113.24h-24.35v-3.9h23.27l.13.45z"/><path d="m154.39 109.79h-23.4v-.45h23.27z" opacity=".5"/><path d="m156.54 117.52h-25.55v-3.9h24.46l.13.45z"/><path d="m155.58 114.07h-24.59v-.45h24.46z" opacity=".5"/><path d="m157.73 121.8h-26.74v-3.91h25.65l.13.45z"/><path d="m156.77 118.34h-25.78v-.45h25.65z" opacity=".5"/><path d="m158.92 126.08h-27.93v-3.91h26.84l.13.45z"/><path d="m157.96 122.62h-26.97v-.45h26.84z" opacity=".5"/><path d="m160.11 130.35h-29.12v-3.9h28.03l.13.45z"/><path d="m159.15 126.9h-28.16v-.45h28.03z" opacity=".5"/><path d="m161.3 134.63h-30.31v-3.91h29.22l.13.46z"/><path d="m160.34 131.18h-29.35v-.46h29.22z" opacity=".5"/><path d="m162.49 138.91h-31.5v-3.91h30.42l.12.45z"/><path d="m161.53 135.45h-30.54v-.45h30.42z" opacity=".5"/><path d="m163.68 143.19h-32.69v-3.91h31.61l.12.45z"/><path d="m162.72 139.73h-31.73v-.45h31.61z" opacity=".5"/><path d="m164.87 147.46h-33.88v-3.9h32.8l.12.45z"/><path d="m163.91 144.01h-32.92v-.45h32.8z" opacity=".5"/><path d="m166.07 151.74h-35.08v-3.91h33.99l.13.46z"/><path d="m165.11 148.29h-34.12v-.46h33.99z" opacity=".5"/><path d="m167.26 156.02h-36.27v-3.91h35.18l.13.45z"/><path d="m166.3 152.56h-35.31v-.45h35.18z" opacity=".5"/><path d="m168.45 160.29h-37.46v-3.9h36.37l.13.45z"/><path d="m167.49 156.84h-36.5v-.45h36.37z" opacity=".5"/><path d="m169.64 164.57h-38.65v-3.9h37.56l.13.45z"/><path d="m168.68 161.12h-37.69v-.45h37.56z" opacity=".5"/><path d="m170.83 168.85h-39.84v-3.91h38.75l.13.45z"/><path d="m169.87 165.39h-38.88v-.45h38.75z" opacity=".5"/><path d="m172.02 173.13h-41.03v-3.91h39.95l.12.45z"/><path d="m171.06 169.67h-40.07v-.45h39.95z" opacity=".5"/><path d="m173.21 177.4h-42.22v-3.9h41.14l.12.45z"/><path d="m172.25 173.95h-41.26v-.45h41.14z" opacity=".5"/><path d="m174.4 181.68h-43.41v-3.91h42.33l.12.46z"/><path d="m173.44 178.23h-42.45v-.46h42.33z" opacity=".5"/><path d="m175.59 185.96h-44.6v-3.91h43.52l.12.45z"/><path d="m174.63 182.5h-43.64v-.45h43.52z" opacity=".5"/><path d="m176.79 190.24h-45.8v-3.91h44.71l.13.45z"/><path d="m175.83 186.78h-44.84v-.45h44.71z" opacity=".5"/><path d="m177.98 194.51h-46.99v-3.9h45.9l.13.45z"/><path d="m177.02 191.06h-46.03v-.45h45.9z" opacity=".5"/></g></g><path d="m81.24 39.23h45.77v9.14h-45.77z" fill="#d8d8d8"/><path d="m127.05 31.72h37.04v7.51h-37.04z" fill="#b0b0b0"/><path d="m90.36 31.72h36.68v7.51h-36.68z" fill="#d8d8d8"/><path d="m127.05 36.77h37.04v2.46h-37.04z" fill="#b0b0b0" opacity=".5"/><path d="m90.36 36.77h36.68v2.46h-36.68z" fill="#d8d8d8" opacity=".5"/><path d="m81.24 46.31h45.77v2.05h-45.77z" fill="#d8d8d8" opacity=".6"/><g><path d="m77.25 48.37h53.74v148.89h-53.74z" fill="#d8d8d8"/><g><path d="m77.25 53.74h53.74v3.91h-53.74z" fill="#56b8c6"/><path d="m77.25 53.74h53.74v.45h-53.74z" fill="#3898a0"/></g><g><path d="m77.25 58.01h53.74v3.91h-53.74z" fill="#56b8c6"/><path d="m77.25 58.01h53.74v.45h-53.74z" fill="#3898a0"/></g><g><path d="m77.25 62.29h53.74v3.91h-53.74z" fill="#56b8c6"/><path d="m77.25 62.29h53.74v.45h-53.74z" fill="#3898a0"/></g><g><path d="m77.25 66.57h53.74v3.91h-53.74z" fill="#56b8c6"/><path d="m77.25 66.57h53.74v.45h-53.74z" fill="#3898a0"/></g><g><path d="m77.25 70.84h53.74v3.91h-53.74z" fill="#56b8c6"/><path d="m77.25 70.84h53.74v.45h-53.74z" fill="#3898a0"/></g><g><path d="m77.25 75.12h53.74v3.91h-53.74z" fill="#56b8c6"/><path d="m77.25 75.12h53.74v.45h-53.74z" fill="#3898a0"/></g><g><path d="m77.25 79.4h53.74v3.91h-53.74z" fill="#56b8c6"/><path d="m77.25 79.4h53.74v.45h-53.74z" fill="#3898a0"/></g><g><path d="m77.25 83.68h53.74v3.91h-53.74z" fill="#56b8c6"/><path d="m77.25 83.68h53.74v.45h-53.74z" fill="#3898a0"/></g><g><path d="m77.25 87.95h53.74v3.91h-53.74z" fill="#56b8c6"/><path d="m77.25 87.95h53.74v.45h-53.74z" fill="#3898a0"/></g><g><path d="m77.25 92.23h53.74v3.91h-53.74z" fill="#56b8c6"/><path d="m77.25 92.23h53.74v.45h-53.74z" fill="#3898a0"/></g><g><path d="m77.25 96.51h53.74v3.91h-53.74z" fill="#56b8c6"/><path d="m77.25 96.51h53.74v.45h-53.74z" fill="#3898a0"/></g><g><path d="m77.25 100.78h53.74v3.91h-53.74z" fill="#56b8c6"/><path d="m77.25 100.78h53.74v.45h-53.74z" fill="#3898a0"/></g><g><path d="m77.25 105.06h53.74v3.91h-53.74z" fill="#56b8c6"/><path d="m77.25 105.06h53.74v.45h-53.74z" fill="#3898a0"/></g><g><path d="m77.25 109.34h53.74v3.91h-53.74z" fill="#56b8c6"/><path d="m77.25 109.34h53.74v.45h-53.74z" fill="#3898a0"/></g><g><path d="m77.25 113.62h53.74v3.91h-53.74z" fill="#56b8c6"/><path d="m77.25 113.62h53.74v.45h-53.74z" fill="#3898a0"/></g><g><path d="m77.25 117.89h53.74v3.91h-53.74z" fill="#56b8c6"/><path d="m77.25 117.89h53.74v.45h-53.74z" fill="#3898a0"/></g><g><path d="m77.25 122.17h53.74v3.91h-53.74z" fill="#56b8c6"/><path d="m77.25 122.17h53.74v.45h-53.74z" fill="#3898a0"/></g><g><path d="m77.25 126.45h53.74v3.91h-53.74z" fill="#56b8c6"/><path d="m77.25 126.45h53.74v.45h-53.74z" fill="#3898a0"/></g><g><path d="m77.25 130.73h53.74v3.91h-53.74z" fill="#56b8c6"/><path d="m77.25 130.73h53.74v.45h-53.74z" fill="#3898a0"/></g><g><path d="m77.25 135h53.74v3.91h-53.74z" fill="#56b8c6"/><path d="m77.25 135h53.74v.45h-53.74z" fill="#3898a0"/></g><g><path d="m77.25 139.28h53.74v3.91h-53.74z" fill="#56b8c6"/><path d="m77.25 139.28h53.74v.45h-53.74z" fill="#3898a0"/></g><g><path d="m77.25 143.56h53.74v3.91h-53.74z" fill="#56b8c6"/><path d="m77.25 143.56h53.74v.45h-53.74z" fill="#3898a0"/></g><g><path d="m77.25 147.83h53.74v3.91h-53.74z" fill="#56b8c6"/><path d="m77.25 147.83h53.74v.45h-53.74z" fill="#3898a0"/></g><g><path d="m77.25 152.11h53.74v3.91h-53.74z" fill="#56b8c6"/><path d="m77.25 152.11h53.74v.45h-53.74z" fill="#3898a0"/></g><g><path d="m77.25 156.39h53.74v3.91h-53.74z" fill="#56b8c6"/><path d="m77.25 156.39h53.74v.45h-53.74z" fill="#3898a0"/></g><g><path d="m77.25 160.67h53.74v3.91h-53.74z" fill="#56b8c6"/><path d="m77.25 160.67h53.74v.45h-53.74z" fill="#3898a0"/></g><g><path d="m77.25 164.94h53.74v3.91h-53.74z" fill="#56b8c6"/><path d="m77.25 164.94h53.74v.45h-53.74z" fill="#3898a0"/></g><g><path d="m77.25 169.22h53.74v3.91h-53.74z" fill="#56b8c6"/><path d="m77.25 169.22h53.74v.45h-53.74z" fill="#3898a0"/></g><g><path d="m77.25 173.5h53.74v3.91h-53.74z" fill="#56b8c6"/><path d="m77.25 173.5h53.74v.45h-53.74z" fill="#3898a0"/></g><g><path d="m77.25 177.77h53.74v3.91h-53.74z" fill="#56b8c6"/><path d="m77.25 177.77h53.74v.45h-53.74z" fill="#3898a0"/></g><g><path d="m77.25 182.05h53.74v3.91h-53.74z" fill="#56b8c6"/><path d="m77.25 182.05h53.74v.45h-53.74z" fill="#3898a0"/></g><g><path d="m77.25 186.33h53.74v3.91h-53.74z" fill="#56b8c6"/><path d="m77.25 186.33h53.74v.45h-53.74z" fill="#3898a0"/></g><g><path d="m77.25 190.61h53.74v3.91h-53.74z" fill="#56b8c6"/><path d="m77.25 190.61h53.74v.45h-53.74z" fill="#3898a0"/></g></g><path d="m136.54 218.11h-53.74l-5.55-20.86h53.74z" fill="#b0b0b0"/><path d="m136.54 218.11h-53.73l-4.69-17.58h53.74z" fill="#929393"/><g><path d="m106.82 218.11h-17.69l.05-16.62h17.69z" fill="#316773" opacity=".5"/><path d="m128.74 213.74h-19.64l.04-12.25h19.64z" fill="#316773" opacity=".5"/><g fill="#69becc"><path d="m128 202.15-.04 10.94h-18.08l.03-10.94z"/><g><path d="m97.74 202.15v2.41h-7.82v-2.41z"/><path d="m97.74 205.18-.04 12.93h-7.82l.04-12.93z"/></g><g><path d="m106.12 202.15v2.41h-7.82v-2.41z"/><path d="m106.11 205.18-.03 12.93h-7.82l.03-12.93z"/></g></g><g fill="#85d2e3"><path d="m123.3 202.15-10.7 10.94h-2.72v-.4l10.31-10.54z"/><path d="m126.16 202.15-10.71 10.94h-1.55l10.7-10.94z"/><path d="m128 202.15-.01.4-10.31 10.54h-.77l10.7-10.94z"/></g><g fill="#85d2e3"><path d="m106.12 202.61v1.95h-1.9z"/><path d="m106.11 205.18v.62l-7.84 8.02.01-3.18 5.34-5.46z"/><path d="m106.11 207.14-.01 1.59-7.84 8.02v-1.59z"/><path d="m106.1 210.23v.79l-6.94 7.09h-.77z"/></g><g fill="#85d2e3"><path d="m96.52 205.18-6.62 6.78.01-3.2 3.5-3.58z"/><path d="m97.74 202.15v1.78l-.61.63h-3.11l2.35-2.41z"/><path d="m97.74 205.28-.01 1.59-7.84 8.02v-1.6z"/><path d="m97.73 208.35-.01.8-7.84 8.02v-.79z"/></g><g><g><path d="m97.32 215.11h-.3c-.37 0-.67-.28-.67-.63l.01-3.3c0-.35.3-.63.67-.63h.3v.19h-.3c-.26 0-.47.2-.47.44l-.01 3.3c0 .24.21.44.46.44h.3z" fill="#3f717a"/></g><g><path d="m98.95 215.11h-.3v-.19h.3c.26 0 .47-.2.47-.44l.01-3.3c0-.24-.21-.44-.46-.44h-.3v-.19h.3c.37 0 .67.28.67.63l-.01 3.3c-.01.35-.31.63-.68.63z" fill="#3f717a"/></g></g></g><path d="m178.74 197.26-8.41 20.85h-33.79l-5.55-20.86z" fill="#929393"/><path d="m136.54 218.11h-5.55l-3.96-14.87-.72-2.71-.87-3.28h5.55l.87 3.28.72 2.71z" fill="#b0b0b0"/><path d="m130.99 218.11-4.68-17.58h-2.03-35.1v2.71h35.83l3.96 14.87z" fill="#929393" opacity=".5"/><g fill="#b0b0b0"><path d="m82.8 218.11-5.55-20.86h5.55l5.55 20.86z"/><path d="m118.07 31.72h-13.95l3.26-7.24h7.43z"/><path d="m109.68.5h2.84v23.98h-2.84z"/></g></g><g><g><circle cx="153.89" cy="211.88" fill="#94c859" r="3.98"/></g><path d="m153.89 207.9c-.14 0-.27.01-.4.02 2.01.2 3.58 1.9 3.58 3.96s-1.57 3.76-3.58 3.96c.13.01.27.02.4.02 2.2 0 3.98-1.78 3.98-3.98s-1.78-3.98-3.98-3.98z" fill="#88ba47"/><path d="m156 213.26-.52-.52-1.22 1.21v-3.39h-.74v2.06l-1-1-.53.52 1.53 1.53v4.44h.74v-3.11z" fill="#684d1e"/></g></g></svg>