<svg id="Layer_1" enable-background="new 0 0 256 256" viewBox="0 0 256 256" xmlns="http://www.w3.org/2000/svg"><g><path d="m241.77 138.51c0 30.63-12.1 58.43-31.78 78.88-.23.25-.47.49-.71.73-1.26 1.29-2.56 2.56-3.89 3.8-5.1 4.73-10.62 9-16.53 12.75-17.6 11.17-38.47 17.63-60.86 17.63s-43.26-6.46-60.86-17.63c-5.9-3.75-11.44-8.02-16.54-12.75-1.33-1.24-2.63-2.51-3.89-3.8-20.1-20.51-32.49-48.61-32.49-79.6 0-62.85 50.94-113.78 113.78-113.78s113.77 50.93 113.77 113.77z" fill="#b3ddda"/><path d="m62.01 231.18c1.68 1.2 3.38 2.37 5.13 3.47 17.6 11.17 38.47 17.63 60.86 17.63s43.26-6.46 60.86-17.63c1.75-1.11 3.45-2.28 5.13-3.47z" fill="#6d7477"/><path d="m75.76 239.59h104.49c2.95-1.53 5.83-3.16 8.62-4.93 1.75-1.11 3.45-2.28 5.13-3.47h-131.99c1.68 1.2 3.38 2.37 5.13 3.47 2.79 1.77 5.67 3.4 8.62 4.93z" fill="#51595b"/><path d="m210.54 115.51c-.7 0-1.36.19-1.94.5 0-.04.01-.09.01-.13 0-2.9-2.35-5.25-5.25-5.25s-5.25 2.35-5.25 5.25c0 .11.03.21.03.32-.66-.43-1.44-.69-2.29-.69-2.29 0-4.15 1.86-4.15 4.15s1.86 4.15 4.15 4.15h14.68c2.29 0 4.15-1.86 4.15-4.15.01-2.29-1.85-4.15-4.14-4.15z" fill="#fff"/><g><path d="m205.39 221.91c-5.1 4.73-10.62 9-16.53 12.75h-121.72c-5.9-3.75-11.44-8.02-16.54-12.75z" fill="#a9a19f"/><path d="m209.28 218.11c-1.26 1.29-2.56 2.56-3.89 3.8h-154.79c-1.33-1.24-2.63-2.51-3.89-3.8z" fill="#619c28"/><g fill="#f9f9f9"><path d="m61.85 227.32h9.06v1.92h-9.06z"/><path d="m77.25 227.32h9.06v1.92h-9.06z"/><path d="m92.66 227.32h9.06v1.92h-9.06z"/><path d="m108.06 227.32h9.06v1.92h-9.06z"/><path d="m123.47 227.32h9.06v1.92h-9.06z"/><path d="m138.87 227.32h9.06v1.92h-9.06z"/><path d="m154.28 227.32h9.06v1.92h-9.06z"/><path d="m169.68 227.32h9.06v1.92h-9.06z"/><path d="m185.09 227.32h9.06v1.92h-9.06z"/></g></g><g><g><circle cx="188.32" cy="208.99" fill="#94c859" r="5.83"/></g><path d="m188.32 203.16c-.2 0-.4.01-.59.03 2.94.3 5.24 2.78 5.24 5.8s-2.3 5.51-5.24 5.8c.19.02.39.03.59.03 3.22 0 5.83-2.61 5.83-5.83s-2.61-5.83-5.83-5.83z" fill="#88ba47"/><path d="m191.41 211.01-.77-.77-1.78 1.78v-4.96h-1.09v3.01l-1.46-1.47-.77.77 2.23 2.24v6.5h1.09v-4.55z" fill="#684d1e"/></g><g><g><circle cx="84.83" cy="212.55" fill="#94c859" r="3.56"/></g><path d="m84.83 208.99c-.12 0-.24.01-.36.02 1.8.18 3.2 1.7 3.2 3.54s-1.4 3.36-3.2 3.54c.12.01.24.02.36.02 1.96 0 3.56-1.59 3.56-3.56s-1.6-3.56-3.56-3.56z" fill="#88ba47"/><path d="m86.72 213.78-.47-.47-1.09 1.08v-3.02h-.66v1.83l-.9-.89-.47.47 1.37 1.36v3.97h.66v-2.77z" fill="#684d1e"/></g><g><g><circle cx="167.32" cy="211.88" fill="#94c859" r="3.98"/></g><path d="m167.32 207.9c-.14 0-.27.01-.4.02 2.01.2 3.58 1.9 3.58 3.96s-1.57 3.76-3.58 3.96c.13.01.27.02.4.02 2.2 0 3.98-1.78 3.98-3.98s-1.78-3.98-3.98-3.98z" fill="#88ba47"/><path d="m169.44 213.26-.53-.52-1.21 1.21v-3.39h-.75v2.06l-1-1-.53.52 1.53 1.53v4.44h.75v-3.11z" fill="#684d1e"/></g><g><g><circle cx="61.85" cy="210.89" fill="#b3ca31" r="4.62"/></g><path d="m61.85 206.28c-.16 0-.31.01-.47.02 2.33.23 4.15 2.2 4.15 4.59s-1.82 4.36-4.15 4.59c.15.02.31.02.47.02 2.55 0 4.62-2.07 4.62-4.62s-2.07-4.6-4.62-4.6z" fill="#aebc26"/><path d="m64.3 212.49-.61-.61-1.41 1.41v-3.92h-.86v2.37l-1.16-1.15-.61.61 1.77 1.77v5.14h.86v-3.6z" fill="#684d1e"/></g><g><g><circle cx="209.55" cy="210.89" fill="#b3ca31" r="4.62"/></g><path d="m209.55 206.28c-.16 0-.31.01-.47.02 2.33.23 4.15 2.2 4.15 4.59s-1.82 4.36-4.15 4.59c.15.02.31.02.47.02 2.55 0 4.62-2.07 4.62-4.62s-2.07-4.6-4.62-4.6z" fill="#aebc26"/><path d="m212 212.49-2.01 2.02v3.6h-.86v-5.14l-1.78-1.78.61-.6 1.17 1.16v-2.38h.86v3.92l1.41-1.41z" fill="#684d1e"/></g><g><path d="m128 255.5c-64.51 0-116.99-52.48-116.99-116.99s52.48-116.99 116.99-116.99 116.99 52.48 116.99 116.99-52.48 116.99-116.99 116.99zm0-227.55c-60.96 0-110.56 49.6-110.56 110.56s49.6 110.56 110.56 110.56 110.56-49.6 110.56-110.56-49.6-110.56-110.56-110.56z" fill="#45577c"/></g><path d="m70.3 82.6c-1.01 0-1.97.25-2.8.69 0-.05.01-.1.01-.16 0-4.21-3.41-7.62-7.61-7.62s-7.61 3.41-7.61 7.62c0 .15.01.3.02.45-.95-.62-2.08-.98-3.29-.98-3.33 0-6.02 2.7-6.02 6.02s2.7 6.02 6.02 6.02h21.3c3.33 0 6.02-2.7 6.02-6.02s-2.71-6.02-6.04-6.02z" fill="#fff"/><g><path d="m46.54 60.43h108.42v13.09h-108.42z" fill="#ab4f40"/><path d="m37.88 87.33v120.86c2.31 3.14 4.64 6.27 6.76 9.56.07.12.13.24.19.36h110.14v-130.78z" fill="#eddebd"/><path d="m154.96 31.17h54.06v186.94h-54.06z" fill="#c9ae77"/><path d="m223.57 199.36c3.89-5.79 9.41-11.98 11.22-18.79.26-.96.7-1.71 1.27-2.27v-147.13h-27.03v186.94h2.57c2.84-7.01 7.78-12.51 11.97-18.75z" fill="#bb9449"/><path d="m161.24.5h45.68v30.67h-45.68z" fill="#eacea2"/><path d="m165.72 6.63h36.74v24.55h-36.74z" fill="#4f473c"/><path d="m165.72 6.63h2.38v24.55h-2.38z" fill="#383027"/><path d="m206.93.5h22.84v30.67h-22.84z" fill="#c9ae77" transform="matrix(-1 0 0 -1 436.697 31.674)"/><path d="m37.88 73.53h117.09v23.86h-117.09z" fill="#e5d1b0"/><path d="m36.76 73.53h118.2v5.28h-118.2z" fill="#c4ae75"/><g fill="#0d74c9"><g><path d="m148.72 81.54h4.12v6.02h-4.12z"/><path d="m148.72 88.64h4.12v6.02h-4.12z"/></g><g><path d="m143.65 81.54h4.12v6.02h-4.12z"/><path d="m143.65 88.64h4.12v6.02h-4.12z"/></g><g><path d="m138.59 81.54h4.12v6.02h-4.12z"/><path d="m138.59 88.64h4.12v6.02h-4.12z"/></g><g><path d="m133.52 81.54h4.12v6.02h-4.12z"/><path d="m133.52 88.64h4.12v6.02h-4.12z"/></g></g><g fill="#0d74c9"><g><path d="m184.34 8.6h4.06v6.4h-4.06z"/><path d="m179.29 8.6h4.06v6.4h-4.06z"/><path d="m174.24 8.6h4.06v6.4h-4.06z"/><path d="m169.19 8.6h4.06v6.4h-4.06z"/><path d="m199.48 8.6h2.97v6.4h-2.97z"/><path d="m194.43 8.6h4.06v6.4h-4.06z"/><path d="m189.39 8.6h4.06v6.4h-4.06z"/></g><g><path d="m184.34 16.69h4.06v6.4h-4.06z"/><path d="m179.29 16.69h4.06v6.4h-4.06z"/><path d="m174.24 16.69h4.06v6.4h-4.06z"/><path d="m169.19 16.69h4.06v6.4h-4.06z"/><path d="m199.48 16.69h2.97v6.4h-2.97z"/><path d="m194.43 16.69h4.06v6.4h-4.06z"/><path d="m189.39 16.69h4.06v6.4h-4.06z"/></g><g><path d="m184.34 24.78h4.06v6.4h-4.06z"/><path d="m179.29 24.78h4.06v6.4h-4.06z"/><path d="m174.24 24.78h4.06v6.4h-4.06z"/><path d="m169.19 24.78h4.06v6.4h-4.06z"/><path d="m199.48 24.78h2.97v6.4h-2.97z"/><path d="m194.43 24.78h4.06v6.4h-4.06z"/><path d="m189.39 24.78h4.06v6.4h-4.06z"/></g></g><g><g><path d="m146.68 114.83h-.33-6.34-.33-6.66v9.53h6.66.33 6.34.33 6.66v-9.53z" fill="#164768"/><g fill="#0d74c9"><path d="m146.86 115.33h5.98v8.52h-5.98z"/><path d="m140.19 115.33h5.98v8.52h-5.98z"/><path d="m133.52 115.33h5.98v8.52h-5.98z"/></g></g><g><path d="m123.67 114.83h-.33-6.34-.33-6.66v9.53h6.66.33 6.34.33 6.66v-9.53z" fill="#164768"/><g fill="#0d74c9"><path d="m123.85 115.33h5.98v8.52h-5.98z"/><path d="m117.18 115.33h5.98v8.52h-5.98z"/><path d="m110.51 115.33h5.98v8.52h-5.98z"/></g></g><g><path d="m100.65 114.83h-.32-6.34-.33-6.67v9.53h6.67.33 6.34.32 6.67v-9.53z" fill="#164768"/><g fill="#0d74c9"><path d="m100.83 115.33h5.98v8.52h-5.98z"/><path d="m94.17 115.33h5.98v8.52h-5.98z"/><path d="m87.5 115.33h5.98v8.52h-5.98z"/></g></g><g><path d="m54.63 114.83h-.33-6.34-.32-6.67v9.53h6.67.32 6.34.33 6.67v-9.53z" fill="#164768"/><g fill="#0d74c9"><path d="m54.81 115.33h5.98v8.52h-5.98z"/><path d="m48.14 115.33h5.98v8.52h-5.98z"/><path d="m41.48 115.33h5.98v8.52h-5.98z"/></g></g><g><path d="m77.64 114.83h-.32-6.34-.33-6.67v9.53h6.67.33 6.34.32 6.67v-9.53z" fill="#164768"/><g fill="#0d74c9"><path d="m77.82 115.33h5.98v8.52h-5.98z"/><path d="m71.16 115.33h5.98v8.52h-5.98z"/><path d="m64.49 115.33h5.98v8.52h-5.98z"/></g></g></g><g><g><path d="m146.68 141.49h-.33-6.34-.33-6.66v9.53h6.66.33 6.34.33 6.66v-9.53z" fill="#164768"/><g fill="#0d74c9"><path d="m146.86 142h5.98v8.52h-5.98z"/><path d="m140.19 142h5.98v8.52h-5.98z"/><path d="m133.52 142h5.98v8.52h-5.98z"/></g></g><g><path d="m123.67 141.49h-.33-6.34-.33-6.66v9.53h6.66.33 6.34.33 6.66v-9.53z" fill="#164768"/><g fill="#0d74c9"><path d="m123.85 142h5.98v8.52h-5.98z"/><path d="m117.18 142h5.98v8.52h-5.98z"/><path d="m110.51 142h5.98v8.52h-5.98z"/></g></g><g><path d="m100.65 141.49h-.32-6.34-.33-6.67v9.53h6.67.33 6.34.32 6.67v-9.53z" fill="#164768"/><g fill="#0d74c9"><path d="m100.83 142h5.98v8.52h-5.98z"/><path d="m94.17 142h5.98v8.52h-5.98z"/><path d="m87.5 142h5.98v8.52h-5.98z"/></g></g><g><path d="m54.63 141.49h-.33-6.34-.32-6.67v9.53h6.67.32 6.34.33 6.67v-9.53z" fill="#164768"/><g fill="#0d74c9"><path d="m54.81 142h5.98v8.52h-5.98z"/><path d="m48.14 142h5.98v8.52h-5.98z"/><path d="m41.48 142h5.98v8.52h-5.98z"/></g></g><g><path d="m77.64 141.49h-.32-6.34-.33-6.67v9.53h6.67.33 6.34.32 6.67v-9.53z" fill="#164768"/><g fill="#0d74c9"><path d="m77.82 142h5.98v8.52h-5.98z"/><path d="m71.16 142h5.98v8.52h-5.98z"/><path d="m64.49 142h5.98v8.52h-5.98z"/></g></g></g><g><g><path d="m146.68 168.15h-.33-6.34-.33-6.66v9.54h6.66.33 6.34.33 6.66v-9.54z" fill="#164768"/><g fill="#0d74c9"><path d="m146.86 168.66h5.98v8.52h-5.98z"/><path d="m140.19 168.66h5.98v8.52h-5.98z"/><path d="m133.52 168.66h5.98v8.52h-5.98z"/></g></g><g><path d="m123.67 168.15h-.33-6.34-.33-6.66v9.54h6.66.33 6.34.33 6.66v-9.54z" fill="#164768"/><g fill="#0d74c9"><path d="m123.85 168.66h5.98v8.52h-5.98z"/><path d="m117.18 168.66h5.98v8.52h-5.98z"/><path d="m110.51 168.66h5.98v8.52h-5.98z"/></g></g><g><path d="m100.65 168.15h-.32-6.34-.33-6.67v9.54h6.67.33 6.34.32 6.67v-9.54z" fill="#164768"/><g fill="#0d74c9"><path d="m100.83 168.66h5.98v8.52h-5.98z"/><path d="m94.17 168.66h5.98v8.52h-5.98z"/><path d="m87.5 168.66h5.98v8.52h-5.98z"/></g></g><g><path d="m54.63 168.15h-.33-6.34-.32-6.67v9.54h6.67.32 6.34.33 6.67v-9.54z" fill="#164768"/><g fill="#0d74c9"><path d="m54.81 168.66h5.98v8.52h-5.98z"/><path d="m48.14 168.66h5.98v8.52h-5.98z"/><path d="m41.48 168.66h5.98v8.52h-5.98z"/></g></g><g><path d="m77.64 168.15h-.32-6.34-.33-6.67v9.54h6.67.33 6.34.32 6.67v-9.54z" fill="#164768"/><g fill="#0d74c9"><path d="m77.82 168.66h5.98v8.52h-5.98z"/><path d="m71.16 168.66h5.98v8.52h-5.98z"/><path d="m64.49 168.66h5.98v8.52h-5.98z"/></g></g></g><g fill="#0d74c9"><g><path d="m125.71 81.54h4.12v6.02h-4.12z"/><path d="m125.71 88.64h4.12v6.02h-4.12z"/></g><g><path d="m120.64 81.54h4.12v6.02h-4.12z"/><path d="m120.64 88.64h4.12v6.02h-4.12z"/></g><g><path d="m115.58 81.54h4.12v6.02h-4.12z"/><path d="m115.58 88.64h4.12v6.02h-4.12z"/></g><g><path d="m110.51 81.54h4.12v6.02h-4.12z"/><path d="m110.51 88.64h4.12v6.02h-4.12z"/></g></g><g fill="#0d74c9"><g><path d="m102.7 81.54h4.12v6.02h-4.12z"/><path d="m102.7 88.64h4.12v6.02h-4.12z"/></g><g><path d="m97.63 81.54h4.12v6.02h-4.12z"/><path d="m97.63 88.64h4.12v6.02h-4.12z"/></g><g><path d="m92.57 81.54h4.12v6.02h-4.12z"/><path d="m92.57 88.64h4.12v6.02h-4.12z"/></g><g><path d="m87.5 81.54h4.12v6.02h-4.12z"/><path d="m87.5 88.64h4.12v6.02h-4.12z"/></g></g><g fill="#0d74c9"><g><path d="m79.68 81.54h4.12v6.02h-4.12z"/><path d="m79.68 88.64h4.12v6.02h-4.12z"/></g><g><path d="m74.62 81.54h4.12v6.02h-4.12z"/><path d="m74.62 88.64h4.12v6.02h-4.12z"/></g><g><path d="m69.55 81.54h4.12v6.02h-4.12z"/><path d="m69.55 88.64h4.12v6.02h-4.12z"/></g><g><path d="m64.49 81.54h4.12v6.02h-4.12z"/><path d="m64.49 88.64h4.12v6.02h-4.12z"/></g></g><g fill="#0d74c9"><g><path d="m56.67 81.54h4.12v6.02h-4.12z"/><path d="m56.67 88.64h4.12v6.02h-4.12z"/></g><g><path d="m51.61 81.54h4.12v6.02h-4.12z"/><path d="m51.61 88.64h4.12v6.02h-4.12z"/></g><g><path d="m46.54 81.54h4.12v6.02h-4.12z"/><path d="m46.54 88.64h4.12v6.02h-4.12z"/></g><g><path d="m41.48 81.54h4.12v6.02h-4.12z"/><path d="m41.48 88.64h4.12v6.02h-4.12z"/></g></g><path d="m30.28 197.04c2.28 3.9 4.93 7.53 7.6 11.16v-120.87h-17.93v93.2c4.72 4.71 6.97 10.75 10.33 16.51z" fill="#bb9449"/><path d="m19.95 198.84v1.92c.56.42 1.13.84 1.69 1.28-.59-1.06-1.14-2.13-1.69-3.2z" fill="#bb9449"/><path d="m30.28 197.04c.61 1.05 1.26 2.08 1.92 3.09v-104.18h-6.57v92.44c1.57 2.82 2.97 5.77 4.65 8.65z" fill="#7c4b44"/><path d="m27.73 192.34v-96.39h-2.1v92.44c.72 1.3 1.4 2.62 2.1 3.95z" fill="#633430"/><g fill="#0d74c9"><path d="m28.38 97.05h3.82v12.26h-3.82z"/><path d="m28.38 113.56h3.82v12.26h-3.82z"/><path d="m28.38 130.08h3.82v12.26h-3.82z"/><path d="m28.38 146.59h3.82v12.26h-3.82z"/><path d="m28.38 163.11h3.82v12.26h-3.82z"/><path d="m28.38 179.62h3.82v12.26h-3.82z"/><path d="m30.28 197.04c.61 1.05 1.26 2.08 1.92 3.09v-3.99h-2.43c.16.3.33.6.51.9z"/></g><path d="m23.63 97.39h131.33v5.79h-131.33z" fill="#ccad77"/><path d="m37.88 192.69v15.5c2.31 3.14 4.64 6.27 6.76 9.56.07.12.13.24.19.36h110.14v-25.42z" fill="#4f473c"/><path d="m37.88 192.69v15.5c2.31 3.14 4.64 6.27 6.76 9.56.07.12.13.24.19.36h2.64v-25.42z" fill="#3a3228"/><g fill="#bb9449"><path d="m24.63 109.3h9.27v1.21h-9.27z"/><path d="m24.63 125.84h9.27v1.21h-9.27z"/><path d="m24.63 142.38h9.27v1.21h-9.27z"/><path d="m24.63 158.91h9.27v1.21h-9.27z"/><path d="m24.63 175.45h9.27v1.21h-9.27z"/><path d="m28.18 193.2h5.72v-1.21h-6.36c.21.4.42.8.64 1.21z"/></g><path d="m25.97 189.01c.66 1.21 1.3 2.44 1.94 3.68h127.05v-3.68z" fill="#ccad77"/><g><path d="m62.76 194.33h67.32v23.32h-67.32z" fill="#588bba"/><g fill="#69a0c9"><g><path d="m120.6 194.33-12.07 23.32h5.14l12.07-23.32z"/><path d="m126.67 194.33-12.07 23.32h1.77l12.07-23.32z"/><path d="m116.89 194.33-12.07 23.32h.88l12.07-23.32z"/></g><g><path d="m98.34 194.33-12.06 23.32h5.13l12.07-23.32z"/><path d="m104.42 194.33-12.07 23.32h1.76l12.07-23.32z"/><path d="m94.64 194.33-12.07 23.32h.88l12.07-23.32z"/></g><g><path d="m74.84 194.33-12.07 23.32h5.14l12.07-23.32z"/><path d="m80.91 194.33-12.07 23.32h1.77l12.07-23.32z"/><path d="m71.13 194.33-8.37 16.17v1.7l9.25-17.87z"/></g></g><path d="m62.3 194.33v23.78h68.24v-23.78zm11.09 22.86h-10.17v-22.19h10.17zm11.7 0h-10.94v-22.19h10.94zm21.95 0h-21.19v-22.19h21.19zm11.71 0h-10.95v-22.19h10.94v22.19zm10.87 0h-10.12v-22.19h10.12z" fill="#e2f1f8"/><path d="m85.85 195v22.19h10.63v-22.19zm10.42 21.95h-10.21v-21.72h10.21z" fill="#40444c"/><path d="m86.06 195.24v21.72h10.21v-21.72zm9.3 20.8h-8.39v-19.89h8.39z" fill="#deecec"/><path d="m94.26 210.97h1.49c.08 0 .15-.07.15-.15s-.07-.15-.15-.15h-1.49c-.13 0-.23-.11-.23-.23v-5.16c0-.13.11-.23.23-.23h1.49c.08 0 .15-.07.15-.15s-.07-.15-.15-.15h-1.49c-.3 0-.54.24-.54.54v5.16c0 .28.24.52.54.52z" fill="#525456"/><path d="m96.41 195v22.19h10.63v-22.19zm10.42 21.95h-10.21v-21.72h10.21z" fill="#40444c"/><path d="m96.62 195.24v21.72h10.21v-21.72zm9.3 20.8h-8.39v-19.89h8.39z" fill="#deecec"/><path d="m98.64 210.97h-1.49c-.08 0-.15-.07-.15-.15s.07-.15.15-.15h1.49c.13 0 .23-.11.23-.23v-5.16c0-.13-.11-.23-.23-.23h-1.49c-.08 0-.15-.07-.15-.15s.07-.15.15-.15h1.49c.3 0 .54.24.54.54v5.16c0 .28-.24.52-.54.52z" fill="#525456"/></g><path d="m37.88 192.69h117.09v3.46h-117.09z" fill="#3a3228" opacity=".4"/><g><path d="m193.35 40.75h-.31-7.77-.3-7.78-.3-7.77-.31-8.07v13.98h8.07.31 7.77.3 7.78.3 7.77.31 8.07v-13.98z" fill="#ba9346"/><g><path d="m195.9 40.75h-.3-7.77-.31-7.77-.3-7.78-.3-8.08v13.98h8.08.3 7.78.3 7.77.31 7.77.3 8.08v-13.98z" fill="#164768"/><g fill="#0d74c9"><path d="m163.72 41.34h7.52v12.81h-7.52z"/><path d="m171.8 41.34h7.52v12.81h-7.52z"/><path d="m179.88 41.34h7.52v12.81h-7.52z"/><path d="m187.95 41.34h7.52v12.81h-7.52z"/><path d="m196.03 41.34h7.52v12.81h-7.52z"/></g></g><path d="m202.45 39.75h2.4v15.98h-2.4z" fill="#ccad77"/></g><g><path d="m193.35 57.74h-.31-7.77-.3-7.78-.3-7.77-.31-8.07v13.97h8.07.31 7.77.3 7.78.3 7.77.31 8.07v-13.97z" fill="#ba9346"/><g><path d="m195.9 57.74h-.3-7.77-.31-7.77-.3-7.78-.3-8.08v13.97h8.08.3 7.78.3 7.77.31 7.77.3 8.08v-13.97z" fill="#164768"/><g fill="#0d74c9"><path d="m163.72 58.32h7.52v12.81h-7.52z"/><path d="m171.8 58.32h7.52v12.81h-7.52z"/><path d="m179.88 58.32h7.52v12.81h-7.52z"/><path d="m187.95 58.32h7.52v12.81h-7.52z"/><path d="m196.03 58.32h7.52v12.81h-7.52z"/></g></g><path d="m202.45 56.74h2.4v15.98h-2.4z" fill="#ccad77"/></g><g><path d="m193.35 74.72h-.31-7.77-.3-7.78-.3-7.77-.31-8.07v13.97h8.07.31 7.77.3 7.78.3 7.77.31 8.07v-13.97z" fill="#ba9346"/><g><path d="m195.9 74.72h-.3-7.77-.31-7.77-.3-7.78-.3-8.08v13.97h8.08.3 7.78.3 7.77.31 7.77.3 8.08v-13.97z" fill="#164768"/><g fill="#0d74c9"><path d="m163.72 75.31h7.52v12.81h-7.52z"/><path d="m171.8 75.31h7.52v12.81h-7.52z"/><path d="m179.88 75.31h7.52v12.81h-7.52z"/><path d="m187.95 75.31h7.52v12.81h-7.52z"/><path d="m196.03 75.31h7.52v12.81h-7.52z"/></g></g><path d="m202.45 73.72h2.4v15.98h-2.4z" fill="#ccad77"/></g><g><path d="m193.35 91.71h-.31-7.77-.3-7.78-.3-7.77-.31-8.07v13.97h8.07.31 7.77.3 7.78.3 7.77.31 8.07v-13.97z" fill="#ba9346"/><g><path d="m195.9 91.71h-.3-7.77-.31-7.77-.3-7.78-.3-8.08v13.97h8.08.3 7.78.3 7.77.31 7.77.3 8.08v-13.97z" fill="#164768"/><g fill="#0d74c9"><path d="m163.72 92.29h7.52v12.81h-7.52z"/><path d="m171.8 92.29h7.52v12.81h-7.52z"/><path d="m179.88 92.29h7.52v12.81h-7.52z"/><path d="m187.95 92.29h7.52v12.81h-7.52z"/><path d="m196.03 92.29h7.52v12.81h-7.52z"/></g></g><path d="m202.45 90.7h2.4v15.98h-2.4z" fill="#ccad77"/></g><g><path d="m193.35 108.69h-.31-7.77-.3-7.78-.3-7.77-.31-8.07v13.97h8.07.31 7.77.3 7.78.3 7.77.31 8.07v-13.97z" fill="#ba9346"/><g><path d="m195.9 108.69h-.3-7.77-.31-7.77-.3-7.78-.3-8.08v13.97h8.08.3 7.78.3 7.77.31 7.77.3 8.08v-13.97z" fill="#164768"/><g fill="#0d74c9"><path d="m163.72 109.27h7.52v12.81h-7.52z"/><path d="m171.8 109.27h7.52v12.81h-7.52z"/><path d="m179.88 109.27h7.52v12.81h-7.52z"/><path d="m187.95 109.27h7.52v12.81h-7.52z"/><path d="m196.03 109.27h7.52v12.81h-7.52z"/></g></g><path d="m202.45 107.69h2.4v15.98h-2.4z" fill="#ccad77"/></g><g><path d="m193.35 125.68h-.31-7.77-.3-7.78-.3-7.77-.31-8.07v13.97h8.07.31 7.77.3 7.78.3 7.77.31 8.07v-13.97z" fill="#ba9346"/><g><path d="m195.9 125.68h-.3-7.77-.31-7.77-.3-7.78-.3-8.08v13.97h8.08.3 7.78.3 7.77.31 7.77.3 8.08v-13.97z" fill="#164768"/><g fill="#0d74c9"><path d="m163.72 126.26h7.52v12.81h-7.52z"/><path d="m171.8 126.26h7.52v12.81h-7.52z"/><path d="m179.88 126.26h7.52v12.81h-7.52z"/><path d="m187.95 126.26h7.52v12.81h-7.52z"/><path d="m196.03 126.26h7.52v12.81h-7.52z"/></g></g><path d="m202.45 124.67h2.4v15.98h-2.4z" fill="#ccad77"/></g><g><path d="m193.35 142.66h-.31-7.77-.3-7.78-.3-7.77-.31-8.07v13.97h8.07.31 7.77.3 7.78.3 7.77.31 8.07v-13.97z" fill="#ba9346"/><g><path d="m195.9 142.66h-.3-7.77-.31-7.77-.3-7.78-.3-8.08v13.97h8.08.3 7.78.3 7.77.31 7.77.3 8.08v-13.97z" fill="#164768"/><g fill="#0d74c9"><path d="m163.72 143.24h7.52v12.81h-7.52z"/><path d="m171.8 143.24h7.52v12.81h-7.52z"/><path d="m179.88 143.24h7.52v12.81h-7.52z"/><path d="m187.95 143.24h7.52v12.81h-7.52z"/><path d="m196.03 143.24h7.52v12.81h-7.52z"/></g></g><path d="m202.45 141.66h2.4v15.98h-2.4z" fill="#ccad77"/></g><g><path d="m193.35 159.64h-.31-7.77-.3-7.78-.3-7.77-.31-8.07v13.98h8.07.31 7.77.3 7.78.3 7.77.31 8.07v-13.98z" fill="#ba9346"/><g><path d="m195.9 159.64h-.3-7.77-.31-7.77-.3-7.78-.3-8.08v13.98h8.08.3 7.78.3 7.77.31 7.77.3 8.08v-13.98z" fill="#164768"/><g fill="#0d74c9"><path d="m163.72 160.23h7.52v12.81h-7.52z"/><path d="m171.8 160.23h7.52v12.81h-7.52z"/><path d="m179.88 160.23h7.52v12.81h-7.52z"/><path d="m187.95 160.23h7.52v12.81h-7.52z"/><path d="m196.03 160.23h7.52v12.81h-7.52z"/></g></g><path d="m202.45 158.64h2.4v15.98h-2.4z" fill="#ccad77"/></g><g><path d="m193.35 176.63h-.31-7.77-.3-7.78-.3-7.77-.31-8.07v13.97h8.07.31 7.77.3 7.78.3 7.77.31 8.07v-13.97z" fill="#ba9346"/><g><path d="m195.9 176.63h-.3-7.77-.31-7.77-.3-7.78-.3-8.08v13.97h8.08.3 7.78.3 7.77.31 7.77.3 8.08v-13.97z" fill="#164768"/><g fill="#0d74c9"><path d="m163.72 177.21h7.52v12.81h-7.52z"/><path d="m171.8 177.21h7.52v12.81h-7.52z"/><path d="m179.88 177.21h7.52v12.81h-7.52z"/><path d="m187.95 177.21h7.52v12.81h-7.52z"/><path d="m196.03 177.21h7.52v12.81h-7.52z"/></g></g><path d="m202.45 175.63h2.4v15.98h-2.4z" fill="#ccad77"/></g><g fill="#8c6043"><g><path d="m212.9 41.34h4.8v12.81h-4.8z"/><path d="m220.14 41.34h4.8v12.81h-4.8z"/><path d="m227.37 41.34h4.8v12.81h-4.8z"/></g><g><path d="m212.9 58.32h4.8v12.81h-4.8z"/><path d="m220.14 58.32h4.8v12.81h-4.8z"/><path d="m227.37 58.32h4.8v12.81h-4.8z"/></g><g><path d="m212.9 75.31h4.8v12.81h-4.8z"/><path d="m220.14 75.31h4.8v12.81h-4.8z"/><path d="m227.37 75.31h4.8v12.81h-4.8z"/></g><g><path d="m212.9 92.29h4.8v12.81h-4.8z"/><path d="m220.14 92.29h4.8v12.81h-4.8z"/><path d="m227.37 92.29h4.8v12.81h-4.8z"/></g><g><path d="m212.9 109.27h4.8v12.81h-4.8z"/><path d="m220.14 109.27h4.8v12.81h-4.8z"/><path d="m227.37 109.27h4.8v12.81h-4.8z"/></g><g><path d="m212.9 126.26h4.8v12.81h-4.8z"/><path d="m220.14 126.26h4.8v12.81h-4.8z"/><path d="m227.37 126.26h4.8v12.81h-4.8z"/></g><g><path d="m212.9 143.24h4.8v12.81h-4.8z"/><path d="m220.14 143.24h4.8v12.81h-4.8z"/><path d="m227.37 143.24h4.8v12.81h-4.8z"/></g><g><path d="m212.9 160.23h4.8v12.81h-4.8z"/><path d="m220.14 160.23h4.8v12.81h-4.8z"/><path d="m227.37 160.23h4.8v12.81h-4.8z"/></g><g><path d="m212.9 177.21h4.8v12.81h-4.8z"/><path d="m220.14 177.21h4.8v12.81h-4.8z"/><path d="m232.17 186.77v-9.55h-4.8v12.81h2.8c.71-1.08 1.38-2.16 2-3.26z"/></g></g><path d="m154.96 197.54h54.06v2.13h-54.06z" fill="#8a5c42"/><path d="m223.57 199.36c.41-.6.83-1.21 1.27-1.83h-15.81v2.13h14.33c.06-.1.14-.2.21-.3z" fill="#7c4b44"/><g><path d="m55.73 50.96h5.06v18.67h-5.06z" fill="#ccad77"/><g fill="#b79148"><path d="m60.79 60.29h3.28v9.33h-3.28z" transform="matrix(-1 0 0 -1 124.858 129.92)"/><path d="m60.79 50.96h12.31v9.47h-12.31z" transform="matrix(-1 0 0 -1 133.886 111.394)"/></g></g><g><path d="m76.19 50.96h5.06v18.67h-5.06z" fill="#ccad77"/><g fill="#b79148"><path d="m81.26 60.29h3.28v9.33h-3.28z" transform="matrix(-1 0 0 -1 165.792 129.92)"/><path d="m81.26 50.96h12.31v9.47h-12.31z" transform="matrix(-1 0 0 -1 174.82 111.394)"/></g></g><g><path d="m96.66 50.96h5.06v18.67h-5.06z" fill="#ccad77"/><g fill="#b79148"><path d="m101.72 60.29h3.28v9.33h-3.28z" transform="matrix(-1 0 0 -1 206.726 129.92)"/><path d="m101.72 50.96h12.31v9.47h-12.31z" transform="matrix(-1 0 0 -1 215.754 111.394)"/></g></g><g><path d="m117.13 50.96h5.06v18.67h-5.06z" fill="#ccad77"/><g fill="#b79148"><path d="m122.19 60.29h3.28v9.33h-3.28z" transform="matrix(-1 0 0 -1 247.66 129.92)"/><path d="m122.19 50.96h12.31v9.47h-12.31z" transform="matrix(-1 0 0 -1 256.688 111.394)"/></g></g><g><path d="m137.59 50.96h5.06v18.67h-5.06z" fill="#ccad77"/><g fill="#b79148"><path d="m142.66 60.29h3.28v9.33h-3.28z" transform="matrix(-1 0 0 -1 288.594 129.92)"/><path d="m142.66 50.96h12.31v9.47h-12.31z" transform="matrix(-1 0 0 -1 297.623 111.394)"/></g></g></g><g><path d="m238.55 139.6c-.59 60.46-49.95 109.47-110.55 109.47s-109.96-49.01-110.55-109.47h-6.43c.59 64.01 52.84 115.9 116.98 115.9s116.39-51.89 116.98-115.9z" fill="#45577c"/></g></g></svg>