<svg id="Layer_1" enable-background="new 0 0 468.412 468.412" height="512" viewBox="0 0 468.412 468.412" width="512" xmlns="http://www.w3.org/2000/svg"><g><g><g><ellipse cx="234.206" cy="85.961" fill="#fff3a9" rx="80.291" ry="80"/></g><g><path d="m173.916 85.961c0-40.806 30.67-74.452 70.291-79.36-3.279-.406-6.611-.64-10-.64-44.343 0-80.291 35.817-80.291 80s35.947 80 80.291 80c3.389 0 6.721-.234 10-.64-39.621-4.908-70.291-38.554-70.291-79.36z" fill="#ffc28a"/></g><path d="m234.206.961c-47.029 0-85.291 38.131-85.291 85s38.262 85 85.291 85 85.291-38.131 85.291-85-38.262-85-85.291-85zm5 159.817v-12.062c0-2.762-2.238-5-5-5s-5 2.238-5 5v12.062c-37.53-2.465-67.621-32.433-70.105-69.816h12.123c2.762 0 5-2.238 5-5s-2.238-5-5-5h-12.123c2.484-37.383 32.575-67.351 70.105-69.816v12.061c0 2.762 2.238 5 5 5s5-2.238 5-5v-12.062c37.53 2.465 67.621 32.433 70.105 69.816h-12.123c-2.762 0-5 2.238-5 5s2.238 5 5 5h12.123c-2.484 37.383-32.575 67.351-70.105 69.817z" fill="#444b54"/><g><path d="m256.345 112.961c-1.274 0-2.549-.484-3.524-1.453l-21.435-21.3c-1.315-.901-2.18-2.415-2.18-4.13v-36.235c0-2.762 2.238-5 5-5s5 2.238 5 5v34.038l20.663 20.533c1.959 1.946 1.969 5.112.022 7.071-.977.984-2.262 1.476-3.546 1.476z" fill="#444b54"/></g></g><g><g><g><path d="m364.94 359.396-31.772-23.19-7.46-15.758-26.575-55.716-83.952-7.722-17.213-10.91c-12.42-7.872-26.321-13.11-40.844-15.388-11.626-1.824-22.874-5.547-33.293-11.021l-32.88-17.273-79.984 100.583 7.607 3.629c13.425 6.405 25.078 16.005 34.009 28.054l.347.468c9.093 12.267 21.203 21.969 35.154 28.16l11.858 5.263 89.688 60.595 44.987 29.284c8.029 7.874 20.514 5.671 26.856-3.396 6.336-9.057 4.144-21.536-4.89-27.89l15.358 10.764c8.826 6.186 20.99 4.039 27.17-4.795 6.18-8.834 4.035-21.01-4.791-27.196l-39.373-27.595 56.194 39.385c8.826 6.186 20.99 4.039 27.17-4.795 6.18-8.834 4.035-21.01-4.79-27.196l8.41 5.895c8.826 6.186 20.99 4.039 27.17-4.795l.326-.465c6.096-8.715 4.101-20.711-4.487-26.979z" fill="#fff"/></g><g><g><path d="m246.617 446.455-44.987-29.283-89.688-60.595-11.858-5.263c-13.95-6.192-26.061-15.893-35.154-28.16l-.347-.469c-8.931-12.049-20.584-21.649-34.01-28.054l-7.607-3.629 70.012-88.042-1.028-.54-79.983 100.581 7.607 3.629c13.426 6.405 25.078 16.005 34.01 28.054l.347.469c9.093 12.267 21.203 21.969 35.154 28.16l11.858 5.263 89.688 60.595 44.987 29.283c8.029 7.874 20.514 5.671 26.856-3.396 1.139-1.629 1.993-3.371 2.59-5.165-6.086 2.543-13.213 1.695-18.447-3.438z" fill="#e0e0e0"/></g></g></g><g><g><g><path d="m159.783 371.299-32.61 46.617c-5.944 8.497-3.748 20.224 4.867 25.989l.295.198c8.376 5.605 19.695 3.462 25.446-4.819l32.45-46.72c5.813-8.369 3.767-19.867-4.574-25.714l-.135-.095c-8.36-5.86-19.884-3.826-25.739 4.544z" fill="#f9ed99"/></g></g><g><g><path d="m141.173 426.915 32.61-46.617c4.001-5.72 10.651-8.475 17.129-7.779-1.296-2.175-3.048-4.123-5.254-5.669l-.135-.095c-8.361-5.86-19.885-3.826-25.74 4.543l-32.61 46.617c-5.944 8.497-3.748 20.224 4.867 25.99l.295.198c2.535 1.696 5.34 2.671 8.177 2.993-3.661-6.069-3.676-13.981.661-20.181z" fill="#ffc28a"/></g></g><g><path d="m149.356 353.953c8.361 5.86 10.393 17.395 4.539 25.764l-26.952 38.528c-5.855 8.369-17.379 10.403-25.74 4.543-8.361-5.86-10.393-17.395-4.539-25.764l26.952-38.528c5.854-8.369 17.378-10.403 25.74-4.543z" fill="#f9ed99"/></g><g><g><path d="m110.664 405.024 26.952-38.528c3.847-5.499 10.141-8.241 16.377-7.828-1.222-1.787-2.761-3.399-4.637-4.715-8.361-5.86-19.885-3.826-25.74 4.543l-26.952 38.528c-5.855 8.369-3.823 19.904 4.539 25.764 2.867 2.01 6.107 3.07 9.363 3.285-4.221-6.175-4.442-14.559.098-21.049z" fill="#ffc28a"/></g></g><g><path d="m178.665 408.601-15.174 21.691c-5.855 8.369-3.823 19.904 4.539 25.764 8.361 5.86 19.885 3.826 25.74-4.543l15.174-21.691c5.855-8.369 3.823-19.904-4.539-25.764-8.361-5.86-19.885-3.826-25.74 4.543z" fill="#f9ed99"/></g><g><g><path d="m178.492 438.291 15.174-21.691c3.633-5.193 9.45-7.942 15.339-7.883-1.216-1.765-2.741-3.358-4.599-4.659-8.361-5.86-19.885-3.826-25.74 4.543l-15.174 21.691c-5.854 8.369-3.822 19.904 4.539 25.764 3.173 2.224 6.8 3.305 10.401 3.341-4.257-6.181-4.494-14.596.06-21.106z" fill="#ffc28a"/></g></g><g><path d="m101.656 358.16c-8.361-5.86-19.885-3.826-25.74 4.543l-9.284 13.272c-5.855 8.369-3.823 19.904 4.539 25.764 8.361 5.86 19.885 3.826 25.74-4.543l9.284-13.272c5.854-8.369 3.822-19.904-4.539-25.764z" fill="#f9ed99"/></g><g><g><path d="m79.632 382.975 9.284-13.272c3.909-5.587 10.344-8.332 16.678-7.809-1.096-1.397-2.409-2.663-3.938-3.734-8.361-5.86-19.885-3.826-25.74 4.543l-9.284 13.272c-5.854 8.369-3.823 19.904 4.539 25.764 2.779 1.948 5.908 3.005 9.062 3.266-4.898-6.243-5.385-15.192-.601-22.03z" fill="#ffc28a"/></g></g></g><g><path d="m167.999 245.019 52.881-32.33c10.621-6.494 23.611-7.816 35.321-3.596l37.169 13.396c7.693 2.773 16.038 3.184 23.966 1.181l59.703-15.085 48.804 98.466-11.733 17.796c-11.634 17.646-29.991 29.742-50.784 33.462l-125.318-93.576-28.601 8.561-18.594 22.929c-13.269 16.363-36.147 21.24-54.925 11.709-5.59-2.837-7.358-9.982-3.738-15.103l29.791-42.141c1.613-2.282 3.674-4.211 6.058-5.669z" fill="#fff3a9"/></g><g><g><path d="m174.999 263.02 52.881-32.33c10.621-6.494 23.611-7.816 35.321-3.596l37.169 13.396c7.693 2.772 16.038 3.184 23.966 1.18l59.703-15.085 40.707 82.129 1.097-1.664-48.803-98.466-59.703 15.085c-7.928 2.003-16.273 1.592-23.966-1.18l-37.169-13.396c-11.71-4.22-24.7-2.898-35.321 3.596l-52.881 32.33c-2.384 1.457-4.445 3.386-6.059 5.668l-29.791 42.141c-3.62 5.121-1.852 12.266 3.738 15.103 1.327.674 2.676 1.267 4.04 1.798l29.013-41.042c1.613-2.281 3.674-4.21 6.058-5.667z" fill="#ffc28a"/></g></g><g><g><path d="m414.109 324.847 11.733-17.796-9.252-18.667-17.509 26.557c-8.876 13.464-23.063 22.813-38.926 25.65l-16.586 2.967 19.756 14.752c20.793-3.721 39.15-15.816 50.784-33.463z" fill="#fff"/></g></g></g><g><g><g><path d="m74.412 62.961h-69.412c-2.762 0-5-2.238-5-5s2.238-5 5-5h69.412c2.762 0 5 2.238 5 5s-2.238 5-5 5z" fill="#444b54"/></g><g><path d="m120.412 62.961h-16.31c-2.762 0-5-2.238-5-5s2.238-5 5-5h16.31c2.762 0 5 2.238 5 5s-2.238 5-5 5z" fill="#444b54"/></g><g><path d="m44.412 112.961h-39.412c-2.762 0-5-2.238-5-5s2.238-5 5-5h39.412c2.762 0 5 2.238 5 5s-2.238 5-5 5z" fill="#444b54"/></g><g><path d="m90.412 112.961h-16.31c-2.762 0-5-2.238-5-5s2.238-5 5-5h16.31c2.762 0 5 2.238 5 5s-2.238 5-5 5z" fill="#444b54"/></g></g><g><g><path d="m463.412 62.961h-69.412c-2.762 0-5-2.238-5-5s2.238-5 5-5h69.412c2.762 0 5 2.238 5 5s-2.238 5-5 5z" fill="#444b54"/></g><g><path d="m364.31 62.961h-16.31c-2.762 0-5-2.238-5-5s2.238-5 5-5h16.31c2.762 0 5 2.238 5 5s-2.239 5-5 5z" fill="#444b54"/></g><g><path d="m463.412 112.961h-39.412c-2.762 0-5-2.238-5-5s2.238-5 5-5h39.412c2.762 0 5 2.238 5 5s-2.238 5-5 5z" fill="#444b54"/></g><g><path d="m394.31 112.961h-16.31c-2.762 0-5-2.238-5-5s2.238-5 5-5h16.31c2.762 0 5 2.238 5 5s-2.239 5-5 5z" fill="#444b54"/></g></g></g><path d="m270.07 442.846c-.002-.053-.003-.105-.005-.158 10.612 6.998 26.058 3.898 33.143-6.685 3.112-4.447 4.539-9.58 4.416-14.633 10.632 8.285 27.289 5.652 34.785-5.568 3.491-4.99 4.861-10.843 4.301-16.477 9.893 2.802 21.206-1.418 26.815-10.085 6.042-8.639 5.677-20.013-.105-28.243-.002 0-.004.001-.006.002 15.53-4.7 29.427-13.969 39.75-26.506 3.692 5.53 9.841 8.606 16.144 8.606 3.284 0 6.609-.835 9.648-2.591l19.563-11.306c9.147-5.035 12.491-17.618 7.06-26.534l-66.749-114.887c-5.354-9.215-17.213-12.377-26.438-7.044l-19.563 11.305c-6.889 3.853-10.78 12.147-9.428 19.886l-27.29 6.895c-6.99 1.765-14.266 1.407-21.046-1.037l-37.169-13.396c-13.205-4.76-27.647-3.29-39.625 4.034l-38.027 23.248c-7.185-2.718-14.651-4.692-22.347-5.899-11.471-1.793-22.494-5.527-32.725-11.024.771-7.385-3.094-14.945-9.589-18.596l-19.563-11.306c-9.226-5.331-21.085-2.171-26.438 7.045l-66.748 114.888c-5.432 8.917-2.087 21.499 7.06 26.535l19.563 11.305c7.25 4.228 16.511 3.172 22.679-2.419 5.672 6.817 12.281 12.797 19.61 17.743l.074-.106-8.969 12.821c-7.447 10.646-5.12 25.856 5.56 33.253 5.823 4.062 13.232 5.229 19.974 3.213.444 6.879 3.88 13.506 9.947 17.759 5.971 4.214 13.658 5.383 20.549 3.136.449 7.406 4.429 14.219 10.673 18.238 8.113 5.448 18.797 5.146 26.66-.413 1.484 4.818 4.511 9.198 8.947 12.307 10.461 7.662 25.974 4.497 33.028-6.231l6.35-9.078 26.958 17.548c18.341 12.865 38.41-.683 38.573-19.545zm-178.681-46.816c-4.389 4.663-12.15 5.408-17.348 1.615-6.093-4.27-7.578-12.705-3.313-18.804l9.284-13.271c4.041-6.022 12.896-7.605 18.773-3.314 5.301 3.715 7.109 10.583 4.68 16.323.001-.001-11.715 16.815-12.076 17.451zm31.686 19.019c-3.939 6.266-13.032 8.024-19.003 3.645-5.48-3.841-7.217-11.048-4.408-16.897.469-.555 28.049-40.435 28.049-40.435 4.041-6.023 12.895-7.604 18.773-3.314h-.001c6.089 4.267 7.576 12.694 3.32 18.792zm30.601 21.382c-4.168 5.999-12.493 7.574-18.566 3.511-6.41-3.876-8.27-13.106-3.844-19.154l32.614-46.623c4.039-6.021 12.893-7.603 18.769-3.318 6.175 4.211 7.749 12.725 3.478 18.865zm51.171-9.475-15.173 21.691c-4.031 6.027-12.926 7.598-18.773 3.314-5.129-3.594-6.976-10.136-4.893-15.756l18.745-26.988c1.865-1.7 4.167-2.851 6.711-3.3 3.547-.627 7.122.168 10.072 2.235 6.092 4.269 7.576 12.705 3.311 18.804zm32.498 27.308-27.072-17.621 2.459-3.515c7.402-10.582 5.124-25.748-5.451-33.161-3.917-2.746-8.468-4.198-13.148-4.254l.208-.299c7.342-10.57 4.729-25.264-5.807-32.655-7.892-5.793-19.319-5.757-27.184-.007-1.413-5.049-4.508-9.659-9.124-12.894h-.001c-10.366-7.632-25.99-4.529-33.014 6.213l-6.218 8.889c-1.611-4.257-4.468-8.091-8.466-10.894-5.139-3.6-11.367-4.983-17.55-3.894-2.734.482-5.299 1.448-7.636 2.794-8.104-5.135-15.287-11.659-21.201-19.256l63.603-109.473c10.863 5.673 22.503 9.517 34.606 11.414 4.334.68 8.587 1.627 12.75 2.835-4.175 2.407-8.541 5.232-11.241 9.314l-29.791 42.143c-5.397 7.267-2.607 18.54 5.559 22.447 20.734 10.523 46.419 5.049 61.071-13.019l17.622-21.73 24.713-7.396 124.961 93.188c6.344 4.631 7.841 13.637 3.342 20.068-4.219 6.817-14.054 8.793-20.533 4.038l-67.444-47.271c-2.264-1.583-5.381-1.036-6.965 1.225-1.585 2.262-1.036 5.38 1.225 6.965l59.028 41.371c.002.001.004.004.006.005 6.556 4.595 8.155 13.672 3.564 20.234-4.341 6.484-13.908 8.178-20.203 3.566l-46.044-32.271-20.392-14.292c-2.395-1.675-5.747-.965-7.227 1.639-1.29 2.271-.477 5.175 1.662 6.674l10.065 7.055s0 0 .001.001l39.373 27.596c6.557 4.595 8.154 13.672 3.563 20.234-4.341 6.485-13.907 8.178-20.203 3.566l-42.35-29.683c-2.261-1.584-5.379-1.036-6.965 1.225-1.585 2.262-1.036 5.38 1.225 6.965l26.984 18.913c15.213 11.387.564 34.089-16.36 23.008zm127.199-101.285-123.546-92.251c-1.27-.951-2.92-1.236-4.425-.784l-28.601 8.561c-.963.288-1.816.86-2.45 1.641l-18.594 22.929c-11.702 14.433-32.218 18.804-48.777 10.4-2.827-1.345-3.791-5.25-1.919-7.758l29.791-42.143c1.228-1.736 2.77-3.179 4.584-4.289l52.881-32.329c9.376-5.732 20.682-6.884 31.018-3.157l37.169 13.396c8.661 3.122 17.957 3.58 26.886 1.324l28.762-7.267 60.412 103.982c-10.471 14.16-25.939 24.119-43.191 27.745z" fill="#444b54"/></g></svg>