<svg id="Capa_1" enable-background="new 0 0 512 512" height="512" viewBox="0 0 512 512" width="512" xmlns="http://www.w3.org/2000/svg"><g><path d="m408.172 457.969-55.816-3.599-24.79 50.137-84.149-145.75 80.606-46.538z" fill="#f27a55"/><path d="m273.381 358.757 58.133-33.563-7.491-12.975-80.606 46.538 84.149 145.75 13.823-27.957z" fill="#ea5e42"/><path d="m103.534 457.969 55.815-3.599 24.791 50.137 84.148-145.75-80.606-46.538z" fill="#f27a55"/><g fill="#ea5e42"><path d="m210.156 325.194-22.474-12.975-84.148 145.751 31.123-2.008z"/><path d="m189.314 454.37-29.039 1.873 23.865 48.264 16.141-27.957z"/></g><path d="m410.097 345.326-40.031 12.308c-5.442 1.673-10.214 5.026-13.634 9.578l-25.157 34.192c-7.014 9.339-19.244 13.099-30.293 9.314l-39.614-14.278c-5.386-1.845-11.218-1.938-16.66-.265l-40.044 13.851c-11.164 3.432-23.268-.714-29.982-10.271l-24.062-35.811c-3.273-4.659-7.937-8.161-13.323-10.006l-39.62-13.572c-11.049-3.785-18.405-14.255-18.219-25.933l.665-41.875c.09-5.693-1.624-11.268-4.897-15.926l-24.076-34.269c-6.714-9.557-6.511-22.35.503-31.689l25.151-33.487c3.419-4.552 5.309-10.07 5.4-15.763l.665-41.875c.185-11.678 7.869-21.909 19.033-25.341l40.031-12.308c5.442-1.673 10.214-5.026 13.634-9.578l24.557-34.092c7.014-9.339 19.244-13.099 30.293-9.314l40.215 14.177c5.386 1.845 11.218 1.938 16.66.265l40.041-13.568c11.164-3.432 23.268.714 29.982 10.271l24.065 35.53c3.273 4.659 7.937 8.161 13.323 10.006l39.62 13.572c11.049 3.785 18.405 14.255 18.219 25.933l-.665 41.875c-.09 5.693 1.624 11.268 4.897 15.926l24.075 34.268c6.714 9.557 6.511 22.35-.503 31.689l-25.151 33.487c-3.419 4.552-5.309 10.07-5.4 15.763l-.665 41.875c-.185 11.678-7.869 21.908-19.033 25.341z" fill="#ffe17d"/><path d="m204.646 399.755-24.062-35.811c-3.273-4.659-7.937-8.161-13.323-10.006l-39.62-13.572c-11.049-3.785-18.405-14.254-18.219-25.932l.665-41.875c.09-5.692-1.624-11.268-4.897-15.926l-24.075-34.268c-6.714-9.557-6.511-22.35.503-31.689l25.151-33.486c3.419-4.552 5.309-10.07 5.4-15.763l.665-41.875c.185-11.678 7.87-21.909 19.033-25.341l40.031-12.308c5.442-1.673 10.214-5.026 13.634-9.578l24.556-34.091c2.085-2.776 4.63-5.059 7.469-6.797l-7.14-2.517c-11.049-3.785-23.279-.025-30.294 9.314l-24.556 34.091c-3.419 4.552-8.192 7.905-13.634 9.578l-40.031 12.308c-11.163 3.43-18.847 13.661-19.033 25.339l-.665 41.875c-.09 5.693-1.981 11.211-5.4 15.763l-25.151 33.486c-7.014 9.339-7.217 22.132-.503 31.689l24.075 34.268c3.273 4.659 4.987 10.234 4.897 15.926l-.665 41.875c-.185 11.678 7.17 22.147 18.219 25.932l39.62 13.572c5.386 1.845 10.05 5.348 13.323 10.006l24.062 35.811c6.714 9.557 18.819 13.703 29.982 10.271l7.986-2.762c-3.089-1.885-5.829-4.412-8.003-7.507z" fill="#ffd164"/><circle cx="255.999" cy="209.767" fill="#f1f6f7" r="154.889"/><path d="m162.92 163.556h-54.769c-4.69 14.97-7.164 30.905-7.036 47.415.325 41.816 17.278 79.685 44.522 107.37h17.283z" fill="#7398d4"/><path d="m121.092 210.971c-.128-16.51 2.345-32.445 7.036-47.415h-19.976c-4.69 14.97-7.164 30.905-7.036 47.415.325 41.816 17.278 79.685 44.522 107.37h17.283v-2.807c-25.665-27.411-41.515-64.143-41.829-104.563z" fill="#4377c4"/><path d="m335.735 211.558h-5.503c8.979.01 16.251 7.291 16.251 16.271-.01 4.495-1.828 8.56-4.774 11.496-2.947 2.946-7.002 4.764-11.496 4.764l-5.414-.01c8.98.01 16.261 7.291 16.251 16.271 0 4.495-1.818 8.56-4.764 11.496-2.946 2.946-7.012 4.764-11.506 4.764l-6.592-.01c8.979.01 16.261 7.291 16.251 16.281 0 4.495-1.828 8.55-4.764 11.496-2.946 2.937-7.012 4.755-11.506 4.755l-102.308-.06c-4.395-.01-8.64-1.498-12.126-4.175-4.884-3.746-12.755-5.953-20.835-7.301-7.132-1.189-14.433-1.718-19.976-2.047v-102.079c27.837-31.762 73.203-35.977 70.766-83.46-.419-8.21 6.133-15.112 14.363-15.102 3.146 0 6.113 1.029 8.53 2.797.509.379.999.789 1.458 1.229 1.708 1.648 3.006 3.716 3.726 6.083 7.451 24.471 9.309 48.752-.569 73.972l74.561.05c8.979 0 16.26 7.291 16.251 16.27 0 8.969-7.281 16.251-16.251 16.251-.014-.002-.014-.002-.024-.002z" fill="#ffcebf"/><path d="m253.662 113.009c1.971 38.403-27.327 48.504-53.33 67.766-10.996 8.145-17.435 21.061-17.435 34.745v85.076c-7.132-1.189-14.433-1.718-19.976-2.047v-102.079c27.837-31.762 73.203-35.977 70.766-83.46-.419-8.21 6.133-15.112 14.363-15.102 3.146 0 6.113 1.029 8.53 2.797.509.379.999.789 1.458 1.229-2.878 2.785-4.596 6.75-4.376 11.075z" fill="#ffb09e"/><g><path d="m369.511 93.758c-2.959-2.894-7.702-2.842-10.594.115-2.894 2.956-2.842 7.699.115 10.593 28.294 27.69 44.05 64.679 44.362 104.153.622 80.653-66.749 148.551-147.408 148.551-34.317-.001-65.974-11.812-91.08-31.604 3.173-.87 5.505-3.775 5.505-7.225v-14.747c9.446.845 22.873 2.726 28.761 7.247 4.797 3.682 10.722 5.713 16.683 5.717l102.308.062c18.111-1.688 30.532-20.363 19.979-36.639 10.344-7.057 13.422-22.637 6.218-33.088 9.754-7.253 12.435-22.301 5.46-32.473 17.311-12.78 9.192-42.861-14.062-42.877l-64.148-.039c5.958-21.153 5.058-43.258-2.677-68.669-7.134-23.434-44.011-17.571-42.724 7.56 1.381 26.896-14.751 37.521-35.175 50.973-6.884 4.534-13.908 9.161-20.623 14.625v-12.44c0-4.138-3.353-7.491-7.491-7.491h-44.235c21.666-55.264 76.878-93.231 136.174-93.688 28.317-.228 55.913 7.655 79.771 22.778 3.496 2.214 8.122 1.178 10.338-2.317 2.214-3.495 1.177-8.123-2.317-10.338-25.938-16.439-55.865-25.11-86.632-25.11-88.812 0-163.084 74.828-162.397 163.639.689 87.925 74.361 161.13 162.363 161.125 88.923 0 163.077-74.688 162.391-163.65-.344-43.493-17.698-84.243-48.865-114.743zm-199.096 102.599c8.551-9.099 18.864-15.891 28.86-22.475 21.492-14.156 43.716-28.794 41.896-64.253-.359-6.999 10.82-10.997 13.428-2.429 7.954 26.13 7.834 48.075-.377 69.06-1.275 5.861 1.049 9.268 6.971 10.221l74.555.045c4.837.003 8.77 3.941 8.767 8.778-.003 4.835-3.938 8.767-8.772 8.767h-.005l-20.232-.013h-.005c-4.135 0-7.488 3.351-7.491 7.486-.003 4.138 3.35 7.493 7.486 7.496l14.813.01c4.796.051 8.681 3.97 8.678 8.777-.003 4.835-3.939 8.767-8.773 8.767h-.005l-14.726-.009h-.004c-4.135 0-7.489 3.351-7.491 7.487-.002 4.137 3.35 7.492 7.486 7.495l9.429.006c4.786.061 8.66 3.977 8.657 8.777-.003 4.835-3.939 8.767-8.773 8.767h-.005l-14.725-.009h-.005c-4.135 0-7.488 3.351-7.491 7.486-.003 4.138 3.35 7.493 7.486 7.496l8.133.005c5.345.506 8.267 3.431 8.766 8.777-.004 5.198-4.297 8.068-8.777 8.767l-102.308-.062c-2.684-.002-5.372-.931-7.57-2.619-8.768-6.731-23.459-9.205-37.88-10.396v-92.205zm-56.683-25.311h41.697v139.804h-6.607c-24.662-26.132-39.914-61.261-40.217-99.939-.106-13.647 1.643-27.031 5.127-39.865z"/><path d="m466.979 192.865-24.075-34.268c-2.379-3.386-3.602-7.363-3.537-11.501l.665-41.875c.238-14.969-9.119-28.287-23.282-33.139l-39.62-13.571c-3.897-1.335-7.21-3.817-9.586-7.179l-24.026-35.472c-8.63-11.264-24.596-17.829-38.59-13.165l-39.934 13.533c-3.925 1.187-8.05 1.111-11.872-.198l-40.278-14.2c-13.985-4.79-30.026.032-38.799 12.023l-24.509 34.027c-2.481 3.28-5.87 5.652-9.805 6.862l-40.03 12.308c-14.31 4.4-24.084 17.414-24.322 32.382l-.665 41.875c-.066 4.139-1.414 8.074-3.9 11.383l-25.15 33.486c-8.992 11.97-9.251 28.244-.644 40.495l24.075 34.27c2.379 3.385 3.602 7.361 3.536 11.5l-.664 41.874c-.238 14.97 9.118 28.288 23.281 33.139l39.621 13.573c4.746 1.905 8.345 4.9 10.799 8.983l-10.45 18.1c-2.069 3.583-.841 8.164 2.742 10.233 3.788 1.963 7.199 1.049 10.233-2.742l6.78-11.743 13.49 20.077c7.72 11.581 25.334 17.77 38.649 13.173l23.529-8.138-45.996 79.673-18.585-37.592c-1.341-2.71-4.161-4.349-7.197-4.155l-41.846 2.696 14.825-25.674c2.069-3.583.842-8.164-2.742-10.233-3.583-2.069-8.164-.842-10.233 2.742l-21.824 37.793c-3.101 6.467-.479 11.211 6.969 11.221l50.831-3.275 22.576 45.664c2.671 5.4 10.234 5.57 13.203.425l61.055-105.76c3.281-.04 6.403.557 9.368 1.792l60.032 103.968c2.97 5.143 10.531 4.977 13.203-.425l22.576-45.664 50.83 3.275c6.812.365 10.183-5.004 6.969-11.222l-21.764-37.686c-2.069-3.582-6.649-4.809-10.234-2.741-3.583 2.07-4.81 6.651-2.741 10.234l14.764 25.563-41.844-2.696c-3.009-.195-5.856 1.444-7.197 4.155l-18.586 37.594-44.161-76.482c7.602 3.489 18.308 7.516 26.861 7.516 10.618 0 20.872-4.934 27.556-13.833l17.995-24.458 8.273 14.332c3.033 3.792 6.444 4.706 10.232 2.743 3.584-2.068 4.812-6.649 2.743-10.232l-11.292-19.563c2.025-1.754 4.396-3.07 7.008-3.872l40.031-12.308c14.31-4.4 24.084-17.414 24.322-32.382l.665-41.876c.065-4.137 1.413-8.072 3.9-11.382l25.151-33.487c8.99-11.97 9.249-28.243.642-40.493zm-12.623 31.497-25.15 33.486c-4.399 5.856-6.786 12.822-6.901 20.143l-.665 41.875c-.135 8.46-5.657 15.813-13.744 18.299l-40.031 12.308c-8.072 1.801-13.962 7.081-18.001 13.027l-24.578 33.405c-5.069 6.75-13.832 9.458-21.822 6.744l-39.555-14.256c-7.159-2.493-16.523-2.243-21.648-.297l-39.912 13.805c-8.031 2.415-16.646-.545-21.496-7.394l-24.014-35.741c-4.046-5.898-9.75-10.203-17.112-12.915l-39.621-13.574c-8.003-2.741-13.291-10.267-13.156-18.727l.664-41.874c.117-7.322-2.047-14.361-6.257-20.352l-24.077-34.267c-4.864-6.923-4.718-16.119.364-22.884l25.15-33.486c4.398-5.854 6.784-12.82 6.901-20.143l.665-41.875c.135-8.46 5.657-15.813 13.744-18.299l40.03-12.308c7.434-2.483 13.272-6.603 17.511-12.36l24.509-34.027c5.088-6.724 13.854-9.403 21.772-6.693l40.277 14.199c7.511 2.412 14.675 2.503 21.492.273l39.933-13.533c8.04-2.428 16.673.536 21.523 7.398l24.026 35.472c4.063 5.874 9.762 10.172 17.097 12.893l39.62 13.571c8.004 2.743 13.292 10.269 13.157 18.728l-.665 41.876c-.115 7.323 2.048 14.36 6.258 20.351l24.075 34.268c4.864 6.922 4.718 16.118-.363 22.884z"/></g><path d="m131.898 217.258c-4.137 0-7.491-3.354-7.491-7.491 0-4.137 3.354-7.491 7.491-7.491 4.137 0 7.491 3.354 7.491 7.491 0 4.138-3.353 7.491-7.491 7.491z"/></g></svg>