<svg id="Layer_1" viewBox="0 0 512 512" xmlns="http://www.w3.org/2000/svg" data-name="Layer 1"><path d="m11.03 0h300.881l64.117 64.117v400.349h-364.998z" fill="#d5e3f2" fill-rule="evenodd"/><path d="m311.911 0 64.117 64.117h-64.117z" fill="#b7cfe8" fill-rule="evenodd"/><path d="m210.986 83a72.771 72.771 0 0 1 20.114 8.337l17.574-10.171a79 79 0 0 1 17.282 17.282l-10.171 17.6a72.178 72.178 0 0 1 8.335 20.08l19.614 5.246a79.809 79.809 0 0 1 0 24.423l-19.614 5.245a72.716 72.716 0 0 1 -8.335 20.11l10.171 17.574a79.678 79.678 0 0 1 -17.282 17.282l-17.6-10.171a72.225 72.225 0 0 1 -20.08 8.335l-5.246 19.614a79.8 79.8 0 0 1 -24.422 0l-5.246-19.614a72.777 72.777 0 0 1 -20.11-8.335l-17.573 10.171a79.682 79.682 0 0 1 -17.283-17.282l10.171-17.6a72.232 72.232 0 0 1 -8.335-20.081l-19.622-5.245a79.809 79.809 0 0 1 0-24.423l19.614-5.246a72.783 72.783 0 0 1 8.335-20.109l-10.171-17.574a79.024 79.024 0 0 1 17.283-17.282l17.573 10.171a72.777 72.777 0 0 1 20.11-8.337l5.246-19.614a79.8 79.8 0 0 1 24.422 0z" fill="#ffab02" fill-rule="evenodd"/><path d="m193.529 201.938a48.35 48.35 0 1 0 -48.35-48.35 48.433 48.433 0 0 0 48.35 48.35z" fill="#d5e3f2" fill-rule="evenodd"/><path d="m104.086 280.976a7.213 7.213 0 0 1 10.2 10.2l-39.986 39.957a7.211 7.211 0 0 1 -10.171 0l-18.972-18.973a7.192 7.192 0 1 1 10.172-10.171l13.9 13.873z" fill="#69a7ff"/><path d="m104.086 365.465a7.2 7.2 0 0 1 10.2 10.171l-39.986 39.956a7.211 7.211 0 0 1 -10.171 0l-18.972-18.973a7.192 7.192 0 1 1 10.172-10.171l13.9 13.873z" fill="#ff3d50"/><path d="m141.653 296.51a7.2 7.2 0 0 1 0-14.4h195.147a7.2 7.2 0 1 1 0 14.4zm0 117.946a7.2 7.2 0 0 1 0-14.4h195.147a7.2 7.2 0 0 1 0 14.4zm0-33.487a7.184 7.184 0 0 1 0-14.368h195.147a7.184 7.184 0 1 1 0 14.368zm0-50.972a7.2 7.2 0 0 1 0-14.4h195.147a7.2 7.2 0 0 1 0 14.4z" fill="#3f5163"/><path d="m344.523 324.721 147.731 85.3a17.5 17.5 0 0 1 6.382 23.84 17.539 17.539 0 0 1 -23.869 6.412l-147.73-85.3z" fill="#9c5717" fill-rule="evenodd"/><path d="m333.186 264.364 71.403 41.21-64.088 111.009-71.373-41.239z" fill="#b36720" fill-rule="evenodd"/><path d="m331.146 247.869 88.744 51.264a3.283 3.283 0 0 1 1.194 4.488l-9.938 17.224a3.3 3.3 0 0 1 -4.488 1.224l-88.772-51.264a3.308 3.308 0 0 1 -1.2-4.488l9.967-17.224a3.291 3.291 0 0 1 4.488-1.224z" fill="#9c5717" fill-rule="evenodd"/><path d="m267.059 358.878 88.741 51.235a3.283 3.283 0 0 1 1.2 4.487l-9.938 17.253a3.29 3.29 0 0 1 -4.488 1.195l-88.744-51.235a3.292 3.292 0 0 1 -1.223-4.488l9.967-17.253a3.309 3.309 0 0 1 4.488-1.195z" fill="#9c5717" fill-rule="evenodd"/><path d="m235.059 490.259h105.355v-18.332a18.4 18.4 0 0 0 -18.361-18.361h-68.633a18.415 18.415 0 0 0 -18.361 18.361z" fill="#b36720" fill-rule="evenodd"/><path d="m217.398 482.798h140.678v29.202h-140.678z" fill="#9c5717"/><path d="m11.03 0h19.322v464.466h-19.322z" fill="#b7cfe8"/><g fill-rule="evenodd"><path d="m188.6 83 5.245-19.614c1.953-.291 3.935-.524 5.917-.7a78.065 78.065 0 0 0 -18.448.7l-5.242 19.614a71.86 71.86 0 0 0 -13.61 4.838l6.032 3.5a72.412 72.412 0 0 1 20.106-8.338zm0 141.173a72.412 72.412 0 0 1 -20.11-8.335l-6.032 3.5a71.86 71.86 0 0 0 13.61 4.838l5.246 19.614a78.966 78.966 0 0 0 18.506.7c-1.982-.175-3.964-.408-5.975-.7zm-54.962-125.725a79.828 79.828 0 0 1 12.007-13.085l-7.256-4.2a79.024 79.024 0 0 0 -17.283 17.282l10.171 17.574a72.783 72.783 0 0 0 -8.335 20.109l-19.614 5.246a79.809 79.809 0 0 0 0 24.423l19.614 5.245a72.232 72.232 0 0 0 8.335 20.081l-10.171 17.6a79.682 79.682 0 0 0 17.283 17.282l7.256-4.2a80.3 80.3 0 0 1 -12.007-13.085l10.171-17.6a72.232 72.232 0 0 1 -8.335-20.081l-19.614-5.239a79.809 79.809 0 0 1 0-24.423l19.614-5.246a72.783 72.783 0 0 1 8.335-20.109z" fill="#ed9e00"/><path d="m289.674 361.676 18.303-31.679 8.306-14.398 11.016-19.089 8.306-14.397.467-.787-9.501-5.508-3.614 6.295-8.335 14.397-11.017 19.089-8.306 14.398-19.555 33.894 4.663 2.71 24.947 14.368 33.603 19.41 2.71 1.574 5.45 3.147 4.459-7.694-28.444-16.437-24.948-14.368z" fill="#a65d19"/><path d="m264.7 379.133a3.31 3.31 0 0 1 -1.195-4.488l4.663-8.044 3.06-5.3-4.167-2.419a3.309 3.309 0 0 0 -4.488 1.195l-3.76 6.528-6.213 10.721a3.306 3.306 0 0 0 .262 3.643 3.35 3.35 0 0 0 .961.845l31.592 18.244 24.919 14.4 32.233 18.593a3.29 3.29 0 0 0 4.488-1.195l2.244-3.876-23.432-13.522-24.918-14.4-33.049-19.089z" fill="#8f4e11"/><path d="m328.786 268.153a3.289 3.289 0 0 1 -1.195-4.488l4.663-8.073 3.06-5.3-4.168-2.419a3.291 3.291 0 0 0 -4.488 1.224l-3.759 6.5-6.208 10.725a3.356 3.356 0 0 0 .262 3.672 2.814 2.814 0 0 0 .933.816l31.621 18.273 24.918 14.368 32.233 18.623a3.3 3.3 0 0 0 4.488-1.224l2.215-3.876-23.4-13.523-24.918-14.368-33.049-19.089z" fill="#8f4e11"/><path d="m475.234 429.29-99.206-57.3-7.345-4.226-4.867 8.422 12.212 7.053 98.739 57.035a17.472 17.472 0 0 0 25.53-19.935 16.755 16.755 0 0 1 -1.224 2.536 17.512 17.512 0 0 1 -23.839 6.412z" fill="#8f4e11"/><path d="m242.549 479.388a18.348 18.348 0 0 1 18.36-18.332h68.634a18.281 18.281 0 0 1 8.685 2.186 18.448 18.448 0 0 0 -16.175-9.676h-68.633a18.415 18.415 0 0 0 -18.361 18.361v10.873h7.49z" fill="#a65d19"/><path d="m226.374 491.774h131.701v-8.976h-17.661-97.865-7.49-17.661v29.202h8.976z" fill="#8f4e11"/></g></svg>