<?xml version="1.0" encoding="utf-8"?>
<!-- Generator: Adobe Illustrator 27.5.0, SVG Export Plug-In . SVG Version: 6.00 Build 0)  -->
<svg version="1.1" id="Layer_1" xmlns="http://www.w3.org/2000/svg" xmlns:xlink="http://www.w3.org/1999/xlink" x="0px" y="0px"
	 viewBox="0 0 2200 2200" style="enable-background:new 0 0 2200 2200;" xml:space="preserve">
<g>
	<rect style="fill:none;" width="2200" height="2200"/>
	<g>
		<g>
			<path style="fill:#08743B;" d="M668.01,678.68c-0.46,1.79-1.2,3.56-2.51,4.87c-1.3,1.31-3.26,2.07-5.04,1.6
				c-1.79-0.47-3.19-2.38-2.76-4.17c0.17-0.72,0.59-1.34,1-1.95c1.23-1.81,3.47-7,5.83-7.39
				C668.31,671.01,668.62,676.33,668.01,678.68z"/>
			<path style="fill:#08743B;" d="M687.44,610.33c-0.26,1.61-1.78,2.67-3.19,3.48c-0.87,0.51-1.84,1.02-2.84,0.9
				c-0.78-0.09-1.47-0.55-2.06-1.06c-1.77-1.57-4.56-6.03-2.34-8.26c1.5-1.52,10.18,0.89,10.29,0.58
				C686.8,607.35,687.67,608.88,687.44,610.33z"/>
			<path style="fill:#08743B;" d="M750.09,718.17c1.4,2.77-1.27,9.75-6.73,7.28c-3.76-1.7-7.54-7.23-4.84-10.21
				c1.24-1.37,4-1.56,6.13-1C747.14,714.88,749.19,716.37,750.09,718.17z"/>
			<path style="fill:#08743B;" d="M1237.98,600.17c-0.77,3.65,3.63,6.64,3.55,10.38c-0.01,0.64-0.2,1.34-0.73,1.71
				c-0.32,0.21-0.71,0.28-1.08,0.33c-3.62,0.44-7.39-0.91-9.38-3.93c-2.08-3.15-4.87-6.65-5.16-10.54
				c-0.24-3.19,1.27-6.22,2.74-9.06c0.61-1.18,1.26-2.4,2.32-3.19c1.32-0.99,3.11-1.16,4.71-0.78c1.6,0.37,3.03,1.25,4.36,2.22
				c1.76,1.28,3.54,3.09,3.35,5.27C1242.41,595.59,1238.61,597.21,1237.98,600.17z"/>
			<path style="fill:#08743B;" d="M1822.15,512.22c-0.13-0.49,0.02-1.01,0.21-1.49c0.56-1.35,0.81-2.79,1.5-4.09
				c1.25-2.34,9.98-7.02,10.91-1.55c0.14,0.82-0.16,1.65-0.54,2.39c-1.74,3.4-5.31,5.79-9.12,6.1
				C1823.93,513.68,1822.45,513.37,1822.15,512.22z"/>
			<path style="fill:#08743B;" d="M1822.93,491.9c-0.06-0.58,0.1-1.16,0.27-1.72c0.72-2.26,1.88-4.38,3.4-6.2
				c2.09-2.52,4.82-4.44,7.51-6.32c2.04-1.43,4.08-2.86,6.13-4.29c0.95-0.67,1.91-1.34,2.96-1.84c2.29-1.1,14.56-2.86,10.19,2.93
				c-1.95,2.59-4.86,4.23-7.6,5.96c-4.94,3.11-9.57,6.73-13.78,10.78c-1.38,1.32-2.82,2.75-4.68,3.2
				C1825.47,494.85,1823.11,493.81,1822.93,491.9z"/>
			<path style="fill:#08743B;" d="M2147.69,528.55c-2.36,9.84-2.3,20.09-1.79,30.2c0.18,3.48,0.4,7.06-0.64,10.39
				c-0.62,1.97-1.66,3.8-2.26,5.78c-1.11,3.68-0.58,7.81,1.41,11.1c1.59,2.61,4.03,4.66,4.79,7.82c0.18,0.78,0.22,1.6,0.04,2.38
				c-0.92,3.97-5.41,4.2-8.62,5.87c-4.34,2.26-6.33,7.28-7.97,11.89c-0.67,1.85-1.34,3.78-0.83,5.78c0.24,0.98,0.84,1.88,1.71,2.39
				c4.19,2.45,9.04-5.54,13-2.2c1.24,1.05,1.66,2.79,1.2,4.36c-0.69,2.39-1.27,4.75-1.95,7.13c-2.36,8.17-10.72,12.56-14.7,20.07
				c-3.35,6.3-4.6,13.52-4.82,20.65c-0.16,5.65,0.3,11.31,0.13,16.96c-0.19,6.4-1.18,12.75-2.22,19.08
				c-1.01,6.11-2.06,12.24-2.3,18.43c-0.14,3.44-0.02,6.89-0.54,10.29c-0.45,2.95-1.38,5.8-2.23,8.65
				c-1.8,5.98-3.33,12.05-4.58,18.17c-1.48,7.27-1.96,19.24-0.69,26.55c0.21,1.17,0.31,2.35,0.23,3.54c-0.2,2.74-1.6,5.58-4.11,6.67
				c-1.4,0.61-2.97,0.63-4.44,1.03c-5.4,1.45-8.02,7.35-9.78,12.74h-141.95c-1.44-3.58-2.57-7.27-3.39-11.03
				c-0.77-3.58-1.36-7.42-3.78-10.17c-2.09-2.37-5.27-3.54-8.42-3.87c-6.58-0.69-13.03,1.88-19.16,4.39
				c-7.47,3.07-14.95,6.14-22.43,9.21c-7.97,3.27-16.99,2.38-24.93,5.73c-2.63,1.1-4.88,3.21-6.84,5.74h-411.99
				c0.27-0.76,0.65-1.5,1.07-2.18c4.19-6.78,12.23-9.89,19.41-13.33c10.47-5.03,20.18-11.64,28.68-19.54
				c3.17-2.94,8.79-7.18,12.37-9.59c8.79-5.91,15.9-15.59,26.1-18c4.29-1,8.79-1.04,12.98-2.37c9.06-2.89,15.11-11.15,21.28-18.38
				c6.21-7.28,13.12-13.92,20.02-20.55c19.58-18.82,39.22-37.69,60.77-54.22c3.2-2.46,6.44-4.87,9.47-7.53
				c3.34-2.94,7.3-6.46,11.62-5.38c3.03,0.76,5.69,3.74,8.7,2.89c4.8-1.36,2.73-9.46,6.44-12.81c7.84-7.08,11-17.13,19.24-23.73
				c1.34-1.07,3.16-2.14,4.64-1.28c0.74,0.42,1.17,1.23,1.76,1.84c1.5,1.55,4.02,1.72,6.03,0.93c2-0.79,3.58-2.37,5-4
				c5.19-5.95,8.98-13.12,10.98-20.77c0.76-2.91,1.29-5.95,2.9-8.49c1.61-2.54,4.69-4.46,7.58-3.64c1.62,0.46,2.96,1.7,4.6,2.04
				c3.44,0.73,6.29-2.54,8.29-5.43c2.54-3.69,5.07-7.37,7.61-11.06c1.06-1.54,2.16-3.18,2.24-5.05c0.08-1.75-0.75-3.4-1.13-5.11
				c-1.32-6.09,3.26-11.92,8.35-15.51c5.09-3.58,11.1-6.09,15.09-10.87c3.14-3.78,4.88-8.81,9.77-10.85
				c2.43-1.01,5.35-0.54,6.98,1.54c3.14,3.99-2.62,9.15,0.96,12.68c1.63,1.6,4.19,1.77,6.18,0.65l19.61-11.06
				c2.08-1.17,4.25-2.42,5.48-4.46c2.44-4.03-1.98-8.47-2.24-13.16c-0.49-8.96,10.18-14.12,17-19.95
				c7.78-6.65,15.57-13.31,23.91-19.24c3.58-2.54,7.27-4.96,10.58-7.83c5.21-4.53,9.39-10.1,13.99-15.23
				c3.61-4.03,7.5-7.81,11.38-11.58c1.42-1.38,2.9-2.8,4.75-3.51c1.81-0.69,3.81-0.65,5.75-0.8c11.4-0.93,20.9-8.96,28.6-17.42
				c7.4-8.14,13.02-20.48,23.45-23.27c1.15-0.31,2.55,0.32,2.97,1.44c0.34,0.92,0.29,1.95,0.09,2.92c-0.57,2.69-2.22,5.03-4.05,7.08
				c-1.84,2.05-3.9,3.91-5.55,6.12c-2.19,2.94-3.57,6.47-4.02,10.12c-0.2,1.57-0.13,3.4,1.08,4.43c0.82,0.7,2,0.85,3.06,0.63
				c1.06-0.22,2.01-0.77,2.93-1.33c2.92-1.8,5.69-3.94,7.73-6.69c2.05-2.75,3.33-6.17,3.05-9.59c-0.1-1.19-0.39-2.39-0.17-3.56
				c0.07-0.44,0.22-0.86,0.41-1.26c4.78-10.27,12.29-18.96,20.92-26.3c10.01-8.52,14.09-21.13,16.51-33.71
				c0.91-4.73,1.35-9.57,2.59-14.23c1.07-4.03,2.72-7.87,4.09-11.81c1.22-3.53,2.26-7.24,5.07-9.9c1.05-1,2.33-1.75,3.74-2.07
				c4.25-0.97,6.91,2.11,9.13,4.98c5.18,6.69,10.1,13.58,14.75,20.64c2.14,3.25,4.24,6.58,5.43,10.27
				c1.24,3.86,1.44,7.97,1.31,12.01c-0.23,7.73-1.6,15.43-1.14,23.15c0.51,8.6,3.27,16.91,4.24,25.48
				c0.97,8.65-1.47,17.26-6.26,24.53c-5.62,8.54-7.96,18.68-12.94,27.74c-4.7,8.55-11.77,15.98-14.28,25.41
				c-2.07,7.78-0.78,16.02,0.53,23.97c0.51,3.05,1.02,6.16,2.39,8.93c0.92,1.88,2.21,3.56,3.41,5.28c2.83,4.07,5.4,8.66,9.75,11.06
				c4.56,2.52,10.52,1.99,14.84-0.93c4.31-2.93,6.97-8.01,7.37-13.21c0.39-4.92-1.05-10.21,4.45-14.01c1.5-1.03,3.24-1.71,5.05-1.92
				c5.21-0.62,10.1,2,13.75,5.58c1.3,1.28,2.48,2.69,4,3.71c3.87,2.59,23.86,0.9,28.56,2.64c7.96,2.94,14.13,10.83,14.13,19.3v0.18
				C2149.96,520.76,2148.63,524.64,2147.69,528.55z"/>
			<path style="fill:#FFFFFF;" d="M644.09,1037.96c-0.06-0.81-0.6-1.67-0.24-2.4c1.55-3.2,8.41-1.87,11.39,0.57
				c3.08,2.52,2.87,7.37-1.65,7.81c-1.98,0.19-3.9-0.64-5.64-1.57C646.15,1041.4,644.24,1040,644.09,1037.96z"/>
			<path style="fill:#FFFFFF;" d="M705.21,992.64c-0.12-1-0.66-1.88-0.52-2.87c0.6-4.53,13.4-9.57,14.2-0.63
				c0.2,2.16-0.65,4.32-1.94,6.07c-0.53,0.71-1.15,1.38-1.95,1.76c-1.54,0.74-3.36,0.25-4.98-0.27
				C707.9,996.01,705.46,994.85,705.21,992.64z"/>
			<path style="fill:#FFFFFF;" d="M751.11,1010.51c1.14-5.05,10.67-9.45,13.3-1.14c0.67,2.11-0.03,4.68-1.9,5.86
				c-0.92,0.58-2.04,0.79-3.14,0.79C755.87,1016.02,750.34,1013.94,751.11,1010.51z"/>
			<path style="fill:#FFFFFF;" d="M802.08,1094.31c-0.17,1.53-0.64,3.09-1.68,4.23c-1.03,1.15-2.71,1.8-4.17,1.32
				c-1.71-0.57-2.66-2.41-4.22-3.29c-0.98-0.54-2.12-0.67-3.21-0.9c-2.35-0.49-4.59-1.47-6.53-2.87c-1.01-0.72-1.98-1.61-2.37-2.79
				c-0.43-1.3-0.07-2.74,0.5-3.98c1.18-2.58,3.57-4.82,6.41-4.92c0.73-0.03,1.47,0.08,2.19,0.2c3.03,0.47,6.95,0.32,9.4,2.34
				C801.26,1086.01,802.48,1090.78,802.08,1094.31z"/>
			<path style="fill:#FFFFFF;" d="M769.29,1011.94c0.07-0.97,0.31-1.95,0.91-2.71c1.89-2.42,5.67-1.25,8.54-0.18
				c5.37,1.99,10.43,2.62,16.03,2.04c4.98-0.52,9.95,3.2,14.74,0.05c0.93-0.61,1.72-1.43,2.73-1.87c2.97-1.28,6.46,1.64,6.73,4.86
				c0.28,3.22-1.73,6.23-4.13,8.39c-0.88,0.8-1.9,1.66-2,2.84c-0.08,0.95,0.46,1.82,0.7,2.74c0.71,2.84-2.33,5.88-5.17,5.17
				c-3.51-0.87-4.67-5.64-8-7.07c-0.91-0.39-1.93-0.49-2.93-0.56c-5.86-0.4-11.88,0.26-17.53-1.35
				C774.25,1022.68,768.87,1017.8,769.29,1011.94z"/>
			<path style="fill:#FFFFFF;" d="M834.12,1064.37c-1.05-2.31-0.25-5.31,1.82-6.78c0.81-0.57,1.22-1.44,1.99-2.07
				c5.84-4.73,20.02,0,19.85,10.88c-0.02,1.53-0.5,3.2-1.79,4.02c-1.02,0.65-2.3,0.64-3.5,0.56c-3.87-0.24-7.71-0.9-11.44-1.96
				C838.29,1068.23,835.32,1066.98,834.12,1064.37z"/>
			<path style="fill:#FFFFFF;" d="M883.19,1063.79c2.76-4.63,13.56-7.93,16,0.23c0.74,2.5,0.07,5.31-1.48,7.4
				c-0.62,0.85-1.41,1.61-2.39,2c-0.81,0.32-1.72,0.37-2.59,0.3C887.72,1073.32,880.62,1068.1,883.19,1063.79z"/>
			<path style="fill:#FFFFFF;" d="M983.22,1019.39c0.64-2,2.81-3.11,4.87-3.45c2.07-0.34,4.2-0.13,6.26-0.55
				c2.08-0.42,4.08-1.49,6.21-1.35c4.12,0.25,10.22,5.54,6.46,9.65c-0.86,0.94-2.05,1.5-3.21,2.03c-1.76,0.8-3.51,1.61-5.3,2.31
				c-1.5,0.59-3.05,1.12-4.65,1.16c-2.91,0.08-5.65-1.44-7.84-3.36C984.16,1024.19,982.47,1021.75,983.22,1019.39z"/>
			<path style="fill:#FFFFFF;" d="M1008.04,1007.99c-0.27-0.99,0.18-2.02,0.67-2.92c0.49-0.9,1.03-1.78,1.62-2.62
				c0.41-0.58,0.85-1.16,1.45-1.52c0.94-0.57,2.13-0.57,3.08-1.12c1.15-0.67,1.71-2.01,2.66-2.95c1.61-1.59,4.93-2.2,7.1-1.62
				c2.29,0.61,2.87,3.3,2.59,5.43c-0.47,3.73-2.81,7.17-6.09,9c-3.28,1.83-7.44,1.99-10.86,0.43
				C1009.3,1009.66,1008.33,1009,1008.04,1007.99z"/>
			<path style="fill:#FFFFFF;" d="M930.1,1082.9c-0.75-3.49,2-6.67,4.53-9.19c2.13-2.12,4.33-4.3,7.1-5.49
				c3.89-1.67,8.4-1.19,12.39-2.59c5.48-1.91,9.57-7.2,15.32-7.98c4.46-0.61,8.75,1.67,13.17,2.49c6.56,1.2,13.23-0.83,19.59-2.83
				c1.69-0.54,3.39-1.08,4.91-1.99c2.41-1.46,4.17-3.75,6.1-5.8c3.95-4.16,8.83-7.42,14.17-9.47c1.13-0.43,2.32-0.82,3.52-0.75
				c2.61,0.15,4.64,2.35,5.9,4.45c1.41,2.35,3.15,3.29,5.53,4.74c1.4,0.85,2.87,1.78,3.62,3.24c0.74,1.47,0.38,3.62-1.15,4.22
				c-0.91,0.36-1.94,0.09-2.9-0.1c-3.26-0.61-8.52-1.54-9.62,1.59c-0.57,1.63,1.99,2.79,3.29,3.92c3.51,3.05,7.12,6.16,11.45,7.86
				c9.84,3.87,22.19,0.09,30.67,6.41c0.81,0.6,1.58,1.31,2.03,2.22c0.73,1.49,0.5,3.27,0,4.84c-2.14,6.75-8.42,11.19-14.42,14.94
				c-2.04,1.26-4.39,2.56-6.71,1.95c-1.88-0.5-3.21-2.14-4.73-3.35c-1.53-1.22-4.53-2.51-5.35-0.74c-1.5,3.27-3.04,7.43-6.58,6.79
				c-2.84-0.51-4.7-3.53-7.53-4.08c-3.89-0.75-8.24,3.38-11.45,1.07c-2.72-1.95-1.34-6.3,0.76-8.9c2.09-2.61,4.86-5.48,4.12-8.74
				c-0.45-2-2.22-3.52-4.17-4.13c-1.96-0.62-4.07-0.47-6.09-0.11c-0.87,0.15-1.75,0.35-2.45,0.88c-0.79,0.59-1.25,1.52-1.59,2.44
				c-2.23,6-1.11,13.66-5.88,17.93c-3.07,2.75-7.57,3.02-11.7,3.15c-9.72,0.3-20.53,0.21-27.66-6.41c-2.22-2.06-3.93-4.65-6.27-6.57
				c-2.95-2.42-6.84-3.65-10.65-3.37c-3.98,0.29-7.7,2.16-11.66,2.61C935.74,1088.51,930.93,1086.81,930.1,1082.9z"/>
			<path style="fill:#FFFFFF;" d="M1110.62,1088.24c-0.85-1.08-2.35-2.26-1.99-3.59c0.85-3.08,4.5-4.82,7.62-2.29
				c1.98,1.61,3.81,3.41,5.45,5.37c1.43,1.69,2.74,3.6,3.06,5.79c0.13,0.9,0.09,1.84-0.3,2.66c-0.39,0.81-1.16,1.47-2.06,1.58
				c-1.58,0.19-2.81-1.25-3.91-2.41C1116.05,1092.79,1112.81,1091.03,1110.62,1088.24z"/>
			<path style="fill:#FFFFFF;" d="M1120.44,1077.2c2.19-3.28,5.16-1.19,6.37-0.34c2.24,1.56,4.26,3.58,6.04,5.64
				c1.3,1.5,2.54,3.29,2.42,5.27c-0.02,0.4-0.1,0.8-0.31,1.14c-0.36,0.61-1.08,0.93-1.78,1.01c-1.69,0.2-3.31-0.77-4.51-1.98
				c-1.2-1.2-2.12-2.66-3.33-3.86C1123.66,1082.45,1119.14,1079.14,1120.44,1077.2z"/>
			<path style="fill:#FFFFFF;" d="M1133.72,1073.32c-0.18-0.44-0.34-0.98-0.06-1.37c0.16-0.23,0.42-0.34,0.67-0.45
				c0.8-0.32,1.66-0.64,2.51-0.48c0.66,0.12,1.24,0.51,1.8,0.9c2.16,1.52,4.3,3.12,6,5.14c1.69,2.02,2.93,4.52,3.03,7.16
				c0.06,1.66-0.62,3.63-2.23,4.03c-1.37,0.33-2.71-0.64-3.7-1.65c-1.77-1.8-2-4.13-3.53-6.02
				C1136.38,1078.33,1134.82,1076.01,1133.72,1073.32z"/>
			<path style="fill:#FFFFFF;" d="M1143.34,1069.89c-0.12-0.53-0.13-1.12,0.2-1.55c0.21-0.29,0.55-0.47,0.89-0.58
				c1.91-0.65,3.96,0.33,5.65,1.43c2.79,1.82,5.45,4.22,6.3,7.42c0.1,0.4,0.15,0.87-0.14,1.15c-0.13,0.12-0.3,0.18-0.47,0.22
				c-1.05,0.26-2.19-0.05-3.13-0.6c-0.94-0.55-1.6-1.28-2.47-2.06c-0.18-0.15-2.96-0.9-4.03-1.71
				C1144.88,1072.65,1143.69,1071.44,1143.34,1069.89z"/>
			<path style="fill:#FFFFFF;" d="M1177.05,1055.2c-1.83-1.93-2.77-4.93-1.6-7.32c0.42-0.84,1.1-1.58,1.99-1.88
				c0.53-0.18,1.11-0.2,1.68-0.16c2.23,0.18,4.29,1.21,6.45,1.79c2.16,0.58,4.73,0.6,6.34-0.95c0.82-0.8,1.3-1.92,2.2-2.62
				c1.27-0.98,3.12-0.89,4.57-0.2c1.45,0.7,2.59,1.9,3.69,3.07c2.12,2.27,4.17,5.03,6.67,6.89c1.59,1.17,3.49,1.77,5.06,3
				c2.95,2.31,5.46,8.91,0.28,10.54c-1.51,0.47-3.13,0.02-4.7-0.2c-1.58-0.21-3.42-0.05-4.36,1.23c-0.37,0.52-0.55,1.16-0.93,1.67
				c-0.81,1.08-2.4,1.32-3.68,0.9c-1.28-0.42-2.31-1.38-3.23-2.36c-2.03-2.19-3.79-4.68-6.25-6.37c-2.19-1.51-4.79-2.28-7.3-3.16
				C1181.42,1058.19,1178.88,1057.13,1177.05,1055.2z"/>
			<path style="fill:#FFFFFF;" d="M1186.31,1033.68c-0.95-1.83-0.11-4.16,1.33-5.63c1.45-1.47,3.39-2.32,5.19-3.33
				c3.68-2.06,6.91-4.9,9.43-8.27c0.79-1.05,1.51-2.17,2.5-3.03c3.29-2.89,10.88-4.73,11.78,1.28c0.32,2.17-0.45,4.35-1.36,6.34
				c-0.63,1.39-1.36,2.81-1.4,4.34c-0.05,2.45,1.65,4.54,2.95,6.63c0.97,1.57,1.77,3.35,1.66,5.2c-0.11,1.84-1.38,3.72-3.21,4
				c-1.91,0.29-3.65-1.14-4.8-2.69s-2.07-3.37-3.68-4.43c-2.2-1.44-5.11-1.1-7.61-0.3c-2.5,0.8-4.91,2.02-7.53,2.21
				C1189.54,1036.15,1187.25,1035.48,1186.31,1033.68z"/>
			<path style="fill:#FFFFFF;" d="M1227.13,1046.82c-0.31-2.05,0.05-4.2,1.02-6.03c0.57-1.09,1.53-2.17,2.76-2.19
				c0.88-0.01,1.66,0.52,2.36,1.05c0.84,0.65,1.66,1.34,2.44,2.07c0.44,0.41,0.88,0.85,1.1,1.41c0.34,0.89,0.03,1.89-0.15,2.83
				c-0.24,1.19-0.28,2.42-0.12,3.62c0.09,0.65,0.24,1.31,0.65,1.8c1.14,1.38,3.33,0.77,4.95,0.04c1.14-0.5,2.37-1.09,2.91-2.21
				c0.31-0.64,0.35-1.38,0.33-2.09c-0.08-3.52-1.53-6.99-3.96-9.53c-1.76-1.84-4.13-3.4-4.68-5.88c-0.33-1.48,5.97-3.77,6.56-3.59
				c1.55,0.49,1.94,1.18,2.93,2.46c2.48,3.19,4.96,6.35,6.31,10.22c1.55,4.47,1.28,9.89-1.9,13.39c-1.21,1.33-2.75,2.3-4.11,3.48
				c-1.9,1.64-3.47,3.68-5.6,5c-2.14,1.33-5.18,1.71-7-0.01c-0.79-0.74-1.24-1.77-1.66-2.77c-1.19-2.77-2.38-5.55-3.57-8.32
				C1228.04,1050.03,1227.38,1048.48,1227.13,1046.82z"/>
			<path style="fill:#FFFFFF;" d="M1279.85,969.53c1.27-2.73,6.81-2.72,8.74-0.84c2.16,2.1,2.07,6.64-0.74,8.12
				c-1.55,0.82-3.51,0.46-5.02-0.43C1280.49,975.01,1278.71,971.98,1279.85,969.53z"/>
			<path style="fill:#FFFFFF;" d="M1231.24,995.28c-0.11-2.6,0.04-5.71,2.27-7.06c0.75-0.45,1.63-0.62,2.49-0.79
				c4.11-0.79,8.59-1.9,11.03-5.29c1.23-1.72,1.78-3.81,2.52-5.79c2.32-6.24,6.62-11.47,11.3-16.1c2.13-2.11,4.26-4.21,6.32-6.35
				c1.97-2.04,4.48-2.69,6.83-0.72c4.18,3.52,4.64,10.61,0.94,14.64c-0.94,1.02-2.12,1.9-2.63,3.19c-0.82,2.06,0.33,4.31,0.94,6.43
				c0.82,2.84,0.68,5.9,1.64,8.7c1.02,2.99,3.2,5.43,5.53,7.56c6.09,5.56,13.46,9.48,20.13,14.32c1.6,1.16,3.3,2.66,3.32,4.63
				c0.02,1.82-1.44,3.32-2.98,4.29c-4.49,2.83-10.25,2.99-15.38,1.63c-5.12-1.37-9.76-4.1-14.33-6.8
				c-6.29-3.72-12.59-7.45-18.89-11.17c-1.69-1.01-3.45-2.03-5.4-2.31c-2.4-0.33-4.79,0.5-7.15,1.03c-2.37,0.52-5.06,0.69-7-0.76
				c-0.54-0.41-1.01-0.94-1.25-1.57C1231.29,996.45,1231.27,995.86,1231.24,995.28z"/>
			<path style="fill:#FFFFFF;" d="M1282.75,949.12c-0.2-1.95,0.79-3.82,1.91-5.42c3.46-4.95,8.41-8.57,13.61-11.5
				c1.91-1.08,5.05-3.5,7.33-3.27c3.11,0.32,4.02,3.86,3.17,6.37c-0.5,1.49-1.43,2.8-2.35,4.08c-2,2.77-3.99,5.54-5.98,8.31
				c-0.44,0.61-0.89,1.24-1.01,1.98c-0.2,1.33,0.71,2.57,1.7,3.48c1.47,1.35,3.26,2.42,4.25,4.15c0.98,1.73,0.63,4.46-1.28,5.04
				c-0.86,0.27-1.79,0.02-2.66-0.23c-6.51-1.85-13.54-4.08-17.34-9.68C1283.43,951.43,1282.87,950.32,1282.75,949.12z"/>
			<path style="fill:#FFFFFF;" d="M1309.84,987.66c-0.22,1.97-1.23,3.77-2.45,5.34c-0.88,1.14-2.02,2.26-3.46,2.38
				c-1.14,0.11-2.22-0.44-3.24-0.97c-2.08-1.08-4.16-2.17-6.23-3.26c-1.52-0.79-3.07-1.61-4.17-2.91c-1.1-1.31-1.65-3.23-0.88-4.76
				c0.98-1.94,3.58-2.42,5.74-2.1c2.2,0.33,4.13,1.15,6.36,0.77c2.17-0.36,4.2-1.14,6.22,0.26
				C1309.36,983.54,1310.06,985.69,1309.84,987.66z"/>
			<path style="fill:#FFFFFF;" d="M1307.69,947.21c0.42-1.24,1.02-2.4,1.78-3.46c0.46-0.64,1-1.25,1.73-1.54
				c0.41-0.16,0.86-0.21,1.31-0.26c2.21-0.22,6.26-1.54,8.3-0.65c0.94,0.41,1.84,0.98,2.45,1.8c0.61,0.83,0.9,1.93,0.58,2.91
				c-0.37,1.13-1.45,1.86-2.48,2.47c-1.25,0.73-2.52,1.41-3.83,2.03c-1.36,0.65-2.76,1.24-4.25,1.46c-1.49,0.22-3.08,0.03-4.35-0.77
				c-0.73-0.47-1.36-1.17-1.51-2.02C1307.3,948.52,1307.47,947.84,1307.69,947.21z"/>
			<path style="fill:#FFFFFF;" d="M1315.89,966.65c-1.02-1.59-2.84-2.55-3.78-4.2c-1.23-2.16-0.63-6.04,1.8-6.58
				c2.38-0.53,4.89-0.07,5.57,0.1c1.76,0.44,2.88,1.55,3.63,3.26c0.65,1.46,1,3.07,1.87,4.42c1.29,1.98,3.52,3.1,5.38,4.56
				c2.24,1.78,4.06,4.32,4.21,7.17c0.14,2.85-1.84,5.88-4.67,6.23c-1.43,0.17-2.86-0.32-4.22-0.8c-3-1.06-6.3-2.38-7.67-5.26
				C1316.69,972.78,1317.55,969.24,1315.89,966.65z"/>
			<path style="fill:#FFFFFF;" d="M1315.59,988c0.11-0.31,0.28-0.61,0.57-0.75c0.22-0.11,0.47-0.12,0.7-0.13
				c3.4-0.11,6.71-0.56,9.97-1.47c2.52-0.71,5.04-0.96,7.01,1.22c1.74,1.92,2.08,4.84,1.3,7.32c-0.8,2.56-2.74,4.74-5.18,5.84
				c-0.45,0.2-0.92,0.37-1.41,0.35c-1.27-0.05-2.09-1.3-3.05-2.15c-0.8-0.72-1.79-1.18-2.73-1.7c-1.8-0.98-3.48-2.18-5-3.56
				C1316.35,991.68,1314.97,989.82,1315.59,988z"/>
			<path style="fill:#FFFFFF;" d="M1324.64,927.92c-0.75-1.52-0.72-3.59,0.56-4.71c1.27-1.1,3.21-0.9,4.78-0.3
				c5.69,2.15,11.35,3.18,16.6,6.5c1.68,1.06,3.38,2.2,4.52,3.82c1.15,1.63,1.63,3.87,0.69,5.63c-1.31,2.44-4.55,2.91-7.32,3.01
				c-2.41,0.08-4.96,0.06-7.06-1.14c-1.58-0.9-2.74-2.38-3.94-3.74c-1.67-1.91-3.51-3.65-5.43-5.31
				C1326.76,930.56,1325.4,929.44,1324.64,927.92z"/>
			<path style="fill:#FFFFFF;" d="M1326.71,912.67c-0.92-2.37,1.15-4.92,3.46-5.98c2.31-1.06,4.96-1.28,7.17-2.53
				c1.41-0.79,2.6-1.99,3.37-3.4c0.53-0.98,0.88-2.05,1.48-2.98c2.06-3.18,6.32-3.58,9.7-4.35c3.78-0.87,5.74,2.12,5.56,5.73
				c-0.2,4.22-2.12,8.33-5.23,11.2c-1.98,1.83-4.41,3.15-6.96,4.07c-4.31,1.56-9.02,2-13.55,1.26
				C1329.7,915.36,1327.45,914.57,1326.71,912.67z"/>
			<path style="fill:#FFFFFF;" d="M1360.23,909.53c-0.03-4.4-0.43-9.79,2.79-12.78c1.21-1.12,4.91-2.48,6.56-2.04
				c1.03,0.28,3.13,2.61,3.65,3.5c0.8,1.36,0.47,3.14-0.3,4.52c-0.77,1.37-1.92,2.5-2.84,3.78c-0.88,1.22-1.55,2.57-2.46,3.76
				c-0.9,1.2-2.12,2.25-3.59,2.53c-1.48,0.27-3.2-0.47-3.65-1.89C1360.24,910.46,1360.23,909.99,1360.23,909.53z"/>
			<path style="fill:#FFFFFF;" d="M1362.91,888.49c-0.73-1.03-0.61-2.56,0.27-3.46c0.53-0.54,1.25-0.83,1.95-1.11
				c1.91-0.75,5.16-2.86,7.23-2.72c2.82,0.19,2.48,3.44,1.13,5.11c-1.62,2.01-4.07,3.32-6.64,3.54
				C1365.4,889.98,1363.76,889.67,1362.91,888.49z"/>
			<path style="fill:#FFFFFF;" d="M1921.7,1218.14c-0.36,12.02-9.81,23.78-21.8,24.65c-8.27,0.6-16.49-3.65-24.66-2.23
				c-5.02,0.87-9.42,3.79-14.22,5.5c-8.64,3.08-18.67,1.98-26.44-2.89c-5.35-3.35-9.55-8.29-14.82-11.76
				c-10.06-6.62-22.95-7.21-34.88-5.63c-20.95,2.78-40.6,11.46-59.79,20.29c-9.64,4.44-19.26,8.94-28.84,13.51
				c-2.68,1.27-5.42,2.6-7.44,4.77c-6.94,7.47-1.57,20.06,6.37,26.46c8.4,6.76,19.39,10.53,25.41,19.65
				c0.76,1.14,1.33,2.4,1.54,3.75c1.24,7.74-8.12,10.88-13.2,16.16c-4.46,4.63-5.71,11.54-5.31,17.95
				c0.39,6.41,2.19,12.65,2.94,19.03c0.8,6.75,0.39,13.63-1.17,20.25H583.97v-325.53c2.81-0.06,5.59-0.77,8.03-2.16
				c2.69-1.53,5.02-3.81,8.01-4.56c9.24-2.34,15.91,10.57,25.42,11.13c2.22,0.13,4.46-0.44,6.65-0.04c5.69,1.05,9,8.21,14.78,8.55
				c6.57,0.38,10.97-8.33,17.54-8.02c3.68,0.18,6.58,3.18,10.09,4.26c3.35,1.03,7.33,0.37,10.05,2.57
				c4.53,3.64,3.11,13.22,9.26,13.73c1.41,0.12,2.81-0.34,4-1.12l19-12.58c2.97-1.97,6.29-3.52,7.97-6.67
				c0.52-0.97,0.99-2.06,1.95-2.62c1.23-0.72,2.79-0.3,4.11,0.25c13.99,5.79,20.52,22.11,32.99,30.7
				c6.88,4.74,15.18,6.85,23.29,8.85c9.14,2.25,19.34,4.33,27.53-0.3c2.42-1.37,4.76-3.34,7.53-3.28
				c7.35,0.15,10.47,13.93,18.84,8.18c0.64-0.45,1.19-1.02,1.71-1.6c5.16-5.81,13.44-5.68,20.86-5.28c3.19,0.17,6.59,0.42,9.18,2.31
				c3.33,2.43,4.37,6.86,6.52,10.39c3.86,6.34,11.42,9.65,18.81,10.31c7.39,0.65,14.77-0.97,22.05-2.44
				c9.79-1.99,19.63-3.73,29.51-5.22c6.44-0.98,13.06-1.84,19.4-0.34c7.51,1.78,13.84,6.7,20.87,9.89
				c7.01,3.18,14.05,3.34,21.21,0.63c7.59-2.87,13.68-3.67,21.71-1.7c7,1.71,15.06,3.54,20.88-0.7c2.6-1.9,4.51-4.9,7.57-5.9
				c4.19-1.38,9.38,1.42,12.94-1.19c1.31-0.97,2.11-2.54,3.49-3.42c2.91-1.86,6.61,0.1,9.83,1.32c9.73,3.7,20.72,0.2,29.86-4.78
				c9.14-4.97,17.64-11.47,27.65-14.31c5.41-1.54,11.33-2.05,15.94-5.29s6.85-10.78,2.52-14.39c-1.33-1.1-3.06-1.67-4.27-2.9
				c-4.23-4.28-0.1-14.17-8.65-14.5c-1.31-0.05-2.59-0.58-3.34-1.66c-1.13-1.6-0.13-2.91,0.79-4.02c3.34-4.02,6.95-8.23,12.2-9.39
				c3.03-0.67,6.27,0.03,8.47,2.21c3.71,3.68,1.18,8.2,2.01,12.34c0.46,2.32,1.92,4.29,3.4,6.12c6.4,7.89,14.23,14.88,23.59,18.82
				c9.37,3.94,20.42,4.56,29.59,0.18c4.3-2.05,8.05-5.1,12.25-7.36c11.97-6.4,27.35-0.97,39.85-5.04c5.23-1.7,10.33-4.8,13.03-9.59
				c0.67-1.19,1.34-2.57,2.64-3c0.83-0.27,1.72-0.08,2.58,0.01c3.26,0.35,7.12-1.27,7.72-4.49c1.03-5.45-7.69-9.56-3.37-15.65
				c1.1-1.55,2.72-2.66,4.52-3.28c3.52-1.21,8.98-3.97,8.5-8.25c-0.47-4.15-6.41-6.3-5.86-10.69c0.15-1.18,0.8-2.26,1.7-3.04
				c1.86-1.61,4.33-1.93,6.7-1.86c1.84,0.05,3.72,0.31,5.48-0.2c2.03-0.59,3.63-2.13,5.08-3.66c7.26-7.68,13.1-16.71,17.13-26.48
				c0.69-1.67,1.32-3.59,0.53-5.21c-0.55-1.13-1.66-1.84-2.71-2.53c-2.68-1.77-5.32-3.87-6.22-7.14c-0.47-1.72-0.23-3.62,0.84-5.05
				c3.3-4.42,10.45-0.89,15.31-3.23c3.37-1.62,4.76-5.65,5.39-9.34s0.92-7.66,3.2-10.63c1.91-2.49,2.02-5.63,1.84-8.77
				c-0.18-3.14,0.25-6.93,3.05-8.34c1.93-0.98,4.35-0.42,6.31-1.33c2.55-1.17,3.44-4.28,4-7.03c0.56-2.75,1.32-5.86,3.78-7.2
				c3.01-1.64,7.41,0.1,9.78-2.37c0.75-0.79,1.12-1.86,1.4-2.91c0.46-1.72,0.72-3.62-0.04-5.23c-1.55-3.29-6.72-4.18-6.72-8.19
				c-0.01-1.07,0.41-2.1,1.02-2.98c2.84-4.09,8.89-6.25,9.7-11.22c0.41-2.52-0.58-5.57,1.26-7.34c1.16-1.14,2.98-1.17,4.48-1.79
				c0.35-0.15,0.72-0.37,0.83-0.73c0.09-0.3-0.02-0.63-0.15-0.91c-0.41-0.89-1.08-1.65-1.94-2.13c-4.32-2.38-6.09,0.08-8.47,1.42
				c-1.18,0.66-2.69,1.03-3.84,0.33c-0.8-0.49-1.26-1.41-1.44-2.33c-0.6-3.14,1.66-6.23,4.42-7.86c2.73-1.61,5.91-2.22,8.9-3.28
				c2.61-0.94,4.82-2.73,6.49-4.95c4.12-5.5,11.95-5.5,18.58-4.95c6.2,0.52,12.51,5.4,12.28,11.62c-0.07,2.15-0.79,4.65,0.16,6.4
				c1.05,1.95,3.75,2.15,5.36,0.64c1.33-1.25,1.68-3.3,1.19-5.05c-0.49-1.79-1.76-3.49,0.28-5.5c0.78-0.77,1.79-1.25,2.85-1.57
				c4.35-1.33,8.53-3.97,10.81-7.93c2.09-3.63,2.35-8.45,0.01-11.92c-1.71-2.55-4.7-4.37-5.33-7.38c-0.25-1.18-0.07-2.4,0.34-3.55
				l411.89,0.07c-3.01,3.92-5.36,8.83-7.47,12.68c-2.02,3.67-3.9,7.6-4.02,11.79c-0.13,4.75,1.99,9.21,3.75,13.62
				c6.64,16.6,8.54,34.66,10.38,52.44c0.81,7.83,1.61,15.84-0.29,23.47c-1.38,5.54-4.11,10.62-6.48,15.81
				c-9.41,20.62-13.19,43.4-14.56,66.03c-0.43,6.96-0.62,14.03,0.95,20.83c1.54,6.63,4.72,12.77,6.49,19.34
				c1.98,7.37,2.15,15.09,2.3,22.72c0.29,14.26-0.1,30.27-10.3,40.24c-4.31,4.2-7.77,8.53-11.86,12.94
				c-2.79,3.01-5.71,6.29-6.26,10.35c-0.45,3.35,0.82,6.72,2.53,9.64c7.41,12.7,24.07,19.14,38.1,14.74
				c6.27-1.97,12.02-5.84,18.87-5.36c3.24,0.23,6.34,1.72,8.13,4.42c3.7,5.55-1.47,10.65-0.96,16.08c0.5,5.5,6.23,8.67,10.8,11.77
				C1914.73,1194.75,1922.07,1206.13,1921.7,1218.14z"/>
			<path style="fill:#FFFFFF;" d="M2095.65,814.5c-0.05,0.17-0.11,0.33-0.16,0.5c-3.5,10.97-6.93,22-9.12,33.31
				c-1.4,7.16-2.39,14.69-6.47,20.74c-5.24,7.78-14.47,11.6-22.81,15.89c-8.34,4.29-16.96,10.44-18.71,19.65
				c-0.83,4.38,0.04,8.91-0.28,13.36c-0.83,11.55-10.7,21.79-22.21,23.05c-1.68,0.19-3.41,0.19-4.99-0.41
				c-2.74-1.04-4.7-3.44-6.84-5.45c-7.01-6.6-14.72,1.58-17.63,5.14c-4.13,5.04-2.11,10.14-11.25,10.59
				c-6.12,0.31-12.09-1.83-16.75-5.8c-3.87-3.29-7.72-6.73-10.22-11.13c-5.21-9.17-3.07-21.86,4.86-28.82
				c1.97-1.73,4.29-3.18,5.65-5.43c2.98-4.94,0.19-11.21-2.6-16.26c-4.62-8.39-9.25-16.78-13.88-25.18
				c-3.27-5.94-6.58-11.92-10.91-17.15c-1.55-1.88-3.34-3.89-2.8-6.51c0.54-2.61,3-4.33,5.67-4.44c5.14-0.22,8.74,3.4,12.85,5.8
				c3.74,2.18,9.01,3.25,11.89-0.5c1.12-1.45,1.53-3.32,1.44-5.16c-0.2-3.59-2.08-6.64-3.7-9.73c-1.04-1.98-1.98-4.01-2.81-6.08
				L2095.65,814.5z"/>
			<path style="fill:#010101;" d="M1701.76,1398.25c-3.85,8.48-9.91,17.18-7.71,26.23c1.83,7.52,2.16,15.36,3.31,23.01
				s0.16,16.63-6.08,21.2c-2.98,2.18-6.71,3-10.2,4.21c-14.31,4.96-25.16,16.87-33.24,29.67c-8.08,12.81-14.02,26.89-22.31,39.57
				c-7.99,12.22-18.04,22.95-28.39,33.25c-7.22,7.19-14.64,14.22-21.08,22.11c-4.95,6.05-9.29,12.57-13.62,19.07
				c-3.41,5.12-12.34,8.14-14.11,14.03c-2.15,7.13-1.69,14.75-2.66,22.13c-2.74,20.92-5.31,42.72-11.42,62.89
				c-4.27,14.1-6.44,28.73-6.26,43.45c0.28,22.04-1.66,44.1-5.76,65.76c-0.83,4.35-1.79,8.82-4.31,12.48
				c-1.45,2.1-103.67,71.17-112.73,70.92c-11.57-0.32-540.04-135.28-821.22-208.32V1387.6h166l955.38,0.16
				C1704.49,1391.36,1703.29,1394.88,1701.76,1398.25z"/>
			<path style="fill:#ED2224;" d="M112.25,931.14c-0.84-3.36,0.27-12.56,5.48-10.45c3.8,1.54,3.94,11.02,1.75,13.72
				c-0.46,0.57-1.17,0.89-1.89,1C115.12,935.75,112.85,933.57,112.25,931.14z"/>
			<path style="fill:#ED2224;" d="M230.98,1028.29c-0.79-0.83-1.21-2.01-1.1-3.15c0.16-1.81,7.46-8.87,9.5-9.07
				c4.54-0.45,5.17,5.41,3.74,8.51c-1.65,3.61-5.89,6.11-9.73,5.06C232.49,1029.4,231.63,1028.97,230.98,1028.29z"/>
			<path style="fill:#ED2224;" d="M248.56,1001.98c-0.46-2.89-0.91-5.83-0.44-8.71c0.91-5.58,5.61-17.12,12.08-8.87
				c1.56,1.98,2.19,4.55,2.43,7.06c0.51,5.32-0.56,10.78-3.05,15.51c-0.92,1.75-2.11,3.47-3.87,4.37c-1.77,0.89-4.22,0.68-5.36-0.93
				c-0.58-0.82-0.76-1.85-0.91-2.84C249.14,1005.71,248.85,1003.84,248.56,1001.98z"/>
			<path style="fill:#ED2224;" d="M398.96,874c-0.56-4.85,2.64-9.2,5.24-13.32c2.77-4.4,11.86-6.63,17.04-4.63
				c4.55,1.75,7.57,6.9,7.67,11.64c0.04,1.81-0.27,3.67-1.19,5.22c-1.29,2.18-3.61,3.51-5.35,5.35c-2.41,2.54-3.66,5.98-5.88,8.7
				c-2.22,2.71-6.25,4.64-9.2,2.74c-2.83-1.8-2.94-5.83-2.59-9.17c0.05-0.5,0.09-1.07-0.22-1.48c-0.35-0.45-1-0.52-1.56-0.65
				C400.87,877.94,399.21,876.09,398.96,874z"/>
			<path style="fill:#ED2224;" d="M506.57,994.36c-5.79-9.67-3.16-22.97,4.59-31.16c1.01-1.08,2.15-2.11,3.54-2.62
				c4.03-1.46,11.46,1.36,14.66,3.98c4.24,3.47,7.13,8.4,9.91,13.03c2.33,3.89,4.74,8.04,4.71,12.57c-0.02,2.9-1.04,5.71-2.24,8.35
				c-1.57,3.46-4.17,7.2-7.96,7.25c-2.16,0.03-4.1-1.19-6.09-2.01c-1.99-0.81-4.53-1.16-6.1,0.32c-0.95,0.9-1.29,2.25-1.66,3.51
				c-0.77,2.58-2.5,5.5-5.19,5.39c-2.45-0.09-4.02-2.75-4.33-5.18s0.15-4.95-0.49-7.32C509.31,998.22,507.77,996.36,506.57,994.36z"
				/>
			<path style="fill:#ED2224;" d="M536.03,770.66c-1.33-1.29-1.07-3.39-0.71-5.17c0.15-0.77-0.07-1.7,0.45-2.29
				c1.56-1.8,7.32-3.8,9.57-2.96c2.16,0.8,2.74,4.19,2.45,6.05c-0.25,1.67-1.04,3.3-2.32,4.47c-1.29,1.17-3.08,1.85-4.85,1.69
				c-0.93-0.09-1.82-0.39-2.68-0.72C537.25,771.46,536.55,771.16,536.03,770.66z"/>
			<path style="fill:#ED2224;" d="M583.97,1062.07v637.84c-79.8-20.72-139.68-36.46-162.18-42.72c-5.9-1.65-10.87-5.6-13.8-10.98
				c-38.19-69.97-324.08-558.76-329.21-569.01c-8.56-17.12-28.78-44.68-28.78-64.4c0-0.79,0.03-1.57,0.1-2.34
				c0.49-5.57,2.16-10.96,3.94-16.25c1.88-5.61,3.89-11.18,6.08-16.68c1.69-4.24,3.73-8.58,7.55-11.03c2.48-1.6,5.45-2.21,8.1-3.51
				c6.44-3.17,10.41-10.71,9.38-17.81c-0.73-5.06-3.35-11.3,2.72-13.8c1.08-0.44,2.04-1.18,2.53-2.23c1-2.13-0.58-3.2-1.64-4.44
				c-3.62-4.24-1.48-10.85,0.41-15.87c0.29-0.78,0.76-1.5,1.41-2.02c1.73-1.34,3.17-0.4,4.35,0.57c8.16,6.74,11.87,18.42,9.08,28.64
				c-1.66,6.09-5.38,11.51-6.77,17.68c-1.06,4.65-0.74,9.5-0.41,14.26c0.38,5.54,0.76,11.08,1.14,16.62
				c0.08,1.23,0.22,2.59,1.89,3.03c0.73,0.2,1.5,0.13,2.22-0.07c5.25-1.51,11.74-3.78,13.02-9.22c1.93-8.19-9.68-16.69-4.81-23.64
				c2.36-3.37,7.13-3.87,10.47-1.47c5.88,4.22,6.07,11.37,5.89,17.86c-0.13,5.13-0.28,10.67,3.96,14.43
				c2.37,2.11,6.01,2.3,8.34,0.14c4.62-4.28-1.23-11.95-0.18-18.19c0.61-3.69,2.52-6.9,3.3-10.39c0.92-4.1,6.12-5.34,8.99-2.27
				c7.24,7.74,10.56,18.49,11.22,29.06c0.66,10.55-1.1,21.08-2.85,31.51c-0.51,3-1.05,6.09-2.67,8.67
				c-1.05,1.68-2.52,3.07-3.57,4.75c-4.81,7.7,0.61,17.39,2.4,26.3c1.59,7.92,0.14,16.25,1.97,24.12
				c2.46,10.57,10.12,17.34,18.5,24.22c9.09,7.46,21.86,12.02,32.45,11.36c2.15-0.14,3.86-1.96,5.96-2.46
				c7.16-1.69,14.07,4.73,21.4,4.06c1.95-0.17,3.78-0.84,5.6-1.58c3.94-1.59,10.38-1.6,14.23,0.2c7.07,3.3,8.97,9.74,12.46,16.81
				c2.55,5.18,9.51-8.2,15.01-6.44c1.97,0.63,3.14,2.68,4.97,3.64c3.45,1.78,7.75-0.88,10.43-3.17c1.01-0.88,2.1-1.68,3.31-2.23
				c7.98-3.68,11.29,4.27,16.36,8.33c6.81,5.43,16.74,3.59,24.98,0.79c8.71-2.97,17.15-6.69,25.21-11.13
				c2.75-1.52,5.73-3.18,8.85-2.76c1.28,0.17,2.49,0.69,3.77,0.81c4.18,0.42,7.54-3.28,9.89-6.77c5.33-7.94,9.83-17.12,18.16-21.82
				c8.22-4.63,18.84-4.02,26.45-9.59c4.15-3.03,6.91-7.57,10.61-11.15c3.7-3.57,9.21-6.21,13.91-4.14
				c6.89-1.29,14.82-5.61,19.36-10.95c3.79-4.46,5.37-10.33,6.97-15.96c1.7-5.98,3.72-12.21,8.49-16.31c2.43-2.1,5.58-3.27,8.8-3.26
				c8.04,0.01,8.82,6.5,12.6,10.41c4.56,4.71,12.77,5.01,16.35,10.5c3.13,4.82,1.3,11.7,5.48,16.08c0.93,0.98,2.15,1.69,3.49,1.88
				c5.98,0.85,8.56-7.72,14.16-9.61c3.43-1.17,7.21,0.52,10.01,2.82c2.8,2.31,5.05,5.26,8.03,7.32
				C576.76,1061.15,580.38,1062.15,583.97,1062.07z"/>
		</g>
		<g>
			<path style="fill:none;stroke:#000000;stroke-miterlimit:10;" d="M119.48,934.41c-0.46,0.57-1.17,0.89-1.89,1
				c-2.47,0.34-4.74-1.84-5.34-4.27c-0.84-3.36,0.27-12.56,5.48-10.45C121.53,922.23,121.67,931.71,119.48,934.41z"/>
			<path style="fill:none;stroke:#000000;stroke-miterlimit:10;" d="M259.58,1006.97c-0.92,1.75-2.11,3.47-3.87,4.37
				c-1.77,0.89-4.22,0.68-5.36-0.93c-0.58-0.82-0.76-1.85-0.91-2.84c-0.3-1.86-0.59-3.73-0.88-5.59c-0.46-2.89-0.91-5.83-0.44-8.71
				c0.91-5.58,5.61-17.12,12.08-8.87c1.56,1.98,2.19,4.55,2.43,7.06C263.14,996.78,262.07,1002.24,259.58,1006.97z"/>
			<path style="fill:none;stroke:#000000;stroke-miterlimit:10;" d="M243.12,1024.58c-1.65,3.61-5.89,6.11-9.73,5.06
				c-0.9-0.24-1.76-0.67-2.41-1.35c-0.79-0.83-1.21-2.01-1.1-3.15c0.16-1.81,7.46-8.87,9.5-9.07
				C243.92,1015.62,244.55,1021.48,243.12,1024.58z"/>
			<path style="fill:none;stroke:#000000;stroke-miterlimit:10;" d="M428.91,867.69c0.04,1.81-0.27,3.67-1.19,5.22
				c-1.29,2.18-3.61,3.51-5.35,5.35c-2.41,2.54-3.66,5.98-5.88,8.7c-2.22,2.71-6.25,4.64-9.2,2.74c-2.83-1.8-2.94-5.83-2.59-9.17
				c0.05-0.5,0.09-1.07-0.22-1.48c-0.35-0.45-1-0.52-1.56-0.65c-2.05-0.46-3.71-2.31-3.96-4.4c-0.56-4.85,2.64-9.2,5.24-13.32
				c2.77-4.4,11.86-6.63,17.04-4.63C425.79,857.8,428.81,862.95,428.91,867.69z"/>
			<path style="fill:none;stroke:#000000;stroke-miterlimit:10;" d="M543.98,990.16c-0.02,2.9-1.04,5.71-2.24,8.35
				c-1.57,3.46-4.17,7.2-7.96,7.25c-2.16,0.03-4.1-1.19-6.09-2.01c-1.99-0.81-4.53-1.16-6.1,0.32c-0.95,0.9-1.29,2.25-1.66,3.51
				c-0.77,2.58-2.5,5.5-5.19,5.39c-2.45-0.09-4.02-2.75-4.33-5.18s0.15-4.95-0.49-7.32c-0.61-2.25-2.15-4.11-3.35-6.11
				c-5.79-9.67-3.16-22.97,4.59-31.16c1.01-1.08,2.15-2.11,3.54-2.62c4.03-1.46,11.46,1.36,14.66,3.98
				c4.24,3.47,7.13,8.4,9.91,13.03C541.6,981.48,544.01,985.63,543.98,990.16z"/>
			<path style="fill:none;stroke:#000000;stroke-miterlimit:10;" d="M653.59,1043.94c-1.98,0.19-3.9-0.64-5.64-1.57
				c-1.8-0.97-3.71-2.37-3.86-4.41c-0.06-0.81-0.6-1.67-0.24-2.4c1.55-3.2,8.41-1.87,11.39,0.57
				C658.32,1038.65,658.11,1043.5,653.59,1043.94z"/>
			<path style="fill:none;stroke:#000000;stroke-miterlimit:10;" d="M716.95,995.21c-0.53,0.71-1.15,1.38-1.95,1.76
				c-1.54,0.74-3.36,0.25-4.98-0.27c-2.12-0.69-4.56-1.85-4.81-4.06c-0.12-1-0.66-1.88-0.52-2.87c0.6-4.53,13.4-9.57,14.2-0.63
				C719.09,991.3,718.24,993.46,716.95,995.21z"/>
			<path style="fill:none;stroke:#000000;stroke-miterlimit:10;" d="M762.51,1015.23c-0.92,0.58-2.04,0.79-3.14,0.79
				c-3.5,0-9.03-2.08-8.26-5.51c1.14-5.05,10.67-9.45,13.3-1.14C765.08,1011.48,764.38,1014.05,762.51,1015.23z"/>
			<path style="fill:none;stroke:#000000;stroke-miterlimit:10;" d="M814.84,1022.52c-0.88,0.8-1.9,1.66-2,2.84
				c-0.08,0.95,0.46,1.82,0.7,2.74c0.71,2.84-2.33,5.88-5.17,5.17c-3.51-0.87-4.67-5.64-8-7.07c-0.91-0.39-1.93-0.49-2.93-0.56
				c-5.86-0.4-11.88,0.26-17.53-1.35c-5.66-1.61-11.04-6.49-10.62-12.35c0.07-0.97,0.31-1.95,0.91-2.71
				c1.89-2.42,5.67-1.25,8.54-0.18c5.37,1.99,10.43,2.62,16.03,2.04c4.98-0.52,9.95,3.2,14.74,0.05c0.93-0.61,1.72-1.43,2.73-1.87
				c2.97-1.28,6.46,1.64,6.73,4.86C819.25,1017.35,817.24,1020.36,814.84,1022.52z"/>
			<path style="fill:none;stroke:#000000;stroke-miterlimit:10;" d="M802.08,1094.31c-0.17,1.53-0.64,3.09-1.68,4.23
				c-1.03,1.15-2.71,1.8-4.17,1.32c-1.71-0.57-2.66-2.41-4.22-3.29c-0.98-0.54-2.12-0.67-3.21-0.9c-2.35-0.49-4.59-1.47-6.53-2.87
				c-1.01-0.72-1.98-1.61-2.37-2.79c-0.43-1.3-0.07-2.74,0.5-3.98c1.18-2.58,3.57-4.82,6.41-4.92c0.73-0.03,1.47,0.08,2.19,0.2
				c3.03,0.47,6.95,0.32,9.4,2.34C801.26,1086.01,802.48,1090.78,802.08,1094.31z"/>
			<path style="fill:none;stroke:#000000;stroke-miterlimit:10;" d="M857.78,1066.4c-0.02,1.53-0.5,3.2-1.79,4.02
				c-1.02,0.65-2.3,0.64-3.5,0.56c-3.87-0.24-7.71-0.9-11.44-1.96c-2.76-0.79-5.73-2.04-6.93-4.65c-1.05-2.31-0.25-5.31,1.82-6.78
				c0.81-0.57,1.22-1.44,1.99-2.07C843.77,1050.79,857.95,1055.52,857.78,1066.4z"/>
			<path style="fill:none;stroke:#000000;stroke-miterlimit:10;" d="M897.71,1071.42c-0.62,0.85-1.41,1.61-2.39,2
				c-0.81,0.32-1.72,0.37-2.59,0.3c-5.01-0.4-12.11-5.62-9.54-9.93c2.76-4.63,13.56-7.93,16,0.23
				C899.93,1066.52,899.26,1069.33,897.71,1071.42z"/>
			<path style="fill:none;stroke:#000000;stroke-miterlimit:10;" d="M1007.02,1023.69c-0.86,0.94-2.05,1.5-3.21,2.03
				c-1.76,0.8-3.51,1.61-5.3,2.31c-1.5,0.59-3.05,1.12-4.65,1.16c-2.91,0.08-5.65-1.44-7.84-3.36c-1.86-1.64-3.55-4.08-2.8-6.44
				c0.64-2,2.81-3.11,4.87-3.45c2.07-0.34,4.2-0.13,6.26-0.55c2.08-0.42,4.08-1.49,6.21-1.35
				C1004.68,1014.29,1010.78,1019.58,1007.02,1023.69z"/>
			<path style="fill:none;stroke:#000000;stroke-miterlimit:10;" d="M1027.21,1000.67c-0.47,3.73-2.81,7.17-6.09,9
				c-3.28,1.83-7.44,1.99-10.86,0.43c-0.96-0.44-1.93-1.1-2.22-2.11c-0.27-0.99,0.18-2.02,0.67-2.92c0.49-0.9,1.03-1.78,1.62-2.62
				c0.41-0.58,0.85-1.16,1.45-1.52c0.94-0.57,2.13-0.57,3.08-1.12c1.15-0.67,1.71-2.01,2.66-2.95c1.61-1.59,4.93-2.2,7.1-1.62
				C1026.91,995.85,1027.49,998.54,1027.21,1000.67z"/>
			<path style="fill:none;stroke:#000000;stroke-miterlimit:10;" d="M1079.72,1082.69c-2.14,6.75-8.42,11.19-14.42,14.94
				c-2.04,1.26-4.39,2.56-6.71,1.95c-1.88-0.5-3.21-2.14-4.73-3.35c-1.53-1.22-4.53-2.51-5.35-0.74c-1.5,3.27-3.04,7.43-6.58,6.79
				c-2.84-0.51-4.7-3.53-7.53-4.08c-3.89-0.75-8.24,3.38-11.45,1.07c-2.72-1.95-1.34-6.3,0.76-8.9c2.09-2.61,4.86-5.48,4.12-8.74
				c-0.45-2-2.22-3.52-4.17-4.13c-1.96-0.62-4.07-0.47-6.09-0.11c-0.87,0.15-1.75,0.35-2.45,0.88c-0.79,0.59-1.25,1.52-1.59,2.44
				c-2.23,6-1.11,13.66-5.88,17.93c-3.07,2.75-7.57,3.02-11.7,3.15c-9.72,0.3-20.53,0.21-27.66-6.41c-2.22-2.06-3.93-4.65-6.27-6.57
				c-2.95-2.42-6.84-3.65-10.65-3.37c-3.98,0.29-7.7,2.16-11.66,2.61c-3.97,0.46-8.78-1.24-9.61-5.15c-0.75-3.49,2-6.67,4.53-9.19
				c2.13-2.12,4.33-4.3,7.1-5.49c3.89-1.67,8.4-1.19,12.39-2.59c5.48-1.91,9.57-7.2,15.32-7.98c4.46-0.61,8.75,1.67,13.17,2.49
				c6.56,1.2,13.23-0.83,19.59-2.83c1.69-0.54,3.39-1.08,4.91-1.99c2.41-1.46,4.17-3.75,6.1-5.8c3.95-4.16,8.83-7.42,14.17-9.47
				c1.13-0.43,2.32-0.82,3.52-0.75c2.61,0.15,4.64,2.35,5.9,4.45c1.41,2.35,3.15,3.29,5.53,4.74c1.4,0.85,2.87,1.78,3.62,3.24
				c0.74,1.47,0.38,3.62-1.15,4.22c-0.91,0.36-1.94,0.09-2.9-0.1c-3.26-0.61-8.52-1.54-9.62,1.59c-0.57,1.63,1.99,2.79,3.29,3.92
				c3.51,3.05,7.12,6.16,11.45,7.86c9.84,3.87,22.19,0.09,30.67,6.41c0.81,0.6,1.58,1.31,2.03,2.22
				C1080.45,1079.34,1080.22,1081.12,1079.72,1082.69z"/>
			<path style="fill:none;stroke:#000000;stroke-miterlimit:10;" d="M1124.46,1096.18c-0.39,0.81-1.16,1.47-2.06,1.58
				c-1.58,0.19-2.81-1.25-3.91-2.41c-2.44-2.56-5.68-4.32-7.87-7.11c-0.85-1.08-2.35-2.26-1.99-3.59c0.85-3.08,4.5-4.82,7.62-2.29
				c1.98,1.61,3.81,3.41,5.45,5.37c1.43,1.69,2.74,3.6,3.06,5.79C1124.89,1094.42,1124.85,1095.36,1124.46,1096.18z"/>
			<path style="fill:none;stroke:#000000;stroke-miterlimit:10;" d="M1135.27,1087.77c-0.02,0.4-0.1,0.8-0.31,1.14
				c-0.36,0.61-1.08,0.93-1.78,1.01c-1.69,0.2-3.31-0.77-4.51-1.98c-1.2-1.2-2.12-2.66-3.33-3.86c-1.68-1.63-6.2-4.94-4.9-6.88
				c2.19-3.28,5.16-1.19,6.37-0.34c2.24,1.56,4.26,3.58,6.04,5.64C1134.15,1084,1135.39,1085.79,1135.27,1087.77z"/>
			<path style="fill:none;stroke:#000000;stroke-miterlimit:10;" d="M1147.67,1084.22c0.06,1.66-0.62,3.63-2.23,4.03
				c-1.37,0.33-2.71-0.64-3.7-1.65c-1.77-1.8-2-4.13-3.53-6.02c-1.83-2.25-3.39-4.57-4.49-7.26c-0.18-0.44-0.34-0.98-0.06-1.37
				c0.16-0.23,0.42-0.34,0.67-0.45c0.8-0.32,1.66-0.64,2.51-0.48c0.66,0.12,1.24,0.51,1.8,0.9c2.16,1.52,4.3,3.12,6,5.14
				C1146.33,1079.08,1147.57,1081.58,1147.67,1084.22z"/>
			<path style="fill:none;stroke:#000000;stroke-miterlimit:10;" d="M1156.24,1077.76c-0.13,0.12-0.3,0.18-0.47,0.22
				c-1.05,0.26-2.19-0.05-3.13-0.6c-0.94-0.55-1.6-1.28-2.47-2.06c-0.18-0.15-2.96-0.9-4.03-1.71c-1.26-0.96-2.45-2.17-2.8-3.72
				c-0.12-0.53-0.13-1.12,0.2-1.55c0.21-0.29,0.55-0.47,0.89-0.58c1.91-0.65,3.96,0.33,5.65,1.43c2.79,1.82,5.45,4.22,6.3,7.42
				C1156.48,1077.01,1156.53,1077.48,1156.24,1077.76z"/>
			<path style="fill:none;stroke:#000000;stroke-miterlimit:10;" d="M547.79,766.29c-0.25,1.67-1.04,3.3-2.32,4.47
				c-1.29,1.17-3.08,1.85-4.85,1.69c-0.93-0.09-1.82-0.39-2.68-0.72c-0.69-0.27-1.39-0.57-1.91-1.07c-1.33-1.29-1.07-3.39-0.71-5.17
				c0.15-0.77-0.07-1.7,0.45-2.29c1.56-1.8,7.32-3.8,9.57-2.96C547.5,761.04,548.08,764.43,547.79,766.29z"/>
			<path style="fill:none;stroke:#000000;stroke-miterlimit:10;" d="M668.01,678.68c-0.46,1.79-1.2,3.56-2.51,4.87
				c-1.3,1.31-3.26,2.07-5.04,1.6c-1.79-0.47-3.19-2.38-2.76-4.17c0.17-0.72,0.59-1.34,1-1.95c1.23-1.81,3.47-7,5.83-7.39
				C668.31,671.01,668.62,676.33,668.01,678.68z"/>
			<path style="fill:none;stroke:#000000;stroke-miterlimit:10;" d="M687.44,610.33c-0.26,1.61-1.78,2.67-3.19,3.48
				c-0.87,0.51-1.84,1.02-2.84,0.9c-0.78-0.09-1.47-0.55-2.06-1.06c-1.77-1.57-4.56-6.03-2.34-8.26c1.5-1.52,10.18,0.89,10.29,0.58
				C686.8,607.35,687.67,608.88,687.44,610.33z"/>
			<path style="fill:none;stroke:#000000;stroke-miterlimit:10;" d="M743.36,725.45c-3.76-1.7-7.54-7.23-4.84-10.21
				c1.24-1.37,4-1.56,6.13-1c2.49,0.64,4.54,2.13,5.44,3.93C751.49,720.94,748.82,727.92,743.36,725.45z"/>
			<path style="fill:none;stroke:#000000;stroke-miterlimit:10;" d="M1241.53,610.55c-0.01,0.64-0.2,1.34-0.73,1.71
				c-0.32,0.21-0.71,0.28-1.08,0.33c-3.62,0.44-7.39-0.91-9.38-3.93c-2.08-3.15-4.87-6.65-5.16-10.54
				c-0.24-3.19,1.27-6.22,2.74-9.06c0.61-1.18,1.26-2.4,2.32-3.19c1.32-0.99,3.11-1.16,4.71-0.78c1.6,0.37,3.03,1.25,4.36,2.22
				c1.76,1.28,3.54,3.09,3.35,5.27c-0.25,3.01-4.05,4.63-4.68,7.59C1237.21,603.82,1241.61,606.81,1241.53,610.55z"/>
			<path style="fill:none;stroke:#000000;stroke-miterlimit:10;" d="M1214.38,1067.36c-1.51,0.47-3.13,0.02-4.7-0.2
				c-1.58-0.21-3.42-0.05-4.36,1.23c-0.37,0.52-0.55,1.16-0.93,1.67c-0.81,1.08-2.4,1.32-3.68,0.9c-1.28-0.42-2.31-1.38-3.23-2.36
				c-2.03-2.19-3.79-4.68-6.25-6.37c-2.19-1.51-4.79-2.28-7.3-3.16c-2.51-0.88-5.05-1.94-6.88-3.87c-1.83-1.93-2.77-4.93-1.6-7.32
				c0.42-0.84,1.1-1.58,1.99-1.88c0.53-0.18,1.11-0.2,1.68-0.16c2.23,0.18,4.29,1.21,6.45,1.79c2.16,0.58,4.73,0.6,6.34-0.95
				c0.82-0.8,1.3-1.92,2.2-2.62c1.27-0.98,3.12-0.89,4.57-0.2c1.45,0.7,2.59,1.9,3.69,3.07c2.12,2.27,4.17,5.03,6.67,6.89
				c1.59,1.17,3.49,1.77,5.06,3C1217.05,1059.13,1219.56,1065.73,1214.38,1067.36z"/>
			<path style="fill:none;stroke:#000000;stroke-miterlimit:10;" d="M1218.39,1037.21c-0.11,1.84-1.38,3.72-3.21,4
				c-1.91,0.29-3.65-1.14-4.8-2.69s-2.07-3.37-3.68-4.43c-2.2-1.44-5.11-1.1-7.61-0.3c-2.5,0.8-4.91,2.02-7.53,2.21
				c-2.02,0.15-4.31-0.52-5.25-2.32c-0.95-1.83-0.11-4.16,1.33-5.63c1.45-1.47,3.39-2.32,5.19-3.33c3.68-2.06,6.91-4.9,9.43-8.27
				c0.79-1.05,1.51-2.17,2.5-3.03c3.29-2.89,10.88-4.73,11.78,1.28c0.32,2.17-0.45,4.35-1.36,6.34c-0.63,1.39-1.36,2.81-1.4,4.34
				c-0.05,2.45,1.65,4.54,2.95,6.63C1217.7,1033.58,1218.5,1035.36,1218.39,1037.21z"/>
			<path style="fill:none;stroke:#000000;stroke-miterlimit:10;" d="M1250.64,1054.19c-1.21,1.33-2.75,2.3-4.11,3.48
				c-1.9,1.64-3.47,3.68-5.6,5c-2.14,1.33-5.18,1.71-7-0.01c-0.79-0.74-1.24-1.77-1.66-2.77c-1.19-2.77-2.38-5.55-3.57-8.32
				c-0.66-1.54-1.32-3.09-1.57-4.75c-0.31-2.05,0.05-4.2,1.02-6.03c0.57-1.09,1.53-2.17,2.76-2.19c0.88-0.01,1.66,0.52,2.36,1.05
				c0.84,0.65,1.66,1.34,2.44,2.07c0.44,0.41,0.88,0.85,1.1,1.41c0.34,0.89,0.03,1.89-0.15,2.83c-0.24,1.19-0.28,2.42-0.12,3.62
				c0.09,0.65,0.24,1.31,0.65,1.8c1.14,1.38,3.33,0.77,4.95,0.04c1.14-0.5,2.37-1.09,2.91-2.21c0.31-0.64,0.35-1.38,0.33-2.09
				c-0.08-3.52-1.53-6.99-3.96-9.53c-1.76-1.84-4.13-3.4-4.68-5.88c-0.33-1.48,5.97-3.77,6.56-3.59c1.55,0.49,1.94,1.18,2.93,2.46
				c2.48,3.19,4.96,6.35,6.31,10.22C1254.09,1045.27,1253.82,1050.69,1250.64,1054.19z"/>
			<path style="fill:none;stroke:#000000;stroke-miterlimit:10;" d="M1303.87,1012.65c0.02,1.82-1.44,3.32-2.98,4.29
				c-4.49,2.83-10.25,2.99-15.38,1.63c-5.12-1.37-9.76-4.1-14.33-6.8c-6.29-3.72-12.59-7.45-18.89-11.17
				c-1.69-1.01-3.45-2.03-5.4-2.31c-2.4-0.33-4.79,0.5-7.15,1.03c-2.37,0.52-5.06,0.69-7-0.76c-0.54-0.41-1.01-0.94-1.25-1.57
				c-0.2-0.54-0.22-1.13-0.25-1.71c-0.11-2.6,0.04-5.71,2.27-7.06c0.75-0.45,1.63-0.62,2.49-0.79c4.11-0.79,8.59-1.9,11.03-5.29
				c1.23-1.72,1.78-3.81,2.52-5.79c2.32-6.24,6.62-11.47,11.3-16.1c2.13-2.11,4.26-4.21,6.32-6.35c1.97-2.04,4.48-2.69,6.83-0.72
				c4.18,3.52,4.64,10.61,0.94,14.64c-0.94,1.02-2.12,1.9-2.63,3.19c-0.82,2.06,0.33,4.31,0.94,6.43c0.82,2.84,0.68,5.9,1.64,8.7
				c1.02,2.99,3.2,5.43,5.53,7.56c6.09,5.56,13.46,9.48,20.13,14.32C1302.15,1009.18,1303.85,1010.68,1303.87,1012.65z"/>
			<path style="fill:none;stroke:#000000;stroke-miterlimit:10;" d="M1287.85,976.81c-1.55,0.82-3.51,0.46-5.02-0.43
				c-2.34-1.37-4.12-4.4-2.98-6.85c1.27-2.73,6.81-2.72,8.74-0.84C1290.75,970.79,1290.66,975.33,1287.85,976.81z"/>
			<path style="fill:none;stroke:#000000;stroke-miterlimit:10;" d="M1309.84,987.66c-0.22,1.97-1.23,3.77-2.45,5.34
				c-0.88,1.14-2.02,2.26-3.46,2.38c-1.14,0.11-2.22-0.44-3.24-0.97c-2.08-1.08-4.16-2.17-6.23-3.26c-1.52-0.79-3.07-1.61-4.17-2.91
				c-1.1-1.31-1.65-3.23-0.88-4.76c0.98-1.94,3.58-2.42,5.74-2.1c2.2,0.33,4.13,1.15,6.36,0.77c2.17-0.36,4.2-1.14,6.22,0.26
				C1309.36,983.54,1310.06,985.69,1309.84,987.66z"/>
			<path style="fill:none;stroke:#000000;stroke-miterlimit:10;" d="M1335.14,994.19c-0.8,2.56-2.74,4.74-5.18,5.84
				c-0.45,0.2-0.92,0.37-1.41,0.35c-1.27-0.05-2.09-1.3-3.05-2.15c-0.8-0.72-1.79-1.18-2.73-1.7c-1.8-0.98-3.48-2.18-5-3.56
				c-1.42-1.29-2.8-3.15-2.18-4.97c0.11-0.31,0.28-0.61,0.57-0.75c0.22-0.11,0.47-0.12,0.7-0.13c3.4-0.11,6.71-0.56,9.97-1.47
				c2.52-0.71,5.04-0.96,7.01,1.22C1335.58,988.79,1335.92,991.71,1335.14,994.19z"/>
			<path style="fill:none;stroke:#000000;stroke-miterlimit:10;" d="M1308.77,935.3c-0.5,1.49-1.43,2.8-2.35,4.08
				c-2,2.77-3.99,5.54-5.98,8.31c-0.44,0.61-0.89,1.24-1.01,1.98c-0.2,1.33,0.71,2.57,1.7,3.48c1.47,1.35,3.26,2.42,4.25,4.15
				c0.98,1.73,0.63,4.46-1.28,5.04c-0.86,0.27-1.79,0.02-2.66-0.23c-6.51-1.85-13.54-4.08-17.34-9.68c-0.67-1-1.23-2.11-1.35-3.31
				c-0.2-1.95,0.79-3.82,1.91-5.42c3.46-4.95,8.41-8.57,13.61-11.5c1.91-1.08,5.05-3.5,7.33-3.27
				C1308.71,929.25,1309.62,932.79,1308.77,935.3z"/>
			<path style="fill:none;stroke:#000000;stroke-miterlimit:10;" d="M1323.84,946.01c-0.37,1.13-1.45,1.86-2.48,2.47
				c-1.25,0.73-2.52,1.41-3.83,2.03c-1.36,0.65-2.76,1.24-4.25,1.46c-1.49,0.22-3.08,0.03-4.35-0.77c-0.73-0.47-1.36-1.17-1.51-2.02
				c-0.12-0.66,0.05-1.34,0.27-1.97c0.42-1.24,1.02-2.4,1.78-3.46c0.46-0.64,1-1.25,1.73-1.54c0.41-0.16,0.86-0.21,1.31-0.26
				c2.21-0.22,6.26-1.54,8.3-0.65c0.94,0.41,1.84,0.98,2.45,1.8C1323.87,943.93,1324.16,945.03,1323.84,946.01z"/>
			<path style="fill:none;stroke:#000000;stroke-miterlimit:10;" d="M1329.9,981.61c-1.43,0.17-2.86-0.32-4.22-0.8
				c-3-1.06-6.3-2.38-7.67-5.26c-1.32-2.77-0.46-6.31-2.12-8.9c-1.02-1.59-2.84-2.55-3.78-4.2c-1.23-2.16-0.63-6.04,1.8-6.58
				c2.38-0.53,4.89-0.07,5.57,0.1c1.76,0.44,2.88,1.55,3.63,3.26c0.65,1.46,1,3.07,1.87,4.42c1.29,1.98,3.52,3.1,5.38,4.56
				c2.24,1.78,4.06,4.32,4.21,7.17C1334.71,978.23,1332.73,981.26,1329.9,981.61z"/>
			<path style="fill:none;stroke:#000000;stroke-miterlimit:10;" d="M1351.79,938.86c-1.31,2.44-4.55,2.91-7.32,3.01
				c-2.41,0.08-4.96,0.06-7.06-1.14c-1.58-0.9-2.74-2.38-3.94-3.74c-1.67-1.91-3.51-3.65-5.43-5.31c-1.28-1.12-2.64-2.24-3.4-3.76
				c-0.75-1.52-0.72-3.59,0.56-4.71c1.27-1.1,3.21-0.9,4.78-0.3c5.69,2.15,11.35,3.18,16.6,6.5c1.68,1.06,3.38,2.2,4.52,3.82
				C1352.25,934.86,1352.73,937.1,1351.79,938.86z"/>
			<path style="fill:none;stroke:#000000;stroke-miterlimit:10;" d="M1357.45,899.16c-0.2,4.22-2.12,8.33-5.23,11.2
				c-1.98,1.83-4.41,3.15-6.96,4.07c-4.31,1.56-9.02,2-13.55,1.26c-2.01-0.33-4.26-1.12-5-3.02c-0.92-2.37,1.15-4.92,3.46-5.98
				c2.31-1.06,4.96-1.28,7.17-2.53c1.41-0.79,2.6-1.99,3.37-3.4c0.53-0.98,0.88-2.05,1.48-2.98c2.06-3.18,6.32-3.58,9.7-4.35
				C1355.67,892.56,1357.63,895.55,1357.45,899.16z"/>
			<path style="fill:none;stroke:#000000;stroke-miterlimit:10;" d="M1372.93,902.73c-0.77,1.37-1.92,2.5-2.84,3.78
				c-0.88,1.22-1.55,2.57-2.46,3.76c-0.9,1.2-2.12,2.25-3.59,2.53c-1.48,0.27-3.2-0.47-3.65-1.89c-0.15-0.45-0.16-0.92-0.16-1.38
				c-0.03-4.4-0.43-9.79,2.79-12.78c1.21-1.12,4.91-2.48,6.56-2.04c1.03,0.28,3.13,2.61,3.65,3.5
				C1374.03,899.57,1373.7,901.35,1372.93,902.73z"/>
			<path style="fill:none;stroke:#000000;stroke-miterlimit:10;" d="M1373.49,886.31c-1.62,2.01-4.07,3.32-6.64,3.54
				c-1.45,0.13-3.09-0.18-3.94-1.36c-0.73-1.03-0.61-2.56,0.27-3.46c0.53-0.54,1.25-0.83,1.95-1.11c1.91-0.75,5.16-2.86,7.23-2.72
				C1375.18,881.39,1374.84,884.64,1373.49,886.31z"/>
			<path style="fill:none;stroke:#000000;stroke-miterlimit:10;" d="M1853.39,474.46c-1.95,2.59-4.86,4.23-7.6,5.96
				c-4.94,3.11-9.57,6.73-13.78,10.78c-1.38,1.32-2.82,2.75-4.68,3.2c-1.86,0.45-4.22-0.59-4.4-2.5c-0.06-0.58,0.1-1.16,0.27-1.72
				c0.72-2.26,1.88-4.38,3.4-6.2c2.09-2.52,4.82-4.44,7.51-6.32c2.04-1.43,4.08-2.86,6.13-4.29c0.95-0.67,1.91-1.34,2.96-1.84
				C1845.49,470.43,1857.76,468.67,1853.39,474.46z"/>
			<path style="fill:none;stroke:#000000;stroke-miterlimit:10;" d="M1834.23,507.48c-1.74,3.4-5.31,5.79-9.12,6.1
				c-1.18,0.1-2.66-0.21-2.96-1.36c-0.13-0.49,0.02-1.01,0.21-1.49c0.56-1.35,0.81-2.79,1.5-4.09c1.25-2.34,9.98-7.02,10.91-1.55
				C1834.91,505.91,1834.61,506.74,1834.23,507.48z"/>
			<path style="fill:none;stroke:#000000;stroke-miterlimit:10;" d="M2147.69,528.55c-2.36,9.84-2.3,20.09-1.79,30.2
				c0.18,3.48,0.4,7.06-0.64,10.39c-0.62,1.97-1.66,3.8-2.26,5.78c-1.11,3.68-0.58,7.81,1.41,11.1c1.59,2.61,4.03,4.66,4.79,7.82
				c0.18,0.78,0.22,1.6,0.04,2.38c-0.92,3.97-5.41,4.2-8.62,5.87c-4.34,2.26-6.33,7.28-7.97,11.89c-0.67,1.85-1.34,3.78-0.83,5.78
				c0.24,0.98,0.84,1.88,1.71,2.39c4.19,2.45,9.04-5.54,13-2.2c1.24,1.05,1.66,2.79,1.2,4.36c-0.69,2.39-1.27,4.75-1.95,7.13
				c-2.36,8.17-10.72,12.56-14.7,20.07c-3.35,6.3-4.6,13.52-4.82,20.65c-0.16,5.65,0.3,11.31,0.13,16.96
				c-0.19,6.4-1.18,12.75-2.22,19.08c-1.01,6.11-2.06,12.24-2.3,18.43c-0.14,3.44-0.02,6.89-0.54,10.29
				c-0.45,2.95-1.38,5.8-2.23,8.65c-1.8,5.98-3.33,12.05-4.58,18.17c-1.48,7.27-1.96,19.24-0.69,26.55
				c0.21,1.17,0.31,2.35,0.23,3.54c-0.2,2.74-1.6,5.58-4.11,6.67c-1.4,0.61-2.97,0.63-4.44,1.03c-5.4,1.45-8.02,7.35-9.78,12.74
				c-0.03,0.08-0.05,0.15-0.08,0.23c-0.05,0.17-0.11,0.33-0.16,0.5c-3.5,10.97-6.93,22-9.12,33.31c-1.4,7.16-2.39,14.69-6.47,20.74
				c-5.24,7.78-14.47,11.6-22.81,15.89c-8.34,4.29-16.96,10.44-18.71,19.65c-0.83,4.38,0.04,8.91-0.28,13.36
				c-0.83,11.55-10.7,21.79-22.21,23.05c-1.68,0.19-3.41,0.19-4.99-0.41c-2.74-1.04-4.7-3.44-6.84-5.45
				c-7.01-6.6-14.72,1.58-17.63,5.14c-4.13,5.04-2.11,10.14-11.25,10.59c-6.12,0.31-12.09-1.83-16.75-5.8
				c-3.87-3.29-7.72-6.73-10.22-11.13c-5.21-9.17-3.07-21.86,4.86-28.82c1.97-1.73,4.29-3.18,5.65-5.43
				c2.98-4.94,0.19-11.21-2.6-16.26c-4.62-8.39-9.25-16.78-13.88-25.18c-3.27-5.94-6.58-11.92-10.91-17.15
				c-1.55-1.88-3.34-3.89-2.8-6.51c0.54-2.61,3-4.33,5.67-4.44c5.14-0.22,8.74,3.4,12.85,5.8c3.74,2.18,9.01,3.25,11.89-0.5
				c1.12-1.45,1.53-3.32,1.44-5.16c-0.2-3.59-2.08-6.64-3.7-9.73c-1.04-1.98-1.98-4.01-2.81-6.08c-0.03-0.07-0.06-0.14-0.09-0.21
				c-1.44-3.58-2.57-7.27-3.39-11.03c-0.77-3.58-1.36-7.42-3.78-10.17c-2.09-2.37-5.27-3.54-8.42-3.87
				c-6.58-0.69-13.03,1.88-19.16,4.39c-7.47,3.07-14.95,6.14-22.43,9.21c-7.97,3.27-16.99,2.38-24.93,5.73
				c-2.63,1.1-4.88,3.21-6.84,5.74c-0.05,0.06-0.1,0.13-0.15,0.19c-3.01,3.92-5.36,8.83-7.47,12.68c-2.02,3.67-3.9,7.6-4.02,11.79
				c-0.13,4.75,1.99,9.21,3.75,13.62c6.64,16.6,8.54,34.66,10.38,52.44c0.81,7.83,1.61,15.84-0.29,23.47
				c-1.38,5.54-4.11,10.62-6.48,15.81c-9.41,20.62-13.19,43.4-14.56,66.03c-0.43,6.96-0.62,14.03,0.95,20.83
				c1.54,6.63,4.72,12.77,6.49,19.34c1.98,7.37,2.15,15.09,2.3,22.72c0.29,14.26-0.1,30.27-10.3,40.24
				c-4.31,4.2-7.77,8.53-11.86,12.94c-2.79,3.01-5.71,6.29-6.26,10.35c-0.45,3.35,0.82,6.72,2.53,9.64
				c7.41,12.7,24.07,19.14,38.1,14.74c6.27-1.97,12.02-5.84,18.87-5.36c3.24,0.23,6.34,1.72,8.13,4.42
				c3.7,5.55-1.47,10.65-0.96,16.08c0.5,5.5,6.23,8.67,10.8,11.77c9.95,6.74,17.29,18.12,16.92,30.13
				c-0.36,12.02-9.81,23.78-21.8,24.65c-8.27,0.6-16.49-3.65-24.66-2.23c-5.02,0.87-9.42,3.79-14.22,5.5
				c-8.64,3.08-18.67,1.98-26.44-2.89c-5.35-3.35-9.55-8.29-14.82-11.76c-10.06-6.62-22.95-7.21-34.88-5.63
				c-20.95,2.78-40.6,11.46-59.79,20.29c-9.64,4.44-19.26,8.94-28.84,13.51c-2.68,1.27-5.42,2.6-7.44,4.77
				c-6.94,7.47-1.57,20.06,6.37,26.46c8.4,6.76,19.39,10.53,25.41,19.65c0.76,1.14,1.33,2.4,1.54,3.75
				c1.24,7.74-8.12,10.88-13.2,16.16c-4.46,4.63-5.71,11.54-5.31,17.95c0.39,6.41,2.19,12.65,2.94,19.03
				c0.8,6.75,0.39,13.63-1.17,20.25c-0.01,0.05-0.03,0.11-0.04,0.16c-0.86,3.6-2.06,7.12-3.59,10.49
				c-3.85,8.48-9.91,17.18-7.71,26.23c1.83,7.52,2.16,15.36,3.31,23.01s0.16,16.63-6.08,21.2c-2.98,2.18-6.71,3-10.2,4.21
				c-14.31,4.96-25.16,16.87-33.24,29.67c-8.08,12.81-14.02,26.89-22.31,39.57c-7.99,12.22-18.04,22.95-28.39,33.25
				c-7.22,7.19-14.64,14.22-21.08,22.11c-4.95,6.05-9.29,12.57-13.62,19.07c-3.41,5.12-12.34,8.14-14.11,14.03
				c-2.15,7.13-1.69,14.75-2.66,22.13c-2.74,20.92-5.31,42.72-11.42,62.89c-4.27,14.1-6.44,28.73-6.26,43.45
				c0.28,22.04-1.66,44.1-5.76,65.76c-0.83,4.35-1.79,8.82-4.31,12.48c-1.45,2.1-103.67,71.17-112.73,70.92
				c-11.57-0.32-540.04-135.28-821.22-208.32c-79.8-20.72-139.68-36.46-162.18-42.72c-5.9-1.65-10.87-5.6-13.8-10.98
				c-38.19-69.97-324.08-558.76-329.21-569.01c-8.56-17.12-28.78-44.68-28.78-64.4c0-0.79,0.03-1.57,0.1-2.34
				c0.49-5.57,2.16-10.96,3.94-16.25c1.88-5.61,3.89-11.18,6.08-16.68c1.69-4.24,3.73-8.58,7.55-11.03c2.48-1.6,5.45-2.21,8.1-3.51
				c6.44-3.17,10.41-10.71,9.38-17.81c-0.73-5.06-3.35-11.3,2.72-13.8c1.08-0.44,2.04-1.18,2.53-2.23c1-2.13-0.58-3.2-1.64-4.44
				c-3.62-4.24-1.48-10.85,0.41-15.87c0.29-0.78,0.76-1.5,1.41-2.02c1.73-1.34,3.17-0.4,4.35,0.57c8.16,6.74,11.87,18.42,9.08,28.64
				c-1.66,6.09-5.38,11.51-6.77,17.68c-1.06,4.65-0.74,9.5-0.41,14.26c0.38,5.54,0.76,11.08,1.14,16.62
				c0.08,1.23,0.22,2.59,1.89,3.03c0.73,0.2,1.5,0.13,2.22-0.07c5.25-1.51,11.74-3.78,13.02-9.22c1.93-8.19-9.68-16.69-4.81-23.64
				c2.36-3.37,7.13-3.87,10.47-1.47c5.88,4.22,6.07,11.37,5.89,17.86c-0.13,5.13-0.28,10.67,3.96,14.43
				c2.37,2.11,6.01,2.3,8.34,0.14c4.62-4.28-1.23-11.95-0.18-18.19c0.61-3.69,2.52-6.9,3.3-10.39c0.92-4.1,6.12-5.34,8.99-2.27
				c7.24,7.74,10.56,18.49,11.22,29.06c0.66,10.55-1.1,21.08-2.85,31.51c-0.51,3-1.05,6.09-2.67,8.67
				c-1.05,1.68-2.52,3.07-3.57,4.75c-4.81,7.7,0.61,17.39,2.4,26.3c1.59,7.92,0.14,16.25,1.97,24.12
				c2.46,10.57,10.12,17.34,18.5,24.22c9.09,7.46,21.86,12.02,32.45,11.36c2.15-0.14,3.86-1.96,5.96-2.46
				c7.16-1.69,14.07,4.73,21.4,4.06c1.95-0.17,3.78-0.84,5.6-1.58c3.94-1.59,10.38-1.6,14.23,0.2c7.07,3.3,8.97,9.74,12.46,16.81
				c2.55,5.18,9.51-8.2,15.01-6.44c1.97,0.63,3.14,2.68,4.97,3.64c3.45,1.78,7.75-0.88,10.43-3.17c1.01-0.88,2.1-1.68,3.31-2.23
				c7.98-3.68,11.29,4.27,16.36,8.33c6.81,5.43,16.74,3.59,24.98,0.79c8.71-2.97,17.15-6.69,25.21-11.13
				c2.75-1.52,5.73-3.18,8.85-2.76c1.28,0.17,2.49,0.69,3.77,0.81c4.18,0.42,7.54-3.28,9.89-6.77c5.33-7.94,9.83-17.12,18.16-21.82
				c8.22-4.63,18.84-4.02,26.45-9.59c4.15-3.03,6.91-7.57,10.61-11.15c3.7-3.57,9.21-6.21,13.91-4.14
				c6.89-1.29,14.82-5.61,19.36-10.95c3.79-4.46,5.37-10.33,6.97-15.96c1.7-5.98,3.72-12.21,8.49-16.31c2.43-2.1,5.58-3.27,8.8-3.26
				c8.04,0.01,8.82,6.5,12.6,10.41c4.56,4.71,12.77,5.01,16.35,10.5c3.13,4.82,1.3,11.7,5.48,16.08c0.93,0.98,2.15,1.69,3.49,1.88
				c5.98,0.85,8.56-7.72,14.16-9.61c3.43-1.17,7.21,0.52,10.01,2.82c2.8,2.31,5.05,5.26,8.03,7.32c2.95,2.04,6.57,3.04,10.16,2.96
				c2.81-0.06,5.59-0.77,8.03-2.16c2.69-1.53,5.02-3.81,8.01-4.56c9.24-2.34,15.91,10.57,25.42,11.13c2.22,0.13,4.46-0.44,6.65-0.04
				c5.69,1.05,9,8.21,14.78,8.55c6.57,0.38,10.97-8.33,17.54-8.02c3.68,0.18,6.58,3.18,10.09,4.26c3.35,1.03,7.33,0.37,10.05,2.57
				c4.53,3.64,3.11,13.22,9.26,13.73c1.41,0.12,2.81-0.34,4-1.12l19-12.58c2.97-1.97,6.29-3.52,7.97-6.67
				c0.52-0.97,0.99-2.06,1.95-2.62c1.23-0.72,2.79-0.3,4.11,0.25c13.99,5.79,20.52,22.11,32.99,30.7
				c6.88,4.74,15.18,6.85,23.29,8.85c9.14,2.25,19.34,4.33,27.53-0.3c2.42-1.37,4.76-3.34,7.53-3.28
				c7.35,0.15,10.47,13.93,18.84,8.18c0.64-0.45,1.19-1.02,1.71-1.6c5.16-5.81,13.44-5.68,20.86-5.28c3.19,0.17,6.59,0.42,9.18,2.31
				c3.33,2.43,4.37,6.86,6.52,10.39c3.86,6.34,11.42,9.65,18.81,10.31c7.39,0.65,14.77-0.97,22.05-2.44
				c9.79-1.99,19.63-3.73,29.51-5.22c6.44-0.98,13.06-1.84,19.4-0.34c7.51,1.78,13.84,6.7,20.87,9.89
				c7.01,3.18,14.05,3.34,21.21,0.63c7.59-2.87,13.68-3.67,21.71-1.7c7,1.71,15.06,3.54,20.88-0.7c2.6-1.9,4.51-4.9,7.57-5.9
				c4.19-1.38,9.38,1.42,12.94-1.19c1.31-0.97,2.11-2.54,3.49-3.42c2.91-1.86,6.61,0.1,9.83,1.32c9.73,3.7,20.72,0.2,29.86-4.78
				c9.14-4.97,17.64-11.47,27.65-14.31c5.41-1.54,11.33-2.05,15.94-5.29s6.85-10.78,2.52-14.39c-1.33-1.1-3.06-1.67-4.27-2.9
				c-4.23-4.28-0.1-14.17-8.65-14.5c-1.31-0.05-2.59-0.58-3.34-1.66c-1.13-1.6-0.13-2.91,0.79-4.02c3.34-4.02,6.95-8.23,12.2-9.39
				c3.03-0.67,6.27,0.03,8.47,2.21c3.71,3.68,1.18,8.2,2.01,12.34c0.46,2.32,1.92,4.29,3.4,6.12c6.4,7.89,14.23,14.88,23.59,18.82
				c9.37,3.94,20.42,4.56,29.59,0.18c4.3-2.05,8.05-5.1,12.25-7.36c11.97-6.4,27.35-0.97,39.85-5.04c5.23-1.7,10.33-4.8,13.03-9.59
				c0.67-1.19,1.34-2.57,2.64-3c0.83-0.27,1.72-0.08,2.58,0.01c3.26,0.35,7.12-1.27,7.72-4.49c1.03-5.45-7.69-9.56-3.37-15.65
				c1.1-1.55,2.72-2.66,4.52-3.28c3.52-1.21,8.98-3.97,8.5-8.25c-0.47-4.15-6.41-6.3-5.86-10.69c0.15-1.18,0.8-2.26,1.7-3.04
				c1.86-1.61,4.33-1.93,6.7-1.86c1.84,0.05,3.72,0.31,5.48-0.2c2.03-0.59,3.63-2.13,5.08-3.66c7.26-7.68,13.1-16.71,17.13-26.48
				c0.69-1.67,1.32-3.59,0.53-5.21c-0.55-1.13-1.66-1.84-2.71-2.53c-2.68-1.77-5.32-3.87-6.22-7.14c-0.47-1.72-0.23-3.62,0.84-5.05
				c3.3-4.42,10.45-0.89,15.31-3.23c3.37-1.62,4.76-5.65,5.39-9.34s0.92-7.66,3.2-10.63c1.91-2.49,2.02-5.63,1.84-8.77
				c-0.18-3.14,0.25-6.93,3.05-8.34c1.93-0.98,4.35-0.42,6.31-1.33c2.55-1.17,3.44-4.28,4-7.03c0.56-2.75,1.32-5.86,3.78-7.2
				c3.01-1.64,7.41,0.1,9.78-2.37c0.75-0.79,1.12-1.86,1.4-2.91c0.46-1.72,0.72-3.62-0.04-5.23c-1.55-3.29-6.72-4.18-6.72-8.19
				c-0.01-1.07,0.41-2.1,1.02-2.98c2.84-4.09,8.89-6.25,9.7-11.22c0.41-2.52-0.58-5.57,1.26-7.34c1.16-1.14,2.98-1.17,4.48-1.79
				c0.35-0.15,0.72-0.37,0.83-0.73c0.09-0.3-0.02-0.63-0.15-0.91c-0.41-0.89-1.08-1.65-1.94-2.13c-4.32-2.38-6.09,0.08-8.47,1.42
				c-1.18,0.66-2.69,1.03-3.84,0.33c-0.8-0.49-1.26-1.41-1.44-2.33c-0.6-3.14,1.66-6.23,4.42-7.86c2.73-1.61,5.91-2.22,8.9-3.28
				c2.61-0.94,4.82-2.73,6.49-4.95c4.12-5.5,11.95-5.5,18.58-4.95c6.2,0.52,12.51,5.4,12.28,11.62c-0.07,2.15-0.79,4.65,0.16,6.4
				c1.05,1.95,3.75,2.15,5.36,0.64c1.33-1.25,1.68-3.3,1.19-5.05c-0.49-1.79-1.76-3.49,0.28-5.5c0.78-0.77,1.79-1.25,2.85-1.57
				c4.35-1.33,8.53-3.97,10.81-7.93c2.09-3.63,2.35-8.45,0.01-11.92c-1.71-2.55-4.7-4.37-5.33-7.38c-0.25-1.18-0.07-2.4,0.34-3.55
				c0.01-0.04,0.03-0.08,0.05-0.12c0.27-0.76,0.65-1.5,1.07-2.18c4.19-6.78,12.23-9.89,19.41-13.33
				c10.47-5.03,20.18-11.64,28.68-19.54c3.17-2.94,8.79-7.18,12.37-9.59c8.79-5.91,15.9-15.59,26.1-18c4.29-1,8.79-1.04,12.98-2.37
				c9.06-2.89,15.11-11.15,21.28-18.38c6.21-7.28,13.12-13.92,20.02-20.55c19.58-18.82,39.22-37.69,60.77-54.22
				c3.2-2.46,6.44-4.87,9.47-7.53c3.34-2.94,7.3-6.46,11.62-5.38c3.03,0.76,5.69,3.74,8.7,2.89c4.8-1.36,2.73-9.46,6.44-12.81
				c7.84-7.08,11-17.13,19.24-23.73c1.34-1.07,3.16-2.14,4.64-1.28c0.74,0.42,1.17,1.23,1.76,1.84c1.5,1.55,4.02,1.72,6.03,0.93
				c2-0.79,3.58-2.37,5-4c5.19-5.95,8.98-13.12,10.98-20.77c0.76-2.91,1.29-5.95,2.9-8.49c1.61-2.54,4.69-4.46,7.58-3.64
				c1.62,0.46,2.96,1.7,4.6,2.04c3.44,0.73,6.29-2.54,8.29-5.43c2.54-3.69,5.07-7.37,7.61-11.06c1.06-1.54,2.16-3.18,2.24-5.05
				c0.08-1.75-0.75-3.4-1.13-5.11c-1.32-6.09,3.26-11.92,8.35-15.51c5.09-3.58,11.1-6.09,15.09-10.87
				c3.14-3.78,4.88-8.81,9.77-10.85c2.43-1.01,5.35-0.54,6.98,1.54c3.14,3.99-2.62,9.15,0.96,12.68c1.63,1.6,4.19,1.77,6.18,0.65
				l19.61-11.06c2.08-1.17,4.25-2.42,5.48-4.46c2.44-4.03-1.98-8.47-2.24-13.16c-0.49-8.96,10.18-14.12,17-19.95
				c7.78-6.65,15.57-13.31,23.91-19.24c3.58-2.54,7.27-4.96,10.58-7.83c5.21-4.53,9.39-10.1,13.99-15.23
				c3.61-4.03,7.5-7.81,11.38-11.58c1.42-1.38,2.9-2.8,4.75-3.51c1.81-0.69,3.81-0.65,5.75-0.8c11.4-0.93,20.9-8.96,28.6-17.42
				c7.4-8.14,13.02-20.48,23.45-23.27c1.15-0.31,2.55,0.32,2.97,1.44c0.34,0.92,0.29,1.95,0.09,2.92c-0.57,2.69-2.22,5.03-4.05,7.08
				c-1.84,2.05-3.9,3.91-5.55,6.12c-2.19,2.94-3.57,6.47-4.02,10.12c-0.2,1.57-0.13,3.4,1.08,4.43c0.82,0.7,2,0.85,3.06,0.63
				c1.06-0.22,2.01-0.77,2.93-1.33c2.92-1.8,5.69-3.94,7.73-6.69c2.05-2.75,3.33-6.17,3.05-9.59c-0.1-1.19-0.39-2.39-0.17-3.56
				c0.07-0.44,0.22-0.86,0.41-1.26c4.78-10.27,12.29-18.96,20.92-26.3c10.01-8.52,14.09-21.13,16.51-33.71
				c0.91-4.73,1.35-9.57,2.59-14.23c1.07-4.03,2.72-7.87,4.09-11.81c1.22-3.53,2.26-7.24,5.07-9.9c1.05-1,2.33-1.75,3.74-2.07
				c4.25-0.97,6.91,2.11,9.13,4.98c5.18,6.69,10.1,13.58,14.75,20.64c2.14,3.25,4.24,6.58,5.43,10.27
				c1.24,3.86,1.44,7.97,1.31,12.01c-0.23,7.73-1.6,15.43-1.14,23.15c0.51,8.6,3.27,16.91,4.24,25.48
				c0.97,8.65-1.47,17.26-6.26,24.53c-5.62,8.54-7.96,18.68-12.94,27.74c-4.7,8.55-11.77,15.98-14.28,25.41
				c-2.07,7.78-0.78,16.02,0.53,23.97c0.51,3.05,1.02,6.16,2.39,8.93c0.92,1.88,2.21,3.56,3.41,5.28c2.83,4.07,5.4,8.66,9.75,11.06
				c4.56,2.52,10.52,1.99,14.84-0.93c4.31-2.93,6.97-8.01,7.37-13.21c0.39-4.92-1.05-10.21,4.45-14.01c1.5-1.03,3.24-1.71,5.05-1.92
				c5.21-0.62,10.1,2,13.75,5.58c1.3,1.28,2.48,2.69,4,3.71c3.87,2.59,23.86,0.9,28.56,2.64c7.96,2.94,14.13,10.83,14.13,19.3v0.18
				C2149.96,520.76,2148.63,524.64,2147.69,528.55z"/>
		</g>
	</g>
</g>
</svg>
