<svg id="Layer_1" enable-background="new 0 0 66 66" viewBox="0 0 66 66" xmlns="http://www.w3.org/2000/svg"><g><g><path d="m52.8 32.7v.9c-.4 9.9-8.3 17.9-18.1 18.6-.5 0-.9 0-1.4 0-.1 0-.3 0-.4 0-10.7-.2-19.2-8.8-19.2-19.5 0-10.8 8.7-19.5 19.5-19.5 2.2 0 4.3.4 6.2 1 7.8 2.6 13.4 9.9 13.4 18.5z" fill="#e6e6e8"/><path d="m33.3 32.7v19.5h1.3c9.9-.7 17.7-8.7 18.1-18.6 0-.3 0-.6 0-.9z" fill="#d4d8db"/><path d="m33.2 32.6v-19.4c-10.8 0-19.5 8.7-19.5 19.5h19.5z" fill="#d4d8db"/><path d="m45.5 38.4c-.1-.1-.2 0-.3 0s-.1-.1-.2-.1c-.2-.1-.4-.3-.5-.4-.1 0-.1-.1-.2-.1s-.1 0-.2.1c-.3.1-.6-.2-.9 0 0 0-.1.1-.1 0s-.1-.2-.1-.3c-.1 0-.1.1-.2.1-.1-.2-.4-.2-.6-.2h-.1s-.1.1-.1.1c-.1.1-.2.2-.2.3 0 0 0 0-.1 0v-.1s.1 0 .1-.1c.1-.1.1-.2.1-.3v-.1h-.1c-.2 0-.5.1-.7.2 0-.1.1-.2.2-.3l.3-.3c.1-.1 0-.3-.1-.3-.2-.2-.2-.6-.4-.8 0 0-.1-.1-.2-.1-.5-.2-1-.4-1.5-.3-.1 0-.2.1-.3 0-.1 0-.2-.2-.3-.2h-.1v-.1c0-.1-.1-.1-.1-.2-.1-.1-.2-.1-.3-.2s-.2-.1-.3 0c-.1 0-.1-.2-.2-.3 0 0-.1 0-.1-.1-.1 0-.2-.1-.3-.2.1 0 .1-.1.1-.2h-.1c-.2 0-.3 0-.5.1-.1.1-.2.1-.3.1-.2 0-.4-.1-.6-.1s-.4.1-.5 0c0 0 0-.1-.1-.1-.1-.1-.3-.1-.4-.1 0-.1 0-.1 0-.2-.1-.1-.2 0-.2.1-.1 0-.2.1-.3.2v.1c0 .1.1.2.1.3s-.2.2-.2.1c-.1-.1 0-.3 0-.5 0-.1 0-.1 0-.2s.2-.2.1-.3c-.1 0-.2.1-.3.2-.3-.1-.6 0-.8.1-.2.3-.4.4-.4.5s-.1.1-.1.2c-.1.2-.1.3-.2.5-.1 0-.1 0-.2 0s-.1-.1-.2-.1c-.2-.2-.5-.2-.8-.1-.1 0-.2 0-.2.1-.2 0-.4-.1-.4-.3 0-.1 0-.1-.1-.2 0 0-.1 0-.1-.1-.1-.1-.2-.3-.2-.4 0-.2 0-.4 0-.6 0-.1 0-.1 0-.2 0-.3-.2-.5-.5-.5-.4-.1-.8-.1-1.2-.1 0-.2.1-.4.2-.7 0-.1.1-.2.1-.3s.1-.2.2-.4c.1-.1.3-.2.2-.4 0-.1-.2-.2-.4-.2s-.5 0-.7.1c-.1.1-.3.2-.3.4 0 .1 0 .2-.1.3s-.2.1-.3 0-.2-.1-.3-.1-.2.1-.3.1-.2-.1-.2-.1c-.3-.3-.5-.7-.5-1.1v-.1s0-.1.1-.1c.1-.2-.1-.4-.1-.6s.2-.4.2-.7c0-.1 0-.2 0-.3s.1-.1.1-.1c.1-.1.3-.2.5-.3 0 0 .1 0 .1-.1 0 0 .1-.1.1-.1.1-.1.3 0 .4-.1.1 0 .1 0 .2-.1.3 0 .4.3.7.3.1 0 .3-.1.4-.2 0 0 0 0 0-.1v-.1c.3-.1.6-.1.9.1.1.1.2.1.4.1.1 0 .1-.1.2-.1s.2.1.3.2c0 .1.1.2.1.3 0 .2.1.5.2.7.1.1.1.3.3.4.1.1.3 0 .4-.2 0-.1-.1-.2-.1-.3s0-.1.1-.2c.1-.2-.1-.5-.2-.7-.1-.3-.1-.6.1-.8.1-.2.3-.3.5-.4.4-.2.8-.5 1.1-.8-.1-.3-.1-.6.1-.8 0-.1.1-.1.1-.2s0-.2 0-.2c0-.1.1-.1.2-.1.1-.1 0-.2.1-.2.1-.1.2-.2.4-.2s.3 0 .5-.1c0 0 .1 0 .1-.1s0-.1-.1-.1c0 0-.1-.1-.1-.1-.1-.1 0-.3.1-.3.1-.1.2-.1.4-.1.1 0 .1-.1.2-.2.2-.1.4-.2.6-.3.1 0 .1-.1.2 0-.1.1-.2.1-.3.2s-.2.2-.2.3.2.2.3.1c.1 0 .2-.2.3-.3s.2-.2.3-.2c.1-.1.2-.1.3-.1.1-.1.2-.2.2-.3-.2.1-.4.1-.7.2-.2-.2-.4-.3-.6-.5.1-.1.1-.1.2-.2 0-.1 0-.2-.1-.2s-.2 0-.3 0c-.2.1-.4.1-.6.2-.1-.1 0-.1.1-.2.1 0 .2 0 .2-.1 0 0 0-.1.1-.1.1-.1.2-.2.3-.2h.4c.4 0 .9-.1 1.2-.4-.1.3-.1.6-.2.9v.2c.1.1.2 0 .3 0 .2-.1.3-.1.5 0-.1.1 0 .2.1.2h.2c.1 0 .2 0 .3-.1s-.1-.2-.2-.3c-.1 0-.2-.1-.3-.2v-.1c0-.1-.1-.1-.2-.1s-.1 0-.2 0-.3-.1-.2-.3c0-.1.1-.3 0-.4 0 0-.1 0-.1-.1-.1-.1 0-.2-.1-.3s-.3 0-.4-.1c0 0 0-.1-.1-.2h-.1c-.2 0-.4-.1-.5-.2-.1 0-.3-.1-.3-.3v-.1s0-.1-.1-.1c-.2-.2-.3-.3-.5-.5 0-.1-.1-.1-.2-.1v.1c0 .2-.1.3-.3.3-.1 0-.2 0-.3-.1 0-.2-.2-.4-.4-.6-.3-.2-.6-.2-.9-.2-.1 0-.1 0-.2.1v.2c0 .1 0 .3-.1.4 0 .1-.1.1-.1.2s0 .2.1.2c.1.1.1.2.2.3 0 .1 0 .3-.1.3-.1.1-.4.1-.4.3v.2c0 .1.1.2.1.4 0 .1-.1.3-.2.3-.2.1-.4-.2-.4-.4s0-.4 0-.6c-.6 0-1.1-.6-1.7-.6.1-.1.1-.4-.1-.5h-.1c0-.3.2-.6.5-.7.1 0 .2-.1.3-.1s.2-.1.3-.1c.2-.2.5-.3.7-.5.1.1 0 .3.1.4.2.1.4-.2.6-.1.1 0 .1.1.1.1.1 0 .2-.1.1-.2s-.2-.1-.3-.1c-.1-.1 0-.2.1-.3s.2-.2.2-.3v-.1c0-.2.2-.3.4-.3s.3.2.4.3.1.2.1.3-.1.1-.1.2v.2s-.1.1-.1.1c-.1 0-.1.1 0 .1.2-.1.5.2.7.1 0 .1.1.2.2.2.2.1.4.1.6.1-.1-.1-.3-.2-.4-.3.2 0 .3 0 .5.1.1 0 .1.1.2.1s.1-.2 0-.3c-.2-.2-.4-.4-.6-.5.2-.1.4 0 .6.2 0-.2.1-.3.3-.4-.5-.1-.9-.3-1.3-.7 0-.1-.1-.2-.3-.3-.3-.1-.5-.2-.8-.4 0-.1 0-.3.2-.4.1-.1.3-.1.4-.2.1 0 .3-.1.4 0 0 0 .1.1.1.1.1.1.2 0 .4 0 .1 0 .2.1.4.1.3.2.6.4.9.5 0 .1 0 .1.1.1s.1 0 .2 0c.2 0 .3.2.3.4 0 .1-.1.2-.1.3s.1.1.1.2c.5.7 1.3 1.1 2.1 1.3h.1c.1-.1-.1-.2-.1-.2 0-.1 0-.1 0-.2s-.1-.2-.1-.3c-.1-.1-.2-.2-.2-.3s0-.3.1-.3h.2c.1 0 .1-.2.1-.3s-.1-.2-.1-.3.1-.2.2-.1c.1-.2.1-.4 0-.5-.1.1-.4.1-.5-.1h.2c0-.1-.1-.2-.2-.2s-.2 0-.3-.1-.1-.2-.1-.2-.1 0-.2 0c-.2 0-.4-.1-.6-.3 0 0-.1-.1-.1-.1s-.1 0-.2-.1c-.2-.1-.4-.2-.6-.3-.1-.1-.2-.1-.3-.1s-.2 0-.3 0c0 0 0 0-.1 0h-.1c-.2.1-.4 0-.6 0h-.1v.1h-.1c-.1 0-.2.1-.2.1-.1.1-.3.2-.4.3 0-.1 0-.2.1-.3-.2-.1-.4 0-.6 0s-.3 0-.5.1c-.1 0-.1 0-.2 0s-.1.1-.1.1c-.1 0-.1 0-.2 0-.6.5-.6.5-.6.6v.1s0 .1 0 .1c-.1 0-.1-.1-.1-.1-.1-.1-.2-.1-.3-.1-.2 0-.5 0-.7.1h-.1c-.1 0-.3 0-.4 0-.2 0-.3 0-.5.1 0 .2.1.3.2.5.1.1.1.2.1.2h-.1s-.1-.1-.1-.1-.1 0-.1-.1c-.1-.1-.1-.2-.3-.2v-.1c-.2 0-.5.1-.7.2-.1 0-.2 0-.2.1-.1.1 0 .2.2.2.1 0 .2 0 .3-.1v.1c0 .1.2.2.1.3 0 .1-.2 0-.2 0-.1 0-.1.1-.1.1 0 .1 0 .1.1.2-.2-.1-.3-.2-.5-.3-.1-.1-.1-.1-.2-.1s-.2 0-.2 0c0-.1 0-.1 0-.2-.2 0-.5 0-.7 0-.1 0-.1 0-.2-.1 0-.1 0-.1 0-.2 0 0-.1 0-.1-.1-.1-.1-.1-.2 0-.3 0 0 .1-.1.1-.1s-.1-.1-.1-.1c-.5-.1-1.1.1-1.5.4 0-.1-.1-.1-.2-.1s-.2 0-.3 0-.2.1-.2.2v.2c0 .1-.2.1-.3.1-.2 0-.3 0-.4.1-.4.2-.8.4-.9.9 0 0 0 .1-.1.1h-.1c-.3.1-.6.2-1 .3h.4c.3 0 .8 0 1-.3 0-.1.1-.2.2-.1h.1c.1 0 .1.1.2.1h.2c.1.2.3.4.2.6 0 .1-.1.2-.2.2.2.3 0 .6-.1.9-.1.2-.2.3-.2.5v.1c0 .2-.2.3-.2.4-.1.1 0 .3.1.5.1.1.1.3.1.5v.1h-.1c-.1 0-.1 0-.2 0v.1c0 .1-.1.1-.1.2s-.1.2-.1.2-.1 0-.1.1c0 0-.1.1-.1.1-.1.2-.2.4-.3.6 0 .1-.1.1-.1.2-.1.2-.1.4-.3.6-.1.2-.2.3-.3.5 0 .1-.1.1-.1.2v.3c0 .3 0 .6.1.9.1.2.2.4.3.6s.2.4.2.6c0 .3-.1.6.1.8 0 .1.1.2.1.2 0 .1 0 .2-.1.2 0 0 0 0-.1 0s0 .2 0 .2c.1.1.2.1.2.2.1.1 0 .3.1.5 0 .2.2.3.3.5s.2.3.2.5c.1-.2.1-.5-.1-.6 0 0-.1 0-.1-.1v-.1c.1-.2.1-.5-.1-.7 0 0-.1-.1-.1-.1-.1-.1 0-.2 0-.3 0-.3-.3-.5-.3-.7s.1-.4.3-.5c0 .2.2.3.2.5v.2c.1.6.3 1.3.6 1.8.1.2.3.4.3.6.1.3.1.6 0 .9 0 .1-.1.1 0 .2 0 .1 0 .1.1.2.2.3.4.5.7.7s.5.4.8.6c.2.2.5.3.7.4h.3c.1 0 .2-.1.4-.1.1 0 .2.1.3.1.2.1.4.3.5.4 0 0 .1.1.1.1.1.1.2.1.3.2.3.2.7.3 1.1.2 0 .4.4.6.5.9 0 .1 0 .2.1.3s.2 0 .2-.1l.3.3s.1 0 .1.1 0 .1.1.2h.1c.2.1.5.2.7.3.1 0 .1.1.1.2s.1.1.2 0c0-.1-.1-.1-.1-.1v-.1s.1 0 .1 0c.2 0 .2-.3.3-.3s.2.1.3.2c.1.2.1.3.2.5 0 .1.1.2.1.3v.2c0 .1 0 .3.1.4 0 .1.1.1.1.2s0 .1-.1.1c-.2.1-.4.1-.5.3v.1c0 .1-.1.2-.3.2h-.1c-.1 0-.1.2-.1.2 0 .1-.1.2-.1.2 0 .1-.1.2-.1.2v.3c0 .1.1.1.2.1s.1.1.1.2-.2.1-.2.2c0 0-.1.1-.1.1-.1.1-.1.2-.1.4 0 .1 0 .3.1.4.2.2.5.3.7.6.1.1.2.3.2.4v.1c0 .1.1.3.2.4s.1.2.2.3.1.1.1.2v.2c0 .2.2.3.3.4s.2.1.3.2.3.1.4.2.2.1.3.2c.2.1.3.1.5.2.1.1.2.3.3.5v.5c0 .1 0 .3-.1.4s-.1.2-.2.3v.2.4c0 .1-.1.2-.1.2v.2c0 .3-.2.5-.2.8v.3c0 .1 0 .1-.1.2-.1.3-.3.5-.4.8 0 .1-.1.1-.1.2v.4.2s0 0 .1.1v.1c0 .2-.2.4-.3.6-.1.3-.2.6 0 .9 0 .1.1.2.2.2.1.1.2.2.4.3.1 0 .2.1.3.1.1-.1.1-.1.2-.1h-.1.5s0-.1-.1-.1h-.1c-.1 0-.1-.1-.1-.1 0-.1-.1-.2-.1-.2.1-.1.3-.1.3-.2v-.1c0-.1.1-.1.2-.1s.2-.1.3-.2c-.1 0-.3-.1-.3-.2 0 0 0 0 0-.1h.1.3.1s.1-.1.1-.1l.3-.3s-.1 0-.1-.1c0 0 0-.1.1-.1-.1 0-.1-.2-.1-.2h.3c.2 0 .3-.1.5-.3 0 0 0 0 0-.1v-.1c.3-.1.6-.1.8-.2.3-.1.5-.2.7-.5h-.1c.1-.1 0-.2-.1-.3-.1 0-.2 0-.2-.1h.6c.4 0 .7-.2 1-.5.2-.2.4-.4.7-.6.1-.1.2-.2.4-.3.1-.1.3-.3.4-.4 0 0 .1-.1.1-.1 0-.1 0-.2 0-.3s0-.2.1-.2c0-.2.1-.3.3-.4.3-.2.7-.4 1-.6.2-.1.4-.1.6-.2.1-.1.1-.1.2-.2.3-.3.5-.6.7-.9.1-.1.2-.2.3-.4.2-.4.2-.8.3-1.2.1-.2.2-.4.3-.6.1-.1.2-.3.3-.4.1-.2.3-.4.4-.6.1-.3.2-.5.2-.8-.4.3-.4.1-.6.1z" fill="#1e87b7"/><path d="m52.8 32.7v.9-.1c0-.2-.1-.5-.1-.7l.1.1c0-.3-.2-.7-.3-1-.3.1-.3.5-.5.7s-.5.3-.7.5c0 .1-.1.1-.1.2-.1.1-.3 0-.4-.1s-.1-.3-.1-.4-.1-.3-.3-.3c-.1 0-.2 0-.3 0s-.1-.1-.1-.2c-.1-.3-.2-.6-.4-.9s-.4-.5-.5-.8c0-.1 0-.3 0-.4 0-.6-.2-1.2-.5-1.7-.1-.1-.1-.2-.2-.3 0-.1 0-.2 0-.3 0-.5 0-1.1.1-1.6.1-.3.1-.5.1-.8 0-.4-.2-.7-.3-1.1s-.1-.8-.5-1c-.1-.1-.3-.2-.4-.3 0-.1 0-.1-.1-.2-.1-.2-.3-.2-.4-.3-.2-.4-.4-.9-.6-1.4.2.1.4-.1.4-.3s-.1-.4-.2-.6c-.1-.1-.2-.2-.3-.2s-.2 0-.3 0-.2-.2-.3-.3c-.3-.4-.6-.9-.8-1.3.2.3.3.7.2 1.1-.3-.3-.6-.6-.9-.9-.1.3 0 .6.2.7-.2.1-.4 0-.5-.2s-.1-.4-.3-.6c-.3-.5-1.1-.7-1.1-1.2l1.8.9c.1-.2 0-.5-.2-.7s-.4-.3-.6-.5c-.1-.1-.1-.2-.2-.2s-.2 0-.3.1c-.1 0-.3 0-.4-.1-.4-.2-.9-.4-1.2-.7-.2-.2-.4-.4-.6-.6-.3-.2-.8-.3-1.2-.3-.1-.3-.1-.5-.2-.8 0-.1 0-.2 0-.3 7.9 2.6 13.5 9.9 13.5 18.5z" fill="#1e87b7"/><g><path d="" fill="none"/></g></g><g><g><path d="m14.3 15h4.5v4.2h-4.5z" fill="#d5b79f"/><path d="m16.5 19.3-2.2-.7v-3.6l2.2.7z" fill="#c6a28a"/></g><path d="m27.1 32.2h-10.4l-.2-13 2.3-2 5.2 3.2s.1.1.2.2c.7.5 2.7 2.2 2.9 4.2.1 1.6.1 5.2 0 7.4z" fill="#e6e6e8"/><path d="m16.7 32.2-.1-13-2.3-1.8-4.9 3s-2.9 1.9-3.1 4.3c-.1 1.6-.1 5.2-.1 7.5z" fill="#e6e6e8"/><g><g fill="#d5b79f"><ellipse cx="22" cy="10.5" rx="1.7" ry="1.1" transform="matrix(.133 -.991 .991 .133 8.646 30.921)"/><ellipse cx="11.2" cy="10.5" rx="1.7" ry="1.1" transform="matrix(-.133 -.991 .991 -.133 2.223 22.978)"/><ellipse cx="16.6" cy="10.3" rx="5.2" ry="6.2"/></g><path d="m16.7 4.1v12.3c2.8-.1 5.1-2.8 5.1-6.2s-2.3-6-5.1-6.1z" fill="#c6a28a"/><path d="m21.2 11.7h.3s.7-2.8.7-3.9.2-1.8-.5-2.2c0 0 .4-2.7-.8-3.5s-6.4-1.3-8.6.6-1.2 5.3-1 6.1.3 2.4.3 2.4h.3s-.1-3.1.6-3.9 1.9-1.3 3.7-1.3 3.8.4 4.3 1 .7 3.1.7 4.7z" fill="#465c6a"/><path d="m21.7 5.5s.4-2.7-.8-3.5c-.6-.4-2.4-.8-4.2-.7v4.7c1.6.2 3.3.4 3.8 1s.7 3.2.7 4.7h.3s.7-2.8.7-3.9c0-1.2.2-1.9-.5-2.3z" fill="#3b4c56"/></g><g><g><path d="m17.2 19.3h-1.3l-.7 1.1.7 1.2h1.3l.7-1.2z" fill="#e8664a"/><g><path d="m17.9 20.4-.7-1.1h-.6v2.3h.6z" fill="#d95239"/></g></g><path d="m17.9 32.2h-1.3v-10.6h.6z" fill="#e8664a"/><path d="m16.6 32.2h-1.4l.7-10.6h.7z" fill="#d95239"/></g><path d="m18.8 16.8-2.2 2.5 1.9 1.4 1.1-2.9z" fill="#d4d8db"/><path d="m14.3 16.8 2.3 2.5-1.9 1.4-1.1-2.8z" fill="#d4d8db"/><path d="m27.1 32.2h-10.4v-.2-.2c1.6-5.1 2.5-13.1 2.7-14.2l1.5 1 3.1 1.9s.1.1.2.2c.7.5 2.7 2.2 2.9 4.2.1 1.5.1 5.1 0 7.3z" fill="#e0b624"/><path d="m16.7 32.1v.2h-10.4c0-2.3-.1-5.8.1-7.5.2-2.4 3.1-4.3 3.1-4.3l2.9-1.8 1.6-1c.2 1.5 1.1 9.6 2.7 14.5 0-.1.1-.3.1-.4z" fill="#fad22c"/><path d="m13.9 17.7c.2 1.5 1.1 9.6 2.7 14.5-.1-.1-3.1-4.3-4-6.9l.5-1.3-1-.8.3-4.6 1.5-1.2z" fill="#e0b624"/><path d="m20.2 24 .5 1.3c-.8 2.3-3.3 5.9-4 6.7-.1.1-.1.2-.1.2 0-.1.1-.3.1-.4 1.6-5.1 2.5-13.1 2.7-14.2 0-.1 0-.1 0-.1l1.5 1.1.3 4.7z" fill="#fad22c"/></g><g><g><g><path d="m47 40.7h4.5v4.2h-4.5z" fill="#d5b79f"/><path d="m49.2 44.9-2.2-.6v-3.6l2.2.7z" fill="#c6a28a"/></g><path d="m59.8 57.9h-10.4l-.2-13 2.3-2 5.1 3.2s.1.1.2.2c.7.5 2.7 2.1 2.9 4.2.2 1.6.1 5.1.1 7.4z" fill="#e6e6e8"/><path d="m49.4 57.9-.1-13-2.3-1.8-4.9 3s-2.9 1.9-3.1 4.3c-.1 1.6-.1 5.2-.1 7.4h10.5z" fill="#e6e6e8"/><g><g fill="#d5b79f"><ellipse cx="54.7" cy="36.2" rx="1.7" ry="1.1" transform="matrix(.133 -.991 .991 .133 11.521 85.59)"/><ellipse cx="43.9" cy="36.2" rx="1.7" ry="1.1" transform="matrix(-.133 -.991 .991 -.133 13.838 84.515)"/><ellipse cx="49.3" cy="36" rx="5.2" ry="6.2"/></g><path d="m49.4 29.8v12.3c2.8-.1 5.1-2.8 5.1-6.2s-2.3-6-5.1-6.1z" fill="#c6a28a"/></g><g><g><path d="m50 44.9h-1.4l-.7 1.2.7 1.2h1.4l.6-1.2z" fill="#e8664a"/><g><path d="m50.6 46.1-.6-1.2h-.7v2.4h.7z" fill="#d95239"/></g></g><path d="m50.6 57.9h-1.3v-10.6h.7z" fill="#e8664a"/><path d="m49.3 57.9h-1.4l.7-10.6h.7z" fill="#d95239"/></g><path d="m51.5 42.5-2.2 2.4 1.9 1.5 1.1-3z" fill="#d4d8db"/><path d="m47 42.5 2.3 2.4-1.9 1.5-1.1-2.8z" fill="#d4d8db"/><path d="m59.8 57.9h-10.4v-.2-.2c1.6-5.1 2.5-13.1 2.7-14.2l1.5 1 3.1 1.9s.1.1.2.2c.7.5 2.7 2.1 2.9 4.2.1 1.5 0 5 0 7.3z" fill="#6fac43"/><path d="m49.4 57.7v.2h-10.4c0-2.3-.1-5.8.1-7.4.2-2.4 3.1-4.3 3.1-4.3l2.9-1.8 1.6-1c.2 1.5 1.1 9.6 2.7 14.5 0-.1.1-.3.1-.4z" fill="#a3cd44"/><path d="m46.6 43.4c.2 1.5 1.1 9.6 2.7 14.5-.1-.1-3.1-4.3-4-6.9l.5-1.3-1-.8.3-4.5 1.5-1.2c0-.1 0 0 0 .2z" fill="#6fac43"/><path d="m52.9 49.7.5 1.3c-.8 2.3-3.3 5.9-3.9 6.7-.1.1-.1.2-.1.2 0-.1.1-.3.1-.4 1.6-5.1 2.5-13.1 2.7-14.2 0-.1 0-.1 0-.1l1.5 1.1.3 4.7z" fill="#a3cd44"/></g><path d="m44.5 37.3c0-.6.1-2 .5-2.7 0 0-.5-2.7 1.1-2.4 1.7.2 4.9 1 7.1.4 0 0 .5.4.5 1.1s.5 2.3.4 3.6h.4c.1-.4.5-3.1.5-4.1 0-1.1-.2-4.8-2.2-5.7-1.9-.9-7.3-.7-8.5 1.5 0 0-1.1 1.3-1 3.2s.5 4.2.6 5.1z" fill="#465c6a"/><path d="m53 27.5c-.8-.4-2.1-.5-3.6-.5v5.7c1.3.2 2.7.2 3.9-.2 0 0 .5.4.5 1.1s.5 2.3.4 3.6h.4c.1-.4.5-3.1.5-4.1.1-1-.2-4.7-2.1-5.6z" fill="#3b4c56"/></g><g><g><g><path d="m56.9 31h4.5c-1-14.2-12.4-25.7-26.6-26.7v4.5c11.8 1.1 21.1 10.5 22.1 22.2z" fill="#d95239"/></g><g><path d="m56.9 31h2.1c-1-12.9-11.3-23.2-24.2-24.2v2.1c11.8 1 21.1 10.4 22.1 22.1z" fill="#e8664a"/></g></g><path d="m27.2 6.8 7.7 5.7v-11.5z" fill="#d95239"/><path d="m34.9 1-.1 5.8h-7.6z" fill="#e8664a"/></g><g><g><g><path d="m9.1 35h-4.6c1 14.3 12.4 25.7 26.7 26.7v-4.5c-11.8-1.1-21.1-10.5-22.1-22.2z" fill="#d95239"/></g><g><path d="m9.1 35h-2.1c1 12.9 11.3 23.3 24.2 24.3v-2.1c-11.8-1.1-21.1-10.5-22.1-22.2z" fill="#e8664a"/></g></g><path d="m38.8 59.2-7.7-5.7v11.5z" fill="#d95239"/><path d="m31.1 65 .1-5.8h7.6z" fill="#e8664a"/></g></g></svg>