<svg height="512" viewBox="0 0 48 48" width="512" xmlns="http://www.w3.org/2000/svg"><g id="_05-exchange" data-name="05-exchange"><path d="m1 2.782v6.436a1.782 1.782 0 0 0 1.782 1.782h16.218l5 6 1-6h4.218a1.782 1.782 0 0 0 1.782-1.782v-6.436a1.782 1.782 0 0 0 -1.782-1.782h-26.436a1.782 1.782 0 0 0 -1.782 1.782z" fill="#4eacf2"/><path d="m18.848 9h-13.066a1.782 1.782 0 0 1 -1.782-1.782v-6.218h-1.218a1.782 1.782 0 0 0 -1.782 1.782v6.436a1.782 1.782 0 0 0 1.782 1.782h16.218l5 6 .778-4.667-.76-.912a6.731 6.731 0 0 0 -5.17-2.421z" fill="#1366a5"/><path d="m47 28.782v6.436a1.782 1.782 0 0 1 -1.782 1.782h-16.218l-5 6-1-6h-4.218a1.782 1.782 0 0 1 -1.782-1.782v-6.436a1.782 1.782 0 0 1 1.782-1.782h26.436a1.782 1.782 0 0 1 1.782 1.782z" fill="#f9b938"/><path d="m22.842 35h-1.06a1.782 1.782 0 0 1 -1.782-1.782v-6.218h-1.218a1.782 1.782 0 0 0 -1.782 1.782v6.436a1.782 1.782 0 0 0 1.782 1.782h4.218l1 6 2.778-3.333-.259-1.552a3.728 3.728 0 0 0 -3.677-3.115z" fill="#f99c16"/><circle cx="40" cy="12" fill="#f4d3a4" r="3"/><path d="m15 45a17.768 17.768 0 0 1 -14 0 5.91 5.91 0 0 1 3.714-5.486l1.286-.514h4l1.286.514a5.91 5.91 0 0 1 3.714 5.486z" fill="#5cadea"/><circle cx="8" cy="36" fill="#ac9670" r="3"/><path d="m47 21a17.768 17.768 0 0 1 -14 0 5.91 5.91 0 0 1 3.714-5.486l1.286-.514h4l1.286.514a5.91 5.91 0 0 1 3.714 5.486z" fill="#e86a38"/><g fill="#fff"><path d="m11 5h2v2h-2z"/><path d="m15 5h2v2h-2z"/><path d="m19 5h2v2h-2z"/><path d="m27 31h2v2h-2z"/><path d="m31 31h2v2h-2z"/><path d="m35 31h2v2h-2z"/></g><path d="m24 48a24.164 24.164 0 0 1 -5.264-.579 1 1 0 0 1 -.729-1.237 1 1 0 0 1 1.2-.708 22.041 22.041 0 0 0 20.384-5.953 1 1 0 0 1 1.391-.049 1 1 0 0 1 .05 1.435 24.064 24.064 0 0 1 -17.032 7.091z" fill="#e86a38"/><path d="m36.92 6.192a22.091 22.091 0 0 0 -2.487-1.566 1 1 0 0 1 -.444-1.326 1 1 0 0 1 1.36-.456 24.209 24.209 0 0 1 2.778 1.756 1 1 0 0 1 .173 1.42 1 1 0 0 1 -1.38.172z" fill="#e86a38"/><path d="m2.851 32.99a1 1 0 0 1 -1.325-.551 24.089 24.089 0 0 1 .427-17.939 1 1 0 0 1 1.354-.488 1 1 0 0 1 .471 1.309 22.092 22.092 0 0 0 -.392 16.385 1 1 0 0 1 -.533 1.283z" fill="#e86a38"/></g></svg>