<?xml version="1.0" encoding="utf-8"?>
<!-- Generator: Adobe Illustrator 27.5.0, SVG Export Plug-In . SVG Version: 6.00 Build 0)  -->
<svg version="1.1" id="_x3C_Layer_x3E_" xmlns="http://www.w3.org/2000/svg" xmlns:xlink="http://www.w3.org/1999/xlink" x="0px"
	 y="0px" viewBox="0 0 4460.9 1360.9" style="enable-background:new 0 0 4460.9 1360.9;" xml:space="preserve">
<g>
	<defs>
		<rect id="SVGID_1_" x="0" y="0" width="4460.9" height="1360.9"/>
	</defs>
	<clipPath id="SVGID_00000181089010795112491440000008834465457180247462_">
		<use xlink:href="#SVGID_1_"  style="overflow:visible;"/>
	</clipPath>
	<g style="clip-path:url(#SVGID_00000181089010795112491440000008834465457180247462_);">
		<g>
			<polygon style="fill:#23789E;" points="85.786,85.056 0,0 0,170.112 			"/>
			<polygon style="fill:#2D89AD;" points="85.787,85.056 171.573,0 0,0 			"/>
			<polygon style="fill:#156693;" points="85.787,85.056 171.573,170.112 171.573,0 			"/>
			<polygon style="fill:#165E82;" points="85.786,85.056 0,170.112 171.573,170.112 			"/>
		</g>
		<g>
			<polygon style="fill:#23789E;" points="85.786,255.169 0,170.112 0,340.225 			"/>
			<polygon style="fill:#2D89AD;" points="85.787,255.169 171.573,170.112 0,170.112 			"/>
			<polygon style="fill:#156693;" points="85.787,255.169 171.573,340.225 171.573,170.113 			"/>
			<polygon style="fill:#165E82;" points="85.786,255.169 0,340.225 171.573,340.225 			"/>
		</g>
		<g>
			<polygon style="fill:#23789E;" points="85.786,425.281 0,340.225 0,510.337 			"/>
			<polygon style="fill:#2D89AD;" points="85.787,425.281 171.573,340.225 0,340.225 			"/>
			<polygon style="fill:#156693;" points="85.787,425.281 171.573,510.337 171.573,340.225 			"/>
			<polygon style="fill:#165E82;" points="85.786,425.281 0,510.337 171.573,510.337 			"/>
		</g>
		<g>
			<polygon style="fill:#23789E;" points="85.787,595.393 0,510.337 0,680.45 			"/>
			<polygon style="fill:#2D89AD;" points="85.787,595.393 171.573,510.337 0,510.337 			"/>
			<polygon style="fill:#156693;" points="85.787,595.393 171.573,680.45 171.573,510.337 			"/>
			<polygon style="fill:#165E82;" points="85.787,595.393 0,680.45 171.573,680.45 			"/>
		</g>
		<g>
			<polygon style="fill:#23789E;" points="85.787,765.506 0,680.45 0,850.562 			"/>
			<polygon style="fill:#2D89AD;" points="85.787,765.506 171.573,680.45 0,680.45 			"/>
			<polygon style="fill:#156693;" points="85.787,765.506 171.573,850.562 171.573,680.45 			"/>
			<polygon style="fill:#165E82;" points="85.787,765.506 0,850.562 171.573,850.562 			"/>
		</g>
		<g>
			<polygon style="fill:#23789E;" points="85.787,935.618 0,850.562 0,1020.674 			"/>
			<polygon style="fill:#2D89AD;" points="85.787,935.618 171.573,850.562 0,850.562 			"/>
			<polygon style="fill:#156693;" points="85.787,935.618 171.573,1020.675 171.573,850.562 			"/>
			<polygon style="fill:#165E82;" points="85.787,935.619 0,1020.675 171.573,1020.675 			"/>
		</g>
		<g>
			<polygon style="fill:#23789E;" points="85.787,1105.731 0,1020.674 0,1190.787 			"/>
			<polygon style="fill:#2D89AD;" points="85.787,1105.731 171.573,1020.674 0,1020.674 			"/>
			<polygon style="fill:#156693;" points="85.787,1105.731 171.573,1190.787 171.573,1020.675 			"/>
			<polygon style="fill:#165E82;" points="85.787,1105.731 0,1190.787 171.573,1190.787 			"/>
		</g>
		<g>
			<polygon style="fill:#23789E;" points="85.787,1275.843 0,1190.787 0,1360.899 			"/>
			<polygon style="fill:#2D89AD;" points="85.787,1275.843 171.573,1190.787 0,1190.787 			"/>
			<polygon style="fill:#156693;" points="85.787,1275.843 171.573,1360.899 171.573,1190.787 			"/>
			<polygon style="fill:#165E82;" points="85.787,1275.843 0,1360.899 171.573,1360.899 			"/>
		</g>
		<g>
			<polygon style="fill:#23789E;" points="257.359,85.056 171.573,0 171.573,170.112 			"/>
			<polygon style="fill:#2D89AD;" points="257.36,85.056 343.146,0 171.573,0 			"/>
			<polygon style="fill:#156693;" points="257.36,85.056 343.146,170.113 343.146,0 			"/>
			<polygon style="fill:#165E82;" points="257.359,85.056 171.573,170.113 343.146,170.113 			"/>
		</g>
		<g>
			<polygon style="fill:#23789E;" points="257.36,255.169 171.573,170.113 171.573,340.225 			"/>
			<polygon style="fill:#2D89AD;" points="257.36,255.169 343.146,170.113 171.573,170.113 			"/>
			<polygon style="fill:#156693;" points="257.36,255.169 343.146,340.225 343.146,170.113 			"/>
			<polygon style="fill:#165E82;" points="257.36,255.169 171.573,340.225 343.146,340.225 			"/>
		</g>
		<g>
			<polygon style="fill:#23789E;" points="257.36,425.281 171.573,340.225 171.573,510.337 			"/>
			<polygon style="fill:#2D89AD;" points="257.36,425.281 343.146,340.225 171.573,340.225 			"/>
			<polygon style="fill:#156693;" points="257.36,425.281 343.146,510.337 343.146,340.225 			"/>
			<polygon style="fill:#165E82;" points="257.36,425.281 171.573,510.337 343.146,510.337 			"/>
		</g>
		<g>
			<polygon style="fill:#23789E;" points="257.36,595.393 171.573,510.337 171.573,680.45 			"/>
			<polygon style="fill:#2D89AD;" points="257.36,595.393 343.146,510.337 171.573,510.337 			"/>
			<polygon style="fill:#156693;" points="257.36,595.394 343.146,680.45 343.146,510.337 			"/>
			<polygon style="fill:#165E82;" points="257.36,595.394 171.573,680.45 343.146,680.45 			"/>
		</g>
		<g>
			<polygon style="fill:#23789E;" points="257.36,765.506 171.573,680.45 171.573,850.562 			"/>
			<polygon style="fill:#2D89AD;" points="257.36,765.506 343.146,680.45 171.573,680.45 			"/>
			<polygon style="fill:#156693;" points="257.36,765.506 343.146,850.562 343.146,680.45 			"/>
			<polygon style="fill:#165E82;" points="257.36,765.506 171.573,850.562 343.146,850.562 			"/>
		</g>
		<g>
			<polygon style="fill:#23789E;" points="257.36,935.618 171.573,850.562 171.573,1020.675 			"/>
			<polygon style="fill:#2D89AD;" points="257.36,935.618 343.146,850.562 171.573,850.562 			"/>
			<polygon style="fill:#156693;" points="257.36,935.619 343.146,1020.675 343.146,850.562 			"/>
			<polygon style="fill:#165E82;" points="257.36,935.619 171.573,1020.675 343.146,1020.675 			"/>
		</g>
		<g>
			<polygon style="fill:#23789E;" points="257.36,1105.731 171.573,1020.675 171.573,1190.787 			"/>
			<polygon style="fill:#2D89AD;" points="257.36,1105.731 343.146,1020.675 171.573,1020.675 			"/>
			<polygon style="fill:#156693;" points="257.36,1105.731 343.146,1190.787 343.146,1020.675 			"/>
			<polygon style="fill:#165E82;" points="257.36,1105.731 171.573,1190.787 343.146,1190.787 			"/>
		</g>
		<g>
			<polygon style="fill:#23789E;" points="257.36,1275.843 171.573,1190.787 171.573,1360.899 			"/>
			<polygon style="fill:#2D89AD;" points="257.36,1275.843 343.146,1190.787 171.573,1190.787 			"/>
			<polygon style="fill:#156693;" points="257.36,1275.843 343.146,1360.899 343.146,1190.787 			"/>
			<polygon style="fill:#165E82;" points="257.36,1275.843 171.573,1360.899 343.146,1360.899 			"/>
		</g>
		<g>
			<polygon style="fill:#23789E;" points="428.933,85.056 343.146,0 343.146,170.112 			"/>
			<polygon style="fill:#2D89AD;" points="428.933,85.056 514.719,0 343.146,0 			"/>
			<polygon style="fill:#156693;" points="428.933,85.056 514.719,170.112 514.719,0 			"/>
			<polygon style="fill:#165E82;" points="428.933,85.056 343.146,170.112 514.719,170.112 			"/>
		</g>
		<g>
			<polygon style="fill:#23789E;" points="428.933,255.169 343.146,170.112 343.146,340.225 			"/>
			<polygon style="fill:#2D89AD;" points="428.933,255.169 514.719,170.112 343.146,170.112 			"/>
			<polygon style="fill:#156693;" points="428.933,255.169 514.719,340.225 514.719,170.113 			"/>
			<polygon style="fill:#165E82;" points="428.933,255.169 343.146,340.225 514.719,340.225 			"/>
		</g>
		<g>
			<polygon style="fill:#23789E;" points="428.933,425.281 343.146,340.225 343.146,510.337 			"/>
			<polygon style="fill:#2D89AD;" points="428.933,425.281 514.719,340.225 343.146,340.225 			"/>
			<polygon style="fill:#156693;" points="428.933,425.281 514.719,510.337 514.719,340.225 			"/>
			<polygon style="fill:#165E82;" points="428.933,425.281 343.146,510.337 514.719,510.337 			"/>
		</g>
		<g>
			<polygon style="fill:#23789E;" points="428.933,595.393 343.146,510.337 343.146,680.45 			"/>
			<polygon style="fill:#2D89AD;" points="428.933,595.393 514.719,510.337 343.146,510.337 			"/>
			<polygon style="fill:#156693;" points="428.933,595.393 514.719,680.45 514.719,510.337 			"/>
			<polygon style="fill:#165E82;" points="428.933,595.393 343.146,680.45 514.719,680.45 			"/>
		</g>
		<g>
			<polygon style="fill:#23789E;" points="428.933,765.506 343.146,680.45 343.146,850.562 			"/>
			<polygon style="fill:#2D89AD;" points="428.933,765.506 514.719,680.45 343.146,680.45 			"/>
			<polygon style="fill:#156693;" points="428.933,765.506 514.719,850.562 514.719,680.45 			"/>
			<polygon style="fill:#165E82;" points="428.933,765.506 343.146,850.562 514.719,850.562 			"/>
		</g>
		<g>
			<polygon style="fill:#23789E;" points="428.933,935.618 343.146,850.562 343.146,1020.674 			"/>
			<polygon style="fill:#2D89AD;" points="428.933,935.618 514.719,850.562 343.146,850.562 			"/>
			<polygon style="fill:#156693;" points="428.933,935.618 514.719,1020.675 514.719,850.562 			"/>
			<polygon style="fill:#165E82;" points="428.933,935.619 343.146,1020.675 514.719,1020.675 			"/>
		</g>
		<g>
			<polygon style="fill:#23789E;" points="428.933,1105.731 343.146,1020.674 343.146,1190.787 			"/>
			<polygon style="fill:#2D89AD;" points="428.933,1105.731 514.719,1020.674 343.146,1020.674 			"/>
			<polygon style="fill:#156693;" points="428.933,1105.731 514.719,1190.787 514.719,1020.675 			"/>
			<polygon style="fill:#165E82;" points="428.933,1105.731 343.146,1190.787 514.719,1190.787 			"/>
		</g>
		<g>
			<polygon style="fill:#23789E;" points="428.933,1275.843 343.146,1190.787 343.146,1360.899 			"/>
			<polygon style="fill:#2D89AD;" points="428.933,1275.843 514.719,1190.787 343.146,1190.787 			"/>
			<polygon style="fill:#156693;" points="428.933,1275.843 514.719,1360.899 514.719,1190.787 			"/>
			<polygon style="fill:#165E82;" points="428.933,1275.843 343.146,1360.899 514.719,1360.899 			"/>
		</g>
		<g>
			<polygon style="fill:#23789E;" points="600.506,85.056 514.719,0 514.719,170.112 			"/>
			<polygon style="fill:#2D89AD;" points="600.506,85.056 686.292,0 514.719,0 			"/>
			<polygon style="fill:#156693;" points="600.506,85.056 686.292,170.113 686.292,0 			"/>
			<polygon style="fill:#165E82;" points="600.506,85.056 514.719,170.113 686.292,170.113 			"/>
		</g>
		<g>
			<polygon style="fill:#23789E;" points="600.506,255.169 514.719,170.113 514.719,340.225 			"/>
			<polygon style="fill:#2D89AD;" points="600.506,255.169 686.292,170.113 514.719,170.113 			"/>
			<polygon style="fill:#156693;" points="600.506,255.169 686.292,340.225 686.292,170.113 			"/>
			<polygon style="fill:#165E82;" points="600.506,255.169 514.719,340.225 686.292,340.225 			"/>
		</g>
		<g>
			<polygon style="fill:#23789E;" points="600.506,425.281 514.719,340.225 514.719,510.337 			"/>
			<polygon style="fill:#2D89AD;" points="600.506,425.281 686.292,340.225 514.719,340.225 			"/>
			<polygon style="fill:#156693;" points="600.506,425.281 686.292,510.337 686.292,340.225 			"/>
			<polygon style="fill:#165E82;" points="600.506,425.281 514.719,510.337 686.292,510.337 			"/>
		</g>
		<g>
			<polygon style="fill:#23789E;" points="600.506,595.393 514.719,510.337 514.719,680.45 			"/>
			<polygon style="fill:#2D89AD;" points="600.506,595.393 686.292,510.337 514.719,510.337 			"/>
			<polygon style="fill:#156693;" points="600.506,595.394 686.292,680.45 686.292,510.337 			"/>
			<polygon style="fill:#165E82;" points="600.506,595.394 514.719,680.45 686.292,680.45 			"/>
		</g>
		<g>
			<polygon style="fill:#23789E;" points="600.506,765.506 514.719,680.45 514.719,850.562 			"/>
			<polygon style="fill:#2D89AD;" points="600.506,765.506 686.292,680.45 514.719,680.45 			"/>
			<polygon style="fill:#156693;" points="600.506,765.506 686.292,850.562 686.292,680.45 			"/>
			<polygon style="fill:#165E82;" points="600.506,765.506 514.719,850.562 686.292,850.562 			"/>
		</g>
		<g>
			<polygon style="fill:#23789E;" points="600.506,935.618 514.719,850.562 514.719,1020.675 			"/>
			<polygon style="fill:#2D89AD;" points="600.506,935.618 686.292,850.562 514.719,850.562 			"/>
			<polygon style="fill:#156693;" points="600.506,935.619 686.292,1020.675 686.292,850.562 			"/>
			<polygon style="fill:#165E82;" points="600.506,935.619 514.719,1020.675 686.292,1020.675 			"/>
		</g>
		<g>
			<polygon style="fill:#23789E;" points="600.506,1105.731 514.719,1020.675 514.719,1190.787 			"/>
			<polygon style="fill:#2D89AD;" points="600.506,1105.731 686.292,1020.675 514.719,1020.675 			"/>
			<polygon style="fill:#156693;" points="600.506,1105.731 686.292,1190.787 686.292,1020.675 			"/>
			<polygon style="fill:#165E82;" points="600.506,1105.731 514.719,1190.787 686.292,1190.787 			"/>
		</g>
		<g>
			<polygon style="fill:#23789E;" points="600.506,1275.843 514.719,1190.787 514.719,1360.899 			"/>
			<polygon style="fill:#2D89AD;" points="600.506,1275.843 686.292,1190.787 514.719,1190.787 			"/>
			<polygon style="fill:#156693;" points="600.506,1275.843 686.292,1360.899 686.292,1190.787 			"/>
			<polygon style="fill:#165E82;" points="600.506,1275.843 514.719,1360.899 686.292,1360.899 			"/>
		</g>
		<g>
			<polygon style="fill:#23789E;" points="772.079,85.056 686.292,0 686.292,170.113 			"/>
			<polygon style="fill:#2D89AD;" points="772.079,85.056 857.865,0 686.292,0 			"/>
			<polygon style="fill:#156693;" points="772.079,85.056 857.865,170.113 857.865,0 			"/>
			<polygon style="fill:#165E82;" points="772.079,85.057 686.292,170.113 857.865,170.113 			"/>
		</g>
		<g>
			<polygon style="fill:#23789E;" points="772.079,255.169 686.292,170.113 686.292,340.225 			"/>
			<polygon style="fill:#2D89AD;" points="772.079,255.169 857.865,170.113 686.292,170.113 			"/>
			<polygon style="fill:#156693;" points="772.079,255.169 857.865,340.225 857.865,170.113 			"/>
			<polygon style="fill:#165E82;" points="772.079,255.169 686.292,340.225 857.865,340.225 			"/>
		</g>
		<g>
			<polygon style="fill:#23789E;" points="772.079,425.281 686.292,340.225 686.292,510.337 			"/>
			<polygon style="fill:#2D89AD;" points="772.079,425.281 857.865,340.225 686.292,340.225 			"/>
			<polygon style="fill:#156693;" points="772.079,425.281 857.865,510.337 857.865,340.225 			"/>
			<polygon style="fill:#165E82;" points="772.079,425.281 686.292,510.337 857.865,510.337 			"/>
		</g>
		<g>
			<polygon style="fill:#23789E;" points="772.079,595.394 686.292,510.337 686.292,680.45 			"/>
			<polygon style="fill:#2D89AD;" points="772.079,595.393 857.865,510.337 686.292,510.337 			"/>
			<polygon style="fill:#156693;" points="772.079,595.394 857.865,680.45 857.865,510.337 			"/>
			<polygon style="fill:#165E82;" points="772.079,595.394 686.292,680.45 857.865,680.45 			"/>
		</g>
		<g>
			<polygon style="fill:#23789E;" points="772.079,765.506 686.292,680.45 686.292,850.562 			"/>
			<polygon style="fill:#2D89AD;" points="772.079,765.506 857.865,680.45 686.292,680.45 			"/>
			<polygon style="fill:#156693;" points="772.079,765.506 857.865,850.562 857.865,680.45 			"/>
			<polygon style="fill:#165E82;" points="772.079,765.506 686.292,850.562 857.865,850.562 			"/>
		</g>
		<g>
			<polygon style="fill:#23789E;" points="772.079,935.619 686.292,850.562 686.292,1020.675 			"/>
			<polygon style="fill:#2D89AD;" points="772.079,935.619 857.865,850.562 686.292,850.562 			"/>
			<polygon style="fill:#156693;" points="772.079,935.619 857.865,1020.675 857.865,850.562 			"/>
			<polygon style="fill:#165E82;" points="772.079,935.619 686.292,1020.675 857.865,1020.675 			"/>
		</g>
		<g>
			<polygon style="fill:#23789E;" points="772.079,1105.731 686.292,1020.675 686.292,1190.787 			"/>
			<polygon style="fill:#2D89AD;" points="772.079,1105.731 857.865,1020.675 686.292,1020.675 			"/>
			<polygon style="fill:#156693;" points="772.079,1105.731 857.865,1190.787 857.865,1020.675 			"/>
			<polygon style="fill:#165E82;" points="772.079,1105.731 686.292,1190.787 857.865,1190.787 			"/>
		</g>
		<g>
			<polygon style="fill:#23789E;" points="772.079,1275.843 686.292,1190.787 686.292,1360.899 			"/>
			<polygon style="fill:#2D89AD;" points="772.079,1275.843 857.865,1190.787 686.292,1190.787 			"/>
			<polygon style="fill:#156693;" points="772.079,1275.843 857.865,1360.9 857.865,1190.787 			"/>
			<polygon style="fill:#165E82;" points="772.079,1275.843 686.292,1360.9 857.865,1360.9 			"/>
		</g>
		<g>
			<polygon style="fill:#23789E;" points="943.652,85.056 857.865,0 857.865,170.113 			"/>
			<polygon style="fill:#2D89AD;" points="943.652,85.056 1029.438,0 857.865,0 			"/>
			<polygon style="fill:#156693;" points="943.652,85.057 1029.438,170.113 1029.438,0 			"/>
			<polygon style="fill:#165E82;" points="943.652,85.057 857.865,170.113 1029.438,170.113 			"/>
		</g>
		<g>
			<polygon style="fill:#23789E;" points="943.652,255.169 857.865,170.113 857.865,340.225 			"/>
			<polygon style="fill:#2D89AD;" points="943.652,255.169 1029.438,170.113 857.865,170.113 			"/>
			<polygon style="fill:#156693;" points="943.652,255.169 1029.438,340.225 1029.438,170.113 			"/>
			<polygon style="fill:#165E82;" points="943.652,255.169 857.865,340.225 1029.438,340.225 			"/>
		</g>
		<g>
			<polygon style="fill:#23789E;" points="943.652,425.281 857.865,340.225 857.865,510.337 			"/>
			<polygon style="fill:#2D89AD;" points="943.652,425.281 1029.438,340.225 857.865,340.225 			"/>
			<polygon style="fill:#156693;" points="943.652,425.281 1029.438,510.337 1029.438,340.225 			"/>
			<polygon style="fill:#165E82;" points="943.652,425.281 857.865,510.337 1029.438,510.337 			"/>
		</g>
		<g>
			<polygon style="fill:#23789E;" points="943.652,595.394 857.865,510.337 857.865,680.45 			"/>
			<polygon style="fill:#2D89AD;" points="943.652,595.394 1029.438,510.337 857.865,510.337 			"/>
			<polygon style="fill:#156693;" points="943.652,595.394 1029.438,680.45 1029.438,510.338 			"/>
			<polygon style="fill:#165E82;" points="943.652,595.394 857.865,680.45 1029.438,680.45 			"/>
		</g>
		<g>
			<polygon style="fill:#23789E;" points="943.652,765.506 857.865,680.45 857.865,850.562 			"/>
			<polygon style="fill:#2D89AD;" points="943.652,765.506 1029.438,680.45 857.865,680.45 			"/>
			<polygon style="fill:#156693;" points="943.652,765.506 1029.438,850.562 1029.438,680.45 			"/>
			<polygon style="fill:#165E82;" points="943.652,765.506 857.865,850.562 1029.438,850.562 			"/>
		</g>
		<g>
			<polygon style="fill:#23789E;" points="943.652,935.619 857.865,850.562 857.865,1020.675 			"/>
			<polygon style="fill:#2D89AD;" points="943.652,935.619 1029.438,850.562 857.865,850.562 			"/>
			<polygon style="fill:#156693;" points="943.652,935.619 1029.438,1020.675 1029.438,850.563 			"/>
			<polygon style="fill:#165E82;" points="943.652,935.619 857.865,1020.675 1029.438,1020.675 			"/>
		</g>
		<g>
			<polygon style="fill:#23789E;" points="943.652,1105.731 857.865,1020.675 857.865,1190.787 			"/>
			<polygon style="fill:#2D89AD;" points="943.652,1105.731 1029.438,1020.675 857.865,1020.675 			"/>
			<polygon style="fill:#156693;" points="943.652,1105.731 1029.438,1190.787 1029.438,1020.675 			"/>
			<polygon style="fill:#165E82;" points="943.652,1105.731 857.865,1190.787 1029.438,1190.787 			"/>
		</g>
		<g>
			<polygon style="fill:#23789E;" points="943.652,1275.843 857.865,1190.787 857.865,1360.9 			"/>
			<polygon style="fill:#2D89AD;" points="943.652,1275.843 1029.438,1190.787 857.865,1190.787 			"/>
			<polygon style="fill:#156693;" points="943.652,1275.843 1029.438,1360.9 1029.438,1190.787 			"/>
			<polygon style="fill:#165E82;" points="943.652,1275.844 857.865,1360.9 1029.438,1360.9 			"/>
		</g>
		<g>
			<polygon style="fill:#23789E;" points="1115.225,85.056 1029.438,0 1029.438,170.113 			"/>
			<polygon style="fill:#2D89AD;" points="1115.225,85.056 1201.011,0 1029.438,0 			"/>
			<polygon style="fill:#156693;" points="1115.225,85.056 1201.011,170.113 1201.011,0 			"/>
			<polygon style="fill:#165E82;" points="1115.225,85.057 1029.438,170.113 1201.011,170.113 			"/>
		</g>
		<g>
			<polygon style="fill:#23789E;" points="1115.225,255.169 1029.438,170.113 1029.438,340.225 			"/>
			<polygon style="fill:#2D89AD;" points="1115.225,255.169 1201.011,170.113 1029.438,170.113 			"/>
			<polygon style="fill:#156693;" points="1115.225,255.169 1201.011,340.225 1201.011,170.113 			"/>
			<polygon style="fill:#165E82;" points="1115.225,255.169 1029.438,340.225 1201.011,340.225 			"/>
		</g>
		<g>
			<polygon style="fill:#23789E;" points="1115.225,425.281 1029.438,340.225 1029.438,510.337 			"/>
			<polygon style="fill:#2D89AD;" points="1115.225,425.281 1201.011,340.225 1029.438,340.225 			"/>
			<polygon style="fill:#156693;" points="1115.225,425.281 1201.011,510.337 1201.011,340.225 			"/>
			<polygon style="fill:#165E82;" points="1115.225,425.281 1029.438,510.337 1201.011,510.337 			"/>
		</g>
		<g>
			<polygon style="fill:#23789E;" points="1115.225,595.394 1029.438,510.337 1029.438,680.45 			"/>
			<polygon style="fill:#2D89AD;" points="1115.225,595.393 1201.011,510.337 1029.438,510.337 			"/>
			<polygon style="fill:#156693;" points="1115.225,595.394 1201.011,680.45 1201.011,510.337 			"/>
			<polygon style="fill:#165E82;" points="1115.225,595.394 1029.438,680.45 1201.011,680.45 			"/>
		</g>
		<g>
			<polygon style="fill:#23789E;" points="1115.225,765.506 1029.438,680.45 1029.438,850.562 			"/>
			<polygon style="fill:#2D89AD;" points="1115.225,765.506 1201.011,680.45 1029.438,680.45 			"/>
			<polygon style="fill:#156693;" points="1115.225,765.506 1201.011,850.562 1201.011,680.45 			"/>
			<polygon style="fill:#165E82;" points="1115.225,765.506 1029.438,850.562 1201.011,850.562 			"/>
		</g>
		<g>
			<polygon style="fill:#23789E;" points="1115.225,935.619 1029.438,850.562 1029.438,1020.675 			"/>
			<polygon style="fill:#2D89AD;" points="1115.225,935.619 1201.011,850.562 1029.438,850.562 			"/>
			<polygon style="fill:#156693;" points="1115.225,935.619 1201.011,1020.675 1201.011,850.562 			"/>
			<polygon style="fill:#165E82;" points="1115.225,935.619 1029.438,1020.675 1201.011,1020.675 			"/>
		</g>
		<g>
			<polygon style="fill:#23789E;" points="1115.225,1105.731 1029.438,1020.675 1029.438,1190.787 			"/>
			<polygon style="fill:#2D89AD;" points="1115.225,1105.731 1201.011,1020.675 1029.439,1020.675 			"/>
			<polygon style="fill:#156693;" points="1115.225,1105.731 1201.011,1190.787 1201.011,1020.675 			"/>
			<polygon style="fill:#165E82;" points="1115.225,1105.731 1029.438,1190.787 1201.011,1190.787 			"/>
		</g>
		<g>
			<polygon style="fill:#23789E;" points="1115.225,1275.843 1029.438,1190.787 1029.438,1360.899 			"/>
			<polygon style="fill:#2D89AD;" points="1115.225,1275.843 1201.012,1190.787 1029.439,1190.787 			"/>
			<polygon style="fill:#156693;" points="1115.225,1275.843 1201.011,1360.9 1201.011,1190.787 			"/>
			<polygon style="fill:#165E82;" points="1115.225,1275.843 1029.438,1360.9 1201.011,1360.9 			"/>
		</g>
		<g>
			<polygon style="fill:#23789E;" points="1286.798,85.056 1201.011,0 1201.011,170.113 			"/>
			<polygon style="fill:#2D89AD;" points="1286.798,85.056 1372.584,0 1201.011,0 			"/>
			<polygon style="fill:#156693;" points="1286.798,85.057 1372.584,170.113 1372.584,0 			"/>
			<polygon style="fill:#165E82;" points="1286.798,85.057 1201.011,170.113 1372.584,170.113 			"/>
		</g>
		<g>
			<polygon style="fill:#23789E;" points="1286.798,255.169 1201.011,170.113 1201.011,340.225 			"/>
			<polygon style="fill:#2D89AD;" points="1286.798,255.169 1372.584,170.113 1201.011,170.113 			"/>
			<polygon style="fill:#156693;" points="1286.798,255.169 1372.584,340.225 1372.584,170.113 			"/>
			<polygon style="fill:#165E82;" points="1286.798,255.169 1201.011,340.225 1372.584,340.225 			"/>
		</g>
		<g>
			<polygon style="fill:#23789E;" points="1286.798,425.281 1201.011,340.225 1201.011,510.337 			"/>
			<polygon style="fill:#2D89AD;" points="1286.798,425.281 1372.584,340.225 1201.011,340.225 			"/>
			<polygon style="fill:#156693;" points="1286.798,425.281 1372.584,510.337 1372.584,340.225 			"/>
			<polygon style="fill:#165E82;" points="1286.798,425.281 1201.011,510.337 1372.584,510.337 			"/>
		</g>
		<g>
			<polygon style="fill:#23789E;" points="1286.798,595.394 1201.011,510.337 1201.011,680.45 			"/>
			<polygon style="fill:#2D89AD;" points="1286.798,595.394 1372.584,510.337 1201.011,510.337 			"/>
			<polygon style="fill:#156693;" points="1286.798,595.394 1372.584,680.45 1372.584,510.338 			"/>
			<polygon style="fill:#165E82;" points="1286.798,595.394 1201.011,680.45 1372.584,680.45 			"/>
		</g>
		<g>
			<polygon style="fill:#23789E;" points="1286.798,765.506 1201.011,680.45 1201.011,850.562 			"/>
			<polygon style="fill:#2D89AD;" points="1286.798,765.506 1372.584,680.45 1201.011,680.45 			"/>
			<polygon style="fill:#156693;" points="1286.798,765.506 1372.584,850.562 1372.584,680.45 			"/>
			<polygon style="fill:#165E82;" points="1286.798,765.506 1201.011,850.562 1372.584,850.562 			"/>
		</g>
		<g>
			<polygon style="fill:#23789E;" points="1286.798,935.619 1201.011,850.562 1201.011,1020.675 			"/>
			<polygon style="fill:#2D89AD;" points="1286.798,935.619 1372.585,850.562 1201.012,850.562 			"/>
			<polygon style="fill:#156693;" points="1286.798,935.619 1372.584,1020.675 1372.584,850.563 			"/>
			<polygon style="fill:#165E82;" points="1286.798,935.619 1201.011,1020.675 1372.584,1020.675 			"/>
		</g>
		<g>
			<polygon style="fill:#23789E;" points="1286.798,1105.731 1201.011,1020.675 1201.011,1190.787 			"/>
			<polygon style="fill:#2D89AD;" points="1286.798,1105.731 1372.585,1020.675 1201.012,1020.675 			"/>
			<polygon style="fill:#156693;" points="1286.798,1105.731 1372.585,1190.787 1372.585,1020.675 			"/>
			<polygon style="fill:#165E82;" points="1286.798,1105.731 1201.011,1190.787 1372.584,1190.787 			"/>
		</g>
		<g>
			<polygon style="fill:#23789E;" points="1286.798,1275.843 1201.012,1190.787 1201.012,1360.9 			"/>
			<polygon style="fill:#2D89AD;" points="1286.798,1275.843 1372.585,1190.787 1201.012,1190.787 			"/>
			<polygon style="fill:#156693;" points="1286.798,1275.843 1372.585,1360.9 1372.585,1190.787 			"/>
			<polygon style="fill:#165E82;" points="1286.798,1275.844 1201.011,1360.9 1372.584,1360.9 			"/>
		</g>
		<g>
			<polygon style="fill:#23789E;" points="1458.371,85.057 1372.585,0 1372.585,170.113 			"/>
			<polygon style="fill:#2D89AD;" points="1458.371,85.057 1544.158,0 1372.585,0 			"/>
			<polygon style="fill:#156693;" points="1458.371,85.057 1544.158,170.113 1544.158,0 			"/>
			<polygon style="fill:#165E82;" points="1458.371,85.057 1372.585,170.113 1544.158,170.113 			"/>
		</g>
		<g>
			<polygon style="fill:#23789E;" points="1458.371,255.169 1372.585,170.113 1372.585,340.225 			"/>
			<polygon style="fill:#2D89AD;" points="1458.371,255.169 1544.158,170.113 1372.585,170.113 			"/>
			<polygon style="fill:#156693;" points="1458.371,255.169 1544.158,340.225 1544.158,170.113 			"/>
			<polygon style="fill:#165E82;" points="1458.371,255.169 1372.585,340.225 1544.158,340.225 			"/>
		</g>
		<g>
			<polygon style="fill:#23789E;" points="1458.371,425.281 1372.585,340.225 1372.585,510.337 			"/>
			<polygon style="fill:#2D89AD;" points="1458.371,425.281 1544.158,340.225 1372.585,340.225 			"/>
			<polygon style="fill:#156693;" points="1458.371,425.281 1544.158,510.338 1544.158,340.225 			"/>
			<polygon style="fill:#165E82;" points="1458.371,425.281 1372.585,510.338 1544.158,510.338 			"/>
		</g>
		<g>
			<polygon style="fill:#23789E;" points="1458.371,595.394 1372.585,510.338 1372.585,680.45 			"/>
			<polygon style="fill:#2D89AD;" points="1458.371,595.394 1544.158,510.338 1372.585,510.338 			"/>
			<polygon style="fill:#156693;" points="1458.371,595.394 1544.158,680.45 1544.158,510.338 			"/>
			<polygon style="fill:#165E82;" points="1458.371,595.394 1372.585,680.45 1544.158,680.45 			"/>
		</g>
		<g>
			<polygon style="fill:#23789E;" points="1458.371,765.506 1372.585,680.45 1372.585,850.562 			"/>
			<polygon style="fill:#2D89AD;" points="1458.371,765.506 1544.158,680.45 1372.585,680.45 			"/>
			<polygon style="fill:#156693;" points="1458.371,765.506 1544.158,850.563 1544.158,680.45 			"/>
			<polygon style="fill:#165E82;" points="1458.371,765.506 1372.585,850.563 1544.158,850.563 			"/>
		</g>
		<g>
			<polygon style="fill:#23789E;" points="1458.371,935.619 1372.585,850.563 1372.585,1020.675 			"/>
			<polygon style="fill:#2D89AD;" points="1458.371,935.619 1544.158,850.563 1372.585,850.563 			"/>
			<polygon style="fill:#156693;" points="1458.371,935.619 1544.158,1020.675 1544.158,850.563 			"/>
			<polygon style="fill:#165E82;" points="1458.371,935.619 1372.585,1020.675 1544.158,1020.675 			"/>
		</g>
		<g>
			<polygon style="fill:#23789E;" points="1458.371,1105.731 1372.585,1020.675 1372.585,1190.787 			"/>
			<polygon style="fill:#2D89AD;" points="1458.371,1105.731 1544.158,1020.675 1372.585,1020.675 			"/>
			<polygon style="fill:#156693;" points="1458.371,1105.731 1544.158,1190.787 1544.158,1020.675 			"/>
			<polygon style="fill:#165E82;" points="1458.371,1105.731 1372.585,1190.787 1544.158,1190.787 			"/>
		</g>
		<g>
			<polygon style="fill:#23789E;" points="1458.371,1275.843 1372.585,1190.787 1372.585,1360.9 			"/>
			<polygon style="fill:#2D89AD;" points="1458.371,1275.843 1544.158,1190.787 1372.585,1190.787 			"/>
			<polygon style="fill:#156693;" points="1458.371,1275.844 1544.158,1360.9 1544.158,1190.787 			"/>
			<polygon style="fill:#165E82;" points="1458.371,1275.844 1372.585,1360.9 1544.158,1360.9 			"/>
		</g>
		<g>
			<polygon style="fill:#23789E;" points="1629.944,85.057 1544.158,0 1544.158,170.113 			"/>
			<polygon style="fill:#2D89AD;" points="1629.944,85.057 1715.731,0 1544.158,0 			"/>
			<polygon style="fill:#156693;" points="1629.944,85.057 1715.731,170.113 1715.731,0.001 			"/>
			<polygon style="fill:#165E82;" points="1629.944,85.057 1544.158,170.113 1715.731,170.113 			"/>
		</g>
		<g>
			<polygon style="fill:#23789E;" points="1629.944,255.169 1544.158,170.113 1544.158,340.225 			"/>
			<polygon style="fill:#2D89AD;" points="1629.944,255.169 1715.731,170.113 1544.158,170.113 			"/>
			<polygon style="fill:#156693;" points="1629.944,255.169 1715.731,340.225 1715.731,170.113 			"/>
			<polygon style="fill:#165E82;" points="1629.944,255.169 1544.158,340.225 1715.731,340.225 			"/>
		</g>
		<g>
			<polygon style="fill:#23789E;" points="1629.944,425.281 1544.158,340.225 1544.158,510.338 			"/>
			<polygon style="fill:#2D89AD;" points="1629.944,425.281 1715.731,340.225 1544.158,340.225 			"/>
			<polygon style="fill:#156693;" points="1629.944,425.281 1715.731,510.338 1715.731,340.225 			"/>
			<polygon style="fill:#165E82;" points="1629.944,425.281 1544.158,510.338 1715.731,510.338 			"/>
		</g>
		<g>
			<polygon style="fill:#23789E;" points="1629.944,595.394 1544.158,510.338 1544.158,680.45 			"/>
			<polygon style="fill:#2D89AD;" points="1629.944,595.394 1715.731,510.338 1544.158,510.338 			"/>
			<polygon style="fill:#156693;" points="1629.944,595.394 1715.731,680.45 1715.731,510.338 			"/>
			<polygon style="fill:#165E82;" points="1629.944,595.394 1544.158,680.45 1715.731,680.45 			"/>
		</g>
		<g>
			<polygon style="fill:#23789E;" points="1629.944,765.506 1544.158,680.45 1544.158,850.563 			"/>
			<polygon style="fill:#2D89AD;" points="1629.944,765.506 1715.731,680.45 1544.158,680.45 			"/>
			<polygon style="fill:#156693;" points="1629.944,765.506 1715.731,850.563 1715.731,680.45 			"/>
			<polygon style="fill:#165E82;" points="1629.944,765.506 1544.158,850.563 1715.731,850.563 			"/>
		</g>
		<g>
			<polygon style="fill:#23789E;" points="1629.944,935.619 1544.158,850.563 1544.158,1020.675 			"/>
			<polygon style="fill:#2D89AD;" points="1629.944,935.619 1715.731,850.563 1544.158,850.563 			"/>
			<polygon style="fill:#156693;" points="1629.944,935.619 1715.731,1020.675 1715.731,850.563 			"/>
			<polygon style="fill:#165E82;" points="1629.944,935.619 1544.158,1020.675 1715.731,1020.675 			"/>
		</g>
		<g>
			<polygon style="fill:#23789E;" points="1629.944,1105.731 1544.158,1020.675 1544.158,1190.787 			"/>
			<polygon style="fill:#2D89AD;" points="1629.944,1105.731 1715.731,1020.675 1544.158,1020.675 			"/>
			<polygon style="fill:#156693;" points="1629.944,1105.731 1715.731,1190.787 1715.731,1020.675 			"/>
			<polygon style="fill:#165E82;" points="1629.944,1105.731 1544.158,1190.787 1715.731,1190.787 			"/>
		</g>
		<g>
			<polygon style="fill:#23789E;" points="1629.944,1275.844 1544.158,1190.787 1544.158,1360.9 			"/>
			<polygon style="fill:#2D89AD;" points="1629.944,1275.844 1715.731,1190.787 1544.158,1190.787 			"/>
			<polygon style="fill:#156693;" points="1629.944,1275.844 1715.731,1360.9 1715.731,1190.787 			"/>
			<polygon style="fill:#165E82;" points="1629.944,1275.844 1544.158,1360.9 1715.731,1360.9 			"/>
		</g>
		<g>
			<polygon style="fill:#23789E;" points="1801.517,85.057 1715.731,0 1715.731,170.113 			"/>
			<polygon style="fill:#2D89AD;" points="1801.517,85.057 1887.304,0 1715.731,0 			"/>
			<polygon style="fill:#156693;" points="1801.517,85.057 1887.304,170.113 1887.304,0 			"/>
			<polygon style="fill:#165E82;" points="1801.517,85.057 1715.731,170.113 1887.304,170.113 			"/>
		</g>
		<g>
			<polygon style="fill:#23789E;" points="1801.517,255.169 1715.731,170.113 1715.731,340.225 			"/>
			<polygon style="fill:#2D89AD;" points="1801.517,255.169 1887.304,170.113 1715.731,170.113 			"/>
			<polygon style="fill:#156693;" points="1801.517,255.169 1887.304,340.225 1887.304,170.113 			"/>
			<polygon style="fill:#165E82;" points="1801.517,255.169 1715.731,340.225 1887.304,340.225 			"/>
		</g>
		<g>
			<polygon style="fill:#23789E;" points="1801.517,425.281 1715.731,340.225 1715.731,510.337 			"/>
			<polygon style="fill:#2D89AD;" points="1801.517,425.281 1887.304,340.225 1715.731,340.225 			"/>
			<polygon style="fill:#156693;" points="1801.517,425.281 1887.304,510.338 1887.304,340.225 			"/>
			<polygon style="fill:#165E82;" points="1801.517,425.281 1715.731,510.338 1887.304,510.338 			"/>
		</g>
		<g>
			<polygon style="fill:#23789E;" points="1801.517,595.394 1715.731,510.338 1715.731,680.45 			"/>
			<polygon style="fill:#2D89AD;" points="1801.517,595.394 1887.304,510.338 1715.731,510.338 			"/>
			<polygon style="fill:#156693;" points="1801.517,595.394 1887.304,680.45 1887.304,510.338 			"/>
			<polygon style="fill:#165E82;" points="1801.517,595.394 1715.731,680.45 1887.304,680.45 			"/>
		</g>
		<g>
			<polygon style="fill:#23789E;" points="1801.517,765.506 1715.731,680.45 1715.731,850.562 			"/>
			<polygon style="fill:#2D89AD;" points="1801.517,765.506 1887.304,680.45 1715.731,680.45 			"/>
			<polygon style="fill:#156693;" points="1801.517,765.506 1887.304,850.563 1887.304,680.45 			"/>
			<polygon style="fill:#165E82;" points="1801.517,765.506 1715.731,850.563 1887.304,850.563 			"/>
		</g>
		<g>
			<polygon style="fill:#23789E;" points="1801.517,935.619 1715.731,850.563 1715.731,1020.675 			"/>
			<polygon style="fill:#2D89AD;" points="1801.517,935.619 1887.304,850.563 1715.731,850.563 			"/>
			<polygon style="fill:#156693;" points="1801.517,935.619 1887.304,1020.675 1887.304,850.563 			"/>
			<polygon style="fill:#165E82;" points="1801.517,935.619 1715.731,1020.675 1887.304,1020.675 			"/>
		</g>
		<g>
			<polygon style="fill:#23789E;" points="1801.517,1105.731 1715.731,1020.675 1715.731,1190.787 			"/>
			<polygon style="fill:#2D89AD;" points="1801.517,1105.731 1887.304,1020.675 1715.731,1020.675 			"/>
			<polygon style="fill:#156693;" points="1801.517,1105.731 1887.304,1190.787 1887.304,1020.675 			"/>
			<polygon style="fill:#165E82;" points="1801.517,1105.731 1715.731,1190.787 1887.304,1190.787 			"/>
		</g>
		<g>
			<polygon style="fill:#23789E;" points="1801.517,1275.843 1715.731,1190.787 1715.731,1360.9 			"/>
			<polygon style="fill:#2D89AD;" points="1801.517,1275.843 1887.304,1190.787 1715.731,1190.787 			"/>
			<polygon style="fill:#156693;" points="1801.517,1275.844 1887.304,1360.9 1887.304,1190.787 			"/>
			<polygon style="fill:#165E82;" points="1801.517,1275.844 1715.731,1360.9 1887.304,1360.9 			"/>
		</g>
		<g>
			<polygon style="fill:#23789E;" points="1973.09,85.057 1887.304,0 1887.304,170.113 			"/>
			<polygon style="fill:#2D89AD;" points="1973.09,85.057 2058.877,0 1887.304,0 			"/>
			<polygon style="fill:#156693;" points="1973.09,85.057 2058.877,170.113 2058.877,0.001 			"/>
			<polygon style="fill:#165E82;" points="1973.09,85.057 1887.304,170.113 2058.877,170.113 			"/>
		</g>
		<g>
			<polygon style="fill:#23789E;" points="1973.09,255.169 1887.304,170.113 1887.304,340.225 			"/>
			<polygon style="fill:#2D89AD;" points="1973.09,255.169 2058.877,170.113 1887.304,170.113 			"/>
			<polygon style="fill:#156693;" points="1973.09,255.169 2058.877,340.225 2058.877,170.113 			"/>
			<polygon style="fill:#165E82;" points="1973.09,255.169 1887.304,340.225 2058.877,340.225 			"/>
		</g>
		<g>
			<polygon style="fill:#23789E;" points="1973.09,425.281 1887.304,340.225 1887.304,510.338 			"/>
			<polygon style="fill:#2D89AD;" points="1973.09,425.281 2058.877,340.225 1887.304,340.225 			"/>
			<polygon style="fill:#156693;" points="1973.09,425.281 2058.877,510.338 2058.877,340.225 			"/>
			<polygon style="fill:#165E82;" points="1973.09,425.281 1887.304,510.338 2058.877,510.338 			"/>
		</g>
		<g>
			<polygon style="fill:#23789E;" points="1973.09,595.394 1887.304,510.338 1887.304,680.45 			"/>
			<polygon style="fill:#2D89AD;" points="1973.09,595.394 2058.877,510.338 1887.304,510.338 			"/>
			<polygon style="fill:#156693;" points="1973.09,595.394 2058.877,680.45 2058.877,510.338 			"/>
			<polygon style="fill:#165E82;" points="1973.09,595.394 1887.304,680.45 2058.877,680.45 			"/>
		</g>
		<g>
			<polygon style="fill:#23789E;" points="1973.09,765.506 1887.304,680.45 1887.304,850.563 			"/>
			<polygon style="fill:#2D89AD;" points="1973.09,765.506 2058.877,680.45 1887.304,680.45 			"/>
			<polygon style="fill:#156693;" points="1973.09,765.506 2058.877,850.563 2058.877,680.45 			"/>
			<polygon style="fill:#165E82;" points="1973.09,765.506 1887.304,850.563 2058.877,850.563 			"/>
		</g>
		<g>
			<polygon style="fill:#23789E;" points="1973.09,935.619 1887.304,850.563 1887.304,1020.675 			"/>
			<polygon style="fill:#2D89AD;" points="1973.09,935.619 2058.877,850.563 1887.304,850.563 			"/>
			<polygon style="fill:#156693;" points="1973.09,935.619 2058.877,1020.675 2058.877,850.563 			"/>
			<polygon style="fill:#165E82;" points="1973.09,935.619 1887.304,1020.675 2058.877,1020.675 			"/>
		</g>
		<g>
			<polygon style="fill:#23789E;" points="1973.09,1105.731 1887.304,1020.675 1887.304,1190.787 			"/>
			<polygon style="fill:#2D89AD;" points="1973.09,1105.731 2058.877,1020.675 1887.304,1020.675 			"/>
			<polygon style="fill:#156693;" points="1973.09,1105.731 2058.877,1190.787 2058.877,1020.675 			"/>
			<polygon style="fill:#165E82;" points="1973.09,1105.731 1887.304,1190.787 2058.877,1190.787 			"/>
		</g>
		<g>
			<polygon style="fill:#23789E;" points="1973.09,1275.844 1887.304,1190.787 1887.304,1360.9 			"/>
			<polygon style="fill:#2D89AD;" points="1973.09,1275.844 2058.877,1190.787 1887.304,1190.787 			"/>
			<polygon style="fill:#156693;" points="1973.09,1275.844 2058.877,1360.9 2058.877,1190.787 			"/>
			<polygon style="fill:#165E82;" points="1973.09,1275.844 1887.304,1360.9 2058.877,1360.9 			"/>
		</g>
		<g>
			<polygon style="fill:#23789E;" points="2144.663,85.057 2058.877,0.001 2058.877,170.113 			"/>
			<polygon style="fill:#2D89AD;" points="2144.663,85.057 2230.45,0.001 2058.877,0.001 			"/>
			<polygon style="fill:#156693;" points="2144.663,85.057 2230.45,170.113 2230.45,0.001 			"/>
			<polygon style="fill:#165E82;" points="2144.663,85.057 2058.877,170.113 2230.45,170.113 			"/>
		</g>
		<g>
			<polygon style="fill:#23789E;" points="2144.663,255.169 2058.877,170.113 2058.877,340.225 			"/>
			<polygon style="fill:#2D89AD;" points="2144.663,255.169 2230.45,170.113 2058.877,170.113 			"/>
			<polygon style="fill:#156693;" points="2144.663,255.169 2230.45,340.225 2230.45,170.113 			"/>
			<polygon style="fill:#165E82;" points="2144.663,255.169 2058.877,340.225 2230.45,340.225 			"/>
		</g>
		<g>
			<polygon style="fill:#23789E;" points="2144.663,425.281 2058.877,340.225 2058.877,510.338 			"/>
			<polygon style="fill:#2D89AD;" points="2144.663,425.281 2230.45,340.225 2058.877,340.225 			"/>
			<polygon style="fill:#156693;" points="2144.663,425.282 2230.45,510.338 2230.45,340.225 			"/>
			<polygon style="fill:#165E82;" points="2144.663,425.282 2058.877,510.338 2230.45,510.338 			"/>
		</g>
		<g>
			<polygon style="fill:#23789E;" points="2144.663,595.394 2058.877,510.338 2058.877,680.45 			"/>
			<polygon style="fill:#2D89AD;" points="2144.664,595.394 2230.45,510.338 2058.877,510.338 			"/>
			<polygon style="fill:#156693;" points="2144.664,595.394 2230.45,680.45 2230.45,510.338 			"/>
			<polygon style="fill:#165E82;" points="2144.663,595.394 2058.877,680.45 2230.45,680.45 			"/>
		</g>
		<g>
			<polygon style="fill:#23789E;" points="2144.663,765.506 2058.877,680.45 2058.877,850.563 			"/>
			<polygon style="fill:#2D89AD;" points="2144.664,765.506 2230.45,680.45 2058.877,680.45 			"/>
			<polygon style="fill:#156693;" points="2144.664,765.506 2230.45,850.563 2230.45,680.45 			"/>
			<polygon style="fill:#165E82;" points="2144.663,765.507 2058.877,850.563 2230.45,850.563 			"/>
		</g>
		<g>
			<polygon style="fill:#23789E;" points="2144.663,935.619 2058.877,850.563 2058.877,1020.675 			"/>
			<polygon style="fill:#2D89AD;" points="2144.664,935.619 2230.45,850.563 2058.877,850.563 			"/>
			<polygon style="fill:#156693;" points="2144.664,935.619 2230.45,1020.675 2230.45,850.563 			"/>
			<polygon style="fill:#165E82;" points="2144.663,935.619 2058.877,1020.675 2230.45,1020.675 			"/>
		</g>
		<g>
			<polygon style="fill:#23789E;" points="2144.664,1105.731 2058.877,1020.675 2058.877,1190.787 			"/>
			<polygon style="fill:#2D89AD;" points="2144.664,1105.731 2230.45,1020.675 2058.877,1020.675 			"/>
			<polygon style="fill:#156693;" points="2144.664,1105.731 2230.45,1190.787 2230.45,1020.675 			"/>
			<polygon style="fill:#165E82;" points="2144.664,1105.731 2058.877,1190.787 2230.45,1190.787 			"/>
		</g>
		<g>
			<polygon style="fill:#23789E;" points="2144.664,1275.844 2058.877,1190.787 2058.877,1360.9 			"/>
			<polygon style="fill:#2D89AD;" points="2144.664,1275.844 2230.45,1190.787 2058.877,1190.787 			"/>
			<polygon style="fill:#156693;" points="2144.664,1275.844 2230.45,1360.9 2230.45,1190.788 			"/>
			<polygon style="fill:#165E82;" points="2144.664,1275.844 2058.877,1360.9 2230.45,1360.9 			"/>
		</g>
		<g>
			<polygon style="fill:#23789E;" points="2316.236,85.057 2230.45,0.001 2230.45,170.113 			"/>
			<polygon style="fill:#2D89AD;" points="2316.236,85.057 2402.023,0.001 2230.45,0.001 			"/>
			<polygon style="fill:#156693;" points="2316.236,85.057 2402.023,170.113 2402.023,0.001 			"/>
			<polygon style="fill:#165E82;" points="2316.236,85.057 2230.45,170.113 2402.023,170.113 			"/>
		</g>
		<g>
			<polygon style="fill:#23789E;" points="2316.236,255.169 2230.45,170.113 2230.45,340.225 			"/>
			<polygon style="fill:#2D89AD;" points="2316.236,255.169 2402.023,170.113 2230.45,170.113 			"/>
			<polygon style="fill:#156693;" points="2316.236,255.169 2402.023,340.225 2402.023,170.113 			"/>
			<polygon style="fill:#165E82;" points="2316.236,255.169 2230.45,340.225 2402.023,340.225 			"/>
		</g>
		<g>
			<polygon style="fill:#23789E;" points="2316.236,425.282 2230.45,340.225 2230.45,510.338 			"/>
			<polygon style="fill:#2D89AD;" points="2316.237,425.281 2402.023,340.225 2230.45,340.225 			"/>
			<polygon style="fill:#156693;" points="2316.237,425.282 2402.023,510.338 2402.023,340.225 			"/>
			<polygon style="fill:#165E82;" points="2316.236,425.282 2230.45,510.338 2402.023,510.338 			"/>
		</g>
		<g>
			<polygon style="fill:#23789E;" points="2316.236,595.394 2230.45,510.338 2230.45,680.45 			"/>
			<polygon style="fill:#2D89AD;" points="2316.237,595.394 2402.023,510.338 2230.45,510.338 			"/>
			<polygon style="fill:#156693;" points="2316.237,595.394 2402.023,680.45 2402.023,510.338 			"/>
			<polygon style="fill:#165E82;" points="2316.236,595.394 2230.45,680.45 2402.023,680.45 			"/>
		</g>
		<g>
			<polygon style="fill:#23789E;" points="2316.236,765.506 2230.45,680.45 2230.45,850.563 			"/>
			<polygon style="fill:#2D89AD;" points="2316.237,765.506 2402.023,680.45 2230.45,680.45 			"/>
			<polygon style="fill:#156693;" points="2316.237,765.507 2402.023,850.563 2402.023,680.45 			"/>
			<polygon style="fill:#165E82;" points="2316.236,765.507 2230.45,850.563 2402.023,850.563 			"/>
		</g>
		<g>
			<polygon style="fill:#23789E;" points="2316.236,935.619 2230.45,850.563 2230.45,1020.675 			"/>
			<polygon style="fill:#2D89AD;" points="2316.237,935.619 2402.023,850.563 2230.45,850.563 			"/>
			<polygon style="fill:#156693;" points="2316.237,935.619 2402.023,1020.675 2402.023,850.563 			"/>
			<polygon style="fill:#165E82;" points="2316.236,935.619 2230.45,1020.675 2402.023,1020.675 			"/>
		</g>
		<g>
			<polygon style="fill:#23789E;" points="2316.237,1105.731 2230.45,1020.675 2230.45,1190.787 			"/>
			<polygon style="fill:#2D89AD;" points="2316.237,1105.731 2402.023,1020.675 2230.45,1020.675 			"/>
			<polygon style="fill:#156693;" points="2316.237,1105.731 2402.023,1190.788 2402.023,1020.675 			"/>
			<polygon style="fill:#165E82;" points="2316.237,1105.731 2230.45,1190.788 2402.023,1190.788 			"/>
		</g>
		<g>
			<polygon style="fill:#23789E;" points="2316.237,1275.844 2230.45,1190.788 2230.45,1360.9 			"/>
			<polygon style="fill:#2D89AD;" points="2316.237,1275.844 2402.023,1190.788 2230.45,1190.788 			"/>
			<polygon style="fill:#156693;" points="2316.237,1275.844 2402.023,1360.9 2402.023,1190.788 			"/>
			<polygon style="fill:#165E82;" points="2316.237,1275.844 2230.45,1360.9 2402.023,1360.9 			"/>
		</g>
		<g>
			<polygon style="fill:#23789E;" points="2487.809,85.057 2402.023,0.001 2402.023,170.113 			"/>
			<polygon style="fill:#2D89AD;" points="2487.81,85.057 2573.596,0.001 2402.023,0.001 			"/>
			<polygon style="fill:#156693;" points="2487.81,85.057 2573.596,170.113 2573.596,0.001 			"/>
			<polygon style="fill:#165E82;" points="2487.809,85.057 2402.023,170.113 2573.596,170.113 			"/>
		</g>
		<g>
			<polygon style="fill:#23789E;" points="2487.809,255.169 2402.023,170.113 2402.023,340.225 			"/>
			<polygon style="fill:#2D89AD;" points="2487.81,255.169 2573.596,170.113 2402.023,170.113 			"/>
			<polygon style="fill:#156693;" points="2487.81,255.169 2573.596,340.225 2573.596,170.113 			"/>
			<polygon style="fill:#165E82;" points="2487.809,255.169 2402.023,340.225 2573.596,340.225 			"/>
		</g>
		<g>
			<polygon style="fill:#23789E;" points="2487.809,425.281 2402.023,340.225 2402.023,510.338 			"/>
			<polygon style="fill:#2D89AD;" points="2487.81,425.281 2573.596,340.225 2402.023,340.225 			"/>
			<polygon style="fill:#156693;" points="2487.81,425.282 2573.596,510.338 2573.596,340.225 			"/>
			<polygon style="fill:#165E82;" points="2487.809,425.282 2402.023,510.338 2573.596,510.338 			"/>
		</g>
		<g>
			<polygon style="fill:#23789E;" points="2487.81,595.394 2402.023,510.338 2402.023,680.45 			"/>
			<polygon style="fill:#2D89AD;" points="2487.81,595.394 2573.596,510.338 2402.023,510.338 			"/>
			<polygon style="fill:#156693;" points="2487.81,595.394 2573.596,680.45 2573.596,510.338 			"/>
			<polygon style="fill:#165E82;" points="2487.81,595.394 2402.023,680.45 2573.596,680.45 			"/>
		</g>
		<g>
			<polygon style="fill:#23789E;" points="2487.81,765.506 2402.023,680.45 2402.023,850.563 			"/>
			<polygon style="fill:#2D89AD;" points="2487.81,765.506 2573.596,680.45 2402.023,680.45 			"/>
			<polygon style="fill:#156693;" points="2487.81,765.506 2573.596,850.563 2573.596,680.45 			"/>
			<polygon style="fill:#165E82;" points="2487.81,765.507 2402.023,850.563 2573.596,850.563 			"/>
		</g>
		<g>
			<polygon style="fill:#23789E;" points="2487.81,935.619 2402.023,850.563 2402.023,1020.675 			"/>
			<polygon style="fill:#2D89AD;" points="2487.81,935.619 2573.596,850.563 2402.023,850.563 			"/>
			<polygon style="fill:#156693;" points="2487.81,935.619 2573.596,1020.675 2573.596,850.563 			"/>
			<polygon style="fill:#165E82;" points="2487.81,935.619 2402.023,1020.675 2573.596,1020.675 			"/>
		</g>
		<g>
			<polygon style="fill:#23789E;" points="2487.81,1105.731 2402.023,1020.675 2402.023,1190.787 			"/>
			<polygon style="fill:#2D89AD;" points="2487.81,1105.731 2573.596,1020.675 2402.023,1020.675 			"/>
			<polygon style="fill:#156693;" points="2487.81,1105.731 2573.596,1190.787 2573.596,1020.675 			"/>
			<polygon style="fill:#165E82;" points="2487.81,1105.731 2402.023,1190.787 2573.596,1190.787 			"/>
		</g>
		<g>
			<polygon style="fill:#23789E;" points="2487.81,1275.844 2402.023,1190.787 2402.023,1360.9 			"/>
			<polygon style="fill:#2D89AD;" points="2487.81,1275.844 2573.596,1190.787 2402.023,1190.787 			"/>
			<polygon style="fill:#156693;" points="2487.81,1275.844 2573.596,1360.9 2573.596,1190.788 			"/>
			<polygon style="fill:#165E82;" points="2487.81,1275.844 2402.023,1360.9 2573.596,1360.9 			"/>
		</g>
		<g>
			<polygon style="fill:#23789E;" points="2659.382,85.057 2573.596,0.001 2573.596,170.113 			"/>
			<polygon style="fill:#2D89AD;" points="2659.383,85.057 2745.169,0.001 2573.596,0.001 			"/>
			<polygon style="fill:#156693;" points="2659.383,85.057 2745.169,170.113 2745.169,0.001 			"/>
			<polygon style="fill:#165E82;" points="2659.382,85.057 2573.596,170.113 2745.169,170.113 			"/>
		</g>
		<g>
			<polygon style="fill:#23789E;" points="2659.382,255.169 2573.596,170.113 2573.596,340.225 			"/>
			<polygon style="fill:#2D89AD;" points="2659.383,255.169 2745.169,170.113 2573.596,170.113 			"/>
			<polygon style="fill:#156693;" points="2659.383,255.169 2745.169,340.225 2745.169,170.113 			"/>
			<polygon style="fill:#165E82;" points="2659.382,255.169 2573.596,340.225 2745.169,340.225 			"/>
		</g>
		<g>
			<polygon style="fill:#23789E;" points="2659.383,425.282 2573.596,340.225 2573.596,510.338 			"/>
			<polygon style="fill:#2D89AD;" points="2659.383,425.281 2745.169,340.225 2573.596,340.225 			"/>
			<polygon style="fill:#156693;" points="2659.383,425.282 2745.169,510.338 2745.169,340.225 			"/>
			<polygon style="fill:#165E82;" points="2659.383,425.282 2573.596,510.338 2745.169,510.338 			"/>
		</g>
		<g>
			<polygon style="fill:#23789E;" points="2659.383,595.394 2573.596,510.338 2573.596,680.45 			"/>
			<polygon style="fill:#2D89AD;" points="2659.383,595.394 2745.169,510.338 2573.596,510.338 			"/>
			<polygon style="fill:#156693;" points="2659.383,595.394 2745.169,680.45 2745.169,510.338 			"/>
			<polygon style="fill:#165E82;" points="2659.383,595.394 2573.596,680.45 2745.169,680.45 			"/>
		</g>
		<g>
			<polygon style="fill:#23789E;" points="2659.383,765.506 2573.596,680.45 2573.596,850.563 			"/>
			<polygon style="fill:#2D89AD;" points="2659.383,765.506 2745.169,680.45 2573.596,680.45 			"/>
			<polygon style="fill:#156693;" points="2659.383,765.507 2745.169,850.563 2745.169,680.45 			"/>
			<polygon style="fill:#165E82;" points="2659.383,765.507 2573.596,850.563 2745.169,850.563 			"/>
		</g>
		<g>
			<polygon style="fill:#23789E;" points="2659.383,935.619 2573.596,850.563 2573.596,1020.675 			"/>
			<polygon style="fill:#2D89AD;" points="2659.383,935.619 2745.169,850.563 2573.596,850.563 			"/>
			<polygon style="fill:#156693;" points="2659.383,935.619 2745.169,1020.675 2745.169,850.563 			"/>
			<polygon style="fill:#165E82;" points="2659.383,935.619 2573.596,1020.675 2745.169,1020.675 			"/>
		</g>
		<g>
			<polygon style="fill:#23789E;" points="2659.383,1105.731 2573.596,1020.675 2573.596,1190.787 			"/>
			<polygon style="fill:#2D89AD;" points="2659.383,1105.731 2745.169,1020.675 2573.596,1020.675 			"/>
			<polygon style="fill:#156693;" points="2659.383,1105.731 2745.169,1190.788 2745.169,1020.675 			"/>
			<polygon style="fill:#165E82;" points="2659.383,1105.731 2573.596,1190.788 2745.169,1190.788 			"/>
		</g>
		<g>
			<polygon style="fill:#23789E;" points="2659.383,1275.844 2573.596,1190.788 2573.596,1360.9 			"/>
			<polygon style="fill:#2D89AD;" points="2659.383,1275.844 2745.169,1190.788 2573.596,1190.788 			"/>
			<polygon style="fill:#156693;" points="2659.383,1275.844 2745.169,1360.9 2745.169,1190.788 			"/>
			<polygon style="fill:#165E82;" points="2659.383,1275.844 2573.596,1360.9 2745.169,1360.9 			"/>
		</g>
		<g>
			<polygon style="fill:#23789E;" points="2830.955,85.056 2745.169,0 2745.169,170.112 			"/>
			<polygon style="fill:#2D89AD;" points="2830.956,85.056 2916.742,0 2745.169,0 			"/>
			<polygon style="fill:#156693;" points="2830.956,85.056 2916.742,170.112 2916.742,0 			"/>
			<polygon style="fill:#165E82;" points="2830.955,85.056 2745.169,170.112 2916.742,170.112 			"/>
		</g>
		<g>
			<polygon style="fill:#23789E;" points="2830.955,255.169 2745.169,170.112 2745.169,340.225 			"/>
			<polygon style="fill:#2D89AD;" points="2830.956,255.169 2916.742,170.112 2745.169,170.112 			"/>
			<polygon style="fill:#156693;" points="2830.956,255.169 2916.742,340.225 2916.742,170.113 			"/>
			<polygon style="fill:#165E82;" points="2830.955,255.169 2745.169,340.225 2916.742,340.225 			"/>
		</g>
		<g>
			<polygon style="fill:#23789E;" points="2830.956,425.281 2745.169,340.225 2745.169,510.337 			"/>
			<polygon style="fill:#2D89AD;" points="2830.956,425.281 2916.742,340.225 2745.169,340.225 			"/>
			<polygon style="fill:#156693;" points="2830.956,425.281 2916.742,510.337 2916.742,340.225 			"/>
			<polygon style="fill:#165E82;" points="2830.956,425.281 2745.169,510.337 2916.742,510.337 			"/>
		</g>
		<g>
			<polygon style="fill:#23789E;" points="2830.956,595.393 2745.169,510.337 2745.169,680.45 			"/>
			<polygon style="fill:#2D89AD;" points="2830.956,595.393 2916.742,510.337 2745.169,510.337 			"/>
			<polygon style="fill:#156693;" points="2830.956,595.393 2916.742,680.45 2916.742,510.337 			"/>
			<polygon style="fill:#165E82;" points="2830.956,595.393 2745.169,680.45 2916.742,680.45 			"/>
		</g>
		<g>
			<polygon style="fill:#23789E;" points="2830.956,765.506 2745.169,680.45 2745.169,850.562 			"/>
			<polygon style="fill:#2D89AD;" points="2830.956,765.506 2916.742,680.45 2745.169,680.45 			"/>
			<polygon style="fill:#156693;" points="2830.956,765.506 2916.742,850.562 2916.742,680.45 			"/>
			<polygon style="fill:#165E82;" points="2830.956,765.506 2745.169,850.562 2916.742,850.562 			"/>
		</g>
		<g>
			<polygon style="fill:#23789E;" points="2830.956,935.618 2745.169,850.562 2745.169,1020.674 			"/>
			<polygon style="fill:#2D89AD;" points="2830.956,935.618 2916.742,850.562 2745.169,850.562 			"/>
			<polygon style="fill:#156693;" points="2830.956,935.618 2916.742,1020.675 2916.742,850.562 			"/>
			<polygon style="fill:#165E82;" points="2830.956,935.619 2745.169,1020.675 2916.742,1020.675 			"/>
		</g>
		<g>
			<polygon style="fill:#23789E;" points="2830.956,1105.731 2745.169,1020.674 2745.169,1190.787 			"/>
			<polygon style="fill:#2D89AD;" points="2830.956,1105.731 2916.742,1020.674 2745.169,1020.674 			"/>
			<polygon style="fill:#156693;" points="2830.956,1105.731 2916.742,1190.787 2916.742,1020.675 			"/>
			<polygon style="fill:#165E82;" points="2830.956,1105.731 2745.169,1190.787 2916.742,1190.787 			"/>
		</g>
		<g>
			<polygon style="fill:#23789E;" points="2830.956,1275.843 2745.169,1190.787 2745.169,1360.899 			"/>
			<polygon style="fill:#2D89AD;" points="2830.956,1275.843 2916.742,1190.787 2745.169,1190.787 			"/>
			<polygon style="fill:#156693;" points="2830.956,1275.843 2916.742,1360.899 2916.742,1190.787 			"/>
			<polygon style="fill:#165E82;" points="2830.956,1275.843 2745.169,1360.899 2916.742,1360.899 			"/>
		</g>
		<g>
			<polygon style="fill:#23789E;" points="3002.528,85.056 2916.742,0 2916.742,170.112 			"/>
			<polygon style="fill:#2D89AD;" points="3002.529,85.056 3088.315,0 2916.742,0 			"/>
			<polygon style="fill:#156693;" points="3002.529,85.056 3088.315,170.113 3088.315,0 			"/>
			<polygon style="fill:#165E82;" points="3002.528,85.056 2916.742,170.113 3088.315,170.113 			"/>
		</g>
		<g>
			<polygon style="fill:#23789E;" points="3002.529,255.169 2916.742,170.113 2916.742,340.225 			"/>
			<polygon style="fill:#2D89AD;" points="3002.529,255.169 3088.315,170.113 2916.742,170.113 			"/>
			<polygon style="fill:#156693;" points="3002.529,255.169 3088.315,340.225 3088.315,170.113 			"/>
			<polygon style="fill:#165E82;" points="3002.529,255.169 2916.742,340.225 3088.315,340.225 			"/>
		</g>
		<g>
			<polygon style="fill:#23789E;" points="3002.529,425.281 2916.742,340.225 2916.742,510.337 			"/>
			<polygon style="fill:#2D89AD;" points="3002.529,425.281 3088.315,340.225 2916.742,340.225 			"/>
			<polygon style="fill:#156693;" points="3002.529,425.281 3088.315,510.337 3088.315,340.225 			"/>
			<polygon style="fill:#165E82;" points="3002.529,425.281 2916.742,510.337 3088.315,510.337 			"/>
		</g>
		<g>
			<polygon style="fill:#23789E;" points="3002.529,595.393 2916.742,510.337 2916.742,680.45 			"/>
			<polygon style="fill:#2D89AD;" points="3002.529,595.393 3088.315,510.337 2916.742,510.337 			"/>
			<polygon style="fill:#156693;" points="3002.529,595.394 3088.315,680.45 3088.315,510.337 			"/>
			<polygon style="fill:#165E82;" points="3002.529,595.394 2916.742,680.45 3088.315,680.45 			"/>
		</g>
		<g>
			<polygon style="fill:#23789E;" points="3002.529,765.506 2916.742,680.45 2916.742,850.562 			"/>
			<polygon style="fill:#2D89AD;" points="3002.529,765.506 3088.315,680.45 2916.742,680.45 			"/>
			<polygon style="fill:#156693;" points="3002.529,765.506 3088.315,850.562 3088.315,680.45 			"/>
			<polygon style="fill:#165E82;" points="3002.529,765.506 2916.742,850.562 3088.315,850.562 			"/>
		</g>
		<g>
			<polygon style="fill:#23789E;" points="3002.529,935.618 2916.742,850.562 2916.742,1020.675 			"/>
			<polygon style="fill:#2D89AD;" points="3002.529,935.618 3088.315,850.562 2916.742,850.562 			"/>
			<polygon style="fill:#156693;" points="3002.529,935.619 3088.315,1020.675 3088.315,850.562 			"/>
			<polygon style="fill:#165E82;" points="3002.529,935.619 2916.742,1020.675 3088.315,1020.675 			"/>
		</g>
		<g>
			<polygon style="fill:#23789E;" points="3002.529,1105.731 2916.742,1020.675 2916.742,1190.787 			"/>
			<polygon style="fill:#2D89AD;" points="3002.529,1105.731 3088.315,1020.675 2916.742,1020.675 			"/>
			<polygon style="fill:#156693;" points="3002.529,1105.731 3088.315,1190.787 3088.315,1020.675 			"/>
			<polygon style="fill:#165E82;" points="3002.529,1105.731 2916.742,1190.787 3088.315,1190.787 			"/>
		</g>
		<g>
			<polygon style="fill:#23789E;" points="3002.529,1275.843 2916.742,1190.787 2916.742,1360.899 			"/>
			<polygon style="fill:#2D89AD;" points="3002.529,1275.843 3088.315,1190.787 2916.742,1190.787 			"/>
			<polygon style="fill:#156693;" points="3002.529,1275.843 3088.315,1360.899 3088.315,1190.787 			"/>
			<polygon style="fill:#165E82;" points="3002.529,1275.843 2916.742,1360.899 3088.315,1360.899 			"/>
		</g>
		<g>
			<polygon style="fill:#23789E;" points="3174.102,85.056 3088.315,0 3088.315,170.112 			"/>
			<polygon style="fill:#2D89AD;" points="3174.102,85.056 3259.888,0 3088.315,0 			"/>
			<polygon style="fill:#156693;" points="3174.102,85.056 3259.888,170.112 3259.888,0 			"/>
			<polygon style="fill:#165E82;" points="3174.102,85.056 3088.315,170.112 3259.888,170.112 			"/>
		</g>
		<g>
			<polygon style="fill:#23789E;" points="3174.102,255.169 3088.315,170.112 3088.315,340.225 			"/>
			<polygon style="fill:#2D89AD;" points="3174.102,255.169 3259.888,170.112 3088.315,170.112 			"/>
			<polygon style="fill:#156693;" points="3174.102,255.169 3259.888,340.225 3259.888,170.113 			"/>
			<polygon style="fill:#165E82;" points="3174.102,255.169 3088.315,340.225 3259.888,340.225 			"/>
		</g>
		<g>
			<polygon style="fill:#23789E;" points="3174.102,425.281 3088.315,340.225 3088.315,510.337 			"/>
			<polygon style="fill:#2D89AD;" points="3174.102,425.281 3259.888,340.225 3088.315,340.225 			"/>
			<polygon style="fill:#156693;" points="3174.102,425.281 3259.888,510.337 3259.888,340.225 			"/>
			<polygon style="fill:#165E82;" points="3174.102,425.281 3088.315,510.337 3259.888,510.337 			"/>
		</g>
		<g>
			<polygon style="fill:#23789E;" points="3174.102,595.393 3088.315,510.337 3088.315,680.45 			"/>
			<polygon style="fill:#2D89AD;" points="3174.102,595.393 3259.888,510.337 3088.315,510.337 			"/>
			<polygon style="fill:#156693;" points="3174.102,595.393 3259.888,680.45 3259.888,510.337 			"/>
			<polygon style="fill:#165E82;" points="3174.102,595.393 3088.315,680.45 3259.888,680.45 			"/>
		</g>
		<g>
			<polygon style="fill:#23789E;" points="3174.102,765.506 3088.315,680.45 3088.315,850.562 			"/>
			<polygon style="fill:#2D89AD;" points="3174.102,765.506 3259.888,680.45 3088.315,680.45 			"/>
			<polygon style="fill:#156693;" points="3174.102,765.506 3259.888,850.562 3259.888,680.45 			"/>
			<polygon style="fill:#165E82;" points="3174.102,765.506 3088.315,850.562 3259.888,850.562 			"/>
		</g>
		<g>
			<polygon style="fill:#23789E;" points="3174.102,935.618 3088.315,850.562 3088.315,1020.674 			"/>
			<polygon style="fill:#2D89AD;" points="3174.102,935.618 3259.888,850.562 3088.315,850.562 			"/>
			<polygon style="fill:#156693;" points="3174.102,935.618 3259.888,1020.675 3259.888,850.562 			"/>
			<polygon style="fill:#165E82;" points="3174.102,935.619 3088.315,1020.675 3259.888,1020.675 			"/>
		</g>
		<g>
			<polygon style="fill:#23789E;" points="3174.102,1105.731 3088.315,1020.674 3088.315,1190.787 			"/>
			<polygon style="fill:#2D89AD;" points="3174.102,1105.731 3259.888,1020.674 3088.315,1020.674 			"/>
			<polygon style="fill:#156693;" points="3174.102,1105.731 3259.888,1190.787 3259.888,1020.675 			"/>
			<polygon style="fill:#165E82;" points="3174.102,1105.731 3088.315,1190.787 3259.888,1190.787 			"/>
		</g>
		<g>
			<polygon style="fill:#23789E;" points="3174.102,1275.843 3088.315,1190.787 3088.315,1360.899 			"/>
			<polygon style="fill:#2D89AD;" points="3174.102,1275.843 3259.888,1190.787 3088.315,1190.787 			"/>
			<polygon style="fill:#156693;" points="3174.102,1275.843 3259.888,1360.899 3259.888,1190.787 			"/>
			<polygon style="fill:#165E82;" points="3174.102,1275.843 3088.315,1360.899 3259.888,1360.899 			"/>
		</g>
		<g>
			<polygon style="fill:#23789E;" points="3345.675,85.056 3259.888,0 3259.888,170.112 			"/>
			<polygon style="fill:#2D89AD;" points="3345.675,85.056 3431.461,0 3259.888,0 			"/>
			<polygon style="fill:#156693;" points="3345.675,85.056 3431.461,170.113 3431.461,0 			"/>
			<polygon style="fill:#165E82;" points="3345.675,85.056 3259.888,170.113 3431.461,170.113 			"/>
		</g>
		<g>
			<polygon style="fill:#23789E;" points="3345.675,255.169 3259.888,170.113 3259.888,340.225 			"/>
			<polygon style="fill:#2D89AD;" points="3345.675,255.169 3431.461,170.113 3259.888,170.113 			"/>
			<polygon style="fill:#156693;" points="3345.675,255.169 3431.461,340.225 3431.461,170.113 			"/>
			<polygon style="fill:#165E82;" points="3345.675,255.169 3259.888,340.225 3431.461,340.225 			"/>
		</g>
		<g>
			<polygon style="fill:#23789E;" points="3345.675,425.281 3259.888,340.225 3259.888,510.337 			"/>
			<polygon style="fill:#2D89AD;" points="3345.675,425.281 3431.461,340.225 3259.888,340.225 			"/>
			<polygon style="fill:#156693;" points="3345.675,425.281 3431.461,510.337 3431.461,340.225 			"/>
			<polygon style="fill:#165E82;" points="3345.675,425.281 3259.888,510.337 3431.461,510.337 			"/>
		</g>
		<g>
			<polygon style="fill:#23789E;" points="3345.675,595.393 3259.888,510.337 3259.888,680.45 			"/>
			<polygon style="fill:#2D89AD;" points="3345.675,595.393 3431.461,510.337 3259.888,510.337 			"/>
			<polygon style="fill:#156693;" points="3345.675,595.394 3431.461,680.45 3431.461,510.337 			"/>
			<polygon style="fill:#165E82;" points="3345.675,595.394 3259.888,680.45 3431.461,680.45 			"/>
		</g>
		<g>
			<polygon style="fill:#23789E;" points="3345.675,765.506 3259.888,680.45 3259.888,850.562 			"/>
			<polygon style="fill:#2D89AD;" points="3345.675,765.506 3431.461,680.45 3259.888,680.45 			"/>
			<polygon style="fill:#156693;" points="3345.675,765.506 3431.461,850.562 3431.461,680.45 			"/>
			<polygon style="fill:#165E82;" points="3345.675,765.506 3259.888,850.562 3431.461,850.562 			"/>
		</g>
		<g>
			<polygon style="fill:#23789E;" points="3345.675,935.618 3259.888,850.562 3259.888,1020.675 			"/>
			<polygon style="fill:#2D89AD;" points="3345.675,935.618 3431.461,850.562 3259.888,850.562 			"/>
			<polygon style="fill:#156693;" points="3345.675,935.619 3431.461,1020.675 3431.461,850.562 			"/>
			<polygon style="fill:#165E82;" points="3345.675,935.619 3259.888,1020.675 3431.461,1020.675 			"/>
		</g>
		<g>
			<polygon style="fill:#23789E;" points="3345.675,1105.731 3259.888,1020.675 3259.888,1190.787 			"/>
			<polygon style="fill:#2D89AD;" points="3345.675,1105.731 3431.461,1020.675 3259.888,1020.675 			"/>
			<polygon style="fill:#156693;" points="3345.675,1105.731 3431.461,1190.787 3431.461,1020.675 			"/>
			<polygon style="fill:#165E82;" points="3345.675,1105.731 3259.888,1190.787 3431.461,1190.787 			"/>
		</g>
		<g>
			<polygon style="fill:#23789E;" points="3345.675,1275.843 3259.888,1190.787 3259.888,1360.899 			"/>
			<polygon style="fill:#2D89AD;" points="3345.675,1275.843 3431.461,1190.787 3259.888,1190.787 			"/>
			<polygon style="fill:#156693;" points="3345.675,1275.843 3431.461,1360.899 3431.461,1190.787 			"/>
			<polygon style="fill:#165E82;" points="3345.675,1275.843 3259.888,1360.899 3431.461,1360.899 			"/>
		</g>
		<g>
			<polygon style="fill:#23789E;" points="3517.248,85.056 3431.461,0 3431.461,170.113 			"/>
			<polygon style="fill:#2D89AD;" points="3517.248,85.056 3603.034,0 3431.461,0 			"/>
			<polygon style="fill:#156693;" points="3517.248,85.056 3603.034,170.113 3603.034,0 			"/>
			<polygon style="fill:#165E82;" points="3517.248,85.057 3431.461,170.113 3603.034,170.113 			"/>
		</g>
		<g>
			<polygon style="fill:#23789E;" points="3517.248,255.169 3431.461,170.113 3431.461,340.225 			"/>
			<polygon style="fill:#2D89AD;" points="3517.248,255.169 3603.034,170.113 3431.461,170.113 			"/>
			<polygon style="fill:#156693;" points="3517.248,255.169 3603.034,340.225 3603.034,170.113 			"/>
			<polygon style="fill:#165E82;" points="3517.248,255.169 3431.461,340.225 3603.034,340.225 			"/>
		</g>
		<g>
			<polygon style="fill:#23789E;" points="3517.248,425.281 3431.461,340.225 3431.461,510.337 			"/>
			<polygon style="fill:#2D89AD;" points="3517.248,425.281 3603.034,340.225 3431.461,340.225 			"/>
			<polygon style="fill:#156693;" points="3517.248,425.281 3603.034,510.337 3603.034,340.225 			"/>
			<polygon style="fill:#165E82;" points="3517.248,425.281 3431.461,510.337 3603.034,510.337 			"/>
		</g>
		<g>
			<polygon style="fill:#23789E;" points="3517.248,595.394 3431.461,510.337 3431.461,680.45 			"/>
			<polygon style="fill:#2D89AD;" points="3517.248,595.393 3603.034,510.337 3431.461,510.337 			"/>
			<polygon style="fill:#156693;" points="3517.248,595.394 3603.034,680.45 3603.034,510.337 			"/>
			<polygon style="fill:#165E82;" points="3517.248,595.394 3431.461,680.45 3603.034,680.45 			"/>
		</g>
		<g>
			<polygon style="fill:#23789E;" points="3517.248,765.506 3431.461,680.45 3431.461,850.562 			"/>
			<polygon style="fill:#2D89AD;" points="3517.248,765.506 3603.034,680.45 3431.461,680.45 			"/>
			<polygon style="fill:#156693;" points="3517.248,765.506 3603.034,850.562 3603.034,680.45 			"/>
			<polygon style="fill:#165E82;" points="3517.248,765.506 3431.461,850.562 3603.034,850.562 			"/>
		</g>
		<g>
			<polygon style="fill:#23789E;" points="3517.248,935.619 3431.461,850.562 3431.461,1020.675 			"/>
			<polygon style="fill:#2D89AD;" points="3517.248,935.619 3603.034,850.562 3431.461,850.562 			"/>
			<polygon style="fill:#156693;" points="3517.248,935.619 3603.034,1020.675 3603.034,850.562 			"/>
			<polygon style="fill:#165E82;" points="3517.248,935.619 3431.461,1020.675 3603.034,1020.675 			"/>
		</g>
		<g>
			<polygon style="fill:#23789E;" points="3517.248,1105.731 3431.461,1020.675 3431.461,1190.787 			"/>
			<polygon style="fill:#2D89AD;" points="3517.248,1105.731 3603.034,1020.675 3431.461,1020.675 			"/>
			<polygon style="fill:#156693;" points="3517.248,1105.731 3603.034,1190.787 3603.034,1020.675 			"/>
			<polygon style="fill:#165E82;" points="3517.248,1105.731 3431.461,1190.787 3603.034,1190.787 			"/>
		</g>
		<g>
			<polygon style="fill:#23789E;" points="3517.248,1275.843 3431.461,1190.787 3431.461,1360.899 			"/>
			<polygon style="fill:#2D89AD;" points="3517.248,1275.843 3603.034,1190.787 3431.461,1190.787 			"/>
			<polygon style="fill:#156693;" points="3517.248,1275.843 3603.034,1360.9 3603.034,1190.787 			"/>
			<polygon style="fill:#165E82;" points="3517.248,1275.843 3431.461,1360.9 3603.034,1360.9 			"/>
		</g>
		<g>
			<polygon style="fill:#23789E;" points="3688.821,85.056 3603.034,0 3603.034,170.113 			"/>
			<polygon style="fill:#2D89AD;" points="3688.821,85.056 3774.607,0 3603.034,0 			"/>
			<polygon style="fill:#156693;" points="3688.821,85.057 3774.607,170.113 3774.607,0 			"/>
			<polygon style="fill:#165E82;" points="3688.821,85.057 3603.034,170.113 3774.607,170.113 			"/>
		</g>
		<g>
			<polygon style="fill:#23789E;" points="3688.821,255.169 3603.034,170.113 3603.034,340.225 			"/>
			<polygon style="fill:#2D89AD;" points="3688.821,255.169 3774.607,170.113 3603.034,170.113 			"/>
			<polygon style="fill:#156693;" points="3688.821,255.169 3774.607,340.225 3774.607,170.113 			"/>
			<polygon style="fill:#165E82;" points="3688.821,255.169 3603.034,340.225 3774.607,340.225 			"/>
		</g>
		<g>
			<polygon style="fill:#23789E;" points="3688.821,425.281 3603.034,340.225 3603.034,510.337 			"/>
			<polygon style="fill:#2D89AD;" points="3688.821,425.281 3774.607,340.225 3603.034,340.225 			"/>
			<polygon style="fill:#156693;" points="3688.821,425.281 3774.607,510.337 3774.607,340.225 			"/>
			<polygon style="fill:#165E82;" points="3688.821,425.281 3603.034,510.337 3774.607,510.337 			"/>
		</g>
		<g>
			<polygon style="fill:#23789E;" points="3688.821,595.394 3603.034,510.337 3603.034,680.45 			"/>
			<polygon style="fill:#2D89AD;" points="3688.821,595.394 3774.607,510.337 3603.034,510.337 			"/>
			<polygon style="fill:#156693;" points="3688.821,595.394 3774.607,680.45 3774.607,510.338 			"/>
			<polygon style="fill:#165E82;" points="3688.821,595.394 3603.034,680.45 3774.607,680.45 			"/>
		</g>
		<g>
			<polygon style="fill:#23789E;" points="3688.821,765.506 3603.034,680.45 3603.034,850.562 			"/>
			<polygon style="fill:#2D89AD;" points="3688.821,765.506 3774.607,680.45 3603.034,680.45 			"/>
			<polygon style="fill:#156693;" points="3688.821,765.506 3774.607,850.562 3774.607,680.45 			"/>
			<polygon style="fill:#165E82;" points="3688.821,765.506 3603.034,850.562 3774.607,850.562 			"/>
		</g>
		<g>
			<polygon style="fill:#23789E;" points="3688.821,935.619 3603.034,850.562 3603.034,1020.675 			"/>
			<polygon style="fill:#2D89AD;" points="3688.821,935.619 3774.607,850.562 3603.034,850.562 			"/>
			<polygon style="fill:#156693;" points="3688.821,935.619 3774.607,1020.675 3774.607,850.563 			"/>
			<polygon style="fill:#165E82;" points="3688.821,935.619 3603.034,1020.675 3774.607,1020.675 			"/>
		</g>
		<g>
			<polygon style="fill:#23789E;" points="3688.821,1105.731 3603.034,1020.675 3603.034,1190.787 			"/>
			<polygon style="fill:#2D89AD;" points="3688.821,1105.731 3774.607,1020.675 3603.034,1020.675 			"/>
			<polygon style="fill:#156693;" points="3688.821,1105.731 3774.607,1190.787 3774.607,1020.675 			"/>
			<polygon style="fill:#165E82;" points="3688.821,1105.731 3603.034,1190.787 3774.607,1190.787 			"/>
		</g>
		<g>
			<polygon style="fill:#23789E;" points="3688.821,1275.843 3603.034,1190.787 3603.034,1360.9 			"/>
			<polygon style="fill:#2D89AD;" points="3688.821,1275.843 3774.607,1190.787 3603.034,1190.787 			"/>
			<polygon style="fill:#156693;" points="3688.821,1275.843 3774.607,1360.9 3774.607,1190.787 			"/>
			<polygon style="fill:#165E82;" points="3688.821,1275.844 3603.034,1360.9 3774.607,1360.9 			"/>
		</g>
		<g>
			<polygon style="fill:#23789E;" points="3860.394,85.056 3774.607,0 3774.607,170.113 			"/>
			<polygon style="fill:#2D89AD;" points="3860.394,85.056 3946.18,0 3774.607,0 			"/>
			<polygon style="fill:#156693;" points="3860.394,85.056 3946.18,170.113 3946.18,0 			"/>
			<polygon style="fill:#165E82;" points="3860.394,85.057 3774.607,170.113 3946.18,170.113 			"/>
		</g>
		<g>
			<polygon style="fill:#23789E;" points="3860.394,255.169 3774.607,170.113 3774.607,340.225 			"/>
			<polygon style="fill:#2D89AD;" points="3860.394,255.169 3946.18,170.113 3774.607,170.113 			"/>
			<polygon style="fill:#156693;" points="3860.394,255.169 3946.18,340.225 3946.18,170.113 			"/>
			<polygon style="fill:#165E82;" points="3860.394,255.169 3774.607,340.225 3946.18,340.225 			"/>
		</g>
		<g>
			<polygon style="fill:#23789E;" points="3860.394,425.281 3774.607,340.225 3774.607,510.337 			"/>
			<polygon style="fill:#2D89AD;" points="3860.394,425.281 3946.18,340.225 3774.607,340.225 			"/>
			<polygon style="fill:#156693;" points="3860.394,425.281 3946.18,510.337 3946.18,340.225 			"/>
			<polygon style="fill:#165E82;" points="3860.394,425.281 3774.607,510.337 3946.18,510.337 			"/>
		</g>
		<g>
			<polygon style="fill:#23789E;" points="3860.394,595.394 3774.607,510.337 3774.607,680.45 			"/>
			<polygon style="fill:#2D89AD;" points="3860.394,595.393 3946.18,510.337 3774.607,510.337 			"/>
			<polygon style="fill:#156693;" points="3860.394,595.394 3946.18,680.45 3946.18,510.337 			"/>
			<polygon style="fill:#165E82;" points="3860.394,595.394 3774.607,680.45 3946.18,680.45 			"/>
		</g>
		<g>
			<polygon style="fill:#23789E;" points="3860.394,765.506 3774.607,680.45 3774.607,850.562 			"/>
			<polygon style="fill:#2D89AD;" points="3860.394,765.506 3946.18,680.45 3774.607,680.45 			"/>
			<polygon style="fill:#156693;" points="3860.394,765.506 3946.18,850.562 3946.18,680.45 			"/>
			<polygon style="fill:#165E82;" points="3860.394,765.506 3774.607,850.562 3946.18,850.562 			"/>
		</g>
		<g>
			<polygon style="fill:#23789E;" points="3860.394,935.619 3774.607,850.562 3774.607,1020.675 			"/>
			<polygon style="fill:#2D89AD;" points="3860.394,935.619 3946.18,850.562 3774.607,850.562 			"/>
			<polygon style="fill:#156693;" points="3860.394,935.619 3946.18,1020.675 3946.18,850.562 			"/>
			<polygon style="fill:#165E82;" points="3860.394,935.619 3774.607,1020.675 3946.18,1020.675 			"/>
		</g>
		<g>
			<polygon style="fill:#23789E;" points="3860.394,1105.731 3774.607,1020.675 3774.607,1190.787 			"/>
			<polygon style="fill:#2D89AD;" points="3860.394,1105.731 3946.18,1020.675 3774.607,1020.675 			"/>
			<polygon style="fill:#156693;" points="3860.394,1105.731 3946.18,1190.787 3946.18,1020.675 			"/>
			<polygon style="fill:#165E82;" points="3860.394,1105.731 3774.607,1190.787 3946.18,1190.787 			"/>
		</g>
		<g>
			<polygon style="fill:#23789E;" points="3860.394,1275.843 3774.607,1190.787 3774.607,1360.899 			"/>
			<polygon style="fill:#2D89AD;" points="3860.394,1275.843 3946.18,1190.787 3774.607,1190.787 			"/>
			<polygon style="fill:#156693;" points="3860.394,1275.843 3946.18,1360.9 3946.18,1190.787 			"/>
			<polygon style="fill:#165E82;" points="3860.394,1275.843 3774.607,1360.9 3946.18,1360.9 			"/>
		</g>
		<g>
			<polygon style="fill:#23789E;" points="4031.967,85.056 3946.18,0 3946.18,170.113 			"/>
			<polygon style="fill:#2D89AD;" points="4031.967,85.056 4117.753,0 3946.18,0 			"/>
			<polygon style="fill:#156693;" points="4031.967,85.057 4117.753,170.113 4117.753,0 			"/>
			<polygon style="fill:#165E82;" points="4031.967,85.057 3946.18,170.113 4117.753,170.113 			"/>
		</g>
		<g>
			<polygon style="fill:#23789E;" points="4031.967,255.169 3946.18,170.113 3946.18,340.225 			"/>
			<polygon style="fill:#2D89AD;" points="4031.967,255.169 4117.753,170.113 3946.18,170.113 			"/>
			<polygon style="fill:#156693;" points="4031.967,255.169 4117.753,340.225 4117.753,170.113 			"/>
			<polygon style="fill:#165E82;" points="4031.967,255.169 3946.18,340.225 4117.753,340.225 			"/>
		</g>
		<g>
			<polygon style="fill:#23789E;" points="4031.967,425.281 3946.18,340.225 3946.18,510.337 			"/>
			<polygon style="fill:#2D89AD;" points="4031.967,425.281 4117.753,340.225 3946.18,340.225 			"/>
			<polygon style="fill:#156693;" points="4031.967,425.281 4117.753,510.337 4117.753,340.225 			"/>
			<polygon style="fill:#165E82;" points="4031.967,425.281 3946.18,510.337 4117.753,510.337 			"/>
		</g>
		<g>
			<polygon style="fill:#23789E;" points="4031.967,595.394 3946.18,510.337 3946.18,680.45 			"/>
			<polygon style="fill:#2D89AD;" points="4031.967,595.394 4117.753,510.337 3946.18,510.337 			"/>
			<polygon style="fill:#156693;" points="4031.967,595.394 4117.753,680.45 4117.753,510.338 			"/>
			<polygon style="fill:#165E82;" points="4031.967,595.394 3946.18,680.45 4117.753,680.45 			"/>
		</g>
		<g>
			<polygon style="fill:#23789E;" points="4031.967,765.506 3946.18,680.45 3946.18,850.562 			"/>
			<polygon style="fill:#2D89AD;" points="4031.967,765.506 4117.753,680.45 3946.18,680.45 			"/>
			<polygon style="fill:#156693;" points="4031.967,765.506 4117.753,850.562 4117.753,680.45 			"/>
			<polygon style="fill:#165E82;" points="4031.967,765.506 3946.18,850.562 4117.753,850.562 			"/>
		</g>
		<g>
			<polygon style="fill:#23789E;" points="4031.967,935.619 3946.18,850.562 3946.18,1020.675 			"/>
			<polygon style="fill:#2D89AD;" points="4031.967,935.619 4117.753,850.562 3946.18,850.562 			"/>
			<polygon style="fill:#156693;" points="4031.967,935.619 4117.753,1020.675 4117.753,850.563 			"/>
			<polygon style="fill:#165E82;" points="4031.967,935.619 3946.18,1020.675 4117.753,1020.675 			"/>
		</g>
		<g>
			<polygon style="fill:#23789E;" points="4031.967,1105.731 3946.18,1020.675 3946.18,1190.787 			"/>
			<polygon style="fill:#2D89AD;" points="4031.967,1105.731 4117.753,1020.675 3946.18,1020.675 			"/>
			<polygon style="fill:#156693;" points="4031.967,1105.731 4117.753,1190.787 4117.753,1020.675 			"/>
			<polygon style="fill:#165E82;" points="4031.967,1105.731 3946.18,1190.787 4117.753,1190.787 			"/>
		</g>
		<g>
			<polygon style="fill:#23789E;" points="4031.967,1275.843 3946.18,1190.787 3946.18,1360.9 			"/>
			<polygon style="fill:#2D89AD;" points="4031.967,1275.843 4117.753,1190.787 3946.18,1190.787 			"/>
			<polygon style="fill:#156693;" points="4031.967,1275.843 4117.753,1360.9 4117.753,1190.787 			"/>
			<polygon style="fill:#165E82;" points="4031.967,1275.844 3946.18,1360.9 4117.753,1360.9 			"/>
		</g>
		<g>
			<polygon style="fill:#23789E;" points="4203.54,85.057 4117.753,0 4117.753,170.113 			"/>
			<polygon style="fill:#2D89AD;" points="4203.54,85.057 4289.327,0 4117.753,0 			"/>
			<polygon style="fill:#156693;" points="4203.54,85.057 4289.327,170.113 4289.327,0 			"/>
			<polygon style="fill:#165E82;" points="4203.54,85.057 4117.753,170.113 4289.327,170.113 			"/>
		</g>
		<g>
			<polygon style="fill:#23789E;" points="4203.54,255.169 4117.753,170.113 4117.753,340.225 			"/>
			<polygon style="fill:#2D89AD;" points="4203.54,255.169 4289.327,170.113 4117.753,170.113 			"/>
			<polygon style="fill:#156693;" points="4203.54,255.169 4289.327,340.225 4289.327,170.113 			"/>
			<polygon style="fill:#165E82;" points="4203.54,255.169 4117.753,340.225 4289.327,340.225 			"/>
		</g>
		<g>
			<polygon style="fill:#23789E;" points="4203.54,425.281 4117.753,340.225 4117.753,510.337 			"/>
			<polygon style="fill:#2D89AD;" points="4203.54,425.281 4289.327,340.225 4117.753,340.225 			"/>
			<polygon style="fill:#156693;" points="4203.54,425.281 4289.327,510.338 4289.327,340.225 			"/>
			<polygon style="fill:#165E82;" points="4203.54,425.281 4117.753,510.338 4289.327,510.338 			"/>
		</g>
		<g>
			<polygon style="fill:#23789E;" points="4203.54,595.394 4117.753,510.338 4117.753,680.45 			"/>
			<polygon style="fill:#2D89AD;" points="4203.54,595.394 4289.327,510.338 4117.754,510.338 			"/>
			<polygon style="fill:#156693;" points="4203.54,595.394 4289.327,680.45 4289.327,510.338 			"/>
			<polygon style="fill:#165E82;" points="4203.54,595.394 4117.753,680.45 4289.327,680.45 			"/>
		</g>
		<g>
			<polygon style="fill:#23789E;" points="4203.54,765.506 4117.753,680.45 4117.753,850.562 			"/>
			<polygon style="fill:#2D89AD;" points="4203.54,765.506 4289.327,680.45 4117.754,680.45 			"/>
			<polygon style="fill:#156693;" points="4203.54,765.506 4289.327,850.563 4289.327,680.45 			"/>
			<polygon style="fill:#165E82;" points="4203.54,765.506 4117.753,850.563 4289.327,850.563 			"/>
		</g>
		<g>
			<polygon style="fill:#23789E;" points="4203.54,935.619 4117.753,850.563 4117.753,1020.675 			"/>
			<polygon style="fill:#2D89AD;" points="4203.54,935.619 4289.327,850.563 4117.754,850.563 			"/>
			<polygon style="fill:#156693;" points="4203.54,935.619 4289.327,1020.675 4289.327,850.563 			"/>
			<polygon style="fill:#165E82;" points="4203.54,935.619 4117.753,1020.675 4289.327,1020.675 			"/>
		</g>
		<g>
			<polygon style="fill:#23789E;" points="4203.54,1105.731 4117.754,1020.675 4117.754,1190.787 			"/>
			<polygon style="fill:#2D89AD;" points="4203.54,1105.731 4289.327,1020.675 4117.754,1020.675 			"/>
			<polygon style="fill:#156693;" points="4203.54,1105.731 4289.327,1190.787 4289.327,1020.675 			"/>
			<polygon style="fill:#165E82;" points="4203.54,1105.731 4117.753,1190.787 4289.327,1190.787 			"/>
		</g>
		<g>
			<polygon style="fill:#23789E;" points="4203.54,1275.843 4117.754,1190.787 4117.754,1360.9 			"/>
			<polygon style="fill:#2D89AD;" points="4203.541,1275.843 4289.327,1190.787 4117.754,1190.787 			"/>
			<polygon style="fill:#156693;" points="4203.541,1275.844 4289.327,1360.9 4289.327,1190.787 			"/>
			<polygon style="fill:#165E82;" points="4203.54,1275.844 4117.754,1360.9 4289.327,1360.9 			"/>
		</g>
		<g>
			<polygon style="fill:#23789E;" points="4375.113,85.057 4289.327,0 4289.327,170.113 			"/>
			<polygon style="fill:#2D89AD;" points="4375.113,85.057 4460.899,0 4289.327,0 			"/>
			<polygon style="fill:#156693;" points="4375.113,85.057 4460.899,170.113 4460.899,0.001 			"/>
			<polygon style="fill:#165E82;" points="4375.113,85.057 4289.327,170.113 4460.899,170.113 			"/>
		</g>
		<g>
			<polygon style="fill:#23789E;" points="4375.113,255.169 4289.327,170.113 4289.327,340.225 			"/>
			<polygon style="fill:#2D89AD;" points="4375.113,255.169 4460.899,170.113 4289.327,170.113 			"/>
			<polygon style="fill:#156693;" points="4375.113,255.169 4460.899,340.225 4460.899,170.113 			"/>
			<polygon style="fill:#165E82;" points="4375.113,255.169 4289.327,340.225 4460.899,340.225 			"/>
		</g>
		<g>
			<polygon style="fill:#23789E;" points="4375.113,425.281 4289.327,340.225 4289.327,510.338 			"/>
			<polygon style="fill:#2D89AD;" points="4375.113,425.281 4460.899,340.225 4289.327,340.225 			"/>
			<polygon style="fill:#156693;" points="4375.113,425.281 4460.899,510.338 4460.899,340.225 			"/>
			<polygon style="fill:#165E82;" points="4375.113,425.281 4289.327,510.338 4460.899,510.338 			"/>
		</g>
		<g>
			<polygon style="fill:#23789E;" points="4375.113,595.394 4289.327,510.338 4289.327,680.45 			"/>
			<polygon style="fill:#2D89AD;" points="4375.113,595.394 4460.9,510.338 4289.327,510.338 			"/>
			<polygon style="fill:#156693;" points="4375.113,595.394 4460.9,680.45 4460.9,510.338 			"/>
			<polygon style="fill:#165E82;" points="4375.113,595.394 4289.327,680.45 4460.899,680.45 			"/>
		</g>
		<g>
			<polygon style="fill:#23789E;" points="4375.113,765.506 4289.327,680.45 4289.327,850.563 			"/>
			<polygon style="fill:#2D89AD;" points="4375.113,765.506 4460.9,680.45 4289.327,680.45 			"/>
			<polygon style="fill:#156693;" points="4375.113,765.506 4460.899,850.563 4460.899,680.45 			"/>
			<polygon style="fill:#165E82;" points="4375.113,765.506 4289.327,850.563 4460.899,850.563 			"/>
		</g>
		<g>
			<polygon style="fill:#23789E;" points="4375.113,935.619 4289.327,850.563 4289.327,1020.675 			"/>
			<polygon style="fill:#2D89AD;" points="4375.113,935.619 4460.9,850.563 4289.327,850.563 			"/>
			<polygon style="fill:#156693;" points="4375.113,935.619 4460.9,1020.675 4460.9,850.563 			"/>
			<polygon style="fill:#165E82;" points="4375.113,935.619 4289.327,1020.675 4460.899,1020.675 			"/>
		</g>
		<g>
			<polygon style="fill:#23789E;" points="4375.113,1105.731 4289.327,1020.675 4289.327,1190.787 			"/>
			<polygon style="fill:#2D89AD;" points="4375.113,1105.731 4460.9,1020.675 4289.327,1020.675 			"/>
			<polygon style="fill:#156693;" points="4375.113,1105.731 4460.9,1190.787 4460.9,1020.675 			"/>
			<polygon style="fill:#165E82;" points="4375.113,1105.731 4289.327,1190.787 4460.9,1190.787 			"/>
		</g>
		<g>
			<polygon style="fill:#23789E;" points="4375.113,1275.844 4289.327,1190.787 4289.327,1360.9 			"/>
			<polygon style="fill:#2D89AD;" points="4375.113,1275.844 4460.9,1190.787 4289.327,1190.787 			"/>
			<polygon style="fill:#156693;" points="4375.113,1275.844 4460.9,1360.9 4460.9,1190.787 			"/>
			<polygon style="fill:#165E82;" points="4375.113,1275.844 4289.327,1360.9 4460.9,1360.9 			"/>
		</g>
	</g>
</g>
</svg>
