<svg clip-rule="evenodd" fill-rule="evenodd" stroke-linejoin="round" stroke-miterlimit="2" viewBox="0 0 510 510" xmlns="http://www.w3.org/2000/svg"><path d="m24.049 58.803h250.833c2.631 0 4.901.942 6.761 2.801l45.515 45.516c1.86 1.859 2.801 4.129 2.801 6.761v344.255c0 5.264-4.298 9.537-9.537 9.537h-296.373c-5.264 0-9.562-4.273-9.562-9.537v-389.771c0-5.264 4.298-9.562 9.562-9.562z" fill="#eceff1"/><path d="m278.842 59.624v45.516c0 2.632 2.149 4.781 4.781 4.781h45.515c-.458-1.014-1.134-1.956-1.98-2.801l-45.515-45.516c-.846-.845-1.787-1.497-2.801-1.98z" fill="#a79ba7"/><path d="m24.049 58.803h9.538v408.87h-9.538c-5.264 0-9.562-4.273-9.562-9.537v-389.771c0-5.264 4.298-9.562 9.562-9.562z" fill="#d1d1d6"/><path d="m79.392 163.367h53.32c3.829 0 6.957 3.128 6.957 6.957v53.321c0 3.828-3.128 6.957-6.957 6.957h-53.32c-3.829 0-6.957-3.129-6.957-6.957v-53.321c0-3.829 3.128-6.957 6.957-6.957z" fill="#8ac9fe"/><path d="m123.036 163.367h9.676c3.829 0 6.957 3.128 6.957 6.957v53.321c0 3.828-3.128 6.957-6.957 6.957h-9.676c3.828 0 6.957-3.129 6.957-6.957v-53.321c0-3.829-3.129-6.957-6.957-6.957z" fill="#60b7ff"/><path d="m86.39 201.086c-3.025-3.018-3.03-7.923-.011-10.948 3.018-3.024 7.923-3.029 10.948-.011 0 0 5.612 5.601 5.612 5.601l11.264-13.93c2.686-3.322 7.565-3.839 10.887-1.152 3.322 2.686 3.839 7.565 1.152 10.887l-16.668 20.614c-1.38 1.706-3.418 2.746-5.608 2.863-2.191.117-4.328-.701-5.88-2.251z" fill="#eceff1"/><path d="m79.392 259.34h53.32c3.829 0 6.957 3.128 6.957 6.957v53.32c0 3.829-3.128 6.957-6.957 6.957h-53.32c-3.829 0-6.957-3.128-6.957-6.957v-53.32c0-3.829 3.128-6.957 6.957-6.957z" fill="#6cf5c2"/><path d="m123.036 259.34h9.676c3.829 0 6.957 3.128 6.957 6.957v53.32c0 3.829-3.128 6.957-6.957 6.957h-9.676c3.828 0 6.957-3.128 6.957-6.957v-53.32c0-3.829-3.129-6.957-6.957-6.957z" fill="#00e499"/><path d="m86.384 297.054c-3.021-3.022-3.021-7.927 0-10.948 3.021-3.022 7.927-3.022 10.948 0 0 0 5.612 5.612 5.612 5.612l11.259-13.924c2.686-3.322 7.565-3.838 10.887-1.152s3.839 7.565 1.152 10.887l-16.668 20.614c-1.38 1.707-3.42 2.748-5.612 2.863-2.192.116-4.33-.704-5.882-2.256z" fill="#eceff1"/><path d="m79.392 355.312h53.32c3.829 0 6.957 3.152 6.957 6.981v53.32c0 3.829-3.128 6.957-6.957 6.957h-53.32c-3.829 0-6.957-3.128-6.957-6.957v-53.32c0-3.829 3.128-6.981 6.957-6.981z" fill="#ffe177"/><path d="m123.036 355.312h9.676c3.829 0 6.957 3.152 6.957 6.981v53.32c0 3.829-3.128 6.957-6.957 6.957h-9.676c3.828 0 6.957-3.128 6.957-6.957v-53.32c0-3.829-3.129-6.981-6.957-6.981z" fill="#ffd064"/><path d="m86.39 393.055c-3.025-3.018-3.03-7.924-.011-10.948 3.018-3.024 7.923-3.029 10.948-.011 0 0 5.612 5.601 5.612 5.601l11.264-13.93c2.686-3.323 7.565-3.839 10.887-1.152 3.322 2.686 3.839 7.565 1.152 10.887l-16.668 20.614c-1.38 1.706-3.418 2.746-5.608 2.863-2.191.116-4.328-.702-5.88-2.251z" fill="#eceff1"/><g fill="#a79ba7"><path d="m182.158 190.929c-4.273 0-7.742-3.469-7.742-7.742 0-4.272 3.469-7.741 7.742-7.741h87.288c4.273 0 7.741 3.469 7.741 7.741 0 4.273-3.468 7.742-7.741 7.742z"/><path d="m182.158 218.523c-4.273 0-7.742-3.469-7.742-7.742 0-4.272 3.469-7.741 7.742-7.741h56.822c4.273 0 7.742 3.469 7.742 7.741 0 4.273-3.469 7.742-7.742 7.742z"/><path d="m182.158 286.901c-4.273 0-7.742-3.469-7.742-7.741 0-4.273 3.469-7.742 7.742-7.742h87.288c4.273 0 7.741 3.469 7.741 7.742 0 4.272-3.468 7.741-7.741 7.741z"/><path d="m182.158 314.495c-4.273 0-7.742-3.468-7.742-7.741s3.469-7.741 7.742-7.741h56.822c4.273 0 7.742 3.468 7.742 7.741s-3.469 7.741-7.742 7.741z"/><path d="m182.158 382.897c-4.273 0-7.742-3.469-7.742-7.741 0-4.273 3.469-7.742 7.742-7.742h87.288c4.273 0 7.741 3.469 7.741 7.742 0 4.272-3.468 7.741-7.741 7.741z"/><path d="m182.158 410.491c-4.273 0-7.742-3.468-7.742-7.741s3.469-7.741 7.742-7.741h56.822c4.273 0 7.742 3.468 7.742 7.741s-3.469 7.741-7.742 7.741z"/><path d="m72.435 117.624c-4.273 0-7.742-3.469-7.742-7.741 0-4.273 3.469-7.742 7.742-7.742h150.904c4.273 0 7.741 3.469 7.741 7.742 0 4.272-3.468 7.741-7.741 7.741z"/></g><path d="m451.404 147.71-42.476 35.225 22.783 52.898c.728 1.69 3.063 1.868 4.038.289l14.707-23.689 27.315 5.589c1.826.371 3.296-1.442 2.568-3.145z" fill="#fe646f"/><path d="m451.404 147.71-5.617 4.656 26.93 62.511c.316.742.22 1.497-.137 2.088l5.191 1.057c1.826.371 3.296-1.442 2.568-3.145zm-21.08 84.896 1.387 3.227c.728 1.69 3.063 1.868 4.038.289l14.707-23.689-6.756-1.387z" fill="#fd4755"/><path d="m388.741 180.202-30.542 65.601c-.782 1.676-3.117 1.786-4.051.179l-14.007-24.101-27.479 4.793c-1.827.315-3.241-1.538-2.459-3.214l30.199-64.887z" fill="#fe646f"/><path d="m388.741 180.202-30.542 65.601c-.782 1.676-3.117 1.786-4.051.179l-14.007-24.101-27.479 4.793c-1.827.315-3.241-1.538-2.459-3.214l1.854-3.996 24.225-4.23 14.007 24.115c.934 1.593 3.269 1.497 4.052-.179l28.646-61.536z" fill="#fd4755"/><path d="m406.855 18.526c18.264 13.664 14.131 12.153 36.9 13.43 8.748.481 15.861 6.441 17.852 14.969 1.896 8.061 2.816 18.224 8.968 23.991l10.67 10.025c6.386 5.988 7.993 15.12 4.038 22.948-10.286 20.352-9.517 16.012-6.812 38.658 1.044 8.706-3.598 16.74-11.659 20.187-20.97 8.981-17.592 6.152-30.075 25.241-4.792 7.333-13.513 10.505-21.89 7.965-21.849-6.592-17.44-6.592-39.276 0-8.377 2.54-17.097-.632-21.89-7.965-12.483-19.089-9.118-16.26-30.088-25.241-8.048-3.447-12.689-11.481-11.646-20.187 2.706-22.646 3.475-18.306-6.811-38.658-3.955-7.828-2.348-16.96 4.037-22.948 16.631-15.614 14.434-11.796 19.638-34.016 1.992-8.528 9.105-14.488 17.853-14.969 22.769-1.277 18.635.234 36.886-13.43 7.018-5.26 16.301-5.26 23.305 0z" fill="#ffe177"/><path d="m406.855 18.526c18.264 13.664 14.131 12.153 36.9 13.43 8.748.481 15.861 6.441 17.852 14.969 1.896 8.061 2.816 18.224 8.968 23.991l10.67 10.025c6.386 5.988 7.993 15.12 4.038 22.948-10.286 20.352-9.517 16.012-6.812 38.658 1.044 8.706-3.598 16.74-11.659 20.187-20.97 8.981-17.592 6.152-30.075 25.241-4.655 7.113-13.005 10.313-21.148 8.171 4.463-1.195 8.445-4.01 11.165-8.171 12.483-19.089 9.104-16.26 30.074-25.241 8.062-3.447 12.689-11.481 11.66-20.187-2.72-22.646-3.475-18.306 6.811-38.658 3.955-7.828 2.348-16.96-4.051-22.948l-10.671-10.025c-6.138-5.767-7.072-15.93-8.953-23.991-2.005-8.528-9.105-14.488-17.853-14.969-22.783-1.277-18.635.234-36.9-13.43-2.06-1.552-4.312-2.637-6.66-3.269 5.616-1.538 11.7-.439 16.644 3.269zm-16.644 173.102c-3.337.769-7.636 2.197-14.64 4.312-3.625 1.098-7.319 1.126-10.725.206.247-.055.495-.124.742-.206 14.831-4.477 17.564-5.919 24.623-4.312z" fill="#ffd064"/><path d="m395.209 160.111c29.979 0 54.423-24.445 54.423-54.423 0-29.965-24.444-54.41-54.423-54.41-29.978 0-54.423 24.445-54.423 54.41 0 29.978 24.445 54.423 54.423 54.423z" fill="#eceff1"/><path d="m395.209 51.278c1.47 0 2.912.055 4.354.165-28.029 2.225-50.084 25.667-50.084 54.258 0 28.578 22.055 52.02 50.084 54.245-1.442.11-2.884.165-4.354.165-30.061 0-54.423-24.362-54.423-54.41 0-30.061 24.362-54.423 54.423-54.423z" fill="#d1d1d6"/><path d="m383.874 368.155c-4.918 7.036-10.707 13.406-17.214 18.973l46.827 45.905 17.829-18.376z" fill="#a79ba7"/><path d="m384.199 367.847c-.922 3.023-2.647 5.311-5.106 6.831l46.52 46.23 5.703-6.251z" fill="#837683"/><path d="m472.798 492.634 20.118-20.749c3.535-3.638 3.45-9.512-.188-13.048l-55.742-54.085c-3.637-3.535-9.512-3.432-13.047.205l-20.118 20.733c-3.535 3.637-3.449 9.512.188 13.047l55.742 54.085c3.638 3.535 9.512 3.45 13.047-.188z" fill="#f1ba84"/><path d="m428.738 404.752 55.742 54.085c3.637 3.536 3.723 9.41.187 13.048l-20.117 20.749c-.752.752-1.588 1.367-2.494 1.811 3.501 1.742 7.873 1.127 10.742-1.811l20.118-20.749c3.535-3.638 3.45-9.512-.188-13.048l-55.742-54.085c-2.869-2.783-7.138-3.313-10.554-1.622.837.41 1.606.956 2.306 1.622z" fill="#e3a76f"/><path d="m307.827 215.582c56.049 0 101.493 45.427 101.493 101.493 0 56.049-45.444 101.493-101.493 101.493-56.066 0-101.493-45.444-101.493-101.493 0-56.066 45.427-101.493 101.493-101.493z" fill="#8ac9fe"/><path d="m307.827 215.582c56.049 0 101.493 45.427 101.493 101.493 0 56.049-45.444 101.493-101.493 101.493-1.656 0-3.296-.051-4.935-.119 53.761-2.579 96.574-46.981 96.574-101.374 0-54.41-42.813-98.812-96.574-101.374 1.639-.085 3.279-.119 4.935-.119z" fill="#60b7ff"/><path d="m307.827 238.756c43.241 0 78.319 35.061 78.319 78.319 0 43.241-35.078 78.319-78.319 78.319-43.258 0-78.318-35.078-78.318-78.319 0-43.258 35.06-78.319 78.318-78.319z" fill="#eceff1"/><path d="m307.827 238.756c1.776 0 3.535.052 5.294.171-40.798 2.733-73.024 36.666-73.024 78.148 0 41.465 32.226 75.415 73.024 78.131-1.759.119-3.518.188-5.294.188-43.258 0-78.318-35.061-78.318-78.319s35.06-78.319 78.318-78.319z" fill="#d1d1d6"/><path d="m359.606 115.263c-3.124-3.12-3.129-8.189-.009-11.314 3.119-3.125 8.189-3.129 11.313-.01 0 0 11.517 11.498 11.517 11.498l35.434-32.127c3.271-2.966 8.334-2.718 11.3.553s2.718 8.334-.553 11.3l-41.072 37.24c-3.159 2.864-8.009 2.747-11.026-.265z" fill="#8ac9fe"/></svg>