<svg id="Icon_Set" enable-background="new 0 0 64 64" viewBox="0 0 64 64" xmlns="http://www.w3.org/2000/svg"><g id="_x32_-way_Communication"><g><path d="m37.5 32c0-6.1 4-11.3 9.5-13.2-3.7-4.1-9-6.8-15-6.8s-11.3 2.6-15 6.8c5.5 1.9 9.5 7.1 9.5 13.2s-4 11.3-9.5 13.2c3.7 4.1 9 6.8 15 6.8s11.3-2.6 15-6.8c-5.5-1.9-9.5-7.1-9.5-13.2z" fill="#64b5f6"/><g stroke="#37474f" stroke-linecap="round" stroke-linejoin="round" stroke-miterlimit="10"><path d="m46.9 18.7c-3.7-4.1-9-6.7-14.9-6.7s-11.2 2.6-14.9 6.7" fill="none"/><path d="m17.1 45.3c3.7 4.1 9 6.7 14.9 6.7s11.2-2.6 14.9-6.7" fill="none"/><path d="m17.1 18.7c3.7 2 9 3.3 14.9 3.3s11.2-1.3 14.9-3.3" fill="none"/><path d="m46.9 45.3c-3.7-2-9-3.3-14.9-3.3s-11.2 1.3-14.9 3.3" fill="none"/><path d="m32 12v40" fill="none"/><path d="m26.5 32h11" fill="none"/><circle cx="51.5" cy="32" fill="none" r="12"/><path d="m58 34.8-4-1.8-2.5 3.5-2.5-3.5-4 1.8c-.9.4-1.5 1.3-1.5 2.3v3.8c2.1 1.9 4.9 3.1 8 3.1 3.1 0 5.9-1.2 8-3.1v-3.8c0-1-.6-1.9-1.5-2.3z" fill="#ef5350"/><path d="m51.5 36.5v5" fill="none"/><circle cx="51.5" cy="27.5" fill="none" r="5"/><path d="m55 24.6.4-.3c-.9-1.1-2.3-1.8-3.8-1.8-2.8 0-5 2.2-5 5h.4c2.9 0 5.7-1 8-2.9z" fill="none"/><path d="m51.5 32.5c-.9 0-1.8-.3-2.5-.7v1.2l2.5 3.5 2.5-3.5v-1.2c-.7.4-1.6.7-2.5.7z" fill="none"/><circle cx="12.5" cy="32" fill="none" r="12"/><path d="m42.5 21.3c-2.2-5.6-6.1-9.3-10.5-9.3s-8.3 3.7-10.5 9.3" fill="none"/><path d="m21.5 42.7c2.2 5.6 6.1 9.3 10.5 9.3s8.3-3.7 10.5-9.3" fill="none"/><path d="m19 34.8-4-1.8-2.5 3.5-2.5-3.5-4 1.8c-.9.4-1.5 1.3-1.5 2.3v3.8c2.1 1.9 4.9 3.1 8 3.1 3.1 0 5.9-1.2 8-3.1v-3.8c0-1-.6-1.9-1.5-2.3z" fill="#ffca28"/><path d="m12.5 36.5v5" fill="none"/><circle cx="12.5" cy="27.5" fill="none" r="5"/><path d="m16 24.6.4-.3c-.9-1.1-2.3-1.8-3.8-1.8-2.8 0-5 2.2-5 5h.4c2.9 0 5.7-1 8-2.9z" fill="none"/><path d="m12.5 32.5c-.9 0-1.8-.3-2.5-.7v1.2l2.5 3.5 2.5-3.5v-1.2c-.7.4-1.6.7-2.5.7z" fill="none"/><path d="m51.8 51.8c-10.9 10.9-28.7 10.9-39.6 0" fill="none"/><path d="m23.7 5.3c9.6-3 20.5-.7 28.1 6.9" fill="none"/><path d="m17.8 7.9c.9-.5 1.8-1 2.8-1.4" fill="none"/><path d="m12.2 12.2c1-1 2-1.8 3-2.6" fill="none"/><path d="m51.8 8v4.2h-4.2" fill="none"/><path d="m12.2 56v-4.2h4.2" fill="none"/></g></g></g></svg>