<svg clip-rule="evenodd" fill-rule="evenodd" height="512" image-rendering="optimizeQuality" shape-rendering="geometricPrecision" text-rendering="geometricPrecision" viewBox="0 0 1.70666 1.70666" width="512" xmlns="http://www.w3.org/2000/svg"><g id="Layer_x0020_1"><path d="m1.35884 1.57286h-.320079c-.0221535 0-.0400945-.0179449-.0400945-.0400945 0-.0221535.0179409-.0400984.0400945-.0400984h.320079c.0221535 0 .0400984.0179449.0400984.0400984 0 .0221496-.0179488.0400945-.0400984.0400945zm-.690933 0h-.320091c-.0221535 0-.0400945-.0179449-.0400945-.0400945 0-.0221535.0179409-.0400984.0400945-.0400984h.320091c.0221535 0 .0400984.0179449.0400984.0400984 0 .0221496-.0179606.0400945-.0400984.0400945z" fill="#298cdd"/><path d="m.853327 1.70461c-.12376 0-.224429-.078563-.224429-.175122 0-.0707717.0536339-.13413.136638-.161358.0178583-.00588189.0373976.00153937.046878.017748l.0380827.0650669.0396024-.0666575c.00940945-.0158228.0283858-.0231102.0459724-.0177638.0860827.0263425.141697.090315.141697.162965 0 .0965591-.100681.175122-.224441.175122z" fill="#2e9cf5"/><path d="m.697055 1.40337c.0194646-.0146929.0425394-.0267323.0684803-.0352441.0178583-.00588189.0373976.00153937.046878.017748l.0380827.0650669.0396024-.0666575c.00940945-.0158228.0283858-.0231102.0459724-.0177638.0265748.00812992.0502362.0198583.0702677.0343071l-.098685.166075c-.0120394.0202598-.0338661.032685-.0574331.032685-.00005512 0-.00011024 0-.00016142 0-.023685-.0000315-.0455472-.0126339-.0575039-.033063l-.0955-.163154z" fill="#298cdd"/><path d="m.85022 1.57286c-.00004331 0-.00008268 0-.00012598 0-.0142008-.00003937-.0272992-.00758661-.0344724-.0198346l-.265224-.453122c-.178961-.106646-.289657-.300807-.289657-.509382-.00001181-.326748.265831-.592583.592587-.592583.32676 0 .592594.265839.592594.592583 0 .210181-.111992.405087-.293028.511346l-.26822.451382c-.00720472.0121654-.0203189.0196102-.0344528.0196102z" fill="#fcbe37"/><path d="m.853327 1.06078c-.259307 0-.470264-.210957-.470264-.470252 0-.259299.210957-.470264.470264-.470264.259303 0 .470264.210965.470264.470264.00000394.259295-.210953.470252-.470264.470252z" fill="#fcab32"/><path d="m.693169.181173c-.163409.0641575-.279402.223469-.279402.409358 0 .185886.115992.345197.279402.40935v-.818709z" fill="#fe5022"/><path d="m.693169.735409v.264472c.0496496.0194921.103673.0301969.160157.0301969.191638 0 .355024-.123264.415031-.294669h-.575189z" fill="#4d4d4d"/><path d="m.693169.44565v.28976h.575189c.0158898-.0453819.0245276-.0941417.0245276-.144878 0-.0507402-.00864173-.0995-.0245315-.144882h-.575185z" fill="#f1f1f1"/><path d="m.693169.181173v.264476h.575185c-.0600118-.171406-.223398-.294677-.415028-.294677-.0564843 0-.110508.0107087-.160157.0302008z" fill="#378b4e"/></g></svg>