<svg id="Capa_1" enable-background="new 0 0 512 512" height="512" viewBox="0 0 512 512" width="512" xmlns="http://www.w3.org/2000/svg"><g><circle cx="256" cy="256" fill="#31446c" r="256"/><g><path d="m35.993 314.039c-2.862 0-5.703-1.222-7.681-3.591-3.54-4.239-2.973-10.545 1.266-14.085 13.839-11.557 31.405-17.921 49.461-17.921h3.255c5.523 0 10 4.477 10 10s-4.477 10-10 10h-3.255c-13.379 0-26.392 4.714-36.642 13.273-1.87 1.561-4.144 2.324-6.404 2.324z" fill="#da4a54"/><path d="m478.492 208.239c-2.484 0-4.972-.919-6.908-2.771-3.993-3.816-4.136-10.146-.319-14.139 9.943-10.404 15.567-24.052 15.836-38.43.102-5.458 4.559-9.813 9.994-9.813.063 0 .127 0 .19.002 5.521.103 9.915 4.663 9.812 10.185-.361 19.41-7.952 37.834-21.375 51.876-1.964 2.055-4.595 3.09-7.23 3.09z" fill="#da4a54"/><path d="m469.42 256c0 97.432-49.665 180.442-136.199 211.965-24.087 8.784-50.095 13.577-77.222 13.577-44.597 0-86.173-12.951-121.176-35.285-62.754-40.051-87.065-110.295-87.065-190.257 0-63.46 8.919-120.806 51.102-161.791 40.625-39.452 96.041-63.751 157.14-63.751s116.515 24.299 157.139 63.751c42.184 40.985 56.281 98.331 56.281 161.791z" fill="#90d8f9"/><path d="m208.222 446.257c25.188 16.07 53.786 27.285 84.455 32.307-11.938 1.965-24.184 2.978-36.677 2.978-44.597 0-86.173-12.951-121.176-35.285-62.755-40.051-92.83-110.295-92.83-190.257 0-63.46 14.683-120.806 56.866-161.791 40.625-39.452 96.041-63.751 157.14-63.751 12.502 0 24.757 1.013 36.703 2.978-46.456 7.595-88.129 29.391-120.445 60.773-42.183 40.985-68.402 98.331-68.402 161.791 0 79.962 41.611 150.206 104.366 190.257z" fill="#6bbef6"/><path d="m213.358 346.463c0 8.978-3.639 17.11-9.524 22.995s-14.017 9.524-22.995 9.524h-14.942c-13.594 0-24.616 11.013-24.616 24.607v17.902c0 8.995-2.344 17.445-6.458 24.766-62.754-40.051-104.365-110.295-104.365-190.257 0-63.46 26.219-120.806 68.403-161.791h67.918c16.986 0 30.757 13.77 30.757 30.765 0 8.493-3.445 16.184-9.004 21.744-5.568 5.568-13.259 9.013-21.752 9.013h-41.311c-13.594 0-24.616 11.022-24.616 24.616 0 6.793 2.758 12.942 7.207 17.4 4.458 4.449 10.607 7.207 17.409 7.207h9.665c16.017 0 29.003 12.986 29.003 29.003 0 8.009-3.251 15.259-8.493 20.51-5.251 5.251-12.502 8.493-20.51 8.493h-21.092c-14.079 0-25.488 11.409-25.488 25.488 0 7.039 2.854 13.409 7.462 18.026 4.617 4.608 10.986 7.462 18.026 7.462h66.799c17.954 0 32.517 14.563 32.517 32.527z" fill="#c8ea73"/><path d="m481.542 256c0 97.432-61.786 180.442-148.32 211.965-9.136-5.33-15.268-15.242-15.268-26.58 0-8.493 3.445-16.184 9.004-21.752 5.568-5.568 13.259-9.013 21.752-9.013h19.338c13.594 0 24.607-11.013 24.607-24.607 0-6.793-2.758-12.951-7.207-17.4-4.449-4.458-10.599-7.207-17.4-7.207h-9.665c-16.017 0-29.003-12.986-29.003-29.012 0-8.008 3.251-15.259 8.493-20.51 5.251-5.242 12.502-8.493 20.51-8.493h69.433c14.079 0 25.488-11.409 25.488-25.488 0-7.039-2.854-13.409-7.462-18.026-4.617-4.608-10.986-7.462-18.026-7.462h-115.14c-17.955 0-32.519-14.563-32.519-32.518 0-8.986 3.639-17.109 9.524-22.995 5.885-5.885 14.017-9.524 22.995-9.524h14.942c13.594 0 24.607-11.021 24.607-24.616v-17.902c0-27.972 22.678-50.65 50.659-50.65h10.255c42.184 40.984 68.403 98.33 68.403 161.79z" fill="#c8ea73"/><path d="m100.852 180.346c0 6.793 2.758 12.942 7.207 17.4.863.863 1.788 1.656 2.775 2.388-4.555 17.867-6.978 36.58-6.978 55.866 0 3.013.062 6.009.185 8.995-9.11 3.885-15.488 12.925-15.488 23.453 0 7.039 2.854 13.409 7.462 18.026 4.018 4.008 9.357 6.687 15.312 7.312 7.18 27.162 19.294 52.315 35.347 74.438-3.374 4.202-5.392 9.55-5.392 15.365v17.902c0 8.995-2.344 17.445-6.458 24.766-62.755-40.051-104.366-110.295-104.366-190.257 0-63.46 26.219-120.806 68.403-161.791h67.918c1.718 0 3.41.141 5.057.414-18.061 17.629-33.162 38.272-44.509 61.108h-1.859c-13.595 0-24.616 11.021-24.616 24.615z" fill="#aad880"/><g fill="#da4a54"><path d="m486.287 125.205c-3.271 0-6.476-1.602-8.392-4.547-7.871-12.098-19.861-20.719-33.761-24.275-5.351-1.369-8.578-6.816-7.209-12.167 1.369-5.35 6.817-8.579 12.166-7.209 18.771 4.803 34.954 16.432 45.567 32.744 3.012 4.629 1.701 10.824-2.928 13.835-1.682 1.096-3.574 1.619-5.443 1.619z"/><path d="m406.795 94.6h-50c-5.522 0-10-4.477-10-10s4.478-10 10-10h50c5.522 0 10 4.477 10 10s-4.478 10-10 10z"/><path d="m316.795 94.6h-50c-5.522 0-10-4.477-10-10s4.478-10 10-10h50c5.522 0 10 4.477 10 10s-4.478 10-10 10z"/><path d="m226.795 94.6h-50c-5.523 0-10-4.477-10-10s4.477-10 10-10h50c5.523 0 10 4.477 10 10s-4.477 10-10 10z"/><path d="m354.559 432.856h-39.999c-5.522 0-10-4.477-10-10s4.478-10 10-10h39.999c5.522 0 10 4.477 10 10s-4.478 10-10 10z"/><path d="m274.56 432.856h-50c-5.523 0-10-4.477-10-10s4.477-10 10-10h50c5.522 0 10 4.477 10 10s-4.478 10-10 10z"/><path d="m184.56 432.856h-50c-5.523 0-10-4.477-10-10s4.477-10 10-10h50c5.523 0 10 4.477 10 10s-4.477 10-10 10z"/><path d="m94.56 432.856h-15.521c-13.283 0-26.386-3.432-37.894-9.926-4.81-2.714-6.509-8.813-3.794-13.624 2.714-4.809 8.811-6.51 13.624-3.794 8.514 4.804 18.219 7.344 28.065 7.344h15.52c5.523 0 10 4.477 10 10s-4.477 10-10 10z"/><path d="m18.902 395.676c-3.668 0-7.199-2.025-8.952-5.529-5.387-10.771-8.119-22.377-8.119-34.497 0-7.265 1.01-14.458 3.001-21.382 1.527-5.308 7.071-8.37 12.375-6.846 5.308 1.527 8.373 7.067 6.846 12.375-1.475 5.125-2.222 10.458-2.222 15.852 0 8.986 2.021 17.583 6.007 25.551 2.47 4.939.469 10.946-4.471 13.417-1.435.718-2.961 1.059-4.465 1.059z"/></g><g><path d="m395.994 300.096c-23.429-23.429-61.414-23.429-84.842 0-23.429 23.429-23.429 61.414 0 84.842l42.421 42.421 42.421-42.421c23.429-23.429 23.429-61.414 0-84.842z" fill="#31446c"/><circle cx="353.573" cy="342.517" fill="#f9f6f9" r="32.304"/></g><g><path d="m162.031 8.51h-123.107c-11.277 0-20.419 9.142-20.419 20.419v79.235c0 11.277 9.142 20.419 20.419 20.419h123.107c11.277 0 20.419-9.142 20.419-20.419v-79.234c0-11.277-9.142-20.42-20.419-20.42z" fill="#ffc250"/><path d="m59.034 128.58h-20.11c-11.28 0-20.42-9.14-20.42-20.42v-79.23c0-11.28 9.14-20.42 20.42-20.42h20.11c-11.28 0-20.42 9.14-20.42 20.42v79.23c0 11.28 9.14 20.42 20.42 20.42z" fill="#ebb044"/><path d="m67.616 8.51v52.943c0 6.05 4.904 10.954 10.954 10.954s10.954-4.904 10.954-10.954c0 6.05 4.904 10.954 10.954 10.954 6.05 0 10.954-4.904 10.954-10.954 0 6.05 4.904 10.954 10.954 10.954 6.05 0 10.954-4.904 10.954-10.954v-52.943z" fill="#f9f6f9"/></g></g></g></svg>